<svg width="16" height="16" fill="none" xmlns="http://www.w3.org/2000/svg"><circle cx="8" cy="8" r="8" fill="url(#paint0_linear_418_752)"/><path d="M7.615 11.862a.193.193 0 01-.141-.061L3.666 7.682a.192.192 0 01.142-.323H5.64a.192.192 0 01.146.066L7.058 8.89a7.29 7.29 0 01.87-1.38c.692-.881 1.976-2.178 4.174-3.349a.192.192 0 01.208.322c-.008.006-.855.674-1.83 1.896-.898 1.125-2.091 2.964-2.678 5.338a.192.192 0 01-.187.146z" fill="#fff"/><defs><linearGradient id="paint0_linear_418_752" x1="8" y1="0" x2="8" y2="16" gradientUnits="userSpaceOnUse"><stop stop-color="#46EDA2"/><stop offset="0" stop-color="#46EDA2"/><stop offset="1" stop-color="#15201B"/></linearGradient></defs></svg>