<svg width="1440" height="662" fill="none" xmlns="http://www.w3.org/2000/svg"><g opacity=".15" stroke-width=".5" stroke-miterlimit="10"><path d="M709.065 659.619c11.894-36.998 26.107-73.475 42.53-109.193 7.308-15.877 15.285-31.951 28.073-44.656 32.661-32.48 85.688-33.647 130.389-26.738 41.168 6.36 81.153 17.393 118.843 32.806 37.35 15.27 73.13 35.022 113.88 41.421 40.77 6.394 89.51-4.233 114.19-37.641 14.69-19.884 18.64-45.009 15.17-67.9-3.48-22.905-13.77-43.949-25.44-63.797-13.37-22.732-29.15-45.726-29.43-72.453-.3-27.669 18.03-56.023 44.88-69.426 38.21-19.062 82.4-7.317 123.15-.345 51.77 8.851 108.03 8.607 157.56-13.547 49.53-22.135 90.08-70.057 88.85-120.018" stroke="#fff"/><path d="M717.829 667.113c11.646-36.378 25.752-72.213 42.117-107.204 7.281-15.551 15.235-31.286 27.788-43.781 25.218-25.092 62.53-31.687 98.621-30.476 9.828.32 19.578 1.227 28.964 2.485 40.363 5.437 79.674 15.497 116.851 29.843 36.84 14.223 72.13 33.047 112.29 38.863 22.51 3.259 47.24 1.895 69.45-5.198 19.35-6.185 36.85-16.886 48.92-32.764a78.63 78.63 0 005.83-8.815c10.66-18.738 13.19-40.739 10.3-61.144-.94-6.552-2.38-12.969-4.21-19.267-4.78-16.424-12.14-32.065-20.01-47.087-12.47-23.85-26.19-47.893-25.4-74.976.79-26.903 18.28-54.331 44.45-67.545 37.23-18.794 80.17-8.223 119.67-2.363 3.11.459 6.25.888 9.38 1.277 47.49 5.895 97.8 3.275 142.1-17.672 47.24-22.339 85.52-69.204 83.58-117.751" stroke="#F9F9F9"/><path d="M726.571 674.606c11.413-35.767 25.387-70.941 41.717-105.231 7.249-15.24 15.2-30.631 27.519-42.917 24.748-24.673 61.125-31.66 96.39-31.123 9.61.133 19.152.835 28.359 1.877 39.565 4.527 78.212 13.596 114.864 26.884 36.32 13.178 71.15 31.037 110.68 36.316 23.26 3.106 48.69 1.822 71.69-5.217 19.98-6.128 38.26-16.886 50.88-33.055 2.26-2.89 4.3-5.908 6.13-9.037 11.22-19.229 13.77-41.889 10.97-63.013-.9-6.778-2.31-13.419-4.09-19.921-4.62-16.985-11.61-33.314-18.92-48.994-11.54-24.964-23.27-50.024-21.38-77.522 1.8-26.106 18.51-52.652 43.99-65.677 36.26-18.527 77.97-9.131 116.21-4.381 3.01.375 6.05.708 9.08 1.015 45.94 4.598 94.18.882 136.35-20.256 44.95-22.526 80.96-68.359 78.31-115.495" stroke="#F4F4F4"/><path d="M735.291 682.093c11.185-35.143 25.037-69.674 41.304-103.253 7.236-14.921 15.15-29.969 27.254-42.038 24.298-24.248 59.72-31.635 94.177-31.764 9.413-.046 18.742.437 27.77 1.262 38.761 3.605 76.744 11.683 112.874 23.925 35.8 12.132 70.2 29.004 109.1 33.762 24.02 2.935 50.12 1.751 73.91-5.229 20.61-6.07 39.67-16.905 52.84-33.366a79.06 79.06 0 006.41-9.239c11.77-19.728 14.34-43.035 11.64-64.879-.86-6.989-2.24-13.855-3.95-20.579-4.48-17.559-11.1-34.546-17.83-50.902-10.64-26.088-20.38-52.101-17.36-80.056 2.73-25.282 18.75-50.96 43.56-63.803 35.29-18.26 75.75-10.038 112.74-6.399 2.91.292 5.84.548 8.79.752 44.39 3.283 90.56-1.531 130.57-22.847 42.66-22.714 76.39-67.508 73.03-113.235" stroke="#EEE"/><path d="M744.031 689.591c10.938-34.527 24.683-68.42 40.901-101.292 7.204-14.611 15.106-29.295 26.97-41.167 23.833-23.817 58.315-31.609 91.965-32.404 9.195-.234 18.331.038 27.165.652 37.962 2.694 75.278 9.781 110.888 20.964 35.26 11.091 69.24 26.942 107.49 31.213 24.78 2.762 51.56 1.665 76.14-5.241 21.24-6.001 41.07-16.907 54.79-33.672 2.46-3 4.71-6.156 6.7-9.442 12.32-20.232 14.91-44.2 12.29-66.757-.84-7.209-2.17-14.292-3.83-21.234-4.3-18.125-10.57-35.777-16.75-52.804-9.74-27.21-17.53-54.134-13.35-82.585 3.6-24.447 18.99-49.285 43.1-61.921 34.33-17.993 73.54-10.959 109.28-8.419 2.81.197 5.65.369 8.48.496 42.84 1.986 86.96-3.932 124.82-25.434 40.36-22.901 71.83-66.662 67.76-110.978" stroke="#E9E9E9"/><path d="M752.773 697.091c10.704-33.916 24.332-67.151 40.501-99.317 7.177-14.286 15.057-28.632 26.705-40.288 23.384-23.39 56.91-31.583 89.753-33.045 8.978-.42 17.906-.354 26.565.056 37.16 1.771 73.803 7.885 108.883 18.008 34.74 10.031 68.29 24.86 105.89 28.648 25.53 2.578 53 1.594 78.35-5.253 21.88-5.944 42.48-16.907 56.77-33.969a82.978 82.978 0 007-9.651c12.88-20.723 15.48-45.345 12.97-68.628-.81-7.42-2.11-14.741-3.69-21.893-4.15-18.686-10.1-37.011-15.67-54.726-8.9-28.311-14.71-56.15-9.33-85.119 4.4-23.585 19.23-47.592 42.65-60.052 33.35-17.726 71.32-11.867 105.81-10.439 2.71.113 5.45.189 8.18.233 41.29.688 83.35-6.348 119.05-28.028 38.09-23.095 67.25-65.824 62.49-108.721" stroke="#E3E3E3"/><path d="M761.514 704.593c10.472-33.304 23.978-65.895 40.088-97.335 7.15-13.961 15.008-27.97 26.437-39.421 22.919-22.958 55.504-31.557 87.535-33.7 8.775-.613 17.494-.752 25.975-.559 36.36.86 72.341 5.981 106.891 15.031 34.22 8.983 67.35 22.759 104.29 26.09 26.31 2.387 54.46 1.516 80.58-5.265 22.52-5.873 43.88-16.908 58.74-34.279a85.83 85.83 0 007.29-9.854c13.42-21.223 16.06-46.497 13.63-70.495-.78-7.644-2.04-15.177-3.57-22.546-4.01-19.26-9.58-38.242-14.58-56.635-8-29.446-11.95-58.131-5.3-87.653 5.11-22.72 19.46-45.91 42.21-58.174 32.38-17.459 69.1-12.776 102.34-12.474 2.61.031 5.24.01 7.87-.023 39.75-.63 79.73-8.752 113.29-30.618 35.79-23.296 62.69-64.976 57.21-106.462" stroke="#DEDEDE"/><path d="M770.252 712.084c10.224-32.686 23.628-64.625 39.689-95.357 7.133-13.655 14.959-27.307 26.167-38.554 22.469-22.531 54.114-31.536 85.323-34.341 8.557-.8 17.074-1.132 25.37-1.169a455.586 455.586 0 01104.909 12.065c33.69 7.936 66.4 20.626 102.68 23.538 27.09 2.177 55.9 1.444 82.81-5.278 23.15-5.816 45.29-16.926 60.68-34.57a85.93 85.93 0 007.58-10.058c13.99-21.713 16.62-47.655 14.3-72.36-.75-7.87-1.97-15.614-3.44-23.205-3.83-19.827-9.07-39.488-13.49-58.545-7.09-30.569-9.23-60.096-1.27-90.188 5.77-21.846 19.71-44.219 41.76-56.289 31.39-17.186 66.89-13.685 98.87-14.496 2.51-.066 5.05-.156 7.58-.286 38.19-1.929 76.11-11.17 107.52-33.215 33.49-23.484 58.11-64.124 51.92-104.197" stroke="#D8D8D8"/><path d="M778.979 719.595c9.992-32.074 23.275-63.367 39.273-93.386 7.105-13.33 14.909-26.643 25.888-37.668 22.019-22.104 52.713-31.45 83.096-34.976 8.344-.975 16.662-1.532 24.779-1.785a446.474 446.474 0 01102.915 9.099c33.18 6.887 65.48 18.472 101.1 20.977 27.85 1.974 57.34 1.359 85.03-5.29 23.78-5.745 46.69-16.926 62.65-34.88a88.497 88.497 0 007.88-10.266c14.52-22.212 17.2-48.808 14.97-74.232-.71-8.082-1.9-16.051-3.32-23.86-3.68-20.401-8.55-40.719-12.41-60.448-6.19-31.693-6.57-62.039 2.75-92.736 6.36-20.962 19.94-42.536 41.3-54.417 30.42-16.919 64.68-14.594 95.41-16.519 2.41-.149 4.84-.33 7.26-.544 36.65-3.228 72.49-13.569 101.77-35.805 31.2-23.672 53.55-63.276 46.65-101.935" stroke="#D2D2D2"/><path d="M787.722 727.103c9.76-31.461 22.911-62.089 38.875-91.406 7.073-13.018 14.86-25.979 25.618-36.8 21.555-21.671 51.309-31.424 80.883-35.618 8.127-1.161 16.237-1.924 24.175-2.395 33.953-1.902 67.927.258 100.927 6.131 32.65 5.826 64.54 16.305 99.49 18.422 28.65 1.745 58.78 1.287 87.27-5.307 24.42-5.688 48.1-16.927 64.62-35.178a90.249 90.249 0 008.17-10.469c15.08-22.716 17.76-49.967 15.63-76.098-.69-8.301-1.83-16.501-3.18-24.519-3.52-20.962-8.04-41.965-11.32-62.358-5.28-32.816-3.98-63.986 6.77-95.271 6.89-20.082 20.2-40.844 40.87-52.537 29.45-16.65 62.47-15.522 91.94-18.542 2.32-.233 4.64-.511 6.97-.807 35.1-4.534 68.87-15.989 95.99-38.404 28.92-23.866 48.99-62.429 41.38-99.674" stroke="#CDCDCD"/><path d="M796.467 734.612c9.512-30.842 22.556-60.83 38.476-89.425 7.061-12.698 14.811-25.315 25.354-35.918 21.1-21.257 49.908-31.385 78.665-36.273a302.48 302.48 0 0123.584-3.012c33.154-2.815 66.464-1.648 98.944 3.162 32.11 4.783 63.61 14.118 97.89 15.86 29.42 1.51 60.23 1.215 89.5-5.319 25.05-5.617 49.49-16.94 66.57-35.482a89.911 89.911 0 008.46-10.672c15.64-23.208 18.34-51.119 16.29-77.978-.65-8.513-1.77-16.938-3.05-25.179-3.36-21.542-7.5-43.203-10.23-64.267-4.37-33.946-1.45-65.938 10.8-97.806 7.38-19.217 20.42-39.16 40.42-50.65 28.48-16.383 60.25-16.432 88.45-20.562 2.22-.329 4.45-.677 6.66-1.064 33.55-5.847 65.27-18.396 90.24-40.997 26.62-24.067 44.41-61.575 36.09-97.405" stroke="#fff"/><path d="M805.205 742.111c9.28-30.229 22.208-59.558 38.059-87.451 7.035-12.373 14.768-24.638 25.071-35.044 20.636-20.824 48.503-31.358 76.452-36.915a294.754 294.754 0 0122.984-3.61c32.349-3.74 64.999-3.568 96.929.185 31.6 3.733 62.68 11.904 96.29 13.302 30.2 1.255 61.68 1.124 91.72-5.331 25.69-5.559 50.92-16.945 68.54-35.791a89.57 89.57 0 008.76-10.894c16.18-23.707 18.91-52.265 16.96-79.851-.62-8.738-1.69-17.374-2.92-25.833-3.21-22.103-7-44.448-9.14-66.177-3.47-35.069 1.02-67.912 14.81-100.336 7.81-18.361 20.66-37.461 39.96-48.776 27.51-16.115 58.04-17.342 84.99-22.586 2.12-.413 4.25-.857 6.36-1.328 32-7.148 61.65-20.818 84.46-43.598 24.33-24.255 39.85-60.726 30.82-95.141" stroke="#fff"/><path d="M813.95 749.623c9.033-29.609 21.858-58.284 37.662-85.468 7.002-12.06 14.718-23.974 24.801-34.175 20.186-20.396 47.112-31.337 74.239-37.557a297.965 297.965 0 0122.393-4.226c31.555-4.654 63.535-5.477 94.945-2.786 31.07 2.683 61.76 9.695 94.68 10.743 30.99.981 63.12 1.052 93.94-5.343 26.33-5.489 52.32-16.945 70.5-36.082a90.838 90.838 0 009.04-11.098c16.75-24.211 19.49-53.43 17.64-81.717-.59-8.949-1.64-17.824-2.79-26.493-3.05-22.664-6.43-45.684-8.05-68.087-2.49-36.208 3.39-69.912 18.83-102.871 8.2-17.502 20.91-35.78 39.53-46.893 26.54-15.847 55.82-18.253 81.51-24.613 2.03-.496 4.06-1.036 6.06-1.585 30.44-8.45 58.04-23.227 78.7-46.192 22.04-24.443 35.27-59.872 25.55-92.877" stroke="#BCBCBC"/><path d="M822.695 757.137c8.8-28.995 21.504-57.023 37.249-83.479 6.99-11.74 14.67-23.308 24.538-33.292 19.721-19.962 45.706-31.31 72.021-38.213a306.69 306.69 0 0121.787-4.837c30.75-5.567 62.06-7.379 92.95-5.758 30.56 1.633 60.84 7.461 93.09 8.179 31.77.713 64.57.979 96.17-5.355 26.96-5.431 53.73-16.945 72.47-36.392a91.722 91.722 0 009.33-11.301c17.3-24.702 20.05-54.576 18.29-83.584-.56-9.169-1.56-18.261-2.67-27.147-2.9-23.239-5.9-46.936-6.97-69.993-1.57-37.337 5.7-71.941 22.86-105.406 8.56-16.676 21.14-34.093 39.08-45.004 25.57-15.579 53.61-19.164 78.04-26.639a216.29 216.29 0 005.77-1.848c28.9-9.758 54.42-25.65 72.94-48.801 19.75-24.637 30.7-59.023 20.26-90.606" stroke="#B7B7B7"/><path d="M831.426 764.659c8.567-28.381 21.155-55.749 36.852-81.495 6.958-11.427 14.621-22.643 24.254-32.417 19.271-19.533 44.3-31.283 69.793-38.849a308.599 308.599 0 0121.182-5.449c29.943-6.494 60.593-9.288 90.963-8.73 30.03.569 59.91 5.206 91.48 5.618 32.55.413 66.01.894 98.4-5.367 27.58-5.368 55.12-16.958 74.43-36.689 3.51-3.586 6.74-7.415 9.64-11.509 17.84-25.201 20.63-55.742 18.97-85.457-.53-9.38-1.5-18.698-2.53-27.807-2.73-23.806-5.39-48.169-5.89-71.903-.66-38.461 7.91-74.029 26.9-107.942 8.87-15.865 21.37-32.392 38.63-43.119 24.6-15.312 51.39-20.089 74.58-28.667 1.83-.676 3.64-1.377 5.45-2.106 27.34-11.073 50.79-28.054 67.17-51.391 17.46-24.825 26.13-58.167 14.98-88.339" stroke="#fff"/><path d="M840.17 772.172c8.325-27.748 20.801-54.488 36.449-79.524 6.931-11.101 14.573-21.978 23.986-31.547 18.806-19.1 42.903-31.275 67.579-39.492a312.082 312.082 0 0120.591-6.067c29.145-7.408 59.125-11.21 88.975-11.704 29.5-.481 58.98 2.958 89.89 3.052 33.34.107 67.45.822 100.62-5.379 28.22-5.297 56.54-16.962 76.39-36.992a96.589 96.589 0 009.92-11.713c18.41-25.693 21.2-56.889 19.63-87.339-.49-9.606-1.42-19.135-2.41-28.462-2.58-24.381-4.88-49.416-4.79-73.815.24-39.586 10.04-76.161 30.91-110.492 9.18-15.094 21.63-30.711 38.19-41.244 23.62-15.043 49.17-21 71.1-30.695 1.73-.759 3.45-1.557 5.16-2.369 25.79-12.376 47.17-30.479 61.4-54.001 15.16-25.027 21.57-57.32 9.71-86.074" stroke="#ABABAB"/><path d="M848.923 779.717c8.093-27.135 20.439-53.209 36.038-77.535 6.919-10.781 14.524-21.314 23.722-30.665 18.357-18.672 41.498-31.25 65.366-40.137a314.272 314.272 0 0119.986-6.678c28.345-8.336 57.655-13.121 86.965-14.673 28.98-1.528 58.07.689 88.29.49 34.13-.225 68.89.751 102.86-5.396 28.85-5.239 57.95-16.962 78.37-37.29a97.499 97.499 0 0010.21-11.916c18.94-26.194 21.77-58.044 20.29-89.21-.47-9.832-1.36-19.587-2.28-29.124-2.42-24.944-4.36-50.651-3.7-75.729 1.15-40.699 12.07-78.38 34.94-113.033 9.45-14.325 21.86-29.01 37.74-39.354 22.64-14.77 46.95-21.913 67.63-32.725a225.05 225.05 0 004.85-2.627c24.25-13.685 43.56-32.892 55.63-56.595 12.86-25.217 17-56.472 4.44-83.81" stroke="#A6A6A6"/><path d="M857.676 787.262c7.861-26.52 20.085-51.947 35.641-75.551 6.888-10.468 14.476-20.648 23.453-29.795 17.908-18.244 40.088-31.237 63.148-40.794a307.609 307.609 0 0119.4-7.283c27.542-9.251 56.192-15.032 84.972-17.662 28.45-2.579 57.14-1.593 86.68-2.086 34.9-.57 70.34.66 105.09-5.407 29.49-5.169 59.35-16.963 80.33-37.601a98.545 98.545 0 0010.51-12.125c19.51-26.699 22.34-59.207 20.97-91.087-.44-10.039-1.29-20.025-2.15-29.779-2.26-25.525-3.83-51.892-2.63-77.638 2.07-41.831 14.03-80.687 38.96-115.569 9.72-13.6 22.09-27.321 37.3-37.469 21.67-14.502 44.74-22.826 64.17-34.754 1.53-.94 3.05-1.905 4.55-2.891 22.69-15.002 39.94-35.32 49.86-59.209 10.59-25.412 12.43-55.618-.85-81.539" stroke="#A0A0A0"/><path d="M866.425 794.794c7.613-25.9 19.736-50.672 35.224-73.573 6.861-10.142 14.432-19.97 23.175-28.906 17.438-17.823 38.668-31.251 60.935-41.439a301.011 301.011 0 0118.791-7.895c26.74-10.179 54.72-16.938 82.99-20.639 27.93-3.63 56.2-3.89 85.08-4.654 35.7-.936 71.79.588 107.32-5.419 30.12-5.111 60.76-16.976 82.29-37.906 3.93-3.814 7.55-7.918 10.8-12.329 20.06-27.191 22.92-60.361 21.63-92.958-.41-10.264-1.22-20.462-2.02-30.44-2.11-26.088-3.32-53.141-1.53-79.553 2.97-42.956 15.87-83.09 42.98-118.108 9.98-12.889 22.35-25.626 36.85-35.591 20.7-14.235 42.52-23.739 60.69-36.786 1.43-1.036 2.86-2.085 4.26-3.168 21.13-16.306 36.32-37.734 44.09-61.804 8.28-25.6 7.86-54.769-6.13-79.272" stroke="#9B9B9B"/><path d="M875.164 802.344c7.381-25.285 19.383-49.41 34.828-71.587 6.844-9.834 14.383-19.304 22.906-28.035 16.989-17.395 37.263-31.225 58.721-42.083 5.993-3.055 12.071-5.873 18.201-8.513 25.94-11.095 53.25-18.864 81-23.617 27.4-4.696 55.27-6.187 83.48-7.219 36.47-1.326 73.23.516 109.54-5.431 30.76-5.039 62.18-16.98 84.26-38.202 4.03-3.867 7.75-8.055 11.09-12.532 20.61-27.692 23.48-61.524 22.3-94.83-.37-10.476-1.16-20.913-1.9-31.096-1.95-26.65-2.8-54.376-.44-81.466 3.87-44.083 17.65-85.603 47.01-120.649 10.23-12.216 22.58-23.936 36.4-33.699 19.73-13.953 40.31-24.671 57.22-38.817 1.34-1.119 2.64-2.259 3.94-3.426 19.6-17.616 32.71-40.162 38.33-64.418 5.99-25.79 3.28-53.914-11.4-77.005" stroke="#959595"/><path d="M883.919 809.889c7.134-24.664 19.034-48.133 34.432-69.599 6.817-9.508 14.335-18.638 22.637-27.164 16.525-16.961 35.871-31.204 56.493-42.722a311.742 311.742 0 0117.599-9.126c25.13-12.023 51.78-20.776 79-26.595 26.89-5.749 54.36-8.504 81.89-9.79 37.26-1.749 74.68.444 111.77-5.442 31.4-4.982 63.59-16.981 86.22-38.507 4.14-3.925 7.95-8.18 11.39-12.755 21.17-28.184 24.06-62.678 22.97-96.705-.34-10.702-1.09-21.352-1.76-31.757-1.79-27.232-2.29-55.612.65-83.381 4.79-45.214 19.36-88.241 51.04-123.188 10.5-11.582 22.82-22.233 35.96-31.812 18.76-13.686 38.1-25.585 53.76-40.849 1.23-1.203 2.44-2.427 3.64-3.69 18.04-18.922 29.08-42.572 32.55-67.015 3.69-25.992-1.28-53.064-16.69-74.73" stroke="#909090"/><path d="M892.673 817.434c16.046-55.885 58.394-105.084 110.667-137.264 52.27-32.18 113.76-48.199 174.29-51.669 38.04-2.186 76.12.358 114-5.454 37.88-5.812 77.07-21.646 99.86-51.762 28.55-37.701 24.61-86.543 22.01-131.007-4.3-73.109 1.83-154.976 56.8-211.017 27.38-27.91 64.6-46.642 89.13-76.761 34-41.759 36.08-102.794 4.81-142.09" stroke="#8A8A8A"/></g><g opacity=".2" stroke="#fff" stroke-width=".5"><path d="M-81.535 587.458a151.454 151.454 0 002.171 33.965c4.008 22.52 13.194 44.338 27.608 63.484a147.38 147.38 0 007.298 8.955c14.915 16.907 32.769 29.637 52.092 38.124a150.28 150.28 0 0061.88 12.63c24.818-.25 49.637-6.632 72-19.279 9.537-5.38 18.606-11.912 27.056-19.563 8.869-8.053 16.568-16.924 23.049-26.397 11.724-17.124 27.54-30.706 45.695-40.279 9.119-4.811 18.839-8.621 28.91-11.344 13.011-3.525 25.47-9.689 36.577-18.527a99.656 99.656 0 008.351-7.435 100.391 100.391 0 0014.513-18.176c9.303-14.919 14.414-31.86 15.249-48.984 1.069-22.052-4.927-44.439-18.188-63.334a97.977 97.977 0 00-5.428-7.05c-15.733-18.661-36.593-30.189-58.639-34.382-.902-.167-1.787-.334-2.689-.468-20.51-3.341-40.268-10.759-57.27-22.704a96.237 96.237 0 00-7.182-4.561c-10.689-6.114-22.313-9.89-34.138-11.427a95.942 95.942 0 00-46.363 5.48c-9.487 3.625-18.438 8.787-26.422 15.437a94.626 94.626 0 00-6.747 6.214c-13.529 13.783-29.83 24.642-47.834 31.492a133.703 133.703 0 01-7.131 2.473c-20.927 6.565-40.752 17.876-57.838 33.981a148.334 148.334 0 00-27.774 35.601c-11.424 20.449-17.737 43.153-18.856 66.091l.05-.017z"/><path d="M-83.69 576.499a149.168 149.168 0 002.121 33.379c3.942 22.137 12.96 43.571 27.14 62.383 2.255 3.007 4.66 5.93 7.182 8.804 14.647 16.623 32.184 29.136 51.174 37.456 19.273 8.453 40.033 12.613 60.81 12.413 24.384-.251 48.769-6.533 70.748-18.945a147.535 147.535 0 0026.589-19.23 148.361 148.361 0 0022.647-25.945c11.524-16.84 27.073-30.172 44.894-39.578a138.14 138.14 0 0128.409-11.143 99.21 99.21 0 0035.942-18.21 98.92 98.92 0 008.2-7.3 98.355 98.355 0 0014.263-17.86c9.153-14.651 14.163-31.291 14.982-48.131 1.052-21.668-4.844-43.671-17.871-62.232a95.15 95.15 0 00-5.328-6.916c-15.449-18.344-35.942-29.654-57.62-33.781a151.99 151.99 0 00-2.639-.468c-20.159-3.274-39.566-10.558-56.268-22.303a90.611 90.611 0 00-7.048-4.477c-10.505-6.014-21.912-9.723-33.536-11.227-15.349-1.988-31.082-.133-45.545 5.396-9.32 3.559-18.122 8.621-25.955 15.17a87.666 87.666 0 00-6.63 6.114c-13.295 13.549-29.311 24.208-46.998 30.941a115.62 115.62 0 01-6.998 2.422c-20.56 6.466-40.034 17.559-56.819 33.397a145.863 145.863 0 00-27.29 34.983c-11.224 20.098-17.437 42.401-18.539 64.938l-.017-.05z"/><path d="M-85.844 565.523a146.772 146.772 0 002.088 32.778c3.874 21.735 12.726 42.785 26.655 61.279a148.295 148.295 0 007.048 8.637C-35.656 684.54-18.437 696.836.22 705.022a144.928 144.928 0 0059.725 12.179c23.95-.251 47.916-6.415 69.495-18.611a144.597 144.597 0 0026.121-18.895 145.07 145.07 0 0022.246-25.478c11.324-16.539 26.589-29.637 44.093-38.876 8.801-4.644 18.188-8.319 27.908-10.942a97.095 97.095 0 0035.307-17.893 101.537 101.537 0 008.067-7.167 96.85 96.85 0 0014.012-17.542c8.986-14.401 13.913-30.74 14.714-47.279 1.036-21.284-4.76-42.902-17.553-61.129a101.39 101.39 0 00-5.227-6.8c-15.182-18.009-35.308-29.136-56.602-33.179a70.817 70.817 0 00-2.589-.451c-19.791-3.224-38.864-10.375-55.265-21.902a89.947 89.947 0 00-6.931-4.411c-10.322-5.897-21.529-9.556-32.952-11.043a92.42 92.42 0 00-44.744 5.296c-9.152 3.492-17.787 8.471-25.503 14.903a87.808 87.808 0 00-6.514 5.997c-13.06 13.315-28.793 23.774-46.163 30.389-2.271.869-4.56 1.654-6.88 2.389-20.193 6.349-39.333 17.241-55.818 32.795a143.511 143.511 0 00-26.805 34.365c-11.023 19.747-17.12 41.65-18.205 63.786z"/><path d="M-87.999 554.547a143.596 143.596 0 002.055 32.193c3.808 21.351 12.492 42.017 26.171 60.177 2.188 2.89 4.493 5.73 6.914 8.487 14.13 16.021 31.049 28.1 49.37 36.136a142.264 142.264 0 0058.656 11.962c23.516-.234 47.048-6.299 68.243-18.277 9.035-5.096 17.636-11.277 25.653-18.545a141.842 141.842 0 0021.846-25.026c11.123-16.238 26.104-29.103 43.307-38.174a132.845 132.845 0 0127.407-10.742 95.689 95.689 0 0034.672-17.559 94.715 94.715 0 007.917-7.05 95.386 95.386 0 0013.762-17.224c8.819-14.134 13.662-30.189 14.464-46.428 1.018-20.9-4.677-42.117-17.236-60.026a88.782 88.782 0 00-5.144-6.666c-14.898-17.692-34.673-28.602-55.583-32.594a67.07 67.07 0 00-2.556-.451c-19.44-3.158-38.163-10.191-54.263-21.518a94.76 94.76 0 00-6.797-4.327c-10.122-5.798-21.145-9.373-32.351-10.843a90.758 90.758 0 00-43.942 5.196 87.887 87.887 0 00-25.036 14.635 84.757 84.757 0 00-6.396 5.897c-12.827 13.065-28.276 23.356-45.328 29.838a104.384 104.384 0 01-6.765 2.339c-19.824 6.231-38.613 16.94-54.814 32.21-10.689 10.091-19.474 21.484-26.322 33.747-10.822 19.379-16.818 40.897-17.87 62.633H-88z"/><path d="M-90.153 543.587a140.218 140.218 0 002.02 31.592c3.742 20.95 12.276 41.248 25.688 59.057a143.546 143.546 0 006.797 8.337c13.88 15.738 30.48 27.582 48.451 35.468 18.238 8.002 37.913 11.945 57.57 11.745 23.082-.234 46.18-6.182 66.991-17.943a139.373 139.373 0 0025.169-18.21 139.979 139.979 0 0021.445-24.559c10.906-15.938 25.62-28.568 42.505-37.472 8.484-4.478 17.52-8.02 26.906-10.559a93.944 93.944 0 0034.038-17.241 96.84 96.84 0 007.766-6.917 93.782 93.782 0 0013.512-16.906c8.651-13.884 13.411-29.638 14.196-45.576 1.002-20.515-4.593-41.348-16.919-58.924a93.625 93.625 0 00-5.043-6.548c-14.631-17.359-34.038-28.084-54.564-31.993-.835-.151-1.671-.301-2.506-.435-19.073-3.107-37.461-10.007-53.278-21.117a83.168 83.168 0 00-6.68-4.243c-9.938-5.68-20.744-9.205-31.75-10.642a89.031 89.031 0 00-43.123 5.095 86.353 86.353 0 00-30.865 20.148c-12.593 12.831-27.758 22.922-44.493 29.287a114.872 114.872 0 01-6.63 2.305c-19.474 6.115-37.913 16.623-53.796 31.609a138.63 138.63 0 00-25.837 33.129c-10.622 19.029-16.501 40.146-17.553 61.48l-.017.033z"/><path d="M-92.308 532.611a138.872 138.872 0 001.971 31.007c3.658 20.566 12.042 40.48 25.203 57.955a139.39 139.39 0 006.664 8.169c13.611 15.437 29.912 27.065 47.549 34.8a137.181 137.181 0 0056.485 11.528c22.647-.234 45.31-6.065 65.737-17.592 8.701-4.912 16.985-10.876 24.702-17.86a137.36 137.36 0 0021.043-24.107c10.706-15.637 25.153-28.034 41.704-36.771a128.677 128.677 0 0126.405-10.358c11.875-3.208 23.249-8.838 33.387-16.924a96.24 96.24 0 007.632-6.783 92.322 92.322 0 0013.261-16.589c8.501-13.616 13.161-29.069 13.929-44.723.986-20.132-4.509-40.58-16.601-57.821a89.954 89.954 0 00-4.943-6.432c-14.347-17.041-33.404-27.549-53.529-31.392-.818-.15-1.637-.301-2.455-.434-18.722-3.041-36.76-9.824-52.276-20.716a82.627 82.627 0 00-6.547-4.16c-9.754-5.58-20.359-9.038-31.165-10.442-14.263-1.854-28.877-.117-42.322 5.012-8.651 3.308-16.835 8.019-24.117 14.084a82.118 82.118 0 00-6.163 5.68c-12.342 12.58-27.24 22.487-43.657 28.735a106.69 106.69 0 01-6.514 2.255c-19.107 5.998-37.194 16.323-52.794 31.024a135.11 135.11 0 00-25.353 32.511c-10.438 18.678-16.2 39.394-17.219 60.327l-.017.017z"/><path d="M-94.462 521.635a135.494 135.494 0 001.937 30.406c3.591 20.164 11.808 39.694 24.719 56.852a134.04 134.04 0 006.53 8.019c13.361 15.136 29.328 26.546 46.647 34.148 17.554 7.702 36.493 11.494 55.416 11.31 22.23-.234 44.443-5.947 64.485-17.258a134.73 134.73 0 0024.234-17.525c7.95-7.217 14.831-15.152 20.643-23.639 10.505-15.337 24.668-27.499 40.919-36.07 8.167-4.31 16.868-7.718 25.887-10.157a90.488 90.488 0 0032.752-16.59 96.06 96.06 0 007.482-6.649 89.482 89.482 0 0012.994-16.272c8.334-13.365 12.91-28.518 13.662-43.871.968-19.747-4.426-39.795-16.284-56.719a86.771 86.771 0 00-4.861-6.298c-14.079-16.707-32.768-27.031-52.509-30.79a59.606 59.606 0 00-2.405-.418c-18.372-2.99-36.059-9.623-51.274-20.332a81.84 81.84 0 00-6.43-4.093c-9.57-5.479-19.975-8.854-30.564-10.241-13.996-1.821-28.326-.117-41.52 4.912a83.94 83.94 0 00-23.666 13.816 86.349 86.349 0 00-6.046 5.563c-12.109 12.346-26.706 22.053-42.84 28.184a119.85 119.85 0 01-6.38 2.222c-18.739 5.881-36.492 16.005-51.79 30.439a132.549 132.549 0 00-24.87 31.876c-10.238 18.311-15.883 38.642-16.885 59.175h.017z"/><path d="M-96.617 510.675c-.484 9.957.15 19.965 1.904 29.821 3.524 19.781 11.575 38.926 24.251 55.75a129.16 129.16 0 006.413 7.869c13.094 14.852 28.76 26.028 45.73 33.48a132.12 132.12 0 0054.33 11.093c21.795-.218 43.59-5.831 63.215-16.924 8.367-4.728 16.334-10.458 23.766-17.174a131.494 131.494 0 0020.242-23.189c10.305-15.036 24.184-26.964 40.117-35.368a123.391 123.391 0 0125.387-9.957c11.424-3.09 22.363-8.503 32.117-16.272a92.283 92.283 0 007.332-6.532 87.374 87.374 0 0012.743-15.955c8.167-13.098 12.66-27.966 13.395-43.019.935-19.363-4.326-39.026-15.967-55.599a91.89 91.89 0 00-4.76-6.181c-13.812-16.39-32.117-26.497-51.491-30.189-.785-.15-1.57-.284-2.355-.418-18.004-2.923-35.357-9.439-50.271-19.931a87.128 87.128 0 00-6.297-4.009c-9.386-5.363-19.591-8.687-29.979-10.041a84.053 84.053 0 00-40.702 4.812c-8.317 3.174-16.184 7.701-23.198 13.549a79.122 79.122 0 00-5.93 5.463c-11.874 12.112-26.187 21.635-42.004 27.649a110.63 110.63 0 01-6.263 2.172c-18.371 5.764-35.774 15.687-50.772 29.838A130.487 130.487 0 00-80.05 452.67c-10.037 17.96-15.582 37.874-16.568 58.022v-.017z"/><path d="M-98.771 499.699c-.468 9.757.15 19.563 1.87 29.237 3.458 19.379 11.358 38.157 23.767 54.63a135.944 135.944 0 006.28 7.701c12.826 14.552 28.192 25.511 44.826 32.812a129.202 129.202 0 0053.262 10.859c21.361-.217 42.722-5.713 61.962-16.589a128.627 128.627 0 0023.282-16.841 130.213 130.213 0 0019.842-22.72c10.088-14.735 23.699-26.43 39.315-34.666a120.75 120.75 0 0124.886-9.757 86.706 86.706 0 0031.482-15.955 88.543 88.543 0 007.182-6.398 85.858 85.858 0 0012.492-15.637c8.017-12.848 12.41-27.416 13.128-42.168.918-18.978-4.242-38.241-15.65-54.496a88.854 88.854 0 00-4.659-6.065c-13.529-16.054-31.483-25.978-50.472-29.587a56.425 56.425 0 00-2.305-.401c-17.654-2.873-34.656-9.255-49.286-19.53a78.525 78.525 0 00-6.18-3.926c-9.203-5.262-19.19-8.52-29.378-9.84a82.632 82.632 0 00-39.9 4.712 79.61 79.61 0 00-22.73 13.281 83.117 83.117 0 00-5.813 5.346c-11.64 11.862-25.67 21.201-41.17 27.098a101.98 101.98 0 01-6.129 2.122c-18.004 5.663-35.073 15.387-49.77 29.253a127.664 127.664 0 00-23.9 30.64c-9.837 17.608-15.265 37.121-16.234 56.869v.016z"/><path d="M-100.942 488.723a127.618 127.618 0 001.82 28.635c3.39 18.995 11.123 37.389 23.282 53.528a124.482 124.482 0 006.163 7.551c12.576 14.25 27.624 24.993 43.925 32.143a126.735 126.735 0 0052.176 10.642c20.927-.217 41.854-5.596 60.71-16.255a126.557 126.557 0 0022.814-16.506 126.96 126.96 0 0019.441-22.253c9.887-14.451 23.232-25.895 38.53-33.965a118.2 118.2 0 0124.384-9.556 85.312 85.312 0 0030.848-15.62 91.39 91.39 0 007.048-6.265 84.993 84.993 0 0012.242-15.32c7.85-12.58 12.159-26.847 12.861-41.298.902-18.595-4.159-37.473-15.332-53.394a85.063 85.063 0 00-4.577-5.931c-13.261-15.738-30.847-25.444-49.453-28.986a50.008 50.008 0 00-2.271-.401c-17.286-2.807-33.954-9.071-48.284-19.145a74.909 74.909 0 00-6.046-3.843c-9.019-5.162-18.806-8.337-28.777-9.64-13.178-1.704-26.672-.117-39.082 4.628-8 3.057-15.549 7.401-22.28 13.014a76.71 76.71 0 00-5.695 5.246C22.098 357.36 8.353 366.498-6.829 372.279a111.175 111.175 0 01-6.013 2.088c-17.636 5.547-34.355 15.069-48.768 28.652a125.203 125.203 0 00-23.416 30.021c-9.636 17.241-14.964 36.37-15.9 55.716l-.016-.033z"/><path d="M-103.097 477.763a125.497 125.497 0 001.787 28.051c3.307 18.594 10.89 36.604 22.798 52.425a125.78 125.78 0 006.03 7.401c12.308 13.966 27.056 24.475 43.006 31.475a124.086 124.086 0 0051.106 10.424c20.493-.217 40.986-5.479 59.458-15.921a124.07 124.07 0 0022.346-16.155 124.304 124.304 0 0019.04-21.802c9.687-14.15 22.748-25.36 37.729-33.263 7.532-3.976 15.549-7.117 23.883-9.372 10.739-2.907 21.028-8.002 30.213-15.303a87.534 87.534 0 006.898-6.131 83.54 83.54 0 0011.992-15.003c7.683-12.312 11.908-26.296 12.593-40.446.885-18.21-4.075-36.704-15.015-52.291a86.816 86.816 0 00-4.476-5.814c-12.977-15.404-30.213-24.926-48.418-28.385-.735-.133-1.486-.267-2.221-.384-16.935-2.756-33.236-8.888-47.282-18.745a82.243 82.243 0 00-5.929-3.775c-8.819-5.046-18.422-8.17-28.192-9.439a79.072 79.072 0 00-38.28 4.527 76.875 76.875 0 00-21.813 12.747 80.564 80.564 0 00-5.578 5.129c-11.173 11.394-24.635 20.349-39.499 25.995-1.937.735-3.908 1.42-5.896 2.039-17.286 5.429-33.653 14.751-47.75 28.066a122.405 122.405 0 00-22.93 29.404c-9.437 16.89-14.648 35.618-15.583 54.563l-.017-.017z"/><path d="M-105.251 466.787a122.022 122.022 0 001.753 27.449c3.24 18.21 10.656 35.836 22.314 51.323a119.92 119.92 0 005.895 7.233c12.059 13.666 26.489 23.958 42.105 30.824 15.85 6.966 32.935 10.375 50.021 10.208 20.058-.201 40.117-5.363 58.205-15.588 7.7-4.36 15.048-9.623 21.879-15.821 7.182-6.515 13.395-13.682 18.622-21.334 9.487-13.849 22.263-24.826 36.927-32.561a114.01 114.01 0 0123.382-9.172 81.502 81.502 0 0029.562-14.985 84.19 84.19 0 006.748-6.015 81.531 81.531 0 0011.741-14.685c7.532-12.062 11.657-25.744 12.326-39.594.868-17.826-3.992-35.919-14.698-51.189a87.232 87.232 0 00-4.376-5.697c-12.71-15.086-29.578-24.391-47.399-27.799a91.413 91.413 0 00-2.171-.384c-16.584-2.707-32.534-8.688-46.28-18.344a73.355 73.355 0 00-5.795-3.692c-8.635-4.945-18.021-8.003-27.591-9.239a77.46 77.46 0 00-37.478 4.427 75.317 75.317 0 00-21.362 12.48 77.123 77.123 0 00-5.461 5.029C12.678 340.804-.5 349.575-15.046 355.105a117.695 117.695 0 01-5.762 2.004c-16.919 5.313-32.936 14.451-46.748 27.466a120.026 120.026 0 00-22.447 28.785c-9.236 16.54-14.346 34.867-15.248 53.411v.016z"/><path d="M-107.406 455.811a119.818 119.818 0 001.72 26.864c3.174 17.809 10.422 35.067 21.846 50.22a115.06 115.06 0 005.779 7.083c11.791 13.382 25.904 23.44 41.203 30.156 15.515 6.816 32.217 10.157 48.935 9.99 19.624-.2 39.265-5.246 56.952-15.253a119.633 119.633 0 0021.395-15.47 118.428 118.428 0 0018.221-20.883c9.27-13.549 21.779-24.291 36.142-31.859 7.216-3.81 14.898-6.817 22.865-8.972a79.846 79.846 0 0028.927-14.651 83.767 83.767 0 006.614-5.881 79.322 79.322 0 0011.49-14.368c7.366-11.794 11.408-25.193 12.059-38.742.852-17.442-3.908-35.15-14.38-50.086a79.391 79.391 0 00-4.292-5.563c-12.443-14.769-28.944-23.874-46.381-27.198a45.883 45.883 0 00-2.121-.368c-16.217-2.64-31.833-8.504-45.294-17.959a70.334 70.334 0 00-5.679-3.609 73.212 73.212 0 00-26.99-9.038 75.728 75.728 0 00-36.66 4.343 73.468 73.468 0 00-20.893 12.213 70.502 70.502 0 00-5.345 4.928c-10.705 10.91-23.599 19.48-37.829 24.893a107.302 107.302 0 01-5.645 1.955c-16.55 5.195-32.234 14.133-45.745 26.88a117.553 117.553 0 00-21.963 28.167c-9.035 16.172-14.029 34.115-14.914 52.258l-.017-.05z"/><path d="M-109.56 444.852a117.278 117.278 0 001.67 26.262c3.106 17.425 10.204 34.299 21.361 49.101a116.41 116.41 0 005.645 6.916c11.541 13.081 25.337 22.921 40.284 29.487 15.165 6.666 31.516 9.94 47.867 9.773 19.19-.2 38.397-5.128 55.7-14.918a115.894 115.894 0 0020.927-15.137 116.297 116.297 0 0017.82-20.415c9.069-13.248 21.311-23.757 35.341-31.158a108.577 108.577 0 0122.363-8.77 77.975 77.975 0 0028.292-14.335 79.644 79.644 0 006.464-5.747 77.035 77.035 0 0011.223-14.05c7.199-11.544 11.157-24.642 11.792-37.89.835-17.057-3.808-34.382-14.063-48.983a80.275 80.275 0 00-4.192-5.447c-12.159-14.434-28.292-23.339-45.361-26.596-.685-.134-1.387-.251-2.071-.368-15.867-2.59-31.132-8.32-44.293-17.559a72.366 72.366 0 00-5.545-3.525c-8.267-4.728-17.252-7.651-26.405-8.837a74.08 74.08 0 00-35.858 4.243 71.557 71.557 0 00-20.443 11.945 70.631 70.631 0 00-5.21 4.812c-10.473 10.658-23.066 19.045-36.995 24.358a107.77 107.77 0 01-5.511 1.921c-16.184 5.079-31.516 13.816-44.727 26.279a114.582 114.582 0 00-21.478 27.533c-8.835 15.821-13.729 33.362-14.597 51.121v-.016z"/><path d="M-111.715 433.876a114.2 114.2 0 001.637 25.677c3.04 17.024 9.971 33.514 20.877 47.998a109.677 109.677 0 005.528 6.766c11.274 12.781 24.769 22.404 39.382 28.819 14.831 6.516 30.798 9.706 46.781 9.539 18.756-.183 37.529-5.012 54.43-14.568a113.714 113.714 0 0020.46-14.802 112.57 112.57 0 0017.42-19.964c8.868-12.947 20.827-23.222 34.539-30.456 6.897-3.642 14.246-6.515 21.862-8.57a76.111 76.111 0 0027.658-14.017 79.553 79.553 0 006.313-5.613 75.617 75.617 0 0010.973-13.733c7.031-11.277 10.906-24.074 11.524-37.038.818-16.673-3.725-33.597-13.745-47.881a76.69 76.69 0 00-4.092-5.329c-11.892-14.117-27.658-22.821-44.343-25.996a41.42 41.42 0 00-2.038-.351c-15.499-2.522-30.43-8.136-43.29-17.157a69.124 69.124 0 00-5.428-3.442c-8.084-4.627-16.868-7.484-25.804-8.637-11.808-1.537-23.916-.1-35.056 4.143-7.165 2.74-13.93 6.633-19.975 11.661a64.544 64.544 0 00-5.094 4.712c-10.222 10.424-22.547 18.627-36.16 23.806a98.027 98.027 0 01-5.394 1.872c-15.816 4.961-30.814 13.515-43.725 25.694a112.206 112.206 0 00-20.993 26.914c-8.635 15.47-13.412 32.611-14.264 49.969l.017-.016z"/><path d="M-113.869 422.899c-.401 8.37.117 16.79 1.603 25.094 2.956 16.639 9.737 32.744 20.393 46.895 1.703 2.255 3.49 4.46 5.394 6.615 11.023 12.497 24.2 21.903 38.464 28.168 14.48 6.365 30.096 9.489 45.712 9.322a110.428 110.428 0 0053.178-14.234 111.345 111.345 0 0019.992-14.451 110.592 110.592 0 0017.018-19.497c8.668-12.646 20.343-22.687 33.754-29.754a103.443 103.443 0 0121.361-8.37 74.7 74.7 0 0027.024-13.682 76.066 76.066 0 006.162-5.497 74.225 74.225 0 0010.723-13.432c6.881-11.026 10.655-23.523 11.273-36.186.785-16.289-3.641-32.828-13.428-46.778a77.906 77.906 0 00-4.008-5.196c-11.608-13.783-27.023-22.287-43.307-25.394a40.578 40.578 0 00-1.988-.351c-15.148-2.472-29.728-7.935-42.288-16.773a63.181 63.181 0 00-5.311-3.375 68.272 68.272 0 00-25.22-8.437 70.754 70.754 0 00-34.238 4.043 68.829 68.829 0 00-19.507 11.394 67.769 67.769 0 00-4.977 4.595c-9.988 10.19-22.03 18.193-35.324 23.255a85.062 85.062 0 01-5.26 1.821c-15.45 4.862-30.097 13.198-42.707 25.093a109.398 109.398 0 00-20.51 26.296c-8.433 15.103-13.11 31.859-13.928 48.816h-.05z"/></g></svg>