<svg width="22" height="23" fill="none" xmlns="http://www.w3.org/2000/svg"><path d="M7.236 11.666l1.237-1.237a.677.677 0 000-.958L6.717 7.715a.677.677 0 00-.958 0L4.522 8.952l2.714 2.714zm5.939 2.506a.677.677 0 00-.959 0L10.98 15.41l2.715 2.715 1.237-1.237a.677.677 0 000-.959l-1.756-1.756zm.3-7.36a.32.32 0 01-.077-.077 3.35 3.35 0 00-2.736-1.467c-.014 0-.024.004-.038.004-.014 0-.025-.004-.039-.004A3.35 3.35 0 007.85 6.735c-.021.032-.05.053-.077.077a3.685 3.685 0 005.701 0z" fill="#fff"/><path d="M9.376 4.784a1.852 1.852 0 113.098-1.366 1.845 1.845 0 01-.603 1.362 4.01 4.01 0 011.997 1.443 3.697 3.697 0 10-6.496 0 4.09 4.09 0 012.004-1.44z" fill="#fff"/><path d="M10.6 4.582h.048a1.161 1.161 0 00-.024-2.325 1.166 1.166 0 00-.962 1.82c.212.31.56.498.937.505zm8.171 8.126h.042a.955.955 0 00.767-.414.956.956 0 00-.791-1.492.953.953 0 00-.018 1.906z" fill="#fff"/><path d="M18.792 9.471a3.183 3.183 0 00-3.182 3.182c0 .533.136 1.028.366 1.47.425-.568 1-.986 1.652-1.216a1.53 1.53 0 01-.192-.23 1.643 1.643 0 011.356-2.565 1.644 1.644 0 011.36 2.562 1.48 1.48 0 01-.196.23c.655.23 1.23.648 1.652 1.216.24-.453.365-.958.366-1.47a3.182 3.182 0 00-3.182-3.179z" fill="#fff"/><path d="M18.827 13.395c-.01 0-.02.003-.031.003-.01 0-.021-.003-.032-.003a2.837 2.837 0 00-2.314 1.24.32.32 0 01-.076.077 3.175 3.175 0 002.422 1.122c.972 0 1.84-.435 2.425-1.122a.319.319 0 01-.077-.076 2.842 2.842 0 00-2.317-1.241zm-2.09-6.607c-.015.017-.032.028-.05.041.47.471 1.115.76 1.833.76s1.366-.293 1.833-.763c-.017-.014-.035-.024-.049-.042a2.241 2.241 0 00-1.784-.878c-.704 0-1.352.324-1.784.882z" fill="#fff"/><path d="M17.46 5.422a1.391 1.391 0 01-.34-.913 1.4 1.4 0 011.397-1.398 1.4 1.4 0 011.06 2.31c.456.178.863.468 1.188.854.212-.376.345-.808.345-1.272a2.589 2.589 0 10-5.179 0c0 .464.129.896.345 1.272.316-.38.724-.674 1.185-.853z" fill="#fff"/><path d="M18.52 5.223a.709.709 0 00.711-.71.712.712 0 00-1.422 0 .69.69 0 00.126.4c.132.195.352.31.585.31zm-7.332 8.144a.347.347 0 00.133.028c.132 0 .261-.08.317-.21l.693-1.661a.347.347 0 00-.155-.437.347.347 0 00-.162-.04h-.889l.44-1.137a.342.342 0 00-.638-.247l-.624 1.6a.334.334 0 00.038.316.34.34 0 00.283.15h.874l-.494 1.189a.345.345 0 00.184.45zM3.02 5.983a.344.344 0 00.56-.066l.405-.778.822.99c.07.08.168.126.265.126a.343.343 0 00.265-.565L4.184 4.303a.343.343 0 00-.568.06l-.412.787-.801-.913a.343.343 0 10-.516.453L3.02 5.983zM17.806 18.35l-.857.244.111-1.212a.343.343 0 00-.683-.063l-.157 1.711a.346.346 0 00.122.296.341.341 0 00.314.066l.84-.24-.154 1.279a.342.342 0 00.3.38l.042.003c.17 0 .32-.129.341-.303l.213-1.791a.346.346 0 00-.119-.303.347.347 0 00-.313-.067zm-9.266-.5c-.993.993-2.607 1.104-3.663.18a2.633 2.633 0 01-.906-1.996 2.618 2.618 0 01.774-1.871l2.01-2.011-2.714-2.715-2.116 2.116a6.48 6.48 0 000 9.168l.004.004a6.48 6.48 0 009.169 0l2.115-2.116-2.715-2.714L8.54 17.85z" fill="#fff"/></svg>