<svg width="24" height="24" fill="none" xmlns="http://www.w3.org/2000/svg"><path d="M11.64 9.179v.718h-1.08l.523 1.438h.558v.719h-.296l.53 1.458 1.323-4.205.599-.915v-7.12h-3.594V2.71h1.438v.719h-1.438v1.437h1.438v.719h-1.438v1.437h1.438v.72h-1.438v1.176l.095.26h1.343zm-2.026 6.528c.433.258.905.444 1.397.551l.51-1.619-3.258-8.95-2.027.738 3.378 9.28zM8.017 5.014l-2.119-2.67.093 3.408 2.026-.738zM12 16.366c.665 0 1.322-.143 1.927-.419l2.595-5.259.385-2.063c-.072.007-.146.02-.22.02A2.194 2.194 0 0115 7.864l-1.146 1.753-2.12 6.735c.089.005.177.013.266.013zm4.126-8.547c.92.37 2.034-.244 2.486-1.371.453-1.127-.345-3.966-.345-3.966s-2.538 1.5-2.99 2.627c-.453 1.127-.072 2.34.849 2.71z" fill="#fff"/><path d="M22.264 13.491a10.29 10.29 0 000-3.594h-5.182a5.39 5.39 0 11-10.163 0H1.735a10.289 10.289 0 000 3.594h2.196a8.261 8.261 0 001.093 2.638l-1.553 1.552a10.16 10.16 0 002.54 2.541l1.553-1.552a8.26 8.26 0 002.638 1.092v2.196c1.189.21 2.405.21 3.594 0v-2.196a8.26 8.26 0 002.638-1.092l1.552 1.552a10.171 10.171 0 002.541-2.54l-1.552-1.553a8.26 8.26 0 001.092-2.638h2.196z" fill="#fff"/></svg>