<svg width="23" height="23" fill="none" xmlns="http://www.w3.org/2000/svg"><path d="M6.045 13.949v-.028c0-2.345.878-4.555 2.477-6.261H0v9.944c0 .285.23.516.516.516h6.54c-.603-1.222-.946-2.617-1.01-4.143l-.001-.028zm9.158-9.195h.018a9.17 9.17 0 011.742.167V1.816a.516.516 0 00-.516-.515H.516A.516.516 0 000 1.816v4.496h10.1a9.073 9.073 0 015.103-1.558zm-11.138-.93a.674.674 0 01-1.348 0v-.04a.674.674 0 011.348 0v.04zm2.695 0a.674.674 0 01-1.348 0v-.04a.674.674 0 011.348 0v.04zm2.695 0a.674.674 0 01-1.347 0v-.04a.674.674 0 011.347 0v.04zm1.489 3.55l4.245 5.43 4.261-5.45A7.758 7.758 0 0015.212 6.1a7.758 7.758 0 00-4.268 1.272zM23 13.223a7.8 7.8 0 00-2.486-5.043l-3.943 5.043H23z" fill="#fff"/><path d="M15.19 14.572h-.001a.673.673 0 01-.53-.26L9.882 8.206a7.794 7.794 0 00-2.49 5.716c.422 10.158 14.591 10.359 15.59.65H15.19z" fill="#fff"/></svg>