<svg width="23" height="23" fill="none" xmlns="http://www.w3.org/2000/svg"><g clip-path="url(#clip0_418_1230)" fill="#fff"><path d="M.642 13.162l1.501.246a9.243 9.243 0 001.337 3.223l-.888 1.24a.702.702 0 00.007.841c.224.274.463.537.714.786.253.254.514.488.783.714a.701.701 0 00.842.008l1.24-.89a9.227 9.227 0 003.22 1.338l.246 1.502a.694.694 0 00.6.585c.214.024.43.04.649.05a.391.391 0 00.412-.389v-3.124a.392.392 0 00-.38-.39 7.413 7.413 0 010-14.806.392.392 0 00.38-.39V.585a.393.393 0 00-.41-.39 11.08 11.08 0 00-.65.046.704.704 0 00-.601.59l-.246 1.502a9.235 9.235 0 00-3.22 1.338l-1.24-.89a.702.702 0 00-.842.008 10.37 10.37 0 00-.783.714c-.253.247-.492.51-.714.785a.702.702 0 00-.007.843l.888 1.24a9.244 9.244 0 00-1.337 3.222l-1.5.246a.695.695 0 00-.585.6 9.654 9.654 0 000 2.105.705.705 0 00.584.618z"/><path d="M10.932 5.664a5.848 5.848 0 000 11.672.36.36 0 00.345-.22.357.357 0 00.028-.14V6.025a.358.358 0 00-.373-.362zm3.101.379h-1.949v.78h1.95a1.173 1.173 0 001.169-1.17V3.242a1.17 1.17 0 10-.78 0v2.41a.39.39 0 01-.39.39zm-1.949 2.339h3.899a.39.39 0 100-.78h-3.899v.78zm0 8.576h1.95a.39.39 0 01.39.39v2.41a1.17 1.17 0 10.779 0v-2.41a1.173 1.173 0 00-1.17-1.17h-1.949v.78zm5.848-3.898h-5.848v.78h5.848a.39.39 0 01.39.39v2.02a1.17 1.17 0 10.78 0v-2.02a1.173 1.173 0 00-1.17-1.17zm3.898-2.73a1.17 1.17 0 00-1.098.78h-8.648v.78h8.648a1.168 1.168 0 101.098-1.56z"/><path d="M16.372 15.009a.39.39 0 00-.39-.39h-3.898v.78h3.899a.39.39 0 00.39-.39zm2.73-6.237V6.75a1.17 1.17 0 10-.78 0v2.02a.39.39 0 01-.39.39h-5.848v.78h5.848a1.173 1.173 0 001.17-1.17z"/></g><defs><clipPath id="clip0_418_1230"><path fill="#fff" d="M0 0h23v23H0z"/></clipPath></defs></svg>