<svg width="24" height="24" fill="none" xmlns="http://www.w3.org/2000/svg"><path d="M2.586 16.366h.43v6.11h1.437v-6.11h.43L3.734 14.53l-1.148 1.837zm16.96-6.828h1.438v-6.11h.43l-1.148-1.837-1.149 1.838h.43v6.11zm-3.233 5.23a6.261 6.261 0 002.515-5.035 6.311 6.311 0 00-6.304-6.304h-1.048a6.311 6.311 0 00-6.304 6.304c0 2.016.943 3.86 2.515 5.036v-1.637h1.438v2.473l.36.18v1.3h1.796v-3.234h1.438v3.234h1.797v-1.3l.359-.18v-5.348h1.438v4.512zm-.72-5.949a1.422 1.422 0 01-.725-.203l-1.634 1.634a1.422 1.422 0 01-.217 1.742 1.435 1.435 0 01-2.403-.657h-1.59a.716.716 0 01-1.338-.36.719.719 0 01.719-.718c.265 0 .494.145.62.36h1.587A1.434 1.434 0 0112 9.537c.266 0 .512.077.726.204l1.634-1.634a1.422 1.422 0 01.039-1.525 1.438 1.438 0 111.195 2.236zm-5.03 8.985h2.874v.719h-2.874v-.72zm-.72 1.437h-.359v.36A2.519 2.519 0 0012 22.116a2.519 2.519 0 002.516-2.515v-.36H9.844z" fill="#fff"/><path d="M2.333 8.126L3.35 9.143l.017-.016a1.049 1.049 0 011.141-.228c.045-.371.12-.734.22-1.086a2.516 2.516 0 01-1.352-2.228 2.517 2.517 0 012.516-2.516c.703 0 1.338.293 1.795.76a6.977 6.977 0 011.736-.811l-.99-.99-.016.016a1.048 1.048 0 01-1.146.225 1.05 1.05 0 01-.66-.974v-.023h-1.44v.023a1.047 1.047 0 01-.653.971 1.052 1.052 0 01-1.153-.223l-.017-.015-1.016 1.016.016.016a1.048 1.048 0 01.226 1.146 1.05 1.05 0 01-.974.66h-.023v1.438H1.6c.427 0 .808.256.97.653a1.05 1.05 0 01-.22 1.153l-.016.016z" fill="#fff"/><path d="M6.55 4.741a1.063 1.063 0 00-1.685.516 1.078 1.078 0 00.401 1.206A7.059 7.059 0 016.55 4.74zM21.342 14.94a1.735 1.735 0 01.06-1.465l-1.12-1.12a1.73 1.73 0 01-1.29.12 6.976 6.976 0 01-.506.967 3.594 3.594 0 01-1.456 6.878 3.59 3.59 0 01-1.81-.49 3.222 3.222 0 01-.284 1.117 1.73 1.73 0 011.302 1.17h1.585a1.731 1.731 0 01.994-1.078 1.73 1.73 0 011.465.06l1.12-1.12a1.735 1.735 0 01-.059-1.467 1.73 1.73 0 011.078-.993v-1.584a1.735 1.735 0 01-1.079-.995z" fill="#fff"/><path d="M15.555 16.069l-.32.31v.706a.714.714 0 01-.19.482 2.157 2.157 0 004.143-.841 2.156 2.156 0 00-1.636-2.092 7.042 7.042 0 01-1.887 1.38l-.11.055zM12 11.335a.36.36 0 100-.719.36.36 0 000 .719zm3.594-3.594a.36.36 0 100-.719.36.36 0 000 .72z" fill="#fff"/></svg>