<svg width="23" height="24" fill="none" xmlns="http://www.w3.org/2000/svg"><path d="M7.15.515H1c-.245 0-.57-.3 3 2.375L7.15.515z" fill="#fff"/><path d="M8 5.515c0-4.345.025-4.11-.06-4.33C3.97 4.16 4.235 4.015 4 4.015c-.235 0 0 .12-3.94-2.83C0 1.41 0 1.195 0 5.515a1 1 0 001 1h6a1 1 0 001-1zM18.5 4.21l1.38-.695-1.38-.69V4.21z" fill="#fff"/><path d="M22 .515h-6a1 1 0 00-1 1v4a1 1 0 001 1h6a1 1 0 001-1v-4a1 1 0 00-1-1zM20.33 4.41c-1.5.74-1.5.795-1.83.795a1 1 0 01-1-1c0-1.22-.14-1.85.5-2.23.64-.38 1.055 0 2.355.645a1 1 0 01-.025 1.79zM19 20.515a1 1 0 100-2 1 1 0 000 2z" fill="#fff"/><path d="M22.535 18.515a.465.465 0 01-.33-.795.465.465 0 000-.655l-.755-.755a.454.454 0 00-.655 0 .465.465 0 01-.795-.33.465.465 0 00-.465-.465h-1.07a.465.465 0 00-.465.465.465.465 0 01-.795.33.454.454 0 00-.655 0l-.755.755a.462.462 0 000 .655.47.47 0 01-.33.795.465.465 0 00-.465.465v1.07a.465.465 0 00.465.465.465.465 0 01.33.795.455.455 0 000 .655l.755.755a.454.454 0 00.655 0 .465.465 0 01.795.33.465.465 0 00.465.465h1.07A.465.465 0 0020 23.05a.465.465 0 01.795-.33.454.454 0 00.655 0l.755-.755a.454.454 0 000-.655.465.465 0 01.33-.795.465.465 0 00.465-.465v-1.07a.465.465 0 00-.465-.465zm-3.535 3a2 2 0 110-4 2 2 0 010 4zM3.21 15.8l-1.77 1.765a1.5 1.5 0 000 2.12L2.855 21.1a1.5 1.5 0 002.12 0l1.77-1.765L3.21 15.8zm3.885 4.595l-1.41 1.415 1.41 1.41A1 1 0 008.5 21.81l-1.405-1.415zm-3.305-5.43l3.785 3.785 6.24-2.955-7.07-7.07-2.955 6.24zm5.97-4.635l2.45 2.45a2 2 0 00-2.45-2.45zm3.345-.395c.275 0 .285-.08 1.415-1.21a.5.5 0 10-.705-.71l-1.06 1.06a.5.5 0 00.35.86zM11.5 8.515v-1.5a.5.5 0 00-1 0v1.5a.5.5 0 001 0zm4 2.5H14a.5.5 0 000 1h1.5a.5.5 0 000-1z" fill="#fff"/></svg>