<svg width="23" height="24" fill="none" xmlns="http://www.w3.org/2000/svg"><g clip-path="url(#clip0_418_830)" fill="#fff"><path d="M22.122 4.77L8.035 1.787a1.11 1.11 0 00-1.312.855l-.268 1.72 16.253 3.439.268-1.72a1.11 1.11 0 00-.854-1.313zm-5.924 3.397a1.122 1.122 0 00-1.376-.779l-2.674.742-6.304-1.334-.693 3.276-4.332 1.202A1.121 1.121 0 00.04 12.65l2.44 8.797c.165.593.785.943 1.377.779L17.86 18.34c.592-.165.943-.784.778-1.377l-.419-1.51 1.57.332a1.11 1.11 0 001.314-.854l.993-4.695-5.657-1.197-.242-.872zm1.617 4.47l.347-1.636a.457.457 0 01.54-.352l1.636.347a.457.457 0 01.352.54l-.346 1.637a.457.457 0 01-.54.351l-1.637-.346a.457.457 0 01-.352-.54zm-16.753-.485l3.876-1.075L14.08 8.54l.984-.274a.211.211 0 01.254.144l.116.416.362 1.304-14.4 3.997-.478-1.72a.21.21 0 01.143-.255zm16.7 5.055a.203.203 0 01-.021.156.201.201 0 01-.124.098L3.614 21.347a.212.212 0 01-.254-.144l-1.424-5.13 14.401-3.997.878 3.165.546 1.966z"/><path d="M5.877 17.558a.457.457 0 00-.561-.317l-1.635.454a.457.457 0 00-.317.56l.453 1.636c.068.241.32.384.561.317l1.636-.454a.457.457 0 00.317-.56l-.454-1.636z"/></g><defs><clipPath id="clip0_418_830"><path fill="#fff" transform="translate(0 .515)" d="M0 0h23v23H0z"/></clipPath></defs></svg>