<svg width="23" height="23" fill="none" xmlns="http://www.w3.org/2000/svg"><g clip-path="url(#clip0_418_739)" fill="#fff"><path d="M7.412 13.521a.674.674 0 10.001 1.349.674.674 0 000-1.348z"/><path d="M12.803 9.479H2.02A2.024 2.024 0 000 11.5v8.086c0 1.115.907 2.021 2.021 2.021h10.782a2.024 2.024 0 002.021-2.021V11.5a2.024 2.024 0 00-2.021-2.021zm-4.717 6.614v2.145a.673.673 0 11-1.348 0v-2.145a2.018 2.018 0 01-1.347-1.898c0-1.114.906-2.021 2.021-2.021 1.115 0 2.022.907 2.022 2.021 0 .878-.565 1.619-1.348 1.898zm12.893-2.572c-.878 0-1.619.565-1.898 1.348h-2.91v1.348h2.91a2.018 2.018 0 001.898 1.348A2.024 2.024 0 0023 15.542a2.024 2.024 0 00-2.021-2.021zm0 5.391c-.37 0-.712.107-1.01.28l-1.17-1.388a.673.673 0 00-.516-.24h-2.111v1.348h1.798l1.118 1.326a2 2 0 00-.131.696c0 1.114.907 2.066 2.021 2.066C22.093 23 23 22.048 23 20.934a2.024 2.024 0 00-2.021-2.022zm0-10.781a2.024 2.024 0 00-2.022 2.021c0 .328.086.632.224.906l-1.168 1.116h-1.841v1.348h2.111c.173 0 .34-.068.465-.187l1.405-1.342c.252.114.53.18.826.18A2.024 2.024 0 0023 10.154a2.024 2.024 0 00-2.021-2.022zM7.412 0a5.397 5.397 0 00-5.39 5.39v2.74h2.695V5.39a2.698 2.698 0 012.695-2.695 2.698 2.698 0 012.695 2.696v2.74h2.696V5.39A5.397 5.397 0 007.413 0z"/></g><defs><clipPath id="clip0_418_739"><path fill="#fff" d="M0 0h23v23H0z"/></clipPath></defs></svg>