<svg width="20" height="20" fill="none" xmlns="http://www.w3.org/2000/svg"><g clip-path="url(#clip0_102_1661)" fill="#fff"><path d="M15.814 3.7a.486.486 0 100 .973.486.486 0 000-.972zM10 5.696A4.31 4.31 0 005.695 10 4.31 4.31 0 0010 14.305 4.31 4.31 0 0014.305 10 4.31 4.31 0 0010 5.695z"/><path d="M14.517 0H5.483A5.489 5.489 0 000 5.483v9.034A5.489 5.489 0 005.483 20h9.034A5.489 5.489 0 0020 14.517V5.483A5.489 5.489 0 0014.517 0zM10 15.486A5.492 5.492 0 014.514 10 5.492 5.492 0 0110 4.514 5.492 5.492 0 0115.486 10 5.492 5.492 0 0110 15.486zm5.814-9.633a1.668 1.668 0 01-1.667-1.667 1.667 1.667 0 111.667 1.667z"/></g><defs><clipPath id="clip0_102_1661"><path fill="#fff" d="M0 0h20v20H0z"/></clipPath></defs></svg>