<svg width="80" height="34" fill="none" xmlns="http://www.w3.org/2000/svg"><path d="M4.66.8v21.24h10.26V26H.52V.8h4.14zm27.746 22.932c-1.824 1.824-4.068 2.736-6.732 2.736-2.664 0-4.908-.912-6.732-2.736C17.094 21.884 16.17 19.64 16.17 17c0-2.64.924-4.884 2.772-6.732 1.824-1.824 4.068-2.736 6.732-2.736 2.664 0 4.908.912 6.732 2.736 1.848 1.848 2.772 4.092 2.772 6.732 0 2.64-.924 4.884-2.772 6.732zM20.058 17c0 1.632.54 2.988 1.62 4.068 1.08 1.08 2.412 1.62 3.996 1.62s2.916-.54 3.996-1.62 1.62-2.436 1.62-4.068c0-1.632-.54-2.988-1.62-4.068-1.08-1.08-2.412-1.62-3.996-1.62s-2.916.54-3.996 1.62-1.62 2.436-1.62 4.068zm32.964-6.336V8h3.816v17.172c0 2.736-.9 4.836-2.7 6.3-1.776 1.464-3.96 2.196-6.552 2.196-4.152 0-6.996-1.452-8.532-4.356l3.348-1.944c.936 1.848 2.688 2.772 5.256 2.772 1.68 0 2.988-.444 3.924-1.332.96-.864 1.44-2.076 1.44-3.636v-2.196c-1.464 2.088-3.552 3.132-6.264 3.132-2.52 0-4.668-.9-6.444-2.7-1.752-1.824-2.628-4.02-2.628-6.588 0-2.592.876-4.776 2.628-6.552 1.752-1.824 3.9-2.736 6.444-2.736 2.712 0 4.8 1.044 6.264 3.132zm-9.828 10.188c1.104 1.08 2.472 1.62 4.104 1.62 1.632 0 2.988-.54 4.068-1.62 1.104-1.08 1.656-2.424 1.656-4.032s-.552-2.952-1.656-4.032c-1.08-1.08-2.436-1.62-4.068-1.62-1.632 0-3 .54-4.104 1.62-1.08 1.08-1.62 2.424-1.62 4.032s.54 2.952 1.62 4.032zm33.404 2.88c-1.824 1.824-4.068 2.736-6.732 2.736-2.664 0-4.908-.912-6.732-2.736-1.848-1.848-2.772-4.092-2.772-6.732 0-2.64.924-4.884 2.772-6.732 1.824-1.824 4.068-2.736 6.732-2.736 2.664 0 4.908.912 6.732 2.736C78.446 12.116 79.37 14.36 79.37 17c0 2.64-.924 4.884-2.772 6.732zM64.25 17c0 1.632.54 2.988 1.62 4.068 1.08 1.08 2.412 1.62 3.996 1.62s2.916-.54 3.996-1.62 1.62-2.436 1.62-4.068c0-1.632-.54-2.988-1.62-4.068-1.08-1.08-2.412-1.62-3.996-1.62s-2.916.54-3.996 1.62-1.62 2.436-1.62 4.068z" fill="#fff"/></svg>