<svg width="132" height="34" fill="none" xmlns="http://www.w3.org/2000/svg"><path d="M.52.8h9.9c3.456 0 6.324 1.212 8.604 3.636C21.328 6.86 22.48 9.848 22.48 13.4c0 3.528-1.152 6.516-3.456 8.964C16.744 24.788 13.876 26 10.42 26H.52V.8zm4.14 21.24h5.76c2.376 0 4.308-.816 5.796-2.448 1.512-1.632 2.268-3.696 2.268-6.192s-.756-4.56-2.268-6.192c-1.488-1.632-3.42-2.448-5.796-2.448H4.66v17.28zm35.598-11.484V8h3.888v18h-3.888v-2.592c-1.464 2.04-3.564 3.06-6.3 3.06-2.472 0-4.584-.912-6.336-2.736-1.752-1.824-2.628-4.068-2.628-6.732 0-2.664.876-4.908 2.628-6.732 1.752-1.824 3.864-2.736 6.336-2.736 2.736 0 4.836 1.008 6.3 3.024zM30.502 21.14c1.08 1.08 2.436 1.62 4.068 1.62 1.632 0 2.988-.54 4.068-1.62 1.08-1.104 1.62-2.484 1.62-4.14 0-1.656-.54-3.024-1.62-4.104-1.08-1.104-2.436-1.656-4.068-1.656-1.632 0-2.988.552-4.068 1.656-1.08 1.08-1.62 2.448-1.62 4.104 0 1.632.54 3.012 1.62 4.14zm25.7-.072L60.81 8h4.14l-6.912 18.576c-1.728 4.656-4.656 6.864-8.784 6.624v-3.636c1.2.072 2.172-.18 2.916-.756.744-.576 1.368-1.5 1.872-2.772l.18-.36L46.59 8h4.248l5.364 13.068zm25.704 2.664c-1.824 1.824-4.068 2.736-6.732 2.736-2.664 0-4.908-.912-6.732-2.736C66.594 21.884 65.67 19.64 65.67 17c0-2.64.924-4.884 2.772-6.732 1.824-1.824 4.068-2.736 6.732-2.736 2.664 0 4.908.912 6.732 2.736 1.848 1.848 2.772 4.092 2.772 6.732 0 2.64-.924 4.884-2.772 6.732zM69.558 17c0 1.632.54 2.988 1.62 4.068 1.08 1.08 2.412 1.62 3.996 1.62s2.916-.54 3.996-1.62 1.62-2.436 1.62-4.068c0-1.632-.54-2.988-1.62-4.068-1.08-1.08-2.412-1.62-3.996-1.62s-2.916.54-3.996 1.62-1.62 2.436-1.62 4.068zm38.292-9.468c2.04 0 3.684.66 4.932 1.98 1.248 1.32 1.872 3.096 1.872 5.328V26h-3.888V15.092c0-1.224-.312-2.184-.936-2.88-.624-.696-1.476-1.044-2.556-1.044-1.224 0-2.184.408-2.88 1.224-.696.792-1.044 1.968-1.044 3.528V26h-3.888V15.092c0-1.248-.3-2.208-.9-2.88-.576-.696-1.404-1.044-2.484-1.044-1.2 0-2.172.408-2.916 1.224-.72.816-1.08 1.992-1.08 3.528V26h-3.888V8h3.888v2.16c1.152-1.752 2.868-2.628 5.148-2.628 2.304 0 4.008.948 5.112 2.844 1.176-1.896 3.012-2.844 5.508-2.844zm14.637-2.952c-.48.48-1.056.72-1.728.72-.672 0-1.26-.24-1.764-.72-.48-.504-.72-1.092-.72-1.764 0-.672.24-1.248.72-1.728a2.342 2.342 0 011.764-.756c.696 0 1.284.252 1.764.756.48.48.72 1.056.72 1.728 0 .672-.252 1.26-.756 1.764zm.216 21.42h-3.888V8h3.888v18zm8.186-21.42c-.48.48-1.056.72-1.728.72-.672 0-1.26-.24-1.764-.72-.48-.504-.72-1.092-.72-1.764 0-.672.24-1.248.72-1.728a2.342 2.342 0 011.764-.756c.696 0 1.284.252 1.764.756.48.48.72 1.056.72 1.728 0 .672-.252 1.26-.756 1.764zm.216 21.42h-3.888V8h3.888v18z" fill="#fff"/></svg>