<svg width="320" height="568" fill="none" xmlns="http://www.w3.org/2000/svg"><g opacity=".15" stroke-width=".5" stroke-miterlimit="10"><path d="M-91.322 640.839c-4.367-26.351-7.15-53.148-8.341-80.21-.525-12.032-.703-24.403 3.123-36.309 9.762-30.428 41.84-48.545 71.365-59.028 27.19-9.656 55.126-16.089 83.037-19.111 27.661-2.998 55.764-2.758 82.713-12.255 26.956-9.504 53.433-31.952 58.022-60.325 2.73-16.886-2.757-33.428-12.086-46.176-9.336-12.754-22.254-22.144-35.643-30.354-15.335-9.402-32.224-18.173-40.808-34.296-8.893-16.687-6.597-39.909 5.616-56.857 17.376-24.107 48.11-31.488 75.238-40.637 34.461-11.625 68.803-30.241 92.14-59.944C306.39 75.649 316.125 33.259 299.65 3.351" stroke="#fff"/><path d="M-83.602 642.51c-4.322-25.895-6.97-52.267-7.968-78.869-.439-11.825-.524-23.983 3.225-35.685 7.533-23.502 28.288-39.753 50.75-50.866 6.115-3.033 12.366-5.683 18.504-8.001 26.408-9.952 53.626-16.754 80.888-20.255 27.013-3.463 54.532-3.63 80.934-13.284 14.797-5.413 29.5-14.36 40.856-25.954 9.892-10.104 17.236-22.343 19.625-35.94a55.22 55.22 0 00.791-7.261c.627-14.869-4.749-29.047-12.943-40.476-2.633-3.669-5.535-7.088-8.636-10.309-8.094-8.396-17.518-15.469-27.061-22-15.134-10.377-31.099-20.458-39.139-37.148-7.982-16.582-5.911-38.965 5.941-55.572 16.866-23.626 46.469-31.312 72.481-40.723a294.26 294.26 0 006.138-2.303c30.912-12.014 60.872-30.121 81.383-57.372 21.875-29.062 30.549-70.063 14.085-98.88" stroke="#F9F9F9"/><path d="M-75.895 644.186c-4.273-25.447-6.792-51.375-7.591-77.541-.361-11.626-.34-23.574 3.332-35.072 7.377-23.094 27.435-39.275 49.181-50.526 5.922-3.075 11.981-5.781 17.942-8.172 25.633-10.242 52.133-17.427 78.74-21.397 26.367-3.927 53.303-4.529 79.151-14.303 15.21-5.752 30.36-14.877 42.221-26.7 10.296-10.277 18.093-22.804 20.728-36.758.472-2.494.773-4.997.903-7.493.816-15.351-4.756-29.936-13.116-41.833-2.685-3.816-5.638-7.382-8.768-10.745-8.175-8.787-17.589-16.4-26.994-23.514-14.921-11.356-29.983-22.71-37.481-40.013-7.117-16.429-5.242-38.022 6.248-54.29 16.357-23.145 44.83-31.134 69.726-40.809a275.047 275.047 0 005.876-2.365c29.554-12.291 57.901-30.383 77.049-57.05 20.413-28.424 28.025-68.054 11.57-95.782" stroke="#F4F4F4"/><path d="M-68.204 645.865c-4.216-24.994-6.607-50.491-7.221-76.204-.269-11.429-.162-23.157 3.446-34.452 7.236-22.688 26.584-38.799 47.627-50.189 5.744-3.118 11.604-5.888 17.387-8.351 24.85-10.538 50.633-18.106 76.594-22.54 25.719-4.391 52.08-5.45 77.374-15.331 15.621-6.106 31.22-15.393 43.577-27.437 10.7-10.449 18.951-23.279 21.833-37.592a55.936 55.936 0 001.015-7.71c.99-15.832-4.77-30.817-13.298-43.182-2.729-3.957-5.733-7.67-8.893-11.19-8.264-9.184-17.66-17.316-26.927-25.029-14.721-12.334-28.868-24.918-35.816-42.872-6.286-16.234-4.566-37.072 6.571-53.008 15.847-22.665 43.189-30.958 66.969-40.896a201.329 201.329 0 005.613-2.427c28.197-12.583 54.931-30.661 72.702-56.729 18.951-27.784 25.494-66.035 9.047-92.674" stroke="#EEE"/><path d="M-60.496 647.545c-4.174-24.539-6.43-49.614-6.852-74.882-.19-11.23.024-22.733 3.547-33.831 7.087-22.274 25.733-38.321 46.071-49.851 5.553-3.16 11.228-5.994 16.826-8.522 24.076-10.828 49.14-18.779 74.446-23.684 25.064-4.847 50.842-6.385 75.59-16.351 16.033-6.46 32.072-15.917 44.933-28.174 11.113-10.616 19.81-23.741 22.931-38.418a56.907 56.907 0 001.127-7.928c1.172-16.32-4.784-31.712-13.487-44.537-2.786-4.096-5.827-7.958-9.024-11.626-8.339-9.583-17.732-18.233-26.868-26.537-14.522-13.311-27.76-27.09-34.158-45.722-5.49-16.015-3.889-36.138 6.886-51.719 15.337-22.184 41.543-30.789 64.213-40.983a239.517 239.517 0 005.343-2.481c26.839-12.861 51.967-30.933 68.369-56.41 17.489-27.145 22.969-64.024 6.531-89.574" stroke="#E9E9E9"/><path d="M-52.788 649.226c-4.123-24.092-6.244-48.73-6.474-73.553-.104-11.024.202-22.315 3.662-33.211 6.946-21.867 24.881-37.844 44.516-49.513 5.36-3.202 10.844-6.093 16.271-8.687 23.293-11.125 47.639-19.446 72.29-24.821 24.41-5.318 49.604-7.334 73.799-17.378 16.437-6.821 32.931-16.434 46.29-28.912 11.517-10.789 20.667-24.201 24.042-39.244a57.884 57.884 0 001.247-8.154c1.36-16.802-4.799-32.594-13.662-45.895-2.83-4.237-5.93-8.251-9.149-12.071-8.42-9.974-17.825-19.14-26.809-28.059-14.351-14.256-26.672-29.237-32.493-48.581-4.729-15.753-3.211-35.187 7.196-50.434 14.827-21.704 39.902-30.613 61.456-41.071a222.755 222.755 0 005.079-2.544c25.481-13.138 48.995-31.212 64.02-56.088 16.034-26.515 20.431-62.012 4.016-86.474" stroke="#E3E3E3"/><path d="M-45.078 650.907c-4.074-23.644-6.066-47.851-6.103-72.215-.02-10.817.38-21.896 3.769-32.596 6.798-21.452 24.03-37.367 42.953-49.182 5.176-3.253 10.467-6.2 15.717-8.866 22.518-11.416 46.144-20.121 70.134-25.974 23.762-5.782 48.365-8.299 72.02-18.408 16.849-7.188 33.799-16.958 47.647-29.648 11.929-10.956 21.526-24.663 25.147-40.078a59.201 59.201 0 001.359-8.372c1.535-17.283-4.805-33.483-13.843-47.245-2.882-4.383-6.025-8.538-9.281-12.506-8.509-10.372-17.896-20.057-26.742-29.576-14.16-15.24-25.606-31.345-30.829-51.439-4.018-15.465-2.54-34.243 7.52-49.152 14.317-21.223 38.261-30.438 58.691-41.165a230.638 230.638 0 004.81-2.599c24.122-13.431 46.03-31.485 59.684-55.77 14.564-25.881 17.906-60 1.501-83.373" stroke="#DEDEDE"/><path d="M-37.375 652.584c-4.03-23.188-5.88-46.966-5.724-70.884.066-10.626.559-21.478 3.877-31.982 6.657-21.046 23.186-36.897 41.398-48.845 4.984-3.295 10.09-6.292 15.155-9.038a319.62 319.62 0 0167.984-27.119c23.114-6.247 47.119-9.286 70.235-19.43 17.26-7.572 34.658-17.476 49.003-30.386 12.334-11.129 22.385-25.138 26.252-40.897a60.184 60.184 0 001.472-8.59c1.723-17.765-4.827-34.37-14.026-48.594-2.932-4.53-6.119-8.827-9.405-12.951-8.584-10.771-17.975-20.981-26.676-31.092-13.96-16.218-24.561-33.43-29.163-54.299-3.342-15.149-1.855-33.299 7.837-47.86 13.8-20.734 36.62-30.262 55.933-41.254a211.055 211.055 0 004.546-2.661c22.763-13.709 43.057-31.765 55.335-55.45 13.101-25.243 15.374-57.981-1.021-80.263" stroke="#D8D8D8"/><path d="M-29.67 654.276c-3.98-22.74-5.702-46.086-5.36-69.551.152-10.42.737-21.059 3.985-31.352 6.517-20.64 22.356-36.387 39.836-48.5 4.798-3.331 9.712-6.399 14.599-9.218a313.679 313.679 0 0165.834-28.266c22.465-6.713 45.872-10.287 68.456-20.461 17.665-7.947 35.511-18 50.36-31.124 12.747-11.295 23.244-25.599 27.358-41.73a62.42 62.42 0 001.59-8.816c1.898-18.245-4.834-35.259-14.2-49.952-2.976-4.671-6.214-9.114-9.537-13.387-8.673-11.169-18.047-21.898-26.617-32.6-13.761-17.196-23.544-35.483-27.505-57.165-2.701-14.808-1.184-32.354 8.147-46.575 13.291-20.253 34.979-30.087 53.175-41.343a196.615 196.615 0 004.276-2.715c21.404-13.988 40.084-32.031 50.998-55.133 11.639-24.604 12.85-55.97-3.535-77.16" stroke="#D2D2D2"/><path d="M-21.959 655.961c-3.93-22.292-5.521-45.192-4.98-68.219.231-10.221.917-20.641 4.094-30.737 6.369-20.225 21.504-35.91 38.28-48.163 4.606-3.373 9.328-6.498 14.037-9.39 20.176-12.3 41.645-22.144 63.683-29.414 21.81-7.184 44.618-11.294 66.669-21.484 18.076-8.345 36.371-18.517 51.725-31.869 13.151-11.468 24.102-26.06 28.47-42.558a62.613 62.613 0 001.703-9.033c2.079-18.734-4.856-36.147-14.382-51.302-3.035-4.81-6.317-9.408-9.662-13.832-8.754-11.56-18.126-22.821-26.551-34.116-13.562-18.175-22.57-37.516-25.839-60.025-2.103-14.447-.498-31.41 8.472-45.291 12.78-19.771 33.338-29.926 50.416-41.432a186.78 186.78 0 004.012-2.778c20.052-14.275 37.11-32.312 46.647-54.813 10.183-23.973 10.326-53.958-6.049-74.058" stroke="#CDCDCD"/><path d="M-14.246 657.646c-3.886-21.835-5.342-44.312-4.6-66.887.324-10.022 1.096-20.221 4.21-30.115 6.22-19.824 20.66-35.426 36.716-47.832a213.943 213.943 0 0113.482-9.57c19.4-12.592 40.15-22.82 61.532-30.562 21.154-7.642 43.363-12.318 64.889-22.516 18.474-8.742 37.231-19.035 53.082-32.607 13.564-11.634 24.954-26.527 29.568-43.383a62.781 62.781 0 001.816-9.251c2.268-19.216-4.863-37.037-14.572-52.659-3.078-4.95-6.411-9.695-9.786-14.276-8.836-11.966-18.19-23.747-26.485-35.633-13.356-19.161-21.638-39.529-24.173-62.885-1.533-14.081.174-30.463 8.79-43.998 12.271-19.29 31.696-29.751 47.649-41.513a181.82 181.82 0 003.742-2.833c18.685-14.56 34.143-32.587 42.309-54.497 8.713-23.34 7.794-51.937-8.57-70.945" stroke="#fff"/><path d="M-6.539 659.326c-3.835-21.386-5.155-43.424-4.234-65.551.41-9.816 1.282-19.796 4.311-29.492 6.073-19.409 19.808-34.948 35.16-47.496a208.777 208.777 0 0112.927-9.734c18.617-12.89 38.647-23.504 59.366-31.71 20.506-8.107 42.094-13.354 63.101-23.54 18.872-9.153 38.092-19.567 54.44-33.345 13.969-11.807 25.821-26.996 30.674-44.217a62.913 62.913 0 001.928-9.483c2.442-19.696-4.877-37.918-14.746-54.016-3.13-5.098-6.507-9.984-9.919-14.714-8.918-12.357-18.269-24.67-26.418-37.15-13.157-20.139-20.749-41.537-22.515-65.736-.998-13.705.853-29.511 9.101-42.711 11.761-18.809 30.054-29.576 44.89-41.604a169.778 169.778 0 003.478-2.895c17.325-14.84 31.168-32.869 37.957-54.179 7.25-22.701 5.269-49.924-11.085-67.84" stroke="#fff"/><path d="M1.176 661.013c-3.792-20.929-4.968-42.537-3.854-64.218.49-9.616 1.461-19.377 4.42-28.876 5.932-19.001 18.964-34.479 33.604-47.158a211.43 211.43 0 0112.371-9.916c17.84-13.181 37.15-24.18 57.214-32.858 19.857-8.574 40.839-14.393 61.314-24.566 19.268-9.577 38.951-20.084 55.797-34.082 14.381-11.973 26.68-27.457 31.78-45.036a63.909 63.909 0 002.04-9.701c2.624-20.185-4.891-38.814-14.928-55.367-3.174-5.238-6.61-10.277-10.044-15.157-8.999-12.75-18.312-25.607-26.352-38.668-12.915-21.151-19.924-43.53-20.849-68.596-.491-13.31 1.533-28.572 9.427-41.426 11.251-18.327 28.412-29.401 42.13-41.693a166.212 166.212 0 003.207-2.951c15.965-15.12 28.2-33.144 33.618-53.862 5.788-22.063 2.738-47.904-13.598-64.736" stroke="#BCBCBC"/><path d="M8.89 662.701c-3.74-20.48-4.787-41.656-3.479-62.876.582-9.417 1.64-18.957 4.536-28.254 5.785-18.585 18.112-34.001 32.04-46.827a217.555 217.555 0 0111.81-10.088c17.063-13.473 35.646-24.849 55.06-34.008 19.208-9.04 39.569-15.444 59.532-25.599 19.659-9.995 39.812-20.601 57.156-34.82 14.786-12.146 27.539-27.918 32.885-45.869a64.124 64.124 0 002.152-9.919c2.813-20.668-4.905-39.696-15.11-56.718-3.231-5.377-6.704-10.565-10.175-15.594-9.088-13.147-18.384-26.538-26.293-40.176-12.709-22.138-19.155-45.517-19.182-71.457-.014-12.926 2.205-27.625 9.745-40.132 10.741-17.846 26.77-29.226 39.369-41.784.991-.991 1.982-1.996 2.944-3.013 14.612-15.407 25.225-33.427 29.271-53.553 4.332-21.432.214-45.89-16.118-61.622" stroke="#B7B7B7"/><path d="M16.6 664.399c-3.69-20.032-4.6-40.769-3.098-61.542.66-9.217 1.82-18.538 4.638-27.63 5.644-18.178 17.26-33.523 30.477-46.482a218.508 218.508 0 0111.245-10.26c16.28-13.772 34.15-25.527 52.908-35.159 18.552-9.512 38.299-16.511 57.744-26.625 20.041-10.433 40.664-21.125 58.513-35.558 15.185-12.31 28.391-28.384 33.999-46.696a66.972 66.972 0 002.271-10.145c2.988-21.148-4.919-40.591-15.284-58.076-3.276-5.518-6.8-10.853-10.301-16.039-9.163-13.547-18.455-27.456-26.227-41.693-12.51-23.117-18.458-47.51-17.516-74.318.437-12.538 2.886-26.67 10.072-38.845 10.232-17.365 25.12-29.059 36.608-41.875.906-1.01 1.797-2.033 2.674-3.068 13.244-15.694 22.248-33.695 24.924-53.23 2.868-20.792-2.319-43.868-18.633-58.515" stroke="#fff"/><path d="M24.314 666.087c-3.638-19.569-4.42-39.887-2.724-60.214.747-9.011 2-18.119 4.748-27.014 5.496-17.762 16.408-33.06 28.92-46.146a221.6 221.6 0 0110.69-10.441c15.502-14.063 32.646-26.21 50.754-36.309 17.902-9.979 37.021-17.57 55.962-27.66 20.431-10.879 41.525-21.642 59.872-36.295 15.597-12.477 29.257-28.854 35.098-47.522a67.432 67.432 0 002.384-10.363c3.176-21.631-4.934-41.474-15.475-59.434-3.327-5.665-6.894-11.142-10.433-16.476-9.251-13.945-18.534-28.381-26.161-43.212-12.311-24.095-17.825-49.503-15.857-77.185.865-12.171 3.566-25.732 10.384-37.558 9.722-16.884 23.478-28.885 33.847-41.967.82-1.028 1.618-2.076 2.41-3.13 11.883-15.975 19.271-33.98 20.576-52.922 1.398-20.16-4.843-41.855-21.146-55.41" stroke="#ABABAB"/><path d="M32.044 667.79c-3.587-19.119-4.24-38.991-2.35-58.872.84-8.812 2.18-17.699 4.864-26.392 5.356-17.355 15.557-32.583 27.363-45.81a223.235 223.235 0 0110.127-10.613c14.72-14.363 31.149-26.889 48.594-37.453 17.247-10.438 35.744-18.644 54.174-28.687 20.808-11.339 42.387-22.161 61.238-37.042 16.003-12.65 30.118-29.315 36.212-48.35a67.762 67.762 0 002.496-10.581c3.35-22.113-4.942-42.366-15.658-60.787-3.378-5.813-6.997-11.437-10.558-16.922-9.334-14.337-18.607-29.3-26.096-44.731-12.106-25.069-17.279-51.517-14.192-80.049 1.272-11.793 4.246-24.778 10.703-36.264 9.205-16.394 21.835-28.711 31.085-42.06a155.3 155.3 0 002.139-3.185c10.53-16.263 16.302-34.256 16.228-52.6-.066-19.521-7.369-39.843-23.661-52.304" stroke="#A6A6A6"/><path d="M39.774 669.495c-3.536-18.671-4.059-38.111-1.968-57.538.92-8.613 2.358-17.28 4.973-25.777 5.215-16.947 14.698-32.112 25.8-45.481a218.555 218.555 0 019.577-10.787c13.942-14.655 29.652-27.568 46.433-38.612 16.597-10.905 34.459-19.724 52.378-29.721 21.176-11.804 43.248-22.693 62.598-37.78 16.415-12.816 30.977-29.777 37.318-49.185a69.494 69.494 0 002.616-10.807c3.531-22.602-4.964-43.256-15.834-62.148-3.429-5.946-7.093-11.725-10.691-17.36-9.416-14.744-18.672-30.226-26.038-46.242-11.9-26.057-16.811-53.558-12.534-82.905 1.666-11.442 4.92-23.83 11.03-34.978 8.695-15.913 20.192-28.537 28.323-42.151.642-1.073 1.27-2.158 1.876-3.249 9.161-16.55 13.324-34.541 11.879-52.293-1.523-18.891-9.902-37.822-26.183-49.19" stroke="#A0A0A0"/><path d="M47.497 671.192c-3.492-18.213-3.87-37.222-1.6-56.201 1.005-8.406 2.545-16.854 5.082-25.146 5.06-16.538 13.825-31.654 24.242-45.145a212.687 212.687 0 019.016-10.96c13.157-14.954 28.147-28.239 44.278-39.765 15.948-11.372 33.166-20.812 50.596-30.757 21.545-12.285 44.109-23.211 63.957-38.519 16.821-12.989 31.831-30.244 38.418-50.011a69.322 69.322 0 002.728-11.026c3.721-23.085-4.971-44.146-16.017-63.501-3.48-6.093-7.188-12.013-10.816-17.805-9.498-15.136-18.752-31.152-25.973-47.761-11.702-27.037-16.435-55.624-10.868-85.77 2.052-11.096 5.609-22.883 11.343-33.689 8.185-15.431 18.549-28.363 25.561-42.244a113.106 113.106 0 001.604-3.318c7.8-16.831 10.354-34.82 7.53-51.972C263.59-.651 254.15-18.207 237.88-28.481" stroke="#9B9B9B"/><path d="M55.22 672.904c-3.44-17.764-3.69-36.341-1.218-54.866 1.092-8.214 2.725-16.434 5.192-24.529 4.92-16.131 12.973-31.177 22.685-44.81a220.167 220.167 0 018.46-11.141c12.38-15.247 26.641-28.925 42.123-40.918 15.291-11.846 31.873-21.9 48.806-31.785 21.899-12.779 44.97-23.729 65.317-39.258 17.234-13.155 32.698-30.714 39.532-50.839a71.436 71.436 0 002.841-11.244c3.895-23.566-4.993-45.036-16.2-64.854-3.525-6.234-7.29-12.308-10.949-18.242-9.58-15.529-18.824-32.072-25.908-49.282-11.503-28.016-16.137-57.731-9.201-88.633 2.416-10.771 6.283-21.935 11.663-32.393 7.682-14.944 16.905-28.205 22.798-42.338a109.88 109.88 0 001.334-3.373c6.445-17.12 7.375-35.105 3.179-51.666-4.452-17.613-14.961-33.786-31.212-42.974" stroke="#959595"/><path d="M62.952 674.607c-3.397-17.306-3.502-35.451-.836-53.529 1.179-8.007 2.906-16.014 5.302-23.913 4.773-15.715 12.128-30.708 21.12-44.465a221.017 221.017 0 017.897-11.315c11.595-15.546 25.144-29.604 39.968-42.071 14.641-12.314 30.58-23.003 47.022-32.822 22.248-13.294 45.833-24.248 66.677-39.997 17.64-13.328 33.559-31.175 40.633-51.666a71.492 71.492 0 002.953-11.476c4.084-24.05-5-45.928-16.375-66.215-3.576-6.381-7.386-12.596-11.074-18.688-9.663-15.935-18.897-32.991-25.843-50.801-11.297-29.004-15.919-59.895-7.534-91.497 2.78-10.474 6.964-20.979 11.99-31.106 7.172-14.462 15.262-28.031 20.035-42.43a89.584 89.584 0 001.07-3.436c5.083-17.402 4.396-35.376-1.172-51.345-5.923-16.981-17.487-31.772-33.734-39.858" stroke="#909090"/><path d="M70.682 676.311c-7.77-39.174 2.66-82.925 24.516-119.61 21.856-36.685 54.434-66.588 90.376-88.564 22.588-13.815 46.687-24.772 68.037-40.736 21.35-15.963 40.341-38.432 44.813-64.188 5.603-32.246-12.18-60.584-27.764-86.708-25.637-42.944-47.65-94.626-31.652-146.673 7.968-25.922 24.845-49.504 30.375-75.83 7.664-36.5-10.273-74.212-41.771-87.788" stroke="#8A8A8A"/></g></svg>