<svg width="24" height="25" fill="none" xmlns="http://www.w3.org/2000/svg"><path d="M20.484 3.718C15.797-.968 8.199-.967 3.514 3.72c-4.686 4.687-4.685 12.285.002 16.97 4.687 4.686 12.285 4.685 16.97-.002a12.002 12.002 0 00-.002-16.97zm-2.31 13.202l-.002.002v-.004l-.608.604a3.2 3.2 0 01-3.02.864 10.635 10.635 0 01-3.088-1.384 14.267 14.267 0 01-2.436-1.964A14.38 14.38 0 017.2 12.83a11.2 11.2 0 01-1.368-2.768 3.2 3.2 0 01.8-3.268l.712-.712c.198-.2.52-.2.718-.002l.002.002 2.248 2.248c.199.198.2.52.002.718l-.002.002-1.32 1.32c-.379.374-.426.97-.112 1.4a15.434 15.434 0 001.58 1.844c.64.643 1.336 1.228 2.08 1.748.43.3 1.012.249 1.384-.12l1.276-1.296c.198-.2.52-.2.718-.002l.002.002 2.252 2.256c.199.197.2.52.002.718z" fill="#46EDA2"/></svg>