<svg width="589" height="1354" fill="none" xmlns="http://www.w3.org/2000/svg"><g opacity=".2" stroke-miterlimit="10"><path opacity=".042" d="M-525.83 335.986c124.738-4.817 123.457-73.498 227.254-157.689 83.038-67.353 202.452-62.875 251.78-52.217 16.687-6.818 35.307-3.525 50.54 5.108 14.323 8.101 26.084 20.711 34.294 36.48.54 1.041 1.065 2.096 1.573 3.156 6.462 13.437 10.517 28.991 18.466 44.064 5.56 10.573 13.467 19.56 21.427 26.812 20.415 18.604 43.911 29.066 69.72 33.312 15.888 2.569 32.293 3.383 48.21 3.688 6.082.117 12.308.258 18.546.669 19.811 1.325 39.809 5.423 55.415 19.937a66.25 66.25 0 017.008 7.666c11.782 15.049 17.662 35.254 19.457 54.753 2.101 22.974-.351 45.893-1.662 68.588-1.104 19.208-3.082 37.759-2.841 56.406.256 18.863 2.47 37.861 6.886 56.382a213.653 213.653 0 003.586 13.098c4.819 15.632 11.809 30.931 22.255 43.822 5.236 6.462 11.179 12.095 17.334 17.292 13.877 11.737 29.043 21.437 45.093 28.381 18.828 2.15 60.571 17.889 76.922 63.646 20.44 57.196 46.075 210.512-76.512 259.165-122.587 48.655-157.699 77.635-243.097 128.665-85.398 51.02-387.922 25.74-475.216 255.35" stroke="#A0A0A0"/><path opacity=".083" d="M-525.653 333.415c124.403-3.645 123.677-72.288 227.839-155.446 83.329-66.526 202.349-60.935 251.442-49.823 16.692-6.657 35.23-3.192 50.35 5.577 14.214 8.229 25.838 20.94 33.896 36.775.53 1.045 1.045 2.104 1.544 3.168 6.334 13.487 10.252 29.068 18.056 44.204 5.458 10.618 13.27 19.672 21.148 26.993 20.204 18.782 43.545 29.456 69.243 33.94 15.82 2.716 32.169 3.683 48.036 4.137 6.063.173 12.269.372 18.485.841 19.74 1.51 39.646 5.792 55.088 20.442a66.18 66.18 0 016.926 7.725c11.626 15.149 17.326 35.394 18.959 54.895 1.91 22.977-.718 45.856-2.208 68.522-1.254 19.184-3.376 37.703-3.286 56.339.105 18.851 2.16 37.856 6.414 56.405a214.51 214.51 0 003.469 13.122c4.68 15.665 11.526 31.019 21.836 43.997 5.17 6.507 11.05 12.191 17.145 17.442 13.741 11.858 28.783 21.693 44.729 28.782 18.754 2.325 60.245 18.443 76.18 64.319 19.919 57.346 44.247 210.788-78.363 258.259-122.61 47.47-157.849 76.1-243.401 126.29-85.551 50.19-386.964 22.1-475.839 250.72" stroke="#A0A0A0"/><path opacity=".125" d="M-525.472 330.92c124.056-2.481 123.884-71.081 228.401-153.206 83.613-65.7 202.228-59 251.084-47.438 16.695-6.496 35.149-2.861 50.151 6.043 14.106 8.356 25.593 21.166 33.5 37.065a114.315 114.315 0 011.512 3.18c6.207 13.537 9.988 29.142 17.646 44.341 5.357 10.661 13.072 19.781 20.867 27.17 19.993 18.958 43.177 29.842 68.761 34.563 15.75 2.861 32.042 3.98 47.857 4.582 6.044.23 12.23.487 18.423 1.014 19.669 1.693 39.48 6.158 54.758 20.941a66.375 66.375 0 016.842 7.784c11.469 15.247 16.989 35.531 18.461 55.033 1.719 22.978-1.086 45.816-2.753 68.452-1.405 19.158-3.669 37.644-3.729 56.267-.048 18.839 1.848 37.849 5.94 56.424.971 4.38 2.089 8.775 3.353 13.145 4.54 15.697 11.241 31.104 21.416 44.17 5.102 6.55 10.918 12.284 16.952 17.589 13.604 11.978 28.522 21.946 44.363 29.179 18.679 2.498 59.915 18.992 75.433 64.984 19.397 57.49 42.417 211.049-80.205 257.34-122.621 46.288-157.985 74.578-243.681 123.928-85.697 49.36-385.973 18.46-476.42 246.09" stroke="#A0A0A0"/><path opacity=".167" d="M-525.288 328.5c123.699-1.322 124.081-69.875 228.941-150.967 83.889-64.874 202.09-57.074 250.703-45.064 16.697-6.336 35.065-2.531 49.95 6.506 13.996 8.482 25.344 21.39 33.099 37.35.51 1.054 1.004 2.121 1.483 3.192 6.078 13.586 9.722 29.215 17.235 44.474 5.253 10.704 12.872 19.89 20.584 27.346 19.778 19.13 42.805 30.223 68.273 35.179 15.679 3.006 31.912 4.276 47.675 5.025 6.023.286 12.187.601 18.358 1.184 19.595 1.876 39.31 6.522 54.422 21.437a66.313 66.313 0 016.759 7.843c11.311 15.342 16.651 35.663 17.961 55.165 1.528 22.978-1.452 45.773-3.297 68.378-1.555 19.131-3.961 37.583-4.171 56.192-.2 18.825 1.537 37.839 5.467 56.439a214.726 214.726 0 003.237 13.167c4.399 15.729 10.956 31.187 20.995 44.338 5.033 6.593 10.785 12.378 16.758 17.735 13.466 12.096 28.258 22.196 43.993 29.571 18.601 2.671 59.58 19.537 74.679 65.641 18.875 57.63 40.586 211.294-82.036 256.409-122.621 45.11-158.105 73.05-243.939 121.57-85.834 48.52-384.948 14.85-476.955 241.48" stroke="#A0A0A0"/><path opacity=".208" d="M-525.101 326.155c123.331-.171 124.266-68.672 229.461-148.731 84.156-64.048 201.931-55.154 250.3-42.7 16.696-6.176 34.977-2.203 49.744 6.966 13.884 8.606 25.093 21.611 32.695 37.632.5 1.058.984 2.129 1.453 3.204 5.95 13.632 9.456 29.285 16.822 44.603 5.151 10.744 12.673 19.995 20.3 27.518 19.564 19.301 42.43 30.599 67.78 35.789 15.607 3.15 31.78 4.57 47.488 5.465 6.003.342 12.146.714 18.293 1.355 19.52 2.056 39.137 6.882 54.082 21.928a66.245 66.245 0 016.675 7.9c11.153 15.437 16.312 35.793 17.46 55.294 1.338 22.975-1.817 45.727-3.839 68.298-1.705 19.104-4.253 37.52-4.613 56.114-.351 18.81 1.227 37.827 4.994 56.45a215.195 215.195 0 003.121 13.188c4.259 15.759 10.671 31.267 20.572 44.502 4.964 6.636 10.653 12.47 16.564 17.878 13.327 12.213 27.992 22.444 43.619 29.961 18.523 2.841 59.239 20.077 73.92 66.289 18.351 57.765 38.754 211.523-83.857 255.465-122.611 43.947-158.212 71.527-244.175 119.217-85.963 47.69-383.889 11.26-477.446 236.87" stroke="#A0A0A0"/><path opacity=".25" d="M-524.911 323.886c122.952.974 124.439-67.471 229.958-146.498 84.415-63.222 201.755-53.24 249.874-40.346 16.695-6.017 34.888-1.877 49.535 7.423 13.771 8.729 24.84 21.829 32.289 37.91.49 1.061.964 2.136 1.422 3.214 5.822 13.679 9.19 29.353 16.41 44.729 5.048 10.785 12.471 20.099 20.015 27.687 19.346 19.469 42.05 30.973 67.28 36.394 15.534 3.293 31.646 4.862 47.298 5.902 5.981.398 12.103.826 18.225 1.524 19.443 2.236 38.961 7.241 53.738 22.415a66.524 66.524 0 016.591 7.956c10.993 15.53 15.971 35.92 16.957 55.418 1.149 22.972-2.181 45.678-4.38 68.215-1.855 19.075-4.544 37.455-5.053 56.032-.502 18.794.917 37.812 4.522 56.458a215.989 215.989 0 003.004 13.208c4.118 15.787 10.384 31.344 20.148 44.662 4.895 6.677 10.519 12.56 16.368 18.019 13.188 12.328 27.724 22.689 43.242 30.345 18.443 3.011 58.894 20.613 73.156 66.93 17.826 57.895 36.921 211.736-85.668 254.509C227.431 1038.77 191.716 1066 105.631 1112.86c-86.084 46.85-382.796 7.68-477.892 232.27" stroke="#A0A0A0"/><path opacity=".292" d="M-524.72 321.692c122.562 2.112 124.6-66.272 230.434-144.268 84.666-62.396 201.562-51.334 249.426-38.003 16.692-5.858 34.795-1.552 49.321 7.878 13.658 8.85 24.587 22.043 31.881 38.182.48 1.065.944 2.144 1.392 3.226 5.693 13.723 8.923 29.417 15.996 44.85 4.945 10.824 12.27 20.2 19.728 27.854 19.128 19.635 41.668 31.341 66.776 36.992 15.458 3.435 31.508 5.152 47.103 6.337 5.96.452 12.058.937 18.157 1.691 19.364 2.414 38.78 7.597 53.389 22.897a66.607 66.607 0 016.505 8.012c10.833 15.621 15.63 36.044 16.455 55.537.959 22.968-2.546 45.627-4.92 68.129-2.004 19.044-4.834 37.386-5.493 55.947-.653 18.776.607 37.794 4.05 56.46.818 4.402 1.78 8.825 2.888 13.227 3.976 15.814 10.097 31.419 19.723 44.818 4.825 6.718 10.384 12.649 16.171 18.159 13.046 12.442 27.453 22.93 42.861 30.725 18.361 3.18 58.544 21.145 72.385 67.561 17.301 58.022 35.088 211.934-87.468 253.547-122.556 41.6-158.381 68.49-244.58 114.52-86.198 46.02-381.671 4.13-478.295 227.68" stroke="#A0A0A0"/><path opacity=".333" d="M-524.528 319.573c122.163 3.244 124.751-65.075 230.889-142.039 84.91-61.572 201.35-49.436 248.956-35.672 16.688-5.7 34.7-1.229 49.104 8.328 13.543 8.971 24.33 22.257 31.47 38.452a115.1 115.1 0 011.362 3.236c5.563 13.767 8.655 29.481 15.58 44.968 4.842 10.863 12.067 20.3 19.44 28.018 18.909 19.798 41.284 31.704 66.267 37.584 15.382 3.575 31.368 5.44 46.904 6.768 5.938.508 12.013 1.048 18.086 1.858 19.285 2.592 38.598 7.951 53.036 23.376a66.346 66.346 0 016.42 8.067c10.672 15.71 15.289 36.163 15.952 55.651.769 22.961-2.909 45.573-5.459 68.037-2.153 19.013-5.123 37.317-5.931 55.858-.804 18.758.298 37.775 3.577 56.461.78 4.406 1.704 8.835 2.772 13.244 3.835 15.84 9.81 31.491 19.297 44.97 4.755 6.758 10.248 12.737 15.972 18.297 12.904 12.554 27.181 23.168 42.478 31.1 18.278 3.348 58.189 21.672 71.609 68.185 16.775 58.142 33.253 212.115-89.259 252.56-122.512 40.45-158.444 66.98-244.747 112.18-86.304 45.2-380.514.61-478.656 223.11" stroke="#A0A0A0"/><path opacity=".375" d="M-524.337 317.529c121.753 4.369 124.891-63.881 231.323-139.814 85.145-60.747 201.121-47.545 248.466-33.351 16.682-5.542 34.6-.908 48.88 8.776 13.428 9.089 24.073 22.466 31.059 38.716.459 1.073.903 2.158 1.33 3.247 5.434 13.808 8.389 29.541 15.165 45.081 4.738 10.901 11.864 20.399 19.15 28.179 18.689 19.96 40.896 32.064 65.753 38.171 15.304 3.715 31.224 5.726 46.702 7.196 5.914.562 11.966 1.158 18.014 2.023 19.202 2.769 38.411 8.302 52.679 23.85a66.64 66.64 0 016.334 8.121c10.51 15.798 14.945 36.28 15.447 55.762.579 22.952-3.272 45.515-5.997 67.941-2.301 18.98-5.411 37.244-6.368 55.766-.954 18.738-.011 37.752 3.106 56.456.741 4.41 1.626 8.845 2.654 13.261 3.695 15.865 9.523 31.56 18.87 45.118 4.686 6.797 10.112 12.823 15.773 18.432 12.761 12.664 26.907 23.403 42.09 31.471 18.194 3.514 57.83 22.194 70.828 68.801 16.248 58.258 31.419 212.28-91.038 251.568-122.457 39.29-158.493 65.48-244.894 109.85-86.401 44.37-379.324-2.91-478.972 218.55" stroke="#A0A0A0"/><path opacity=".417" d="M-524.145 315.56c121.333 5.487 125.018-62.689 231.735-137.593 85.373-59.923 200.874-45.662 247.953-31.041 16.675-5.384 34.499-.589 48.655 9.22 13.31 9.208 23.813 22.673 30.644 38.978a115.53 115.53 0 011.3 3.256c5.303 13.85 8.12 29.599 14.748 45.192 4.633 10.936 11.659 20.494 18.859 28.336 18.466 20.119 40.504 32.42 65.232 38.751 15.226 3.853 31.08 6.01 46.496 7.622 5.891.616 11.919 1.268 17.94 2.188 19.12 2.943 38.223 8.65 52.318 24.319a66.524 66.524 0 016.247 8.173c10.348 15.885 14.602 36.395 14.943 55.868.389 22.942-3.633 45.455-6.533 67.841-2.449 18.946-5.699 37.17-6.804 55.671-1.105 18.717-.32 37.727 2.634 56.447a217.269 217.269 0 002.538 13.277c3.552 15.889 9.234 31.627 18.44 45.263 4.616 6.835 9.976 12.906 15.573 18.564 12.617 12.774 26.631 23.636 41.7 31.838 18.107 3.68 57.466 22.712 70.042 69.408 15.72 58.369 29.584 212.43-92.808 250.562-122.391 38.14-158.527 63.98-245.018 107.53-86.491 43.54-378.101-6.4-479.246 213.99" stroke="#A0A0A0"/><path opacity=".458" d="M-523.954 313.666c120.901 6.599 125.134-61.499 232.125-135.374 85.593-59.1 200.61-43.787 247.42-28.743 16.666-5.228 34.393-.272 48.424 9.661 13.193 9.324 23.552 22.877 30.227 39.233.439 1.08.862 2.172 1.27 3.267 5.172 13.889 7.851 29.654 14.33 45.297 4.53 10.973 11.454 20.588 18.567 28.491 18.242 20.276 40.11 32.772 64.707 39.326 15.146 3.991 30.932 6.291 46.286 8.043 5.867.67 11.871 1.377 17.865 2.352 19.035 3.117 38.03 8.995 51.952 24.784a66.557 66.557 0 016.161 8.226c10.184 15.969 14.256 36.504 14.437 55.968.2 22.931-3.994 45.393-7.069 67.737-2.596 18.912-5.985 37.094-7.238 55.573-1.255 18.694-.629 37.7 2.163 56.434a217.824 217.824 0 002.421 13.292c3.411 15.911 8.945 31.692 18.011 45.402 4.545 6.874 9.838 12.991 15.371 18.696 12.472 12.881 26.352 23.865 41.306 32.2 18.02 3.844 57.097 23.226 69.25 70.007 15.192 58.475 27.749 212.564-94.566 249.552-122.315 36.99-158.548 62.47-245.12 105.2-86.574 42.72-376.848-9.87-479.477 209.45" stroke="#A0A0A0"/><path opacity=".5" d="M-523.765 311.847c120.46 7.703 125.239-60.313 232.496-133.16 85.805-58.277 200.328-41.92 246.864-26.456 16.656-5.072 34.286.044 48.19 10.099 13.075 9.438 23.288 23.078 29.808 39.485a117.91 117.91 0 011.238 3.276c5.042 13.928 7.583 29.707 13.913 45.4 4.425 11.007 11.248 20.68 18.274 28.643 18.017 20.429 39.712 33.118 64.177 39.893 15.065 4.127 30.781 6.571 46.071 8.463 5.843.723 11.822 1.485 17.789 2.514 18.948 3.289 37.835 9.338 51.582 25.244a66.723 66.723 0 016.074 8.277c10.02 16.053 13.911 36.612 13.931 56.065.011 22.918-4.355 45.327-7.603 67.629-2.744 18.875-6.271 37.014-7.672 55.47-1.404 18.671-.936 37.67 1.692 56.418a218.84 218.84 0 002.304 13.305c3.27 15.933 8.657 31.754 17.581 45.539 4.474 6.911 9.7 13.072 15.168 18.825 12.327 12.987 26.072 24.091 40.91 32.558 17.93 4.006 56.723 23.734 68.453 70.596 14.663 58.578 25.913 212.682-96.314 248.52-122.228 35.85-158.554 60.99-245.202 102.89-86.647 41.9-375.56-13.32-479.664 204.92" stroke="#A0A0A0"/><path opacity=".542" d="M-523.579 310.103c120.01 8.799 125.334-59.129 232.845-130.949 86.009-57.456 200.03-40.061 246.289-24.182 16.643-4.916 34.175.358 47.952 10.533 12.954 9.552 23.023 23.277 29.387 39.733.417 1.086.82 2.184 1.207 3.285 4.91 13.965 7.313 29.758 13.494 45.499 4.32 11.04 11.041 20.769 17.979 28.792 17.79 20.581 39.311 33.46 63.642 40.455 14.982 4.262 30.627 6.848 45.853 8.878 5.818.776 11.772 1.592 17.711 2.675 18.86 3.461 37.636 9.679 51.208 25.7a66.601 66.601 0 015.986 8.327c9.856 16.135 13.565 36.716 13.425 56.157-.178 22.904-4.714 45.258-8.136 67.517-2.89 18.838-6.556 36.934-8.104 55.365-1.554 18.646-1.243 37.637 1.222 56.398a219.638 219.638 0 002.187 13.318c3.128 15.952 8.367 31.812 17.149 45.67 4.402 6.948 9.561 13.153 14.964 18.951 12.18 13.092 25.79 24.315 40.51 32.912 17.84 4.168 56.346 24.238 67.652 71.178 14.133 58.674 24.078 212.784-98.052 247.485-122.13 34.7-158.547 59.49-245.26 100.58-86.714 41.08-374.244-16.74-479.81 200.4" stroke="#A0A0A0"/><path opacity=".583" d="M-523.395 308.434c119.549 9.889 125.416-57.949 233.173-128.742 86.206-56.635 199.714-38.211 245.692-21.92 16.63-4.761 34.062.669 47.71 10.964 12.834 9.665 22.756 23.472 28.964 39.976.407 1.089.8 2.191 1.176 3.295 4.78 14.001 7.044 29.805 13.075 45.593 4.214 11.072 10.834 20.857 17.682 28.938 17.564 20.73 38.908 33.797 63.103 41.01 14.898 4.396 30.472 7.123 45.631 9.291 5.794.829 11.721 1.699 17.632 2.835 18.771 3.631 37.434 10.016 50.831 26.151a66.716 66.716 0 015.897 8.377c9.691 16.214 13.218 36.817 12.918 56.244-.367 22.888-5.073 45.187-8.667 67.4-3.037 18.8-6.84 36.851-8.535 55.256-1.703 18.621-1.551 37.603.752 56.374a219.242 219.242 0 002.07 13.33c2.986 15.97 8.077 31.869 16.716 45.798 4.331 6.983 9.422 13.231 14.76 19.076 12.032 13.195 25.505 24.534 40.107 33.261 17.747 4.328 55.963 24.737 66.845 71.75 13.603 58.767 22.243 212.869-99.779 246.439-122.022 33.56-158.525 58.01-245.298 98.27-86.773 40.27-372.894-20.14-479.913 195.9" stroke="#A0A0A0"/><path opacity=".625" d="M-523.215 306.839c119.078 10.972 125.488-56.771 233.481-126.539 86.394-55.815 199.38-36.37 245.074-19.67 16.616-4.607 33.946.979 47.465 11.392 12.711 9.775 22.487 23.664 28.538 40.215.397 1.092.78 2.196 1.145 3.303 4.648 14.036 6.775 29.851 12.654 45.684 4.11 11.104 10.627 20.942 17.386 29.081 17.335 20.877 38.502 34.131 62.558 41.559 14.814 4.529 30.314 7.396 45.406 9.701 5.768.881 11.668 1.804 17.551 2.994 18.68 3.799 37.23 10.35 50.449 26.597a66.87 66.87 0 015.809 8.425c9.525 16.293 12.869 36.915 12.41 56.327-.555 22.871-5.431 45.113-9.197 67.279-3.182 18.762-7.123 36.766-8.965 55.145-1.851 18.593-1.857 37.565.283 56.346a220.497 220.497 0 001.953 13.34c2.844 15.988 7.787 31.922 16.283 45.922 4.258 7.018 9.281 13.309 14.553 19.198 11.884 13.297 25.219 24.752 39.701 33.606 17.654 4.486 55.577 25.23 66.034 72.314 13.072 58.854 20.408 212.942-101.495 245.372-121.902 32.44-158.49 56.53-245.313 95.99-86.825 39.45-371.516-23.53-479.975 191.41" stroke="#A0A0A0"/><path opacity=".667" d="M-523.039 305.319c118.598 12.047 125.549-55.596 233.768-124.341 86.575-54.996 199.03-34.536 244.436-17.432 16.6-4.453 33.827 1.287 47.215 11.816 12.589 9.885 22.218 23.854 28.111 40.45a118.53 118.53 0 011.114 3.311c4.517 14.069 6.505 29.894 12.234 45.77 4.004 11.135 10.418 21.027 17.087 29.222 17.105 21.022 38.093 34.459 62.008 42.101 14.728 4.661 30.154 7.667 45.178 10.108 5.741.933 11.615 1.909 17.469 3.151 18.587 3.967 37.022 10.682 50.062 27.04a66.845 66.845 0 015.721 8.472c9.359 16.369 12.521 37.009 11.901 56.405-.743 22.852-5.787 45.036-9.725 67.155-3.327 18.721-7.404 36.679-9.393 55.029-2 18.565-2.163 37.525-.186 56.314a220.042 220.042 0 001.836 13.349c2.702 16.004 7.497 31.974 15.848 46.042 4.187 7.053 9.141 13.385 14.347 19.319 11.735 13.396 24.931 24.965 39.292 33.946 17.559 4.644 55.185 25.72 65.218 72.869 12.541 58.937 18.573 212.995-103.2 244.305-121.773 31.3-158.441 55.05-245.309 93.69-86.867 38.64-370.105-26.88-479.994 186.94" stroke="#A0A0A0"/><path opacity=".708" d="M-522.868 303.874c118.108 13.114 125.599-54.425 234.034-122.148 86.749-54.178 198.664-32.712 243.779-15.206 16.582-4.301 33.704 1.592 46.96 12.236 12.466 9.993 21.947 24.041 27.683 40.679a120.21 120.21 0 011.082 3.32c4.385 14.102 6.235 29.935 11.813 45.854 3.898 11.164 10.209 21.108 16.788 29.358 16.874 21.164 37.68 34.784 61.454 42.638 14.641 4.791 29.991 7.935 44.945 10.511 5.715.984 11.561 2.012 17.385 3.307 18.493 4.133 36.811 11.011 49.673 27.477a66.743 66.743 0 015.631 8.519c9.192 16.444 12.172 37.099 11.393 56.478-.93 22.831-6.143 44.956-10.252 67.026-3.472 18.679-7.685 36.59-9.82 54.911-2.148 18.535-2.468 37.483-.654 56.278a222.105 222.105 0 001.718 13.358c2.561 16.019 7.207 32.022 15.414 46.157 4.114 7.087 8.999 13.46 14.138 19.437 11.585 13.495 24.642 25.176 38.881 34.281 17.463 4.801 54.79 26.205 64.397 73.416 12.009 59.015 16.74 213.039-104.894 243.219-121.634 30.19-158.379 53.59-245.282 91.42-86.904 37.83-368.665-30.23-479.973 182.47" stroke="#A0A0A0"/><path opacity=".75" d="M-522.704 302.504c117.609 14.172 125.639-53.258 234.281-119.96 86.914-53.362 198.28-30.897 243.1-12.994 16.563-4.148 33.58 1.896 46.704 12.653 12.34 10.1 21.673 24.225 27.25 40.905a118.54 118.54 0 011.052 3.328c4.253 14.133 5.965 29.973 11.392 45.933 3.791 11.192 9.998 21.187 16.487 29.492 16.642 21.304 37.266 35.103 60.895 43.168 14.553 4.92 29.825 8.201 44.709 10.91 5.688 1.036 11.506 2.116 17.3 3.463 18.397 4.297 36.598 11.337 49.28 27.909a66.925 66.925 0 015.541 8.565c9.024 16.517 11.822 37.187 10.884 56.547-1.118 22.809-6.498 44.874-10.777 66.893-3.617 18.637-7.966 36.498-10.247 54.789-2.295 18.505-2.772 37.438-1.121 56.238.395 4.434.928 8.903 1.602 13.366 2.418 16.032 6.915 32.068 14.977 46.269 4.041 7.119 8.857 13.533 13.929 19.553 11.434 13.591 24.35 25.384 38.467 34.612 17.364 4.955 54.39 26.683 63.571 73.953 11.477 59.088 14.907 213.054-106.577 242.124-121.484 29.07-158.302 52.13-245.235 89.15-86.932 37.02-367.195-33.54-479.909 178.02" stroke="#A0A0A0"/><path opacity=".792" d="M-522.544 301.208c117.1 15.224 125.667-52.093 234.507-117.776 87.072-52.547 197.88-29.091 242.401-10.795 16.543-3.996 33.453 2.197 46.443 13.066 12.215 10.205 21.398 24.406 26.818 41.127a118.49 118.49 0 011.02 3.335c4.12 14.162 5.694 30.009 10.97 46.008 3.685 11.22 9.788 21.265 16.186 29.623 16.407 21.442 36.848 35.419 60.331 43.691 14.463 5.049 29.658 8.466 44.469 11.307 5.66 1.086 11.45 2.219 17.214 3.617 18.3 4.46 36.381 11.66 48.883 28.337a66.989 66.989 0 015.451 8.609c8.856 16.589 11.471 37.272 10.375 56.612-1.306 22.785-6.852 44.788-11.302 66.756-3.761 18.593-8.244 36.404-10.671 54.664-2.442 18.473-3.076 37.391-1.587 56.194.356 4.435.85 8.906 1.484 13.372 2.275 16.045 6.624 32.112 14.54 46.377 3.968 7.152 8.714 13.605 13.72 19.667 11.282 13.686 24.056 25.588 38.049 34.938 17.265 5.109 53.986 27.158 62.741 74.483 10.945 59.156 13.075 213.07-108.249 241.02-121.323 27.95-158.213 50.67-245.166 86.88-86.954 36.22-365.695-36.83-479.806 173.59" stroke="#A0A0A0"/><path opacity=".833" d="M-522.392 299.986c116.581 16.268 125.685-50.933 234.712-115.598 87.222-51.733 197.465-27.295 241.683-8.609 16.522-3.845 33.323 2.497 46.178 13.477 12.09 10.308 21.123 24.584 26.384 41.343.345 1.106.675 2.223.989 3.342 3.988 14.191 5.423 30.043 10.547 46.08 3.579 11.246 9.577 21.34 15.883 29.751 16.173 21.577 36.428 35.729 59.764 44.208 14.372 5.176 29.488 8.727 44.226 11.7 5.632 1.136 11.393 2.32 17.126 3.769 18.201 4.623 36.162 11.981 48.481 28.76a66.895 66.895 0 015.361 8.654c8.688 16.658 11.121 37.352 9.866 56.671-1.493 22.76-7.205 44.7-11.824 66.615-3.905 18.548-8.523 36.309-11.094 54.536-2.589 18.44-3.38 37.341-2.054 56.147.318 4.435.773 8.908 1.367 13.377 2.134 16.056 6.332 32.152 14.102 46.48 3.896 7.183 8.572 13.675 13.51 19.779 11.129 13.779 23.761 25.789 37.629 35.259 17.165 5.261 53.578 27.628 61.907 75.003 10.412 59.219 11.243 213.06-109.91 239.9-121.153 26.85-158.11 49.22-245.077 84.63-86.967 35.41-364.166-40.1-479.661 169.17" stroke="#A0A0A0"/><path opacity=".875" d="M-522.247 298.838c116.054 17.305 125.692-49.775 234.898-113.425 87.365-50.92 197.032-25.507 240.945-6.436 16.499-3.694 33.19 2.794 45.91 13.883 11.962 10.411 20.845 24.759 25.948 41.556.335 1.108.654 2.228.957 3.349 3.855 14.218 5.152 30.073 10.124 46.147 3.472 11.272 9.366 21.414 15.58 29.876 15.937 21.709 36.005 36.035 59.191 44.718 14.281 5.302 29.316 8.987 43.979 12.09 5.604 1.186 11.336 2.421 17.037 3.921 18.102 4.783 35.94 12.298 48.077 29.177a67.028 67.028 0 015.27 8.697c8.519 16.726 10.77 37.431 9.356 56.727-1.679 22.733-7.557 44.609-12.345 66.47-4.047 18.502-8.799 36.211-11.515 54.404-2.735 18.406-3.682 37.289-2.519 56.095.28 4.436.695 8.91 1.249 13.382 1.992 16.065 6.041 32.19 13.665 46.579 3.822 7.214 8.427 13.744 13.297 19.889 10.977 13.871 23.465 25.987 37.206 35.576 17.064 5.412 53.166 28.092 61.069 75.514 9.879 59.278 9.414 213.033-111.559 238.773-120.973 25.75-157.994 47.77-244.968 82.38-86.973 34.62-362.607-43.34-479.476 164.78" stroke="#A0A0A0"/><path opacity=".917" d="M-522.109 297.765c115.516 18.332 125.688-48.622 235.063-111.258 87.5-50.109 196.583-23.73 240.188-4.277 16.474-3.544 33.054 3.09 45.638 14.286 11.834 10.511 20.566 24.931 25.51 41.764.324 1.11.633 2.232.925 3.355 3.723 14.245 4.881 30.102 9.7 46.211 3.366 11.297 9.154 21.485 15.276 29.998 15.7 21.839 35.58 36.336 58.615 45.221 14.188 5.427 29.141 9.244 43.729 12.477 5.575 1.236 11.277 2.521 16.946 4.071 18.001 4.942 35.716 12.612 47.67 29.59a67.084 67.084 0 015.178 8.739c8.349 16.793 10.418 37.505 8.846 56.778-1.865 22.705-7.907 44.516-12.864 66.32-4.189 18.456-9.075 36.112-11.935 54.27-2.882 18.371-3.985 37.234-2.984 56.04.241 4.436.617 8.911 1.132 13.386 1.85 16.073 5.749 32.225 13.226 46.674 3.748 7.244 8.283 13.811 13.085 19.996 10.822 13.961 23.167 26.182 36.78 35.888 16.961 5.561 52.75 28.551 60.226 76.016 9.346 59.332 7.585 212.99-113.198 237.64-120.782 24.65-157.864 46.33-244.837 80.14-86.972 33.81-361.02-46.56-479.25 160.39" stroke="#A0A0A0"/><path opacity=".958" d="M-521.982 296.765c114.971 19.353 125.675-47.472 235.209-109.096 87.628-49.299 196.12-21.962 239.412-2.131 16.448-3.396 32.916 3.382 45.363 14.684 11.704 10.611 20.285 25.1 25.07 41.967.313 1.113.612 2.237.894 3.362 3.589 14.27 4.61 30.128 9.276 46.271 3.26 11.32 8.941 21.554 14.97 30.117 15.463 21.966 35.153 36.632 58.034 45.718 14.094 5.55 28.964 9.499 43.476 12.86 5.545 1.284 11.217 2.62 16.855 4.219 17.897 5.1 35.487 12.924 47.257 29.999a67.145 67.145 0 015.087 8.78c8.179 16.858 10.065 37.577 8.336 56.824-2.051 22.675-8.257 44.419-13.382 66.167-4.331 18.407-9.349 36.01-12.354 54.132-3.027 18.335-4.286 37.177-3.448 55.981a224.94 224.94 0 001.016 13.388c1.707 16.081 5.457 32.258 12.786 46.765 3.674 7.273 8.138 13.878 12.871 20.101 10.668 14.05 22.867 26.374 36.353 36.196 16.856 5.709 52.33 29.005 59.379 76.51 8.812 59.381 5.758 212.941-114.825 236.491-120.582 23.56-157.722 44.89-244.686 77.91-86.964 33.02-359.405-49.75-478.986 156.02" stroke="#A0A0A0"/><path d="M-521.862 295.821c114.418 20.365 125.653-46.328 235.34-106.943 87.75-48.492 195.643-20.205 238.621 0 16.421-3.247 32.777 3.674 45.085 15.08 11.575 10.71 20.004 25.267 24.63 42.167.303 1.115.59 2.241.862 3.368 3.456 14.294 4.339 30.153 8.853 46.328 3.152 11.342 8.728 21.622 14.664 30.233 15.224 22.092 34.723 36.925 57.45 46.209 13.999 5.673 28.786 9.751 43.22 13.24 5.516 1.333 11.157 2.718 16.762 4.367 17.794 5.256 35.258 13.232 46.843 30.403a67.14 67.14 0 014.996 8.82c8.008 16.921 9.712 37.645 7.825 56.866-2.236 22.645-8.606 44.321-13.897 66.012-4.473 18.358-9.624 35.906-12.772 53.991-3.172 18.298-4.587 37.119-3.911 55.92.165 4.435.463 8.911.899 13.389 1.564 16.087 5.165 32.289 12.345 46.853 3.601 7.302 7.994 13.942 12.658 20.205 10.513 14.136 22.566 26.562 35.923 36.499 16.75 5.856 51.907 29.454 58.53 76.995 8.278 59.427 3.931 212.867-116.444 235.337s-157.57 43.46-244.52 75.69c-86.952 32.23-357.77-52.92-478.693 151.67" stroke="url(#paint0_linear_437_3139)"/></g><defs><linearGradient id="paint0_linear_437_3139" x1="13.5" y1="222" x2="308.094" y2="695.561" gradientUnits="userSpaceOnUse"><stop stop-color="#ACACAC"/><stop offset="1" stop-color="#A0A0A0" stop-opacity="0"/></linearGradient></defs></svg>