<svg width="589" height="1384" fill="none" xmlns="http://www.w3.org/2000/svg"><g opacity=".15" stroke-miterlimit="10"><path opacity=".042" d="M92.243 555.206c-9.706 14.743-18.543 30.618-26.456 47.513-3.515 7.514-6.903 15.432-7.667 25.183-1.964 24.91 13.269 53.734 28.93 76.254 14.422 20.74 30.164 39.79 46.793 56.616 16.481 16.678 34.094 31.495 48.408 52.003 14.316 20.517 24.904 49.163 20.254 69.986-2.768 12.392-10.576 20.184-19.779 23.471-9.209 3.288-19.764 2.489-30.3.674-12.067-2.08-24.937-5.396-34.569.475-9.974 6.072-14.692 22.336-11.554 39.821 4.465 24.872 21.703 46.027 36.221 66.408 18.441 25.89 34.956 56.24 41.661 87.91 6.71 31.66 1.56 64.31-16.651 74.91" stroke="url(#paint0_linear_606_2497)"/><path opacity=".083" d="M92.762 549.378c-9.473 14.946-18.065 31.013-25.724 48.088-3.403 7.593-6.674 15.591-7.31 25.383-1.637 25.016 13.892 53.675 29.766 76.005 14.619 20.564 30.53 39.413 47.295 56.016 16.614 16.458 34.334 31.029 48.841 51.363 14.511 20.343 25.414 48.9 21.052 69.86-2.597 12.474-10.269 20.418-19.386 23.866-9.123 3.448-19.638 2.82-30.147 1.172-12.036-1.888-24.888-5.002-34.399 1.043-9.849 6.254-14.337 22.644-10.991 40.128 4.762 24.873 22.188 45.807 36.897 66.008 18.684 25.66 35.508 55.84 42.586 87.49 7.082 31.65 2.373 64.47-15.616 75.4" stroke="url(#paint1_linear_606_2497)"/><path opacity=".125" d="M93.19 543.523c-9.237 15.145-17.583 31.4-24.988 48.651-3.29 7.672-6.443 15.746-6.95 25.578-1.31 25.117 14.51 53.606 30.595 75.741 14.811 20.386 30.888 39.029 47.785 55.407 16.746 16.234 34.568 30.557 49.266 50.714 14.701 20.165 25.918 48.627 21.844 69.722-2.425 12.553-9.959 20.646-18.989 24.253-9.036 3.609-19.509 3.151-29.989 1.67-12.004-1.696-24.834-4.609-34.223 1.611-9.722 6.433-13.979 22.945-10.426 40.426 5.057 24.869 22.668 45.579 37.565 65.594 18.923 25.44 36.053 55.42 43.501 87.06 7.452 31.62 3.186 64.62-14.579 75.87" stroke="url(#paint2_linear_606_2497)"/><path opacity=".167" d="M93.53 537.641c-9 15.341-17.099 31.781-24.249 49.204-3.175 7.749-6.21 15.899-6.59 25.768-.983 25.212 15.127 53.526 31.417 75.463 15.002 20.204 31.24 38.638 48.267 54.787 16.874 16.008 34.794 30.082 49.68 50.057 14.889 19.983 26.416 48.346 22.631 69.569-2.254 12.631-9.648 20.871-18.589 24.637-8.947 3.767-19.376 3.479-29.826 2.166-11.968-1.504-24.775-4.216-34.039 2.176-9.594 6.612-13.62 23.242-9.861 40.717 5.351 24.859 23.143 45.342 38.225 65.175 19.158 25.2 36.59 54.99 44.407 86.6 7.821 31.59 3.996 64.76-13.541 76.34" stroke="url(#paint3_linear_606_2497)"/><path opacity=".208" d="M93.78 531.734c-8.761 15.534-16.611 32.155-23.504 49.746-3.062 7.823-5.979 16.047-6.231 25.951-.656 25.303 15.74 53.437 32.233 75.172 15.189 20.017 31.586 38.24 48.738 54.158 16.999 15.778 35.013 29.6 50.084 49.39 15.074 19.799 26.908 48.056 23.413 69.404-2.082 12.705-9.336 21.09-18.186 25.014-8.857 3.924-19.24 3.807-29.657 2.661-11.93-1.313-24.711-3.822-33.85 2.74-9.464 6.788-13.258 23.534-9.293 40.998 5.643 24.845 23.612 45.097 38.876 64.742 19.389 24.96 37.119 54.55 45.303 86.12 8.187 31.56 4.805 64.89-12.501 76.79" stroke="url(#paint4_linear_606_2497)"/><path opacity=".25" d="M93.94 525.802c-8.52 15.723-16.12 32.522-22.756 50.278-2.947 7.896-5.745 16.192-5.87 26.13-.328 25.388 16.349 53.336 33.042 74.865 15.373 19.827 31.925 37.836 49.199 53.519 17.12 15.547 35.226 29.114 50.478 48.716 15.255 19.61 27.395 47.757 24.189 69.225-1.909 12.776-9.022 21.305-17.78 25.385-8.765 4.082-19.1 4.133-29.482 3.155-11.891-1.121-24.643-3.429-33.655 3.302-9.332 6.964-12.895 23.821-8.725 41.272 5.934 24.825 24.076 44.842 39.52 64.295 19.616 24.716 37.64 54.106 46.189 85.636 8.552 31.52 5.611 65-11.46 77.22" stroke="url(#paint5_linear_606_2497)"/><path opacity=".292" d="M94.012 519.848c-8.279 15.909-15.628 32.882-22.005 50.799-2.833 7.968-5.511 16.334-5.508 26.303-.003 25.468 16.953 53.225 33.842 74.544 15.554 19.634 32.257 37.425 49.65 52.872 17.237 15.312 35.431 28.623 50.862 48.033 15.433 19.418 27.875 47.449 24.959 69.033-1.737 12.845-8.707 21.515-17.371 25.751-8.671 4.236-18.957 4.458-29.302 3.646-11.849-.93-24.57-3.036-33.453 3.863-9.199 7.137-12.529 24.101-8.156 41.536 6.223 24.801 24.536 44.58 40.154 63.838 19.84 24.464 38.154 53.654 47.065 85.134 8.915 31.47 6.416 65.1-10.418 77.63" stroke="url(#paint6_linear_606_2497)"/><path opacity=".333" d="M93.996 513.873c-8.037 16.091-15.134 33.234-21.252 51.308-2.717 8.038-5.276 16.472-5.145 26.47.323 25.544 17.553 53.105 34.635 74.21 15.731 19.438 32.583 37.007 50.091 52.215 17.351 15.075 35.629 28.128 51.235 47.342 15.609 19.223 28.35 47.133 25.724 68.828-1.564 12.911-8.39 21.721-16.96 26.111-8.575 4.39-18.809 4.781-29.116 4.136-11.804-.739-24.492-2.643-33.245 4.422-9.064 7.308-12.162 24.377-7.586 41.791 6.511 24.772 24.989 44.31 40.78 63.369 20.058 24.213 38.659 53.185 47.931 84.615 9.275 31.42 7.218 65.18-9.376 78.03" stroke="url(#paint7_linear_606_2497)"/><path opacity=".375" d="M93.89 507.879c-7.792 16.27-14.637 33.579-20.494 51.806-2.601 8.105-5.04 16.606-4.782 26.632.648 25.613 18.15 52.974 35.42 73.861 15.905 19.238 32.902 36.583 50.522 51.549 17.462 14.836 35.82 27.628 51.598 46.643 15.781 19.024 28.819 46.808 26.482 68.609-1.391 12.975-8.072 21.922-16.545 26.465-8.478 4.544-18.659 5.103-28.925 4.625-11.758-.548-24.41-2.25-33.031 4.979-8.928 7.477-11.792 24.647-7.016 42.038 6.797 24.739 25.438 44.031 41.398 62.888 20.273 23.956 39.157 52.706 48.787 84.076 9.633 31.36 8.017 65.26-8.334 78.41" stroke="url(#paint8_linear_606_2497)"/><path opacity=".417" d="M93.695 501.866c-7.547 16.445-14.138 33.917-19.734 52.293-2.485 8.172-4.804 16.738-4.419 26.789.973 25.677 18.742 52.832 36.198 73.499 16.076 19.033 33.214 36.152 50.942 50.874 17.57 14.593 36.004 27.123 51.951 45.936 15.949 18.822 29.281 46.474 27.235 68.377-1.219 13.036-7.754 22.119-16.128 26.813-8.381 4.697-18.506 5.423-28.729 5.112-11.71-.357-24.324-1.858-32.811 5.533-8.79 7.646-11.421 24.913-6.445 42.276 7.082 24.7 25.881 43.745 42.007 62.396 20.483 23.695 39.646 52.226 49.631 83.526 9.989 31.29 8.815 65.32-7.29 78.78" stroke="url(#paint9_linear_606_2497)"/><path opacity=".458" d="M93.413 495.836c-7.3 16.616-13.637 34.247-18.972 52.769-2.368 8.236-4.566 16.865-4.054 26.939 1.297 25.737 19.329 52.681 36.967 73.123 16.244 18.827 33.52 35.715 51.352 50.19 17.673 14.35 36.181 26.614 52.293 45.222 16.115 18.617 29.738 46.132 27.982 68.133-1.047 13.093-7.434 22.31-15.709 27.155-8.281 4.847-18.349 5.741-28.528 5.596-11.658-.167-24.232-1.465-32.585 6.086-8.65 7.811-11.047 25.172-5.872 42.505 7.364 24.657 26.318 43.45 42.606 61.892 20.69 23.429 40.127 51.724 50.466 82.964 10.342 31.22 9.609 65.36-6.248 79.13" stroke="url(#paint10_linear_606_2497)"/><path opacity=".5" d="M93.042 489.791c-7.054 16.784-13.134 34.57-18.207 53.233-2.251 8.299-4.328 16.989-3.69 27.084 1.62 25.791 19.912 52.52 37.729 72.733 16.407 18.617 33.818 35.272 51.752 49.499 17.773 14.102 36.35 26.101 52.624 44.499 16.277 18.408 30.188 45.781 28.722 67.876-.874 13.148-7.114 22.496-15.287 27.491-8.179 4.996-18.188 6.058-28.321 6.078-11.606.023-24.136-1.073-32.353 6.636-8.509 7.976-10.673 25.427-5.301 42.726 7.645 24.608 26.751 43.147 43.198 61.377 20.892 23.16 40.599 51.227 51.289 82.377 10.692 31.15 10.401 65.4-5.205 79.46" stroke="url(#paint11_linear_606_2497)"/><path opacity=".542" d="M92.584 483.732c-6.806 16.948-12.63 34.885-17.44 53.686-2.134 8.36-4.09 17.11-3.325 27.223 1.943 25.841 20.49 52.348 38.482 72.33 16.568 18.403 34.11 34.823 52.141 48.798 17.869 13.853 36.513 25.583 52.945 43.77 16.436 18.196 30.632 45.422 29.455 67.604-.701 13.202-6.791 22.679-14.862 27.822-8.077 5.144-18.025 6.372-28.11 6.559-11.55.212-24.035-.683-32.114 7.183-8.367 8.138-10.298 25.675-4.729 42.937 7.924 24.556 27.177 42.837 43.779 60.851 21.09 22.887 41.063 50.71 52.102 81.785 11.041 31.06 11.189 65.42-4.163 79.78" stroke="url(#paint12_linear_606_2497)"/><path opacity=".583" d="M92.038 477.659c-6.557 17.11-12.123 35.194-16.669 54.128-2.018 8.42-3.852 17.226-2.962 27.357 2.265 25.884 21.064 52.166 39.227 71.913 16.726 18.186 34.395 34.367 52.52 48.089 17.962 13.602 36.668 25.062 53.255 43.033 16.592 17.981 31.069 45.054 30.182 67.321-.528 13.252-6.469 22.856-14.435 28.146-7.973 5.291-17.858 6.685-27.893 7.036-11.493.402-23.931-.292-31.871 7.729-8.223 8.299-9.919 25.918-4.156 43.14 8.201 24.498 27.597 42.518 44.352 60.314 21.283 22.609 41.518 50.187 52.903 81.165 11.386 30.98 11.974 65.43-3.121 80.09" stroke="url(#paint13_linear_606_2497)"/><path opacity=".625" d="M91.403 471.576c-6.306 17.266-11.614 35.494-15.896 54.558-1.9 8.477-3.613 17.339-2.597 27.485 2.586 25.922 21.633 51.975 39.963 71.482 16.879 17.966 34.673 33.906 52.888 47.372 18.052 13.349 36.815 24.537 53.555 42.29 16.744 17.762 31.499 44.678 30.902 67.025-.356 13.298-6.145 23.027-14.007 28.462-7.867 5.437-17.688 6.997-27.67 7.513-11.434.591-23.822.097-31.622 8.271-8.078 8.457-9.541 26.156-3.584 43.334 8.476 24.435 28.011 42.191 44.916 59.765 21.472 22.328 41.965 49.657 53.693 80.547 11.729 30.87 12.756 65.42-2.08 80.36" stroke="url(#paint14_linear_606_2497)"/><path opacity=".667" d="M90.682 465.483c-6.055 17.419-11.105 35.787-15.122 54.976-1.783 8.533-3.374 17.449-2.233 27.608 2.906 25.955 22.198 51.773 40.691 71.038 17.03 17.743 34.944 33.439 53.245 46.647 18.138 13.093 36.957 24.007 53.845 41.539 16.892 17.541 31.923 44.295 31.615 66.716-.184 13.343-5.821 23.195-13.576 28.774-7.76 5.581-17.515 7.305-27.444 7.986-11.372.779-23.708.486-31.366 8.811-7.932 8.614-9.16 26.388-3.012 43.518 8.75 24.369 28.42 41.857 45.47 59.207 21.657 22.042 42.403 49.116 54.472 79.897 12.07 30.78 13.534 65.41-1.041 80.64" stroke="url(#paint15_linear_606_2497)"/><path opacity=".708" d="M89.874 459.381c-5.803 17.569-10.593 36.073-14.346 55.382-1.665 8.587-3.134 17.555-1.868 27.725 3.225 25.984 22.756 51.561 41.409 70.581 17.177 17.517 35.208 32.967 53.592 45.914 18.22 12.835 37.09 23.475 54.123 40.782 17.038 17.316 32.341 43.903 32.321 66.394-.012 13.385-5.496 23.358-13.143 29.079-7.652 5.724-17.338 7.613-27.212 8.457-11.308.967-23.59.875-31.105 9.349-7.784 8.767-8.779 26.613-2.439 43.693 9.02 24.297 28.822 41.515 46.013 58.638 21.838 21.753 42.834 48.567 55.24 79.245 12.407 30.67 14.308 65.38-.002 80.88" stroke="url(#paint16_linear_606_2497)"/><path opacity=".75" d="M88.98 453.273c-5.551 17.714-10.082 36.35-13.569 55.777-1.547 8.638-2.894 17.656-1.504 27.835 3.543 26.007 23.31 51.34 42.119 70.111 17.321 17.287 35.464 32.488 53.928 45.174 18.299 12.575 37.216 22.938 54.391 40.018 17.179 17.088 32.751 43.502 33.02 66.059.159 13.424-5.171 23.515-12.708 29.378-7.543 5.865-17.16 7.917-26.975 8.925-11.243 1.154-23.468 1.262-30.839 9.883-7.635 8.92-8.397 26.834-1.868 43.86 9.289 24.22 29.219 41.166 46.549 58.058 22.013 21.46 43.254 48.01 55.994 78.574 12.742 30.555 15.08 65.335 1.036 81.115" stroke="url(#paint17_linear_606_2497)"/><path opacity=".792" d="M87.999 447.159c-5.298 17.856-9.568 36.619-12.79 56.159-1.429 8.689-2.654 17.755-1.14 27.941 3.86 26.024 23.859 51.109 42.82 69.627 17.461 17.056 35.714 32.005 54.253 44.426 18.374 12.314 37.335 22.398 54.648 39.248 17.317 16.858 33.154 43.095 33.711 65.713.331 13.46-4.845 23.667-12.271 29.67-7.432 6.005-16.977 8.219-26.734 9.39-11.175 1.341-23.341 1.648-30.567 10.414-7.484 9.071-8.012 27.049-1.296 44.018 9.556 24.139 29.609 40.809 47.074 57.467 22.185 21.164 43.666 47.445 56.738 77.89 13.074 30.438 15.847 65.278 2.071 81.338" stroke="url(#paint18_linear_606_2497)"/><path opacity=".833" d="M86.932 441.04c-5.044 17.994-9.053 36.881-12.009 56.53-1.31 8.738-2.414 17.85-.776 28.04 4.175 26.037 24.401 50.868 43.511 69.131 17.597 16.821 35.956 31.516 54.567 43.671 18.446 12.05 37.447 21.855 54.894 38.471 17.452 16.625 33.551 42.679 34.396 65.354.502 13.494-4.519 23.814-11.833 29.956-7.32 6.143-16.792 8.52-26.488 9.853-11.105 1.526-23.209 2.032-30.289 10.942-7.333 9.218-7.628 27.257-.726 44.166 9.821 24.053 29.993 40.445 47.59 56.867 22.352 20.863 44.068 46.87 57.47 77.19 13.403 30.309 16.609 65.209 3.104 81.539" stroke="url(#paint19_linear_606_2497)"/><path opacity=".875" d="M85.78 434.918c-4.789 18.128-8.537 37.135-11.227 56.889-1.192 8.784-2.174 17.941-.413 28.134 4.49 26.044 24.94 50.618 44.193 68.622 17.731 16.583 36.191 31.021 54.871 42.908 18.514 11.785 37.551 21.308 55.13 37.688 17.583 16.389 33.94 42.257 35.072 64.983.672 13.525-4.192 23.957-11.394 30.235-7.206 6.281-16.603 8.818-26.236 10.313-11.033 1.711-23.074 2.417-30.006 11.467-7.18 9.365-7.243 27.461-.156 44.306 10.083 23.962 30.371 40.073 48.095 56.255 22.514 20.56 44.463 46.288 58.19 76.478 13.729 30.179 17.368 65.124 4.136 81.724" stroke="url(#paint20_linear_606_2497)"/><path opacity=".917" d="M84.542 428.795c-4.534 18.258-8.02 37.381-10.444 57.236-1.074 8.829-1.934 18.028-.05 28.222 4.803 26.046 25.472 50.357 44.866 68.1 17.86 16.342 36.419 30.521 55.163 42.139 18.578 11.517 37.648 20.758 55.354 36.899 17.711 16.149 34.323 41.826 35.741 64.599.843 13.553-3.865 24.094-10.952 30.508-7.092 6.416-16.412 9.113-25.98 10.769-10.96 1.897-22.935 2.8-29.719 11.989-7.025 9.509-6.855 27.658.414 44.436 10.343 23.868 30.742 39.694 48.59 55.635 22.673 20.253 44.848 45.698 58.898 75.751 14.052 30.042 18.122 65.032 5.165 81.892" stroke="url(#paint21_linear_606_2497)"/><path opacity=".958" d="M83.22 422.672c-4.279 18.385-7.504 37.62-9.661 57.571-.956 8.872-1.694 18.111.312 28.304 5.114 26.042 25.998 50.088 45.529 67.566 17.986 16.098 36.64 30.016 55.445 41.362 18.638 11.248 37.737 20.205 55.567 36.104 17.835 15.908 34.699 41.388 36.402 64.203 1.013 13.579-3.537 24.227-10.508 30.774-6.977 6.55-16.218 9.408-25.721 11.224-10.883 2.08-22.791 3.181-29.424 12.507-6.871 9.65-6.469 27.849.981 44.557 10.601 23.768 31.107 39.308 49.077 55.004 22.825 19.942 45.223 45.1 59.593 75.011 14.371 29.9 18.871 64.921 6.191 82.041" stroke="url(#paint22_linear_606_2497)"/><path d="M81.82 416.551c-4.022 18.507-6.985 37.85-8.877 57.894-.837 8.913-1.453 18.192.675 28.381 5.424 26.035 26.519 49.809 46.183 67.021 18.108 15.851 36.853 29.506 55.717 40.579 18.695 10.977 37.819 19.649 55.77 35.304 17.955 15.664 35.068 40.943 37.056 63.797 1.182 13.6-3.21 24.354-10.065 31.034-6.86 6.682-16.021 9.698-25.456 11.674-10.806 2.263-22.644 3.561-29.126 13.022-6.715 9.79-6.082 28.035 1.549 44.67 10.856 23.664 31.465 38.916 49.552 54.365 22.975 19.628 45.591 44.493 60.278 74.257 14.687 29.753 19.615 64.801 7.215 82.181" stroke="url(#paint23_linear_606_2497)"/></g><g opacity=".2" stroke-miterlimit="10"><path opacity=".042" d="M-525.83 335.986c124.738-4.817 123.457-73.498 227.254-157.689 83.038-67.353 202.452-62.875 251.78-52.217 16.687-6.818 35.307-3.525 50.54 5.108 14.323 8.101 26.084 20.711 34.294 36.48.54 1.041 1.065 2.096 1.573 3.156 6.462 13.437 10.517 28.991 18.466 44.064 5.56 10.573 13.467 19.56 21.427 26.812 20.415 18.604 43.911 29.066 69.72 33.312 15.888 2.569 32.293 3.383 48.21 3.688 6.082.117 12.308.258 18.546.669 19.811 1.325 39.809 5.423 55.415 19.937a66.25 66.25 0 017.008 7.666c11.782 15.049 17.662 35.254 19.457 54.753 2.101 22.974-.351 45.893-1.662 68.588-1.104 19.208-3.082 37.759-2.841 56.406.256 18.863 2.47 37.861 6.886 56.382a213.653 213.653 0 003.586 13.098c4.819 15.632 11.809 30.931 22.255 43.822 5.236 6.462 11.179 12.095 17.334 17.292 13.877 11.737 29.043 21.437 45.093 28.381 18.828 2.15 60.571 17.889 76.922 63.646 20.44 57.196 46.075 210.512-76.512 259.165-122.587 48.655-157.699 77.635-243.097 128.665-85.398 51.02-387.922 25.74-475.216 255.35" stroke="#A0A0A0"/><path opacity=".083" d="M-525.653 333.415c124.403-3.645 123.677-72.288 227.839-155.446 83.329-66.526 202.349-60.935 251.442-49.823 16.692-6.657 35.23-3.192 50.35 5.577 14.214 8.229 25.838 20.94 33.896 36.775.53 1.045 1.045 2.104 1.544 3.168 6.334 13.487 10.252 29.068 18.056 44.204 5.458 10.618 13.27 19.672 21.148 26.993 20.204 18.782 43.545 29.456 69.243 33.94 15.82 2.716 32.169 3.683 48.036 4.137 6.063.173 12.269.372 18.485.841 19.74 1.51 39.646 5.792 55.088 20.442a66.18 66.18 0 016.926 7.725c11.626 15.149 17.326 35.394 18.959 54.895 1.91 22.977-.718 45.856-2.208 68.522-1.254 19.184-3.376 37.703-3.286 56.339.105 18.851 2.16 37.856 6.414 56.405a214.51 214.51 0 003.469 13.122c4.68 15.665 11.526 31.019 21.836 43.997 5.17 6.507 11.05 12.191 17.145 17.442 13.741 11.858 28.783 21.693 44.729 28.782 18.754 2.325 60.245 18.443 76.18 64.319 19.919 57.346 44.247 210.788-78.363 258.259-122.61 47.47-157.849 76.1-243.401 126.29-85.551 50.19-386.964 22.1-475.839 250.72" stroke="#A0A0A0"/><path opacity=".125" d="M-525.472 330.92c124.056-2.481 123.884-71.081 228.401-153.206 83.613-65.7 202.228-59 251.084-47.438 16.695-6.496 35.149-2.861 50.151 6.043 14.106 8.356 25.593 21.166 33.5 37.065a114.315 114.315 0 011.512 3.18c6.207 13.537 9.988 29.142 17.646 44.341 5.357 10.661 13.072 19.781 20.867 27.17 19.993 18.958 43.177 29.842 68.761 34.563 15.75 2.861 32.042 3.98 47.857 4.582 6.044.23 12.23.487 18.423 1.014 19.669 1.693 39.48 6.158 54.758 20.941a66.375 66.375 0 016.842 7.784c11.469 15.247 16.989 35.531 18.461 55.033 1.719 22.978-1.086 45.816-2.753 68.452-1.405 19.158-3.669 37.644-3.729 56.267-.048 18.839 1.848 37.849 5.94 56.424.971 4.38 2.089 8.775 3.353 13.145 4.54 15.697 11.241 31.104 21.416 44.17 5.102 6.55 10.918 12.284 16.952 17.589 13.604 11.978 28.522 21.946 44.363 29.179 18.679 2.498 59.915 18.992 75.433 64.984 19.397 57.49 42.417 211.049-80.205 257.34-122.621 46.288-157.985 74.578-243.681 123.928-85.697 49.36-385.973 18.46-476.42 246.09" stroke="#A0A0A0"/><path opacity=".167" d="M-525.288 328.5c123.699-1.322 124.081-69.875 228.941-150.967 83.889-64.874 202.09-57.074 250.703-45.064 16.697-6.336 35.065-2.531 49.95 6.506 13.996 8.482 25.344 21.39 33.099 37.35.51 1.054 1.004 2.121 1.483 3.192 6.078 13.586 9.722 29.215 17.235 44.474 5.253 10.704 12.872 19.89 20.584 27.346 19.778 19.13 42.805 30.223 68.273 35.179 15.679 3.006 31.912 4.276 47.675 5.025 6.023.286 12.187.601 18.358 1.184 19.595 1.876 39.31 6.522 54.422 21.437a66.313 66.313 0 016.759 7.843c11.311 15.342 16.651 35.663 17.961 55.165 1.528 22.978-1.452 45.773-3.297 68.378-1.555 19.131-3.961 37.583-4.171 56.192-.2 18.825 1.537 37.839 5.467 56.439a214.726 214.726 0 003.237 13.167c4.399 15.729 10.956 31.187 20.995 44.338 5.033 6.593 10.785 12.378 16.758 17.735 13.466 12.096 28.258 22.196 43.993 29.571 18.601 2.671 59.58 19.537 74.679 65.641 18.875 57.63 40.586 211.294-82.036 256.409-122.621 45.11-158.105 73.05-243.939 121.57-85.834 48.52-384.948 14.85-476.955 241.48" stroke="#A0A0A0"/><path opacity=".208" d="M-525.101 326.155c123.331-.171 124.266-68.672 229.461-148.731 84.156-64.048 201.931-55.154 250.3-42.7 16.696-6.176 34.977-2.203 49.744 6.966 13.884 8.606 25.093 21.611 32.695 37.632.5 1.058.984 2.129 1.453 3.204 5.95 13.632 9.456 29.285 16.822 44.603 5.151 10.744 12.673 19.995 20.3 27.518 19.564 19.301 42.43 30.599 67.78 35.789 15.607 3.15 31.78 4.57 47.488 5.465 6.003.342 12.146.714 18.293 1.355 19.52 2.056 39.137 6.882 54.082 21.928a66.245 66.245 0 016.675 7.9c11.153 15.437 16.312 35.793 17.46 55.294 1.338 22.975-1.817 45.727-3.839 68.298-1.705 19.104-4.253 37.52-4.613 56.114-.351 18.81 1.227 37.827 4.994 56.45a215.195 215.195 0 003.121 13.188c4.259 15.759 10.671 31.267 20.572 44.502 4.964 6.636 10.653 12.47 16.564 17.878 13.327 12.213 27.992 22.444 43.619 29.961 18.523 2.841 59.239 20.077 73.92 66.289 18.351 57.765 38.754 211.523-83.857 255.465-122.611 43.947-158.212 71.527-244.175 119.217-85.963 47.69-383.889 11.26-477.446 236.87" stroke="#A0A0A0"/><path opacity=".25" d="M-524.911 323.886c122.952.974 124.439-67.471 229.958-146.498 84.415-63.222 201.755-53.24 249.874-40.346 16.695-6.017 34.888-1.877 49.535 7.423 13.771 8.729 24.84 21.829 32.289 37.91.49 1.061.964 2.136 1.422 3.214 5.822 13.679 9.19 29.353 16.41 44.729 5.048 10.785 12.471 20.099 20.015 27.687 19.346 19.469 42.05 30.973 67.28 36.394 15.534 3.293 31.646 4.862 47.298 5.902 5.981.398 12.103.826 18.225 1.524 19.443 2.236 38.961 7.241 53.738 22.415a66.524 66.524 0 016.591 7.956c10.993 15.53 15.971 35.92 16.957 55.418 1.149 22.972-2.181 45.678-4.38 68.215-1.855 19.075-4.544 37.455-5.053 56.032-.502 18.794.917 37.812 4.522 56.458a215.989 215.989 0 003.004 13.208c4.118 15.787 10.384 31.344 20.148 44.662 4.895 6.677 10.519 12.56 16.368 18.019 13.188 12.328 27.724 22.689 43.242 30.345 18.443 3.011 58.894 20.613 73.156 66.93 17.826 57.895 36.921 211.736-85.668 254.509C227.431 1038.77 191.716 1066 105.631 1112.86c-86.084 46.85-382.796 7.68-477.892 232.27" stroke="#A0A0A0"/><path opacity=".292" d="M-524.72 321.692c122.562 2.112 124.6-66.272 230.434-144.268 84.666-62.396 201.562-51.334 249.426-38.003 16.692-5.858 34.795-1.552 49.321 7.878 13.658 8.85 24.587 22.043 31.881 38.182.48 1.065.944 2.144 1.392 3.226 5.693 13.723 8.923 29.417 15.996 44.85 4.945 10.824 12.27 20.2 19.728 27.854 19.128 19.635 41.668 31.341 66.776 36.992 15.458 3.435 31.508 5.152 47.103 6.337 5.96.452 12.058.937 18.157 1.691 19.364 2.414 38.78 7.597 53.389 22.897a66.607 66.607 0 016.505 8.012c10.833 15.621 15.63 36.044 16.455 55.537.959 22.968-2.546 45.627-4.92 68.129-2.004 19.044-4.834 37.386-5.493 55.947-.653 18.776.607 37.794 4.05 56.46.818 4.402 1.78 8.825 2.888 13.227 3.976 15.814 10.097 31.419 19.723 44.818 4.825 6.718 10.384 12.649 16.171 18.159 13.046 12.442 27.453 22.93 42.861 30.725 18.361 3.18 58.544 21.145 72.385 67.561 17.301 58.022 35.088 211.934-87.468 253.547-122.556 41.6-158.381 68.49-244.58 114.52-86.198 46.02-381.671 4.13-478.295 227.68" stroke="#A0A0A0"/><path opacity=".333" d="M-524.528 319.573c122.163 3.244 124.751-65.075 230.889-142.039 84.91-61.572 201.35-49.436 248.956-35.672 16.688-5.7 34.7-1.229 49.104 8.328 13.543 8.971 24.33 22.257 31.47 38.452a115.1 115.1 0 011.362 3.236c5.563 13.767 8.655 29.481 15.58 44.968 4.842 10.863 12.067 20.3 19.44 28.018 18.909 19.798 41.284 31.704 66.267 37.584 15.382 3.575 31.368 5.44 46.904 6.768 5.938.508 12.013 1.048 18.086 1.858 19.285 2.592 38.598 7.951 53.036 23.376a66.346 66.346 0 016.42 8.067c10.672 15.71 15.289 36.163 15.952 55.651.769 22.961-2.909 45.573-5.459 68.037-2.153 19.013-5.123 37.317-5.931 55.858-.804 18.758.298 37.775 3.577 56.461.78 4.406 1.704 8.835 2.772 13.244 3.835 15.84 9.81 31.491 19.297 44.97 4.755 6.758 10.248 12.737 15.972 18.297 12.904 12.554 27.181 23.168 42.478 31.1 18.278 3.348 58.189 21.672 71.609 68.185 16.775 58.142 33.253 212.115-89.259 252.56-122.512 40.45-158.444 66.98-244.747 112.18-86.304 45.2-380.514.61-478.656 223.11" stroke="#A0A0A0"/><path opacity=".375" d="M-524.337 317.529c121.753 4.369 124.891-63.881 231.323-139.814 85.145-60.747 201.121-47.545 248.466-33.351 16.682-5.542 34.6-.908 48.88 8.776 13.428 9.089 24.073 22.466 31.059 38.716.459 1.073.903 2.158 1.33 3.247 5.434 13.808 8.389 29.541 15.165 45.081 4.738 10.901 11.864 20.399 19.15 28.179 18.689 19.96 40.896 32.064 65.753 38.171 15.304 3.715 31.224 5.726 46.702 7.196 5.914.562 11.966 1.158 18.014 2.023 19.202 2.769 38.411 8.302 52.679 23.85a66.64 66.64 0 016.334 8.121c10.51 15.798 14.945 36.28 15.447 55.762.579 22.952-3.272 45.515-5.997 67.941-2.301 18.98-5.411 37.244-6.368 55.766-.954 18.738-.011 37.752 3.106 56.456.741 4.41 1.626 8.845 2.654 13.261 3.695 15.865 9.523 31.56 18.87 45.118 4.686 6.797 10.112 12.823 15.773 18.432 12.761 12.664 26.907 23.403 42.09 31.471 18.194 3.514 57.83 22.194 70.828 68.801 16.248 58.258 31.419 212.28-91.038 251.568-122.457 39.29-158.493 65.48-244.894 109.85-86.401 44.37-379.324-2.91-478.972 218.55" stroke="#A0A0A0"/><path opacity=".417" d="M-524.145 315.56c121.333 5.487 125.018-62.689 231.735-137.593 85.373-59.923 200.874-45.662 247.953-31.041 16.675-5.384 34.499-.589 48.655 9.22 13.31 9.208 23.813 22.673 30.644 38.978a115.53 115.53 0 011.3 3.256c5.303 13.85 8.12 29.599 14.748 45.192 4.633 10.936 11.659 20.494 18.859 28.336 18.466 20.119 40.504 32.42 65.232 38.751 15.226 3.853 31.08 6.01 46.496 7.622 5.891.616 11.919 1.268 17.94 2.188 19.12 2.943 38.223 8.65 52.318 24.319a66.524 66.524 0 016.247 8.173c10.348 15.885 14.602 36.395 14.943 55.868.389 22.942-3.633 45.455-6.533 67.841-2.449 18.946-5.699 37.17-6.804 55.671-1.105 18.717-.32 37.727 2.634 56.447a217.269 217.269 0 002.538 13.277c3.552 15.889 9.234 31.627 18.44 45.263 4.616 6.835 9.976 12.906 15.573 18.564 12.617 12.774 26.631 23.636 41.7 31.838 18.107 3.68 57.466 22.712 70.042 69.408 15.72 58.369 29.584 212.43-92.808 250.562-122.391 38.14-158.527 63.98-245.018 107.53-86.491 43.54-378.101-6.4-479.246 213.99" stroke="#A0A0A0"/><path opacity=".458" d="M-523.954 313.666c120.901 6.599 125.134-61.499 232.125-135.374 85.593-59.1 200.61-43.787 247.42-28.743 16.666-5.228 34.393-.272 48.424 9.661 13.193 9.324 23.552 22.877 30.227 39.233.439 1.08.862 2.172 1.27 3.267 5.172 13.889 7.851 29.654 14.33 45.297 4.53 10.973 11.454 20.588 18.567 28.491 18.242 20.276 40.11 32.772 64.707 39.326 15.146 3.991 30.932 6.291 46.286 8.043 5.867.67 11.871 1.377 17.865 2.352 19.035 3.117 38.03 8.995 51.952 24.784a66.557 66.557 0 016.161 8.226c10.184 15.969 14.256 36.504 14.437 55.968.2 22.931-3.994 45.393-7.069 67.737-2.596 18.912-5.985 37.094-7.238 55.573-1.255 18.694-.629 37.7 2.163 56.434a217.824 217.824 0 002.421 13.292c3.411 15.911 8.945 31.692 18.011 45.402 4.545 6.874 9.838 12.991 15.371 18.696 12.472 12.881 26.352 23.865 41.306 32.2 18.02 3.844 57.097 23.226 69.25 70.007 15.192 58.475 27.749 212.564-94.566 249.552-122.315 36.99-158.548 62.47-245.12 105.2-86.574 42.72-376.848-9.87-479.477 209.45" stroke="#A0A0A0"/><path opacity=".5" d="M-523.765 311.847c120.46 7.703 125.239-60.313 232.496-133.16 85.805-58.277 200.328-41.92 246.864-26.456 16.656-5.072 34.286.044 48.19 10.099 13.075 9.438 23.288 23.078 29.808 39.485a117.91 117.91 0 011.238 3.276c5.042 13.928 7.583 29.707 13.913 45.4 4.425 11.007 11.248 20.68 18.274 28.643 18.017 20.429 39.712 33.118 64.177 39.893 15.065 4.127 30.781 6.571 46.071 8.463 5.843.723 11.822 1.485 17.789 2.514 18.948 3.289 37.835 9.338 51.582 25.244a66.723 66.723 0 016.074 8.277c10.02 16.053 13.911 36.612 13.931 56.065.011 22.918-4.355 45.327-7.603 67.629-2.744 18.875-6.271 37.014-7.672 55.47-1.404 18.671-.936 37.67 1.692 56.418a218.84 218.84 0 002.304 13.305c3.27 15.933 8.657 31.754 17.581 45.539 4.474 6.911 9.7 13.072 15.168 18.825 12.327 12.987 26.072 24.091 40.91 32.558 17.93 4.006 56.723 23.734 68.453 70.596 14.663 58.578 25.913 212.682-96.314 248.52-122.228 35.85-158.554 60.99-245.202 102.89-86.647 41.9-375.56-13.32-479.664 204.92" stroke="#A0A0A0"/><path opacity=".542" d="M-523.579 310.103c120.01 8.799 125.334-59.129 232.845-130.949 86.009-57.456 200.03-40.061 246.289-24.182 16.643-4.916 34.175.358 47.952 10.533 12.954 9.552 23.023 23.277 29.387 39.733.417 1.086.82 2.184 1.207 3.285 4.91 13.965 7.313 29.758 13.494 45.499 4.32 11.04 11.041 20.769 17.979 28.792 17.79 20.581 39.311 33.46 63.642 40.455 14.982 4.262 30.627 6.848 45.853 8.878 5.818.776 11.772 1.592 17.711 2.675 18.86 3.461 37.636 9.679 51.208 25.7a66.601 66.601 0 015.986 8.327c9.856 16.135 13.565 36.716 13.425 56.157-.178 22.904-4.714 45.258-8.136 67.517-2.89 18.838-6.556 36.934-8.104 55.365-1.554 18.646-1.243 37.637 1.222 56.398a219.638 219.638 0 002.187 13.318c3.128 15.952 8.367 31.812 17.149 45.67 4.402 6.948 9.561 13.153 14.964 18.951 12.18 13.092 25.79 24.315 40.51 32.912 17.84 4.168 56.346 24.238 67.652 71.178 14.133 58.674 24.078 212.784-98.052 247.485-122.13 34.7-158.547 59.49-245.26 100.58-86.714 41.08-374.244-16.74-479.81 200.4" stroke="#A0A0A0"/><path opacity=".583" d="M-523.395 308.434c119.549 9.889 125.416-57.949 233.173-128.742 86.206-56.635 199.714-38.211 245.692-21.92 16.63-4.761 34.062.669 47.71 10.964 12.834 9.665 22.756 23.472 28.964 39.976.407 1.089.8 2.191 1.176 3.295 4.78 14.001 7.044 29.805 13.075 45.593 4.214 11.072 10.834 20.857 17.682 28.938 17.564 20.73 38.908 33.797 63.103 41.01 14.898 4.396 30.472 7.123 45.631 9.291 5.794.829 11.721 1.699 17.632 2.835 18.771 3.631 37.434 10.016 50.831 26.151a66.716 66.716 0 015.897 8.377c9.691 16.214 13.218 36.817 12.918 56.244-.367 22.888-5.073 45.187-8.667 67.4-3.037 18.8-6.84 36.851-8.535 55.256-1.703 18.621-1.551 37.603.752 56.374a219.242 219.242 0 002.07 13.33c2.986 15.97 8.077 31.869 16.716 45.798 4.331 6.983 9.422 13.231 14.76 19.076 12.032 13.195 25.505 24.534 40.107 33.261 17.747 4.328 55.963 24.737 66.845 71.75 13.603 58.767 22.243 212.869-99.779 246.439-122.022 33.56-158.525 58.01-245.298 98.27-86.773 40.27-372.894-20.14-479.913 195.9" stroke="#A0A0A0"/><path opacity=".625" d="M-523.215 306.839c119.078 10.972 125.488-56.771 233.481-126.539 86.394-55.815 199.38-36.37 245.074-19.67 16.616-4.607 33.946.979 47.465 11.392 12.711 9.775 22.487 23.664 28.538 40.215.397 1.092.78 2.196 1.145 3.303 4.648 14.036 6.775 29.851 12.654 45.684 4.11 11.104 10.627 20.942 17.386 29.081 17.335 20.877 38.502 34.131 62.558 41.559 14.814 4.529 30.314 7.396 45.406 9.701 5.768.881 11.668 1.804 17.551 2.994 18.68 3.799 37.23 10.35 50.449 26.597a66.87 66.87 0 015.809 8.425c9.525 16.293 12.869 36.915 12.41 56.327-.555 22.871-5.431 45.113-9.197 67.279-3.182 18.762-7.123 36.766-8.965 55.145-1.851 18.593-1.857 37.565.283 56.346a220.497 220.497 0 001.953 13.34c2.844 15.988 7.787 31.922 16.283 45.922 4.258 7.018 9.281 13.309 14.553 19.198 11.884 13.297 25.219 24.752 39.701 33.606 17.654 4.486 55.577 25.23 66.034 72.314 13.072 58.854 20.408 212.942-101.495 245.372-121.902 32.44-158.49 56.53-245.313 95.99-86.825 39.45-371.516-23.53-479.975 191.41" stroke="#A0A0A0"/><path opacity=".667" d="M-523.039 305.319c118.598 12.047 125.549-55.596 233.768-124.341 86.575-54.996 199.03-34.536 244.436-17.432 16.6-4.453 33.827 1.287 47.215 11.816 12.589 9.885 22.218 23.854 28.111 40.45a118.53 118.53 0 011.114 3.311c4.517 14.069 6.505 29.894 12.234 45.77 4.004 11.135 10.418 21.027 17.087 29.222 17.105 21.022 38.093 34.459 62.008 42.101 14.728 4.661 30.154 7.667 45.178 10.108 5.741.933 11.615 1.909 17.469 3.151 18.587 3.967 37.022 10.682 50.062 27.04a66.845 66.845 0 015.721 8.472c9.359 16.369 12.521 37.009 11.901 56.405-.743 22.852-5.787 45.036-9.725 67.155-3.327 18.721-7.404 36.679-9.393 55.029-2 18.565-2.163 37.525-.186 56.314a220.042 220.042 0 001.836 13.349c2.702 16.004 7.497 31.974 15.848 46.042 4.187 7.053 9.141 13.385 14.347 19.319 11.735 13.396 24.931 24.965 39.292 33.946 17.559 4.644 55.185 25.72 65.218 72.869 12.541 58.937 18.573 212.995-103.2 244.305-121.773 31.3-158.441 55.05-245.309 93.69-86.867 38.64-370.105-26.88-479.994 186.94" stroke="#A0A0A0"/><path opacity=".708" d="M-522.868 303.874c118.108 13.114 125.599-54.425 234.034-122.148 86.749-54.178 198.664-32.712 243.779-15.206 16.582-4.301 33.704 1.592 46.96 12.236 12.466 9.993 21.947 24.041 27.683 40.679a120.21 120.21 0 011.082 3.32c4.385 14.102 6.235 29.935 11.813 45.854 3.898 11.164 10.209 21.108 16.788 29.358 16.874 21.164 37.68 34.784 61.454 42.638 14.641 4.791 29.991 7.935 44.945 10.511 5.715.984 11.561 2.012 17.385 3.307 18.493 4.133 36.811 11.011 49.673 27.477a66.743 66.743 0 015.631 8.519c9.192 16.444 12.172 37.099 11.393 56.478-.93 22.831-6.143 44.956-10.252 67.026-3.472 18.679-7.685 36.59-9.82 54.911-2.148 18.535-2.468 37.483-.654 56.278a222.105 222.105 0 001.718 13.358c2.561 16.019 7.207 32.022 15.414 46.157 4.114 7.087 8.999 13.46 14.138 19.437 11.585 13.495 24.642 25.176 38.881 34.281 17.463 4.801 54.79 26.205 64.397 73.416 12.009 59.015 16.74 213.039-104.894 243.219-121.634 30.19-158.379 53.59-245.282 91.42-86.904 37.83-368.665-30.23-479.973 182.47" stroke="#A0A0A0"/><path opacity=".75" d="M-522.704 302.504c117.609 14.172 125.639-53.258 234.281-119.96 86.914-53.362 198.28-30.897 243.1-12.994 16.563-4.148 33.58 1.896 46.704 12.653 12.34 10.1 21.673 24.225 27.25 40.905a118.54 118.54 0 011.052 3.328c4.253 14.133 5.965 29.973 11.392 45.933 3.791 11.192 9.998 21.187 16.487 29.492 16.642 21.304 37.266 35.103 60.895 43.168 14.553 4.92 29.825 8.201 44.709 10.91 5.688 1.036 11.506 2.116 17.3 3.463 18.397 4.297 36.598 11.337 49.28 27.909a66.925 66.925 0 015.541 8.565c9.024 16.517 11.822 37.187 10.884 56.547-1.118 22.809-6.498 44.874-10.777 66.893-3.617 18.637-7.966 36.498-10.247 54.789-2.295 18.505-2.772 37.438-1.121 56.238.395 4.434.928 8.903 1.602 13.366 2.418 16.032 6.915 32.068 14.977 46.269 4.041 7.119 8.857 13.533 13.929 19.553 11.434 13.591 24.35 25.384 38.467 34.612 17.364 4.955 54.39 26.683 63.571 73.953 11.477 59.088 14.907 213.054-106.577 242.124-121.484 29.07-158.302 52.13-245.235 89.15-86.932 37.02-367.195-33.54-479.909 178.02" stroke="#A0A0A0"/><path opacity=".792" d="M-522.544 301.208c117.1 15.224 125.667-52.093 234.507-117.776 87.072-52.547 197.88-29.091 242.401-10.795 16.543-3.996 33.453 2.197 46.443 13.066 12.215 10.205 21.398 24.406 26.818 41.127a118.49 118.49 0 011.02 3.335c4.12 14.162 5.694 30.009 10.97 46.008 3.685 11.22 9.788 21.265 16.186 29.623 16.407 21.442 36.848 35.419 60.331 43.691 14.463 5.049 29.658 8.466 44.469 11.307 5.66 1.086 11.45 2.219 17.214 3.617 18.3 4.46 36.381 11.66 48.883 28.337a66.989 66.989 0 015.451 8.609c8.856 16.589 11.471 37.272 10.375 56.612-1.306 22.785-6.852 44.788-11.302 66.756-3.761 18.593-8.244 36.404-10.671 54.664-2.442 18.473-3.076 37.391-1.587 56.194.356 4.435.85 8.906 1.484 13.372 2.275 16.045 6.624 32.112 14.54 46.377 3.968 7.152 8.714 13.605 13.72 19.667 11.282 13.686 24.056 25.588 38.049 34.938 17.265 5.109 53.986 27.158 62.741 74.483 10.945 59.156 13.075 213.07-108.249 241.02-121.323 27.95-158.213 50.67-245.166 86.88-86.954 36.22-365.695-36.83-479.806 173.59" stroke="#A0A0A0"/><path opacity=".833" d="M-522.392 299.986c116.581 16.268 125.685-50.933 234.712-115.598 87.222-51.733 197.465-27.295 241.683-8.609 16.522-3.845 33.323 2.497 46.178 13.477 12.09 10.308 21.123 24.584 26.384 41.343.345 1.106.675 2.223.989 3.342 3.988 14.191 5.423 30.043 10.547 46.08 3.579 11.246 9.577 21.34 15.883 29.751 16.173 21.577 36.428 35.729 59.764 44.208 14.372 5.176 29.488 8.727 44.226 11.7 5.632 1.136 11.393 2.32 17.126 3.769 18.201 4.623 36.162 11.981 48.481 28.76a66.895 66.895 0 015.361 8.654c8.688 16.658 11.121 37.352 9.866 56.671-1.493 22.76-7.205 44.7-11.824 66.615-3.905 18.548-8.523 36.309-11.094 54.536-2.589 18.44-3.38 37.341-2.054 56.147.318 4.435.773 8.908 1.367 13.377 2.134 16.056 6.332 32.152 14.102 46.48 3.896 7.183 8.572 13.675 13.51 19.779 11.129 13.779 23.761 25.789 37.629 35.259 17.165 5.261 53.578 27.628 61.907 75.003 10.412 59.219 11.243 213.06-109.91 239.9-121.153 26.85-158.11 49.22-245.077 84.63-86.967 35.41-364.166-40.1-479.661 169.17" stroke="#A0A0A0"/><path opacity=".875" d="M-522.247 298.838c116.054 17.305 125.692-49.775 234.898-113.425 87.365-50.92 197.032-25.507 240.945-6.436 16.499-3.694 33.19 2.794 45.91 13.883 11.962 10.411 20.845 24.759 25.948 41.556.335 1.108.654 2.228.957 3.349 3.855 14.218 5.152 30.073 10.124 46.147 3.472 11.272 9.366 21.414 15.58 29.876 15.937 21.709 36.005 36.035 59.191 44.718 14.281 5.302 29.316 8.987 43.979 12.09 5.604 1.186 11.336 2.421 17.037 3.921 18.102 4.783 35.94 12.298 48.077 29.177a67.028 67.028 0 015.27 8.697c8.519 16.726 10.77 37.431 9.356 56.727-1.679 22.733-7.557 44.609-12.345 66.47-4.047 18.502-8.799 36.211-11.515 54.404-2.735 18.406-3.682 37.289-2.519 56.095.28 4.436.695 8.91 1.249 13.382 1.992 16.065 6.041 32.19 13.665 46.579 3.822 7.214 8.427 13.744 13.297 19.889 10.977 13.871 23.465 25.987 37.206 35.576 17.064 5.412 53.166 28.092 61.069 75.514 9.879 59.278 9.414 213.033-111.559 238.773-120.973 25.75-157.994 47.77-244.968 82.38-86.973 34.62-362.607-43.34-479.476 164.78" stroke="#A0A0A0"/><path opacity=".917" d="M-522.109 297.765c115.516 18.332 125.688-48.622 235.063-111.258 87.5-50.109 196.583-23.73 240.188-4.277 16.474-3.544 33.054 3.09 45.638 14.286 11.834 10.511 20.566 24.931 25.51 41.764.324 1.11.633 2.232.925 3.355 3.723 14.245 4.881 30.102 9.7 46.211 3.366 11.297 9.154 21.485 15.276 29.998 15.7 21.839 35.58 36.336 58.615 45.221 14.188 5.427 29.141 9.244 43.729 12.477 5.575 1.236 11.277 2.521 16.946 4.071 18.001 4.942 35.716 12.612 47.67 29.59a67.084 67.084 0 015.178 8.739c8.349 16.793 10.418 37.505 8.846 56.778-1.865 22.705-7.907 44.516-12.864 66.32-4.189 18.456-9.075 36.112-11.935 54.27-2.882 18.371-3.985 37.234-2.984 56.04.241 4.436.617 8.911 1.132 13.386 1.85 16.073 5.749 32.225 13.226 46.674 3.748 7.244 8.283 13.811 13.085 19.996 10.822 13.961 23.167 26.182 36.78 35.888 16.961 5.561 52.75 28.551 60.226 76.016 9.346 59.332 7.585 212.99-113.198 237.64-120.782 24.65-157.864 46.33-244.837 80.14-86.972 33.81-361.02-46.56-479.25 160.39" stroke="#A0A0A0"/><path opacity=".958" d="M-521.982 296.765c114.971 19.353 125.675-47.472 235.209-109.096 87.628-49.299 196.12-21.962 239.412-2.131 16.448-3.396 32.916 3.382 45.363 14.684 11.704 10.611 20.285 25.1 25.07 41.967.313 1.113.612 2.237.894 3.362 3.589 14.27 4.61 30.128 9.276 46.271 3.26 11.32 8.941 21.554 14.97 30.117 15.463 21.966 35.153 36.632 58.034 45.718 14.094 5.55 28.964 9.499 43.476 12.86 5.545 1.284 11.217 2.62 16.855 4.219 17.897 5.1 35.487 12.924 47.257 29.999a67.145 67.145 0 015.087 8.78c8.179 16.858 10.065 37.577 8.336 56.824-2.051 22.675-8.257 44.419-13.382 66.167-4.331 18.407-9.349 36.01-12.354 54.132-3.027 18.335-4.286 37.177-3.448 55.981a224.94 224.94 0 001.016 13.388c1.707 16.081 5.457 32.258 12.786 46.765 3.674 7.273 8.138 13.878 12.871 20.101 10.668 14.05 22.867 26.374 36.353 36.196 16.856 5.709 52.33 29.005 59.379 76.51 8.812 59.381 5.758 212.941-114.825 236.491-120.582 23.56-157.722 44.89-244.686 77.91-86.964 33.02-359.405-49.75-478.986 156.02" stroke="#A0A0A0"/><path d="M-521.862 295.821c114.418 20.365 125.653-46.328 235.34-106.943 87.75-48.492 195.643-20.205 238.621 0 16.421-3.247 32.777 3.674 45.085 15.08 11.575 10.71 20.004 25.267 24.63 42.167.303 1.115.59 2.241.862 3.368 3.456 14.294 4.339 30.153 8.853 46.328 3.152 11.342 8.728 21.622 14.664 30.233 15.224 22.092 34.723 36.925 57.45 46.209 13.999 5.673 28.786 9.751 43.22 13.24 5.516 1.333 11.157 2.718 16.762 4.367 17.794 5.256 35.258 13.232 46.843 30.403a67.14 67.14 0 014.996 8.82c8.008 16.921 9.712 37.645 7.825 56.866-2.236 22.645-8.606 44.321-13.897 66.012-4.473 18.358-9.624 35.906-12.772 53.991-3.172 18.298-4.587 37.119-3.911 55.92.165 4.435.463 8.911.899 13.389 1.564 16.087 5.165 32.289 12.345 46.853 3.601 7.302 7.994 13.942 12.658 20.205 10.513 14.136 22.566 26.562 35.923 36.499 16.75 5.856 51.907 29.454 58.53 76.995 8.278 59.427 3.931 212.867-116.444 235.337s-157.57 43.46-244.52 75.69c-86.952 32.23-357.77-52.92-478.693 151.67" stroke="url(#paint24_linear_606_2497)"/></g><defs><linearGradient id="paint0_linear_606_2497" x1="-258.241" y1="766.142" x2="168.895" y2="658.734" gradientUnits="userSpaceOnUse"><stop stop-color="#E6E6E6"/><stop offset="1" stop-color="#E6E6E6" stop-opacity="0"/></linearGradient><linearGradient id="paint1_linear_606_2497" x1="-253.366" y1="766.685" x2="171.145" y2="654.894" gradientUnits="userSpaceOnUse"><stop stop-color="#E6E6E6"/><stop offset="1" stop-color="#E6E6E6" stop-opacity="0"/></linearGradient><linearGradient id="paint2_linear_606_2497" x1="-248.52" y1="767.146" x2="173.364" y2="651.027" gradientUnits="userSpaceOnUse"><stop stop-color="#E6E6E6"/><stop offset="1" stop-color="#E6E6E6" stop-opacity="0"/></linearGradient><linearGradient id="paint3_linear_606_2497" x1="-243.703" y1="767.523" x2="175.553" y2="647.132" gradientUnits="userSpaceOnUse"><stop stop-color="#E6E6E6"/><stop offset="1" stop-color="#E6E6E6" stop-opacity="0"/></linearGradient><linearGradient id="paint4_linear_606_2497" x1="-238.915" y1="767.818" x2="177.712" y2="643.206" gradientUnits="userSpaceOnUse"><stop stop-color="#E6E6E6"/><stop offset="1" stop-color="#E6E6E6" stop-opacity="0"/></linearGradient><linearGradient id="paint5_linear_606_2497" x1="-234.159" y1="768.029" x2="179.839" y2="639.248" gradientUnits="userSpaceOnUse"><stop stop-color="#E6E6E6"/><stop offset="1" stop-color="#E6E6E6" stop-opacity="0"/></linearGradient><linearGradient id="paint6_linear_606_2497" x1="-229.435" y1="768.159" x2="181.934" y2="635.257" gradientUnits="userSpaceOnUse"><stop stop-color="#E6E6E6"/><stop offset="1" stop-color="#E6E6E6" stop-opacity="0"/></linearGradient><linearGradient id="paint7_linear_606_2497" x1="-224.743" y1="768.206" x2="183.998" y2="631.229" gradientUnits="userSpaceOnUse"><stop stop-color="#E6E6E6"/><stop offset="1" stop-color="#E6E6E6" stop-opacity="0"/></linearGradient><linearGradient id="paint8_linear_606_2497" x1="-220.084" y1="768.172" x2="186.03" y2="627.166" gradientUnits="userSpaceOnUse"><stop stop-color="#E6E6E6"/><stop offset="1" stop-color="#E6E6E6" stop-opacity="0"/></linearGradient><linearGradient id="paint9_linear_606_2497" x1="-215.462" y1="768.056" x2="188.027" y2="623.064" gradientUnits="userSpaceOnUse"><stop stop-color="#E6E6E6"/><stop offset="1" stop-color="#E6E6E6" stop-opacity="0"/></linearGradient><linearGradient id="paint10_linear_606_2497" x1="-210.874" y1="767.859" x2="189.993" y2="618.921" gradientUnits="userSpaceOnUse"><stop stop-color="#E6E6E6"/><stop offset="1" stop-color="#E6E6E6" stop-opacity="0"/></linearGradient><linearGradient id="paint11_linear_606_2497" x1="-206.322" y1="767.582" x2="191.922" y2="614.738" gradientUnits="userSpaceOnUse"><stop stop-color="#E6E6E6"/><stop offset="1" stop-color="#E6E6E6" stop-opacity="0"/></linearGradient><linearGradient id="paint12_linear_606_2497" x1="-201.808" y1="767.224" x2="193.818" y2="610.513" gradientUnits="userSpaceOnUse"><stop stop-color="#E6E6E6"/><stop offset="1" stop-color="#E6E6E6" stop-opacity="0"/></linearGradient><linearGradient id="paint13_linear_606_2497" x1="-197.331" y1="766.785" x2="195.678" y2="606.243" gradientUnits="userSpaceOnUse"><stop stop-color="#E6E6E6"/><stop offset="1" stop-color="#E6E6E6" stop-opacity="0"/></linearGradient><linearGradient id="paint14_linear_606_2497" x1="-192.894" y1="766.268" x2="197.5" y2="601.928" gradientUnits="userSpaceOnUse"><stop stop-color="#E6E6E6"/><stop offset="1" stop-color="#E6E6E6" stop-opacity="0"/></linearGradient><linearGradient id="paint15_linear_606_2497" x1="-188.496" y1="765.671" x2="199.285" y2="597.566" gradientUnits="userSpaceOnUse"><stop stop-color="#E6E6E6"/><stop offset="1" stop-color="#E6E6E6" stop-opacity="0"/></linearGradient><linearGradient id="paint16_linear_606_2497" x1="-184.139" y1="764.995" x2="201.032" y2="593.157" gradientUnits="userSpaceOnUse"><stop stop-color="#E6E6E6"/><stop offset="1" stop-color="#E6E6E6" stop-opacity="0"/></linearGradient><linearGradient id="paint17_linear_606_2497" x1="-179.824" y1="764.241" x2="202.739" y2="588.699" gradientUnits="userSpaceOnUse"><stop stop-color="#E6E6E6"/><stop offset="1" stop-color="#E6E6E6" stop-opacity="0"/></linearGradient><linearGradient id="paint18_linear_606_2497" x1="-175.551" y1="763.409" x2="204.406" y2="584.191" gradientUnits="userSpaceOnUse"><stop stop-color="#E6E6E6"/><stop offset="1" stop-color="#E6E6E6" stop-opacity="0"/></linearGradient><linearGradient id="paint19_linear_606_2497" x1="-171.32" y1="762.499" x2="206.031" y2="579.631" gradientUnits="userSpaceOnUse"><stop stop-color="#E6E6E6"/><stop offset="1" stop-color="#E6E6E6" stop-opacity="0"/></linearGradient><linearGradient id="paint20_linear_606_2497" x1="-167.133" y1="761.512" x2="207.615" y2="575.02" gradientUnits="userSpaceOnUse"><stop stop-color="#E6E6E6"/><stop offset="1" stop-color="#E6E6E6" stop-opacity="0"/></linearGradient><linearGradient id="paint21_linear_606_2497" x1="-162.991" y1="760.448" x2="209.154" y2="570.356" gradientUnits="userSpaceOnUse"><stop stop-color="#E6E6E6"/><stop offset="1" stop-color="#E6E6E6" stop-opacity="0"/></linearGradient><linearGradient id="paint22_linear_606_2497" x1="-158.895" y1="759.309" x2="210.647" y2="565.638" gradientUnits="userSpaceOnUse"><stop stop-color="#E6E6E6"/><stop offset="1" stop-color="#E6E6E6" stop-opacity="0"/></linearGradient><linearGradient id="paint23_linear_606_2497" x1="-154.842" y1="758.101" x2="212.106" y2="560.867" gradientUnits="userSpaceOnUse"><stop stop-color="#E6E6E6"/><stop offset="1" stop-color="#E6E6E6" stop-opacity="0"/></linearGradient><linearGradient id="paint24_linear_606_2497" x1="13.5" y1="222" x2="308.094" y2="695.561" gradientUnits="userSpaceOnUse"><stop stop-color="#ACACAC"/><stop offset="1" stop-color="#A0A0A0" stop-opacity="0"/></linearGradient></defs></svg>