<svg width="273" height="901" fill="none" xmlns="http://www.w3.org/2000/svg"><g opacity=".3" stroke-miterlimit="10"><path opacity=".042" d="M-468.886 223.512c82.981-3.204 82.129-48.894 151.179-104.901 55.241-44.806 134.68-41.827 167.494-34.737 11.102-4.536 23.489-2.345 33.623 3.398 9.528 5.389 17.352 13.778 22.813 24.268a77.39 77.39 0 011.047 2.099c4.298 8.939 6.996 19.286 12.284 29.314 3.698 7.033 8.959 13.012 14.254 17.836 13.581 12.377 29.211 19.336 46.38 22.161 10.57 1.709 21.484 2.25 32.072 2.453 4.047.078 8.188.172 12.338.445 13.179.882 26.483 3.608 36.864 13.264a44.024 44.024 0 014.663 5.099c7.838 10.011 11.75 23.453 12.943 36.424 1.398 15.284-.233 30.53-1.105 45.628-.735 12.778-2.05 25.119-1.89 37.524.17 12.548 1.643 25.186 4.58 37.507a141.992 141.992 0 002.386 8.714c3.206 10.399 7.856 20.577 14.805 29.152 3.483 4.299 7.437 8.046 11.531 11.503 9.232 7.808 19.321 14.261 29.998 18.881 12.525 1.43 40.294 11.9 51.172 42.34 13.597 38.049 30.651 140.041-50.899 172.407-81.55 32.366-104.909 51.647-161.72 85.592-56.81 33.945-258.061 17.124-316.133 169.873" stroke="#A0A0A0"/><path opacity=".083" d="M-468.769 221.802c82.759-2.425 82.276-48.089 151.569-103.409 55.434-44.257 134.611-40.537 167.27-33.145 11.104-4.428 23.437-2.123 33.494 3.71 9.457 5.475 17.19 13.931 22.55 24.464.352.696.695 1.4 1.027 2.108 4.214 8.972 6.82 19.337 12.012 29.407 3.63 7.063 8.828 13.086 14.068 17.956 13.441 12.495 28.968 19.596 46.064 22.579 10.524 1.807 21.4 2.45 31.955 2.752 4.034.115 8.162.248 12.298.559 13.132 1.005 26.373 3.854 36.647 13.599a44.172 44.172 0 014.607 5.139c7.734 10.078 11.526 23.546 12.612 36.519 1.271 15.285-.478 30.505-1.468 45.584-.835 12.762-2.246 25.081-2.186 37.479.069 12.541 1.436 25.183 4.266 37.523a142.487 142.487 0 002.308 8.729c3.113 10.421 7.667 20.635 14.526 29.269 3.44 4.329 7.351 8.11 11.405 11.603 9.142 7.889 19.148 14.432 29.756 19.147 12.476 1.547 40.078 12.269 50.679 42.788 13.251 38.149 29.435 140.226-52.131 171.805-81.565 31.579-105.008 50.627-161.92 84.016-56.913 33.388-257.426 14.696-316.55 166.79" stroke="#A0A0A0"/><path opacity=".125" d="M-468.649 220.143c82.528-1.651 82.413-47.287 151.942-101.92 55.623-43.706 134.531-39.25 167.032-31.558 11.106-4.321 23.383-1.903 33.363 4.02 9.384 5.56 17.025 14.081 22.285 24.657a75.9 75.9 0 011.007 2.116c4.129 9.005 6.644 19.387 11.739 29.497 3.563 7.093 8.696 13.16 13.881 18.076 13.3 12.611 28.723 19.851 45.743 22.992 10.478 1.904 21.316 2.648 31.837 3.048 4.02.153 8.135.324 12.255.675 13.085 1.126 26.264 4.096 36.427 13.931a44.124 44.124 0 014.552 5.178c7.63 10.143 11.302 23.636 12.281 36.61 1.144 15.286-.722 30.479-1.831 45.537-.935 12.745-2.441 25.043-2.481 37.432-.032 12.532 1.23 25.178 3.952 37.535a142.64 142.64 0 002.23 8.745c3.02 10.443 7.478 20.692 14.247 29.384 3.394 4.357 7.263 8.172 11.278 11.701 9.05 7.968 18.973 14.599 29.512 19.411 12.425 1.662 39.858 12.634 50.181 43.23 12.904 38.245 28.217 140.399-53.356 171.194-81.573 30.794-105.098 49.61-162.107 82.443-57.01 32.833-256.766 12.281-316.935 163.712" stroke="#A0A0A0"/><path opacity=".167" d="M-468.526 218.533c82.29-.88 82.544-46.485 152.302-100.431 55.806-43.157 134.438-37.967 166.779-29.978 11.107-4.215 23.326-1.684 33.229 4.328 9.31 5.642 16.86 14.23 22.018 24.847.339.701.668 1.411.987 2.124 4.043 9.037 6.467 19.435 11.465 29.586 3.495 7.12 8.563 13.231 13.694 18.191 13.157 12.726 28.475 20.106 45.418 23.403 10.43 2 21.23 2.844 31.715 3.343 4.007.19 8.108.399 12.213.788 13.035 1.247 26.15 4.338 36.204 14.26a44.186 44.186 0 014.496 5.217c7.525 10.207 11.077 23.725 11.948 36.699 1.017 15.286-.965 30.45-2.192 45.488-1.035 12.727-2.636 25.001-2.776 37.381-.133 12.523 1.023 25.172 3.637 37.546.62 2.918 1.339 5.847 2.154 8.759 2.926 10.463 7.288 20.747 13.966 29.496 3.349 4.386 7.175 8.234 11.149 11.797 8.958 8.047 18.798 14.767 29.266 19.673 12.374 1.776 39.635 12.997 49.68 43.667 12.556 38.338 26.999 140.562-54.574 170.574s-105.179 48.595-162.28 80.873c-57.1 32.278-256.083 9.88-317.29 160.642" stroke="#A0A0A0"/><path opacity=".208" d="M-468.402 216.973c82.045-.114 82.667-45.684 152.648-98.943 55.984-42.608 134.333-36.69 166.51-28.406 11.107-4.109 23.269-1.465 33.092 4.634 9.236 5.725 16.693 14.377 21.75 25.035.332.703.655 1.416.966 2.131 3.959 9.069 6.291 19.482 11.192 29.672 3.427 7.148 8.43 13.301 13.504 18.306 13.015 12.84 28.226 20.356 45.09 23.808 10.382 2.096 21.142 3.041 31.591 3.636 3.994.228 8.08.475 12.17.901 12.985 1.368 26.035 4.579 35.977 14.588a44.154 44.154 0 014.44 5.255c7.42 10.27 10.852 23.811 11.616 36.784.89 15.285-1.21 30.42-2.554 45.435-1.135 12.709-2.83 24.96-3.069 37.33-.233 12.513.816 25.164 3.323 37.553a143.238 143.238 0 002.076 8.773c2.833 10.483 7.098 20.8 13.685 29.605 3.303 4.414 7.087 8.295 11.02 11.893 8.865 8.124 18.621 14.931 29.016 19.931 12.323 1.89 39.409 13.356 49.175 44.098 12.208 38.428 25.781 140.715-55.785 169.947s-105.25 47.582-162.436 79.306c-57.187 31.725-255.379 7.491-317.617 157.577" stroke="#A0A0A0"/><path opacity=".25" d="M-468.275 215.463c81.793.648 82.782-44.885 152.978-97.457 56.157-42.058 134.217-35.418 166.227-26.84 11.107-4.003 23.209-1.248 32.953 4.938 9.161 5.807 16.525 14.522 21.48 25.219.326.706.642 1.421.946 2.139 3.873 9.099 6.114 19.527 10.917 29.755 3.358 7.175 8.296 13.371 13.314 18.419 12.87 12.952 27.974 20.604 44.758 24.211 10.334 2.19 21.052 3.234 31.465 3.926 3.979.265 8.051.55 12.124 1.014 12.935 1.487 25.918 4.817 35.749 14.911a44.214 44.214 0 014.384 5.293c7.313 10.331 10.625 23.896 11.281 36.866.764 15.283-1.451 30.388-2.913 45.38-1.235 12.689-3.023 24.916-3.362 37.275-.334 12.503.61 25.154 3.008 37.558.57 2.925 1.236 5.863 1.998 8.787 2.74 10.502 6.909 20.851 13.404 29.711 3.256 4.442 6.997 8.355 10.889 11.987 8.772 8.201 18.443 15.093 28.766 20.187 12.269 2.003 39.179 13.713 48.666 44.524 11.859 38.515 24.562 140.856-56.99 169.311-81.551 28.455-105.31 46.572-162.578 77.743-57.267 31.172-254.653 5.114-317.915 154.519" stroke="#A0A0A0"/><path opacity=".292" d="M-468.148 214.003c81.534 1.406 82.89-44.087 153.295-95.973 56.324-41.508 134.087-34.15 165.929-25.281 11.104-3.897 23.147-1.033 32.81 5.24 9.086 5.888 16.357 14.665 21.21 25.401.318.709.627 1.426.925 2.146 3.787 9.129 5.936 19.57 10.64 29.836 3.29 7.201 8.163 13.438 13.125 18.53 12.725 13.062 27.72 20.849 44.422 24.608 10.284 2.285 20.96 3.428 31.335 4.216 3.965.301 8.022.624 12.079 1.125 12.882 1.606 25.798 5.054 35.517 15.233a44.18 44.18 0 014.327 5.329c7.207 10.392 10.398 23.978 10.947 36.946.638 15.279-1.694 30.353-3.273 45.322-1.333 12.669-3.216 24.871-3.654 37.218-.435 12.491.404 25.143 2.694 37.56a143.635 143.635 0 001.92 8.799c2.646 10.521 6.718 20.902 13.122 29.815 3.21 4.469 6.907 8.415 10.757 12.081 8.679 8.276 18.263 15.253 28.513 20.439 12.215 2.115 38.946 14.066 48.154 44.945 11.51 38.598 23.342 140.987-58.188 168.667-81.53 27.679-105.362 45.564-162.704 76.183-57.343 30.62-253.905 2.751-318.184 151.467" stroke="#A0A0A0"/><path opacity=".333" d="M-468.02 212.594c81.268 2.158 82.99-43.291 153.597-94.491 56.486-40.96 133.947-32.887 165.617-23.73 11.102-3.792 23.084-.818 32.666 5.54 9.009 5.968 16.186 14.806 20.936 25.58.312.711.614 1.431.905 2.153 3.701 9.158 5.759 19.611 10.365 29.914 3.22 7.227 8.028 13.505 12.932 18.639 12.58 13.171 27.464 21.091 44.084 25.003 10.233 2.378 20.867 3.619 31.203 4.502 3.95.337 7.991.697 12.031 1.236 12.83 1.724 25.677 5.289 35.282 15.551a44.16 44.16 0 014.271 5.366c7.1 10.451 10.17 24.057 10.612 37.022.511 15.274-1.935 30.317-3.632 45.261-1.432 12.648-3.408 24.824-3.945 37.159-.535 12.479.198 25.13 2.38 37.56a144.233 144.233 0 001.843 8.811c2.552 10.537 6.526 20.949 12.837 29.916 3.164 4.496 6.818 8.473 10.626 12.171 8.584 8.352 18.082 15.413 28.258 20.69 12.159 2.227 38.71 14.417 47.637 45.359 11.16 38.679 22.122 141.109-59.378 168.016-81.5 26.907-105.404 44.559-162.817 74.627-57.413 30.069-253.134.401-318.423 148.423" stroke="#A0A0A0"/><path opacity=".375" d="M-467.893 211.234c80.995 2.907 83.082-42.496 153.886-93.011 56.642-40.411 133.794-31.629 165.29-22.186 11.098-3.687 23.018-.604 32.518 5.838 8.932 6.047 16.014 14.946 20.661 25.756.305.714.6 1.436.885 2.16 3.615 9.186 5.58 19.652 10.089 29.99 3.151 7.251 7.891 13.57 12.739 18.746 12.432 13.278 27.205 21.33 43.741 25.392 10.181 2.472 20.772 3.81 31.068 4.788 3.935.374 7.961.77 11.984 1.346 12.775 1.842 25.553 5.523 35.044 15.866a44.278 44.278 0 014.214 5.402c6.992 10.51 9.942 24.135 10.277 37.095.385 15.269-2.177 30.279-3.99 45.198-1.53 12.626-3.6 24.776-4.236 37.098-.635 12.465-.008 25.114 2.066 37.556a144.406 144.406 0 001.765 8.822c2.458 10.555 6.336 20.996 12.553 30.015 3.118 4.522 6.728 8.53 10.493 12.262 8.49 8.425 17.9 15.568 28.001 20.936 12.103 2.337 38.47 14.764 47.118 45.769 10.809 38.756 20.901 141.218-60.563 167.355S-7.726 716.984-65.204 746.503c-57.478 29.519-252.343-1.935-318.633 145.386" stroke="#A0A0A0"/><path opacity=".417" d="M-467.765 209.924c80.716 3.651 83.167-41.703 154.16-91.533 56.794-39.863 133.63-30.376 164.949-20.65 11.093-3.582 22.95-.391 32.368 6.134 8.854 6.125 15.841 15.083 20.385 25.93a77.5 77.5 0 01.865 2.166c3.528 9.213 5.402 19.69 9.811 30.063 3.083 7.276 7.756 13.634 12.546 18.851 12.284 13.384 26.945 21.567 43.395 25.779 10.13 2.563 20.676 3.998 30.931 5.07 3.92.41 7.93.843 11.935 1.456 12.72 1.958 25.427 5.754 34.804 16.178a44.275 44.275 0 014.156 5.437c6.884 10.567 9.713 24.211 9.94 37.165.26 15.263-2.417 30.239-4.346 45.131-1.629 12.604-3.79 24.728-4.526 37.035-.735 12.451-.213 25.098 1.752 37.551.468 2.937 1.03 5.89 1.688 8.833 2.364 10.57 6.144 21.04 12.268 30.11 3.07 4.548 6.636 8.587 10.36 12.35 8.393 8.498 17.716 15.724 27.74 21.18 12.046 2.448 38.229 15.109 46.595 46.173 10.458 38.83 19.681 141.318-61.74 166.688-81.42 25.37-105.459 42.558-162.996 71.528-57.538 28.97-251.53-4.257-318.816 142.356" stroke="#A0A0A0"/><path opacity=".458" d="M-467.638 208.664c80.429 4.39 83.244-40.912 154.42-90.057 56.94-39.316 133.454-29.129 164.594-19.12 11.087-3.478 22.88-.181 32.214 6.426 8.776 6.203 15.667 15.219 20.108 26.1.292.718.574 1.445.844 2.173 3.442 9.24 5.224 19.727 9.534 30.134 3.013 7.299 7.62 13.696 12.352 18.953 12.135 13.489 26.682 21.801 43.046 26.161 10.075 2.655 20.576 4.186 30.79 5.351 3.904.446 7.898.916 11.886 1.565 12.662 2.073 25.299 5.984 34.56 16.487a44.324 44.324 0 014.099 5.472c6.775 10.624 9.483 24.285 9.604 37.233.133 15.255-2.657 30.197-4.703 45.061-1.727 12.581-3.981 24.677-4.815 36.97-.835 12.436-.418 25.079 1.439 37.542.442 2.94.978 5.896 1.61 8.843 2.27 10.584 5.952 21.082 11.982 30.203 3.024 4.573 6.545 8.642 10.226 12.437 8.297 8.57 17.53 15.876 27.479 21.422 11.987 2.556 37.983 15.45 46.068 46.571 10.106 38.9 18.459 141.407-62.91 166.012-81.37 24.605-105.473 41.561-163.065 69.984-57.592 28.422-250.695-6.565-318.969 139.335" stroke="#A0A0A0"/><path opacity=".5" d="M-467.512 207.454c80.136 5.124 83.315-40.123 154.666-88.583 57.082-38.77 133.267-27.887 164.225-17.6 11.08-3.374 22.809.029 32.059 6.718 8.697 6.279 15.492 15.352 19.829 26.267.285.72.56 1.449.824 2.179 3.354 9.266 5.044 19.763 9.255 30.202 2.944 7.322 7.483 13.757 12.156 19.055 11.986 13.591 26.419 22.031 42.694 26.539 10.022 2.745 20.476 4.371 30.648 5.629 3.888.481 7.865.988 11.835 1.673 12.605 2.188 25.169 6.212 34.314 16.793a44.375 44.375 0 014.04 5.506c6.667 10.679 9.255 24.356 9.268 37.297.008 15.247-2.897 30.154-5.058 44.99-1.825 12.557-4.171 24.624-5.103 36.901-.934 12.421-.623 25.06 1.126 37.532a145.35 145.35 0 001.532 8.851c2.175 10.599 5.76 21.124 11.695 30.295 2.977 4.597 6.453 8.696 10.091 12.522 8.2 8.64 17.344 16.027 27.215 21.66 11.928 2.665 37.735 15.789 45.538 46.963 9.755 38.969 17.239 141.486-64.072 165.329-81.312 23.844-105.478 40.568-163.12 68.445-57.641 27.876-249.838-8.859-319.093 136.321" stroke="#A0A0A0"/><path opacity=".542" d="M-467.389 206.294c79.836 5.854 83.377-39.336 154.899-87.113 57.217-38.222 133.068-26.65 163.842-16.087 11.072-3.27 22.735.238 31.9 7.007 8.617 6.355 15.315 15.485 19.549 26.432.278.723.546 1.453.803 2.186 3.267 9.29 4.865 19.796 8.977 30.267 2.873 7.345 7.345 13.817 11.96 19.154 11.836 13.692 26.152 22.259 42.338 26.912 9.967 2.836 20.374 4.556 30.503 5.907 3.87.516 7.831 1.059 11.783 1.779 12.546 2.302 25.037 6.439 34.065 17.097a44.366 44.366 0 013.982 5.54c6.557 10.733 9.024 24.425 8.931 37.357-.118 15.237-3.136 30.108-5.412 44.915-1.923 12.533-4.361 24.571-5.391 36.832-1.034 12.404-.828 25.038.813 37.518a145.5 145.5 0 001.454 8.86c2.081 10.612 5.567 21.163 11.409 30.382 2.928 4.622 6.36 8.749 9.955 12.607 8.102 8.709 17.156 16.175 26.949 21.894 11.867 2.773 37.483 16.124 45.005 47.351 9.402 39.033 16.017 141.553-65.23 164.638-81.245 23.085-105.471 39.577-163.157 66.909-57.686 27.332-248.963-11.138-319.19 133.317" stroke="#A0A0A0"/><path opacity=".583" d="M-467.267 205.183c79.529 6.579 83.432-38.55 155.117-85.644 57.348-37.676 132.858-25.42 163.445-14.582 11.063-3.168 22.659.445 31.739 7.294 8.537 6.429 15.138 15.614 19.268 26.593.27.725.532 1.458.782 2.192 3.18 9.314 4.686 19.828 8.698 30.33 2.804 7.366 7.207 13.875 11.763 19.251 11.684 13.791 25.883 22.484 41.979 27.282 9.91 2.924 20.27 4.739 30.356 6.181 3.854.551 7.797 1.13 11.73 1.886 12.486 2.415 24.902 6.663 33.814 17.397a44.404 44.404 0 013.923 5.572c6.447 10.787 8.793 24.492 8.594 37.416-.244 15.226-3.375 30.061-5.766 44.838-2.02 12.507-4.55 24.515-5.678 36.759-1.133 12.387-1.031 25.015.5 37.502.366 2.945.824 5.91 1.377 8.867 1.987 10.625 5.374 21.201 11.12 30.467 2.882 4.646 6.268 8.802 9.82 12.69 8.004 8.778 16.967 16.322 26.68 22.127 11.807 2.879 37.229 16.456 44.469 47.731 9.049 39.095 14.796 141.611-66.378 163.94-81.174 22.329-105.457 38.59-163.182 65.379-57.725 26.788-248.066-13.403-319.259 130.321" stroke="#A0A0A0"/><path opacity=".625" d="M-467.147 204.123c79.217 7.298 83.481-37.767 155.322-84.18 57.473-37.13 132.637-24.194 163.034-13.085 11.054-3.065 22.582.651 31.576 7.578 8.456 6.503 14.959 15.743 18.984 26.753.265.727.519 1.461.762 2.197 3.093 9.338 4.507 19.859 8.419 30.391 2.733 7.387 7.069 13.932 11.565 19.346 11.532 13.889 25.613 22.706 41.616 27.647 9.855 3.013 20.166 4.92 30.207 6.454 3.836.586 7.762 1.2 11.675 1.991 12.427 2.528 24.767 6.886 33.56 17.694a44.467 44.467 0 013.865 5.605c6.337 10.838 8.562 24.557 8.256 37.471-.37 15.214-3.613 30.011-6.118 44.757-2.117 12.481-4.738 24.458-5.964 36.685-1.232 12.369-1.235 24.99.188 37.483.34 2.947.773 5.914 1.3 8.875 1.891 10.635 5.18 21.236 10.831 30.549 2.834 4.669 6.175 8.854 9.682 12.772 7.906 8.845 16.777 16.465 26.411 22.355 11.744 2.985 36.972 16.785 43.929 48.107 8.696 39.152 13.576 141.658-67.52 163.234C-16.66 716.378-41 732.408-98.76 758.654c-57.759 26.246-247.148-15.653-319.3 127.334" stroke="#A0A0A0"/><path opacity=".667" d="M-467.03 203.112c78.897 8.013 83.521-36.985 155.513-82.718 57.593-36.586 132.403-22.975 162.609-11.596 11.043-2.962 22.503.856 31.409 7.86 8.375 6.576 14.781 15.869 18.701 26.909.258.729.505 1.465.741 2.203 3.005 9.36 4.328 19.887 8.139 30.449 2.663 7.407 6.93 13.987 11.367 19.439 11.38 13.985 25.341 22.924 41.25 28.008 9.798 3.1 20.06 5.1 30.055 6.724 3.82.62 7.726 1.27 11.62 2.096 12.365 2.639 24.63 7.106 33.305 17.988a44.451 44.451 0 013.805 5.636c6.226 10.89 8.33 24.62 7.917 37.523-.494 15.202-3.85 29.96-6.47 44.674-2.213 12.454-4.925 24.401-6.248 36.608-1.33 12.35-1.439 24.964-.123 37.463.313 2.947.72 5.917 1.22 8.88 1.798 10.647 4.988 21.271 10.544 30.629 2.785 4.692 6.08 8.905 9.544 12.852 7.806 8.912 16.585 16.608 26.139 22.582 11.68 3.09 36.711 17.11 43.385 48.476 8.343 39.207 12.356 141.694-68.653 162.521-81.009 20.826-105.402 36.625-163.19 62.331-57.788 25.705-246.21-17.888-319.313 124.356" stroke="#A0A0A0"/><path opacity=".708" d="M-466.916 202.15c78.571 8.724 83.554-36.206 155.69-81.258 57.709-36.042 132.16-21.761 162.172-10.116 11.031-2.861 22.422 1.059 31.241 8.14 8.292 6.648 14.599 15.993 18.415 27.062.25.73.49 1.468.72 2.208 2.917 9.381 4.148 19.914 7.859 30.504 2.593 7.427 6.791 14.042 11.168 19.53 11.225 14.08 25.066 23.14 40.882 28.365 9.74 3.187 19.95 5.279 29.899 6.992 3.802.655 7.69 1.339 11.565 2.2 12.302 2.75 24.489 7.325 33.045 18.279a44.452 44.452 0 013.746 5.668c6.115 10.939 8.097 24.68 7.58 37.571-.62 15.189-4.088 29.907-6.821 44.589-2.31 12.426-5.113 24.341-6.533 36.529-1.429 12.331-1.642 24.935-.435 37.438.289 2.949.669 5.92 1.143 8.887 1.703 10.656 4.794 21.302 10.254 30.706 2.737 4.714 5.986 8.954 9.405 12.93 7.707 8.977 16.393 16.748 25.866 22.805 11.617 3.194 36.448 17.432 42.839 48.84 7.989 39.259 11.136 141.72-69.78 161.8-80.916 20.08-105.36 35.648-163.172 60.815-57.812 25.166-245.252-20.108-319.299 121.387" stroke="#A0A0A0"/><path opacity=".75" d="M-466.806 201.239c78.239 9.428 83.581-35.43 155.854-79.803 57.819-35.498 131.905-20.554 161.721-8.644 11.018-2.759 22.338 1.261 31.069 8.417 8.21 6.719 14.418 16.116 18.129 27.212.243.733.477 1.473.699 2.214 2.83 9.402 3.968 19.939 7.578 30.556 2.522 7.446 6.652 14.095 10.968 19.62 11.07 14.172 24.791 23.352 40.51 28.717 9.681 3.274 19.841 5.456 29.742 7.258 3.784.689 7.655 1.408 11.51 2.304 12.238 2.858 24.346 7.542 32.782 18.566a44.486 44.486 0 013.687 5.698c6.003 10.988 7.864 24.738 7.24 37.618-.744 15.173-4.322 29.851-7.17 44.5-2.406 12.398-5.298 24.28-6.816 36.448-1.526 12.31-1.844 24.905-.745 37.412.262 2.949.617 5.922 1.065 8.891 1.608 10.665 4.6 21.333 9.963 30.78 2.689 4.736 5.892 9.003 9.267 13.008 7.606 9.041 16.198 16.886 25.59 23.025 11.551 3.297 36.182 17.751 42.29 49.197 7.635 39.308 9.916 141.736-70.9 161.072-80.816 19.337-105.31 34.675-163.141 59.304-57.831 24.629-244.274-22.312-319.256 118.429" stroke="#A0A0A0"/><path opacity=".792" d="M-466.7 200.376c77.9 10.128 83.599-34.654 156.004-78.35 57.924-34.956 131.639-19.352 161.256-7.181 11.005-2.658 22.254 1.462 30.896 8.693 8.126 6.788 14.235 16.236 17.84 27.359.237.734.463 1.476.679 2.218 2.74 9.422 3.788 19.964 7.297 30.607 2.452 7.464 6.512 14.147 10.768 19.707 10.915 14.264 24.513 23.562 40.135 29.065 9.621 3.359 19.73 5.632 29.583 7.522 3.765.722 7.617 1.476 11.451 2.406 12.174 2.967 24.202 7.757 32.519 18.851A44.464 44.464 0 0135.354 267c5.892 11.036 7.632 24.795 6.902 37.661-.868 15.158-4.558 29.795-7.518 44.409-2.502 12.369-5.485 24.218-7.099 36.365-1.624 12.289-2.046 24.874-1.056 37.383.237 2.95.566 5.924.987 8.895 1.514 10.674 4.407 21.362 9.673 30.852 2.64 4.757 5.797 9.05 9.127 13.083 7.506 9.105 16.004 17.023 25.312 23.242 11.486 3.399 35.914 18.067 41.738 49.55 7.281 39.353 8.698 141.74-72.012 160.337-80.71 18.596-105.25 33.705-163.095 57.797-57.845 24.093-243.276-24.5-319.188 115.481" stroke="#A0A0A0"/><path opacity=".833" d="M-466.599 199.563c77.555 10.823 83.611-33.882 156.141-76.9 58.024-34.415 131.362-18.158 160.778-5.727 10.991-2.558 22.167 1.661 30.72 8.965 8.042 6.858 14.051 16.354 17.551 27.503.23.736.449 1.479.658 2.224 2.653 9.44 3.608 19.985 7.016 30.654 2.381 7.482 6.371 14.197 10.567 19.792 10.759 14.353 24.233 23.768 39.757 29.408 9.561 3.444 19.616 5.806 29.42 7.784 3.748.756 7.58 1.544 11.394 2.508 12.108 3.075 24.056 7.969 32.252 19.132a44.515 44.515 0 013.566 5.756c5.78 11.082 7.398 24.849 6.563 37.701-.992 15.141-4.793 29.736-7.866 44.315-2.597 12.339-5.669 24.154-7.38 36.279-1.722 12.268-2.248 24.841-1.366 37.352.212 2.951.514 5.926.91 8.899 1.419 10.681 4.212 21.389 9.38 30.921 2.592 4.778 5.703 9.097 8.988 13.157 7.404 9.167 15.807 17.156 25.032 23.456 11.42 3.5 35.643 18.379 41.184 49.896 6.926 39.395 7.479 141.734-73.117 159.594-80.597 17.86-105.182 32.739-163.036 56.297-57.855 23.558-242.259-26.674-319.092 112.542" stroke="#A0A0A0"/><path opacity=".875" d="M-466.502 198.8c77.203 11.512 83.615-33.113 156.264-75.455 58.119-33.874 131.074-16.969 160.287-4.282 10.975-2.458 22.079 1.859 30.541 9.236 7.958 6.925 13.867 16.47 17.262 27.644.222.738.435 1.482.637 2.228 2.564 9.459 3.427 20.007 6.734 30.699 2.31 7.499 6.23 14.246 10.365 19.875 10.602 14.442 23.952 23.972 39.377 29.749 9.5 3.527 19.501 5.978 29.256 8.043 3.728.789 7.541 1.61 11.334 2.608 12.042 3.182 23.909 8.181 31.983 19.41a44.584 44.584 0 013.506 5.785c5.667 11.127 7.164 24.901 6.224 37.738-1.117 15.123-5.027 29.676-8.213 44.218-2.692 12.309-5.853 24.089-7.66 36.192-1.82 12.245-2.45 24.806-1.676 37.317.186 2.951.462 5.928.831 8.903 1.325 10.687 4.019 21.414 9.09 30.986 2.543 4.799 5.607 9.143 8.846 13.231 7.303 9.227 15.61 17.287 24.752 23.666 11.35 3.601 35.368 18.688 40.625 50.236 6.572 39.434 6.262 141.719-74.214 158.845-80.477 17.127-105.105 31.776-162.963 54.802-57.859 23.025-241.222-28.831-318.968 109.614" stroke="#A0A0A0"/><path opacity=".917" d="M-466.411 198.086c76.846 12.196 83.613-32.345 156.374-74.013 58.209-33.335 130.776-15.787 159.784-2.846 10.959-2.358 21.989 2.056 30.36 9.504 7.872 6.993 13.681 16.585 16.97 27.783.216.739.421 1.485.616 2.232 2.476 9.476 3.247 20.025 6.453 30.741 2.24 7.516 6.09 14.294 10.162 19.957 10.445 14.528 23.67 24.172 38.993 30.083 9.438 3.61 19.386 6.149 29.09 8.3 3.71.822 7.503 1.677 11.274 2.708 11.975 3.288 23.76 8.39 31.712 19.685a44.644 44.644 0 013.445 5.813c5.554 11.172 6.93 24.95 5.884 37.771-1.24 15.105-5.26 29.614-8.557 44.119-2.787 12.278-6.037 24.023-7.94 36.103-1.917 12.221-2.65 24.77-1.985 37.28.16 2.951.41 5.928.753 8.905 1.23 10.693 3.825 21.438 8.798 31.05 2.494 4.819 5.51 9.188 8.705 13.302 7.2 9.287 15.412 17.417 24.468 23.874 11.283 3.7 35.092 18.994 40.065 50.57 6.217 39.47 5.046 141.692-75.304 158.089-80.35 16.396-105.019 30.817-162.876 53.312-57.858 22.494-240.167-30.972-318.819 106.696" stroke="#A0A0A0"/><path opacity=".958" d="M-466.326 197.421c76.483 12.874 83.604-31.581 156.471-72.575 58.294-32.796 130.467-14.611 159.267-1.418 10.942-2.259 21.897 2.25 30.177 9.768 7.787 7.059 13.495 16.698 16.678 27.919.209.74.407 1.488.595 2.236 2.387 9.493 3.066 20.043 6.171 30.781 2.168 7.531 5.948 14.34 9.959 20.036 10.286 14.613 23.385 24.369 38.606 30.413 9.376 3.693 19.268 6.319 28.922 8.555 3.69.855 7.463 1.743 11.213 2.807 11.906 3.393 23.608 8.598 31.437 19.957a44.578 44.578 0 013.385 5.841c5.44 11.214 6.695 24.997 5.545 37.801-1.364 15.085-5.493 29.55-8.902 44.018-2.882 12.245-6.22 23.955-8.219 36.01-2.013 12.198-2.85 24.732-2.293 37.242.135 2.95.36 5.928.675 8.906 1.136 10.697 3.63 21.459 8.506 31.11 2.444 4.838 5.414 9.232 8.563 13.372 7.096 9.346 15.212 17.545 24.183 24.079 11.213 3.798 34.812 19.295 39.502 50.898 5.862 39.503 3.83 141.655-76.387 157.325-80.216 15.671-104.924 29.863-162.776 51.828-57.852 21.966-239.092-33.097-318.642 103.791" stroke="#A0A0A0"/><path d="M-466.247 196.793c76.116 13.547 83.59-30.819 156.559-71.143 58.375-32.259 130.15-13.441 158.74 0 10.925-2.16 21.805 2.444 29.993 10.032 7.7 7.124 13.307 16.808 16.385 28.051.201.742.393 1.491.573 2.241 2.299 9.509 2.887 20.058 5.89 30.819 2.096 7.546 5.806 14.384 9.755 20.112 10.128 14.697 23.1 24.564 38.218 30.741 9.313 3.773 19.15 6.487 28.752 8.807 3.67.887 7.422 1.809 11.15 2.905 11.838 3.497 23.456 8.803 31.163 20.226a44.691 44.691 0 013.323 5.867c5.327 11.257 6.461 25.043 5.206 37.83-1.488 15.064-5.725 29.485-9.245 43.914-2.976 12.213-6.402 23.886-8.496 35.917-2.11 12.173-3.052 24.693-2.602 37.201.11 2.95.308 5.928.597 8.907 1.041 10.702 3.436 21.48 8.213 31.168 2.395 4.858 5.318 9.275 8.42 13.441 6.994 9.405 15.013 17.671 23.898 24.281 11.143 3.896 34.531 19.595 38.937 51.221 5.507 39.533 2.615 141.611-77.463 156.559-80.08 14.947-104.823 28.912-162.667 50.35-57.843 21.438-238.003-35.206-318.446 100.898" stroke="url(#paint0_linear_446_4595)"/></g><defs><linearGradient id="paint0_linear_446_4595" x1="-110.101" y1="147.684" x2="85.876" y2="462.717" gradientUnits="userSpaceOnUse"><stop stop-color="#ACACAC"/><stop offset="1" stop-color="#A0A0A0" stop-opacity="0"/></linearGradient></defs></svg>