<svg width="459" height="1046" fill="none" xmlns="http://www.w3.org/2000/svg"><g clip-path="url(#clip0_360_2115)"><g opacity=".2" clip-path="url(#clip1_360_2115)" stroke-miterlimit="10"><path d="M262.057 1189.85c-31.261-24.42-61.406-51.09-90.244-79.83-12.816-12.78-25.635-26.32-34.005-43.81-21.409-44.66-8.094-100.487 10.488-144.992 17.111-40.987 38.258-79.226 62.863-113.645 24.383-34.116 52.512-65.127 69.548-105.669 17.033-40.559 20.365-94.962-4.076-131.588-14.547-21.796-36.896-34.065-59.179-37.844-22.298-3.777-44.712.168-66.386 5.95-24.823 6.622-50.544 15.675-75.538 7.318-25.877-8.641-47.33-36.991-52.53-69.41-7.394-46.119 15.558-88.523 33.126-128.878 22.313-51.267 37.365-110.168 30.167-169.136C79.107 119.364 45.448 61.44-1.462 46.552" stroke="#fff"/><path d="M271.423 1183.11c-30.75-23.96-60.327-50.31-88.501-78.75-12.52-12.64-25.029-26.06-33.268-43.23-16.542-34.49-12.556-75.639-1.624-112.984 2.968-10.174 6.462-20.075 10.184-29.482 16.032-40.445 36.087-78.294 59.56-112.523 23.264-33.912 50.399-64.724 66.73-104.832 9.151-22.482 14.597-48.784 14.017-74.303-.511-22.233-5.732-44.002-17.255-61.765a87.529 87.529 0 00-6.635-8.946c-14.573-17.216-34.396-26.982-54.205-30.559-6.363-1.146-12.737-1.714-19.105-1.841-16.61-.318-33.19 2.313-49.331 5.679-25.622 5.316-51.764 11.885-76.798 2.292-24.865-9.535-45.684-36.705-50.895-68.344-7.407-45.017 14.111-86.501 30.303-125.905a475.87 475.87 0 003.737-9.39c18.395-47.75 29.619-101.206 22.123-154.306-7.995-56.63-41.287-111.83-87.072-125.518" stroke="#F9F9F9"/><path d="M280.783 1176.39c-30.244-23.51-59.24-49.51-86.771-77.69-12.239-12.51-24.427-25.81-32.534-42.66-16.281-33.87-12.914-74.168-2.834-110.868 2.734-10.006 5.98-19.757 9.452-29.046 14.967-39.905 33.919-77.38 56.262-111.403 22.149-33.707 48.261-64.354 63.919-103.98 9.214-23.316 14.922-50.314 14.608-76.647-.285-22.876-5.351-45.469-16.996-63.904a88.943 88.943 0 00-6.76-9.329c-14.878-17.961-35.312-27.961-55.765-31.872-6.563-1.252-13.137-1.926-19.68-2.179-17.091-.661-34.212 1.358-50.814 3.922-26.409 3.991-52.957 8.143-78.079-2.735-23.85-10.329-44.056-36.402-49.279-67.262-7.422-43.915 12.665-84.479 27.481-122.933a449.093 449.093 0 003.413-9.168c16.765-46.546 26.403-98.192 18.151-149.127-8.791-54.293-41.737-106.788-86.4-119.276" stroke="#F4F4F4"/><path d="M290.131 1169.7c-29.724-23.07-58.153-48.74-85.039-76.62-11.945-12.39-23.824-25.54-31.787-42.1-16.006-33.26-13.271-72.691-4.032-108.763 2.513-9.857 5.498-19.455 8.719-28.628 13.888-39.363 31.736-76.464 52.964-110.283 21.032-33.501 46.106-64.016 61.106-103.144 9.26-24.168 15.247-51.845 15.201-78.976-.061-23.518-4.986-46.953-16.752-66.059a89.08 89.08 0 00-6.872-9.695c-15.196-18.689-36.225-28.925-57.324-33.169-6.75-1.359-13.525-2.14-20.257-2.534-17.585-1.004-35.22.419-52.296 2.164-27.211 2.684-54.108 4.448-79.349-7.763-22.827-11.038-42.415-36.101-47.65-66.198-7.437-42.814 11.218-82.458 24.658-119.962a332.527 332.527 0 003.088-8.944c15.12-45.359 23.172-95.195 14.167-143.931-9.59-51.956-42.186-101.729-85.729-113.017" stroke="#EEE"/><path d="M299.495 1162.99c-29.217-22.62-57.08-47.96-83.321-75.56-11.663-12.26-23.206-25.28-31.052-41.53-15.729-32.63-13.628-71.209-5.23-106.653 2.28-9.69 5.015-19.155 7.987-28.193 12.823-38.823 29.566-75.551 49.663-109.164 19.918-33.279 43.924-63.677 58.295-102.291 9.306-25.02 15.557-53.376 15.793-81.306.177-24.161-4.606-48.419-16.507-68.197a91.006 91.006 0 00-6.983-10.062c-15.515-19.433-37.155-29.903-58.896-34.465-6.95-1.448-13.914-2.353-20.835-2.871-18.066-1.365-36.226-.52-53.777.423-28.012 1.376-55.227.802-80.617-12.774-21.812-11.68-40.787-35.816-46.018-65.117-7.452-41.713 9.757-80.437 21.834-116.992a396.541 396.541 0 002.764-8.703c13.489-44.156 19.953-92.198 10.194-138.753C52.4 111.163 20.151 64.096-22.269 54.008" stroke="#E9E9E9"/><path d="M308.861 1156.27c-28.71-22.17-55.992-47.18-81.588-74.5-11.368-12.13-22.602-25.01-30.304-40.96-15.454-32.03-13.986-69.736-6.428-104.552 2.046-9.523 4.533-18.837 7.268-27.759 11.743-38.282 27.396-74.62 46.363-108.027 18.786-33.074 41.724-63.354 55.466-101.439 9.34-25.87 15.882-54.906 16.386-83.634.402-24.803-4.225-49.887-16.249-70.353a92.865 92.865 0 00-7.095-10.446c-15.821-20.179-38.069-30.866-60.457-35.778-7.137-1.556-14.315-2.567-21.412-3.226-18.548-1.709-37.246-1.424-55.275-1.334-28.808.135-56.342-2.794-81.885-17.803-20.792-12.237-39.144-35.514-44.4-64.035-7.467-40.611 8.309-78.416 19.009-114.021.842-2.8 1.655-5.632 2.44-8.479 11.856-42.953 16.718-89.201 6.205-133.557-11.186-47.298-43.099-91.625-84.384-100.53" stroke="#E3E3E3"/><path d="M318.229 1149.56c-28.203-21.73-54.918-46.4-79.852-73.43-11.073-11.99-21.998-24.74-29.57-40.4-15.177-31.4-14.343-68.254-7.64-102.441 1.811-9.373 4.05-18.536 6.534-27.341 10.677-37.742 25.224-73.706 43.046-106.907 17.669-32.869 39.509-63.047 52.65-100.604 9.372-26.737 16.206-56.454 16.978-85.963.642-25.447-3.843-51.355-16.004-72.509a95.337 95.337 0 00-7.206-10.813c-16.139-20.906-38.985-31.846-62.016-37.075-7.338-1.662-14.704-2.78-21.989-3.564-19.042-2.052-38.254-2.363-56.758-3.091-29.624-1.172-57.44-6.323-83.155-22.833-19.79-12.708-37.514-35.211-42.768-62.97-7.48-39.51 6.86-76.395 16.169-111.049a384.873 384.873 0 002.116-8.239c10.21-41.766 13.498-86.204 2.23-128.378-11.998-44.96-43.548-86.581-83.71-94.287" stroke="#DEDEDE"/><path d="M327.586 1142.85c-27.694-21.27-53.828-45.63-78.116-72.37-10.793-11.88-21.394-24.48-28.835-39.84-14.902-30.791-14.701-66.795-8.839-100.337 1.578-9.206 3.581-18.219 5.801-26.906 9.597-37.2 23.038-72.792 39.742-105.788 16.55-32.664 37.265-62.756 49.834-99.752 9.388-27.621 16.53-57.986 17.571-88.293.866-26.089-3.478-52.837-15.745-74.648a96.842 96.842 0 00-7.318-11.179c-16.444-21.652-39.912-32.808-63.575-38.372-7.539-1.769-15.092-2.994-22.567-3.919-19.524-2.413-39.275-3.302-58.242-4.85-30.425-2.479-58.532-9.802-84.424-27.863-18.798-13.109-35.87-34.925-41.134-61.888-7.494-38.391 5.412-74.373 13.342-108.077a361.73 361.73 0 001.791-8.016c8.577-40.563 10.262-83.207-1.76-123.181C32.316 104.948 1.116 66.05-37.922 59.545" stroke="#D8D8D8"/><path d="M336.959 1136.16c-27.187-20.83-52.752-44.85-76.392-71.3-10.497-11.75-20.789-24.22-28.085-39.26-14.625-30.184-15.002-65.305-10.036-98.215 1.358-9.041 3.098-17.918 5.066-26.488 8.53-36.66 20.865-71.879 36.437-104.669 15.432-32.46 35.004-62.481 47.015-98.917 9.406-28.489 16.841-59.517 18.164-90.623 1.105-26.733-3.097-54.305-15.5-76.804a100.599 100.599 0 00-7.43-11.563c-16.762-22.38-40.829-33.788-65.137-39.686-7.726-1.876-15.48-3.208-23.144-4.257-20.018-2.756-40.283-4.241-59.724-6.591-31.227-3.788-59.62-13.213-85.708-32.892-17.812-13.443-34.237-34.623-39.511-60.805-7.51-37.29 3.962-72.352 10.513-105.107a337.896 337.896 0 001.467-7.775c6.944-39.36 7.04-80.193-5.738-118.002C25.622 102.92-5.229 66.729-43.142 61.425" stroke="#D2D2D2"/><path d="M346.333 1129.45c-26.678-20.39-51.66-44.06-74.654-70.24-10.215-11.61-20.183-23.95-27.349-38.71-14.348-29.55-15.359-63.819-11.236-96.101 1.125-8.873 2.616-17.6 4.334-26.053 7.448-36.119 18.692-70.948 33.129-103.55 14.299-32.254 32.73-62.205 44.197-98.065 9.408-29.389 17.165-61.049 18.755-92.97 1.331-27.375-2.715-55.773-15.241-78.961a101.184 101.184 0 00-7.541-11.93c-17.081-23.124-41.757-34.75-66.697-40.983-7.926-1.966-15.882-3.421-23.722-4.612-20.499-3.099-41.305-5.179-61.208-8.349-32.029-5.096-60.731-16.556-86.977-37.922-16.85-13.708-32.593-34.338-37.878-59.741-7.522-36.187 2.498-70.346 7.685-102.135a319.52 319.52 0 001.142-7.551c5.308-38.174 3.802-77.196-9.73-112.806-14.393-37.964-44.894-71.432-81.681-75.535" stroke="#CDCDCD"/><path d="M355.709 1122.73c-26.169-19.93-50.583-43.28-72.916-69.18-9.92-11.49-19.578-23.68-26.599-38.14-14.085-28.943-15.702-62.344-12.448-93.997a367.4 367.4 0 013.598-25.635c6.381-35.579 16.517-70.034 29.821-102.431 13.182-32.033 30.44-61.945 41.376-97.231 9.398-30.27 17.491-62.58 19.349-95.299 1.569-28.019-2.348-57.24-14.995-81.1a101.55 101.55 0 00-7.652-12.297c-17.387-23.871-42.673-35.731-68.271-42.28-8.113-2.073-16.27-3.635-24.3-4.967-20.995-3.459-42.315-6.135-62.692-10.108-32.833-6.42-61.865-19.829-88.247-42.952-15.911-13.937-30.959-34.035-36.241-58.659-7.537-35.085 1.047-68.325 4.857-99.147.296-2.427.577-4.87.817-7.311 3.66-36.97.577-74.199-13.71-107.626C12.25 98.744-17.884 68-53.547 65.098" stroke="#fff"/><path d="M365.073 1116.02c-25.66-19.49-49.491-42.5-71.189-68.1-9.624-11.36-18.958-23.42-25.86-37.56-13.808-28.322-16.06-60.872-13.649-91.896a358.985 358.985 0 012.878-25.201 496.934 496.934 0 0126.5-101.295c12.062-31.828 28.121-61.683 38.556-96.379 9.371-31.169 17.8-64.128 19.942-97.63 1.794-28.662-1.968-58.725-14.75-83.256a101.921 101.921 0 00-7.779-12.68c-17.704-24.599-43.587-36.694-69.831-43.594-8.315-2.18-16.659-3.849-24.878-5.305-21.476-3.803-43.337-7.074-64.176-11.867-33.635-7.729-63.035-23.049-89.516-47.967-14.995-14.113-29.31-33.732-34.617-57.575-7.551-33.984-.403-66.304 2.026-96.175.193-2.353.356-4.721.493-7.088 2.025-35.767-2.663-71.201-17.704-102.428-16.005-33.288-45.79-61.325-80.325-63.026" stroke="#fff"/><path d="M374.451 1109.31c-25.15-19.03-48.398-41.72-69.448-67.05-9.341-11.22-18.352-23.15-25.123-37-13.531-27.705-16.418-59.402-14.849-89.781a365.286 365.286 0 012.143-24.783c4.231-34.497 12.152-68.207 23.19-100.176 10.942-31.624 25.814-61.44 35.734-95.528 9.331-32.084 18.125-65.661 20.535-99.96 2.034-29.306-1.586-60.193-14.489-85.397a103.78 103.78 0 00-7.89-13.047c-18.024-25.343-44.517-37.674-71.392-44.891-8.502-2.288-17.061-4.062-25.455-5.66-21.958-4.148-44.337-8.065-65.662-13.626-34.429-9.123-64.253-26.183-90.785-52.998-14.09-14.239-27.677-33.446-32.98-56.51-7.566-32.882-1.854-64.282-.805-93.204.088-2.279.134-4.572.168-6.847.39-34.564-5.89-68.204-21.686-97.249C-1.146 94.653-30.58 69.341-63.99 68.824" stroke="#BCBCBC"/><path d="M383.832 1102.6c-24.641-18.59-47.319-40.95-67.706-65.97-9.046-11.11-17.745-22.89-24.372-36.44-13.253-27.084-16.774-57.928-16.062-87.678a377.03 377.03 0 011.408-24.348c3.163-33.957 9.977-67.277 19.88-99.058 9.821-31.419 23.479-61.194 32.91-94.694 9.292-32.981 18.45-67.192 21.128-102.29 2.26-29.949-1.204-61.662-14.244-87.554a104.38 104.38 0 00-8-13.414c-18.33-26.089-45.432-38.637-72.953-46.189-8.701-2.377-17.449-4.276-26.032-5.998-22.453-4.491-45.361-9.021-67.145-15.368-35.233-10.448-65.521-29.245-92.056-58.03-13.222-14.345-26.04-33.142-31.341-55.427-7.58-31.78-3.305-62.26-3.636-90.232-.03-2.204-.074-4.424-.158-6.624-1.247-33.378-9.131-65.206-25.683-92.068C-7.833 92.59-36.913 70.003-69.195 70.704" stroke="#B7B7B7"/><path d="M393.215 1095.91c-24.131-18.15-46.226-40.17-65.964-64.92-8.763-10.98-17.138-22.62-23.633-35.857-12.976-26.474-17.131-56.449-17.26-85.554-.035-8.074.211-16.063.673-23.913 2.08-33.417 7.799-66.364 16.568-97.939 8.686-31.215 21.128-60.966 30.087-93.843 9.224-33.894 18.76-68.725 21.722-104.622 2.486-30.574-.837-63.129-13.985-89.711-2.392-4.822-5.084-9.439-8.113-13.798-18.647-26.817-46.362-39.617-74.514-47.503-8.889-2.485-17.838-4.49-26.612-6.354-22.935-4.851-46.369-9.96-68.629-17.127-36.036-11.756-66.866-32.234-93.325-63.062-12.38-14.415-24.392-32.839-29.704-54.361-7.593-30.678-4.77-60.238-6.468-87.261a249.385 249.385 0 00-.483-6.383c-2.896-32.174-12.358-62.192-29.665-86.87-18.402-26.29-47.13-46.152-78.285-44.266" stroke="#fff"/><path d="M402.594 1089.19c-23.607-17.68-45.146-39.39-64.236-63.85-8.466-10.84-16.531-22.36-22.895-35.296-12.698-25.848-17.503-54.987-18.461-83.448a384.6 384.6 0 01-.063-23.495c1.011-32.876 5.608-65.45 13.255-96.821 7.566-31.01 18.779-60.72 27.262-93.009 9.155-34.825 19.086-70.258 22.316-106.954 2.726-31.218-.456-64.614-13.738-91.852-2.417-4.957-5.145-9.69-8.224-14.165-18.954-27.563-47.278-40.581-76.09-48.801-9.091-2.59-18.227-4.703-27.189-6.691-23.431-5.195-47.393-10.9-70.116-18.887-36.839-13.065-68.275-35.153-94.61-68.094-11.58-14.483-22.757-32.553-28.078-53.278-7.607-29.576-6.222-58.216-9.302-84.289a235.41 235.41 0 00-.808-6.16c-4.533-30.971-15.601-59.194-33.665-81.689-19.214-23.95-47.578-41.106-77.605-38.018" stroke="#ABABAB"/><path d="M412.006 1082.48c-23.098-17.24-44.053-38.59-62.494-62.78-8.171-10.72-15.925-22.086-22.144-34.731-12.421-25.239-17.861-53.509-19.663-81.343a388.038 388.038 0 01-.798-23.06c-.072-32.336 3.429-64.537 9.943-95.687 6.446-30.79 16.414-60.492 24.438-92.16 9.058-35.753 19.411-71.791 22.909-109.303 2.951-31.862-.074-66.084-13.48-94.012-2.441-5.091-5.206-9.942-8.335-14.532-19.273-28.293-48.197-41.563-77.655-50.1-9.292-2.698-18.63-4.917-27.769-7.047-23.913-5.539-48.404-11.84-71.604-20.647-37.63-14.375-69.79-37.998-95.885-73.129-10.788-14.516-21.107-32.251-26.438-52.196-7.62-28.456-7.675-56.195-12.137-81.318-.355-1.98-.737-3.959-1.132-5.919C23.59 154.73 10.93 128.318-7.89 108.023c-20.015-21.612-48.028-36.059-76.927-31.77" stroke="#A6A6A6"/><path d="M421.417 1075.77c-22.588-16.8-42.972-37.81-60.751-61.72-7.889-10.59-15.318-21.822-21.407-34.171-12.144-24.63-18.232-52.03-20.878-79.236a379.873 379.873 0 01-1.52-22.643c-1.143-31.796 1.249-63.625 6.615-94.57 5.323-30.586 14.034-60.262 21.598-91.309 8.949-36.682 19.722-73.341 23.503-111.636 3.191-32.507.309-67.555-13.234-96.171-2.464-5.209-5.267-10.193-8.448-14.917-19.593-29.038-49.128-42.526-79.22-51.416-9.479-2.788-19.019-5.131-28.348-7.385-24.41-5.9-49.416-12.797-73.091-22.39-38.436-15.702-71.411-40.787-97.158-78.148-10.04-14.563-19.47-31.947-24.8-51.13-7.634-27.354-9.127-54.174-14.97-78.347-.46-1.906-.947-3.811-1.46-5.696-7.822-28.582-22.077-53.2-41.652-71.312-20.816-19.29-48.476-30.994-76.247-25.502" stroke="#A0A0A0"/><path d="M430.815 1069.07c-22.077-16.35-41.879-37.05-59.021-60.66-7.591-10.453-14.697-21.551-20.653-33.586-11.879-24.004-18.631-50.549-22.08-77.13a370.034 370.034 0 01-2.256-22.209c-2.226-31.256-.929-62.696 3.3-93.453 4.201-30.381 11.64-60.031 18.771-90.476 8.823-37.626 20.047-74.875 24.097-113.97 3.417-33.15.677-69.023-12.987-98.313-2.488-5.344-5.33-10.462-8.56-15.284-19.899-29.785-50.046-43.509-80.784-52.715-9.68-2.895-19.409-5.346-28.927-7.741-24.893-6.244-50.442-13.737-74.58-24.151-39.24-17.011-73.15-43.499-98.431-83.183-9.305-14.61-17.82-31.662-23.173-50.047C37.883 219.9 34.951 194 27.724 170.776a194.442 194.442 0 00-1.799-5.472c-9.46-27.378-25.31-50.202-45.64-66.114-21.616-16.95-48.924-25.946-75.567-19.252" stroke="#9B9B9B"/><path d="M440.227 1062.37c-21.567-15.9-40.797-36.26-57.277-59.59-7.309-10.341-14.089-21.291-19.914-33.029-11.602-23.395-18.988-49.072-23.282-75.024-1.221-7.256-2.196-14.527-2.992-21.792-3.297-30.715-3.124-61.782-.018-92.335 3.066-30.177 9.246-59.801 15.945-89.627 8.67-38.569 20.372-76.409 24.692-116.304 3.656-33.794 1.057-70.51-12.729-100.473-2.511-5.461-5.404-10.712-8.671-15.652-20.218-30.514-50.977-44.472-82.348-54.014-9.868-3.002-19.812-5.559-29.506-8.08-25.374-6.588-51.452-14.676-76.067-25.911-40.044-18.32-75.008-46.171-99.705-88.219-8.61-14.654-16.182-31.358-21.531-48.964-7.648-25.151-12.049-50.147-20.644-72.405a187.944 187.944 0 00-2.123-5.231c-11.1-26.192-28.557-47.204-49.644-60.931-22.416-14.612-49.37-20.882-74.885-13.002" stroke="#959595"/><path d="M449.639 1055.66c-21.056-15.45-39.702-35.49-55.532-58.536-7.012-10.206-13.481-21.023-19.175-32.465-11.323-22.769-19.347-47.609-24.483-72.9-1.455-7.089-2.681-14.226-3.728-21.357-4.381-30.175-5.304-60.87-3.334-91.218 1.943-29.974 6.835-59.587 13.115-88.794 8.489-39.527 20.698-77.944 25.286-118.638 3.882-34.439 1.44-71.981-12.481-102.616-2.535-5.596-5.465-10.964-8.798-16.035-20.524-31.261-51.895-45.455-83.913-55.331-10.069-3.109-20.201-5.773-30.085-8.435-25.872-6.949-52.463-15.617-77.556-27.672-40.849-19.647-77.002-48.818-100.977-93.255-7.945-14.731-14.529-31.056-19.89-47.899-7.662-24.048-13.502-48.125-23.48-69.433a149.226 149.226 0 00-2.45-5.007c-12.74-24.989-31.79-44.19-53.633-55.733-23.23-12.272-49.82-15.832-74.203-6.733" stroke="#909090"/><path d="M459.051 1048.95c-47.741-34.87-82.104-95.081-97.906-160.157-15.801-65.077-14.035-134.552-.829-198.967 8.294-40.485 21.009-79.479 25.88-120.973 4.872-41.494.753-87.59-21.13-121.179-27.393-42.056-73.997-53.744-116.155-65.42-69.324-19.173-143.98-52.085-181.293-127.708-18.583-37.663-25.937-82.643-47.353-118.043-29.693-49.075-86.03-71.005-131.157-51.03" stroke="#8A8A8A"/></g></g><defs><clipPath id="clip0_360_2115"><path fill="#fff" transform="translate(-98)" d="M0 0h557v1046H0z"/></clipPath><clipPath id="clip1_360_2115"><path fill="#fff" transform="matrix(-.0733 -.99731 .99792 -.06451 -10.598 1090.23)" d="M0 0h1040.97v470.579H0z"/></clipPath></defs></svg>