<svg width="360" height="611" fill="none" xmlns="http://www.w3.org/2000/svg"><g opacity=".25" stroke="#fff" stroke-width=".25"><path d="M42.447 405.297a201.094 201.094 0 002.772 44.23c5.117 29.328 16.844 57.741 35.245 82.674a191.072 191.072 0 009.318 11.661c19.041 22.017 41.835 38.596 66.505 49.648a188.62 188.62 0 0078.999 16.447c31.685-.326 63.37-8.637 91.92-25.106 12.175-7.006 23.753-15.512 34.542-25.477 11.323-10.486 21.152-22.039 29.425-34.375 14.969-22.3 35.161-39.987 58.338-52.454 11.642-6.265 24.052-11.226 36.909-14.772 16.61-4.591 32.517-12.619 46.696-24.128a127.913 127.913 0 0010.661-9.681 130.281 130.281 0 0018.529-23.671c11.877-19.428 18.401-41.489 19.467-63.789 1.365-28.718-6.29-57.871-23.22-82.478a127.158 127.158 0 00-6.929-9.181c-20.086-24.301-46.718-39.313-74.863-44.774-1.151-.218-2.281-.435-3.433-.609-26.184-4.351-51.408-14.011-73.114-29.567a122.244 122.244 0 00-9.169-5.939c-13.646-7.963-28.486-12.88-43.583-14.881a120.235 120.235 0 00-59.19 7.136 118.556 118.556 0 00-33.732 20.102 121.606 121.606 0 00-8.614 8.094c-17.271 17.948-38.082 32.09-61.067 41.01a168.043 168.043 0 01-9.105 3.22c-26.717 8.55-52.027 23.279-73.839 44.252-14.414 13.859-26.227 29.523-35.46 46.362-14.584 26.63-22.644 56.197-24.072 86.068l.064-.022z"/><path d="M39.696 391.025a198.09 198.09 0 002.708 43.469c5.032 28.827 16.546 56.74 34.649 81.238 2.879 3.916 5.949 7.723 9.169 11.465 18.699 21.647 41.088 37.943 65.331 48.777a185.619 185.619 0 0077.635 16.165 184.646 184.646 0 0090.321-24.671c11.962-6.897 23.348-15.23 33.945-25.042a192.128 192.128 0 0028.913-33.787c14.713-21.93 34.564-39.292 57.315-51.54a174.274 174.274 0 0136.269-14.512c16.311-4.503 31.962-12.401 45.885-23.714a127.371 127.371 0 0010.47-9.507 127.738 127.738 0 0018.209-23.258c11.684-19.08 18.081-40.749 19.126-62.679 1.343-28.218-6.183-56.871-22.815-81.042a123.482 123.482 0 00-6.802-9.007c-19.723-23.889-45.885-38.617-73.562-43.991-1.13-.218-2.239-.414-3.369-.609-25.736-4.265-50.512-13.75-71.834-29.045a115.754 115.754 0 00-8.998-5.831c-13.412-7.832-27.975-12.662-42.816-14.62a117.867 117.867 0 00-58.146 7.028c-11.897 4.634-23.134 11.226-33.134 19.754a112.405 112.405 0 00-8.465 7.963c-16.973 17.644-37.421 31.525-60.001 40.292a145.444 145.444 0 01-8.934 3.155c-26.248 8.42-51.11 22.866-72.539 43.491a189.485 189.485 0 00-34.84 45.557c-14.33 26.173-22.261 55.217-23.668 84.566l-.022-.065z"/><path d="M36.946 376.731a194.914 194.914 0 002.665 42.686c4.947 28.305 16.248 55.717 34.03 79.801a193.024 193.024 0 008.998 11.248c18.38 21.256 40.363 37.269 64.181 47.929a181.89 181.89 0 0076.248 15.86c30.576-.326 61.174-8.354 88.722-24.236 11.749-6.766 22.943-14.968 33.348-24.606a187.889 187.889 0 0028.402-33.178c14.456-21.539 33.945-38.596 56.291-50.627 11.236-6.048 23.22-10.835 35.629-14.25 16.035-4.417 31.387-12.162 45.075-23.301a130.568 130.568 0 0010.299-9.333 125.827 125.827 0 0017.89-22.844c11.471-18.754 17.761-40.032 18.785-61.57 1.322-27.718-6.077-55.87-22.41-79.606a131.126 131.126 0 00-6.674-8.855c-19.382-23.453-45.075-37.943-72.261-43.208a89.088 89.088 0 00-3.305-.587c-25.267-4.199-49.617-13.511-70.556-28.523a114.118 114.118 0 00-8.849-5.743c-13.177-7.68-27.484-12.445-42.069-14.381a115.806 115.806 0 00-57.122 6.897 114.052 114.052 0 00-32.559 19.406 113.024 113.024 0 00-8.316 7.811c-16.674 17.339-36.76 30.959-58.935 39.574a156.206 156.206 0 01-8.785 3.111c-25.778 8.268-50.214 22.453-71.259 42.708a186.4 186.4 0 00-34.222 44.752c-14.073 25.716-21.855 54.238-23.241 83.065z"/><path d="M34.195 362.437c-.66 13.99.192 28.066 2.623 41.924 4.861 27.805 15.949 54.717 33.412 78.366a194.764 194.764 0 008.827 11.052c18.039 20.865 39.638 36.594 63.029 47.059a178.558 178.558 0 0074.884 15.577 177.914 177.914 0 0087.123-23.801c11.535-6.636 22.516-14.685 32.751-24.149a183.796 183.796 0 0027.89-32.591c14.2-21.147 33.326-37.899 55.288-49.713a167.71 167.71 0 0134.99-13.989c15.736-4.351 30.832-11.944 44.265-22.866a121.852 121.852 0 0010.107-9.181 123.877 123.877 0 0017.57-22.43c11.258-18.406 17.441-39.314 18.465-60.461 1.301-27.217-5.97-54.847-22.005-78.17a115.536 115.536 0 00-6.567-8.681c-19.019-23.039-44.265-37.246-70.961-42.446a86.532 86.532 0 00-3.262-.587c-24.819-4.112-48.721-13.272-69.276-28.022a120.65 120.65 0 00-8.678-5.635c-12.922-7.55-26.994-12.205-41.302-14.12a113.763 113.763 0 00-56.099 6.766 111.713 111.713 0 00-31.962 19.059c-2.836 2.393-5.544 4.96-8.166 7.68-16.376 17.013-36.099 30.415-57.869 38.856a131 131 0 01-8.636 3.046c-25.309 8.115-49.297 22.061-69.98 41.946a182.773 182.773 0 00-33.603 43.947c-13.817 25.238-21.472 53.26-22.815 81.564h-.043z"/><path d="M31.445 348.165a186.2 186.2 0 002.58 41.141c4.776 27.282 15.671 53.716 32.793 76.908 2.73 3.699 5.63 7.31 8.678 10.857 17.72 20.494 38.914 35.919 61.856 46.188a175.539 175.539 0 0073.498 15.295 174.71 174.71 0 0085.524-23.366 178.046 178.046 0 0032.133-23.715 181.214 181.214 0 0027.378-31.981c13.923-20.756 32.708-37.203 54.265-48.799 10.832-5.831 22.367-10.443 34.35-13.75 15.438-4.265 30.257-11.727 43.455-22.453a124.692 124.692 0 009.915-9.007 121.811 121.811 0 0017.25-22.017c11.045-18.079 17.122-38.595 18.124-59.351 1.279-26.716-5.864-53.846-21.6-76.734a121.797 121.797 0 00-6.439-8.528c-18.678-22.605-43.455-36.572-69.66-41.663-1.066-.196-2.132-.392-3.198-.566-24.35-4.047-47.826-13.032-68.019-27.5a106.059 106.059 0 00-8.528-5.526c-12.687-7.397-26.483-11.988-40.534-13.859a111.59 111.59 0 00-55.054 6.636 109.771 109.771 0 00-31.387 18.71 109.791 109.791 0 00-8.017 7.528c-16.077 16.709-35.438 29.849-56.803 38.139a145.559 145.559 0 01-8.465 3.002c-24.861 7.963-48.401 21.647-68.679 41.163a180.102 180.102 0 00-32.985 43.142c-13.561 24.78-21.067 52.28-22.41 80.063l-.021.043z"/><path d="M28.694 333.871a184.422 184.422 0 002.516 40.38c4.67 26.782 15.373 52.715 32.175 75.472a181.035 181.035 0 008.508 10.639c17.378 20.103 38.188 35.245 60.705 45.318a172.172 172.172 0 0072.112 15.012 171.71 171.71 0 0083.924-22.909c11.109-6.397 21.685-14.164 31.536-23.258a177.913 177.913 0 0026.866-31.394c13.668-20.364 32.111-36.507 53.242-47.885a162.36 162.36 0 0133.71-13.489c15.161-4.177 29.681-11.509 42.624-22.039 3.347-2.72 6.61-5.679 9.744-8.833 6.567-6.636 12.196-13.902 16.93-21.604 10.853-17.731 16.802-37.856 17.783-58.241 1.258-26.217-5.757-52.846-21.195-75.298a117.019 117.019 0 00-6.311-8.377c-18.316-22.191-42.645-35.876-68.338-40.879-1.045-.196-2.09-.392-3.134-.566-23.903-3.96-46.931-12.793-66.739-26.978a105.515 105.515 0 00-8.359-5.417c-12.452-7.267-25.992-11.77-39.787-13.598-18.209-2.415-36.866-.152-54.031 6.527-11.045 4.308-21.493 10.443-30.789 18.341a105.67 105.67 0 00-7.868 7.397c-15.757 16.382-34.777 29.284-55.737 37.42a134.781 134.781 0 01-8.315 2.937c-24.393 7.811-47.485 21.256-67.4 40.402-13.156 12.64-23.945 26.956-32.367 42.337-13.327 24.324-20.683 51.301-21.984 78.562l-.021.021z"/><path d="M25.943 319.578c-.64 13.227.192 26.52 2.474 39.596 4.584 26.26 15.075 51.693 31.557 74.036a174.142 174.142 0 008.337 10.443c17.058 19.711 37.442 34.571 59.553 44.47a169.183 169.183 0 0070.747 14.729 168.43 168.43 0 0082.326-22.474 172.185 172.185 0 0030.939-22.823 174.427 174.427 0 0026.354-30.785c13.412-19.972 31.493-35.81 52.24-46.971 10.426-5.613 21.535-10.052 33.049-13.228 14.862-4.112 29.127-11.291 41.813-21.604a123.478 123.478 0 009.553-8.659 116.177 116.177 0 0016.588-21.19c10.64-17.405 16.483-37.138 17.442-57.132 1.237-25.716-5.65-51.823-20.789-73.862-1.94-2.807-3.987-5.548-6.205-8.202-17.975-21.757-41.834-35.202-67.037-40.097-1.024-.196-2.047-.392-3.071-.544-23.454-3.894-46.035-12.532-65.459-26.477a103.766 103.766 0 00-8.209-5.33c-12.218-7.136-25.502-11.531-39.02-13.337-17.868-2.371-36.163-.152-53.007 6.396a106.661 106.661 0 00-30.214 17.993 110.656 110.656 0 00-7.719 7.245c-15.458 16.077-34.094 28.718-54.692 36.702a150.982 150.982 0 01-8.145 2.894c-23.923 7.658-46.589 20.842-66.12 39.639a172.173 172.173 0 00-31.75 41.511c-13.07 23.845-20.277 50.322-21.556 77.061h.021z"/><path d="M23.193 305.306a177.008 177.008 0 002.43 38.834c4.5 25.76 14.777 50.692 30.96 72.601a168.14 168.14 0 008.188 10.247c16.717 19.341 36.717 33.896 58.381 43.599a165.788 165.788 0 0069.361 14.446 164.778 164.778 0 0080.705-22.039c10.683-6.157 20.853-13.619 30.342-22.365a170.334 170.334 0 0025.843-30.198c13.155-19.58 30.874-35.114 51.216-46.057a155.578 155.578 0 0132.41-12.967c14.584-4.025 28.55-11.074 41.002-21.191 3.22-2.632 6.354-5.46 9.361-8.506a113.434 113.434 0 0016.269-20.777c10.426-17.057 16.162-36.42 17.1-56.023 1.194-25.215-5.522-50.822-20.384-72.404a119.691 119.691 0 00-6.077-8.05c-17.633-21.343-41.002-34.505-65.736-39.313-1.002-.196-2.005-.37-3.007-.544-22.985-3.808-45.139-12.292-64.18-25.955a110.76 110.76 0 00-8.038-5.222c-11.984-6.983-25.012-11.313-38.274-13.075-17.527-2.328-35.459-.152-51.963 6.266a103.828 103.828 0 00-29.616 17.644 101.752 101.752 0 00-7.57 7.114c-15.16 15.773-33.433 28.174-53.625 36.007a139.727 139.727 0 01-7.996 2.828c-23.455 7.506-45.672 20.429-64.82 38.856a169.518 169.518 0 00-31.13 40.706c-12.815 23.388-19.894 49.321-21.152 75.559v-.021z"/><path d="M20.442 291.012a174.11 174.11 0 002.388 38.073c4.414 25.237 14.5 49.691 30.342 71.143a176.552 176.552 0 008.017 10.029c16.376 18.95 35.992 33.222 57.229 42.729 21.557 9.638 44.777 14.403 67.997 14.142a161.567 161.567 0 0079.106-21.604c10.469-6.026 20.448-13.336 29.723-21.93a168.643 168.643 0 0025.331-29.589c12.879-19.188 30.256-34.418 50.193-45.144 10.021-5.395 20.704-9.659 31.77-12.705 14.286-3.938 27.996-10.856 40.193-20.777a114.058 114.058 0 009.168-8.333 111.45 111.45 0 0015.949-20.364c10.235-16.73 15.843-35.702 16.76-54.912 1.172-24.715-5.416-49.8-19.979-70.969a115.07 115.07 0 00-5.949-7.897c-17.271-20.908-40.193-33.831-64.436-38.531a72.017 72.017 0 00-2.943-.522c-22.537-3.742-44.244-12.053-62.922-25.433a99.895 99.895 0 00-7.889-5.112c-11.749-6.854-24.5-11.096-37.506-12.815a103.571 103.571 0 00-50.939 6.135 101.201 101.201 0 00-29.02 17.297 106.703 106.703 0 00-7.42 6.962c-14.862 15.446-32.772 27.608-52.559 35.288a128.74 128.74 0 01-7.826 2.763c-22.985 7.375-44.777 20.038-63.54 38.095a165.87 165.87 0 00-30.513 39.901C28.61 239.863 21.68 265.274 20.442 290.99v.022z"/><path d="M17.67 276.718a169.517 169.517 0 002.324 37.29c4.329 24.737 14.201 48.69 29.724 69.707a161.539 161.539 0 007.868 9.834c16.055 18.558 35.267 32.547 56.077 41.859a159.073 159.073 0 0066.611 13.858c26.717-.283 53.434-7.288 77.507-21.169a161.636 161.636 0 0029.126-21.495 164.276 164.276 0 0024.819-28.979c12.623-18.819 29.66-33.722 49.191-44.23a149.085 149.085 0 0131.13-12.445c14.009-3.872 27.421-10.638 39.383-20.342a117.324 117.324 0 008.998-8.158 110.383 110.383 0 0015.629-19.951c10.022-16.382 15.523-34.962 16.418-53.781 1.152-24.215-5.309-48.799-19.574-69.533a110.662 110.662 0 00-5.842-7.723c-16.93-20.494-39.382-33.135-63.135-37.747-.96-.196-1.919-.37-2.9-.522-22.069-3.655-43.348-11.814-61.643-24.933a95.482 95.482 0 00-7.719-5.004c-11.514-6.723-24.009-10.856-36.738-12.553a101.162 101.162 0 00-49.894 6.026c-10.214 3.982-19.851 9.638-28.444 16.948a98.347 98.347 0 00-7.271 6.832c-14.563 15.142-32.111 27.043-51.493 34.57a140.6 140.6 0 01-7.677 2.72c-22.516 7.223-43.86 19.624-62.26 37.312-12.154 11.683-22.112 24.911-29.895 39.096-12.303 22.452-19.104 47.363-20.298 72.556l-.022-.043z"/><path d="M14.92 262.446a166.615 166.615 0 002.281 36.529c4.222 24.214 13.902 47.667 29.105 68.27 2.43 3.286 4.99 6.505 7.698 9.638 15.714 18.189 34.542 31.873 54.904 40.989a155.76 155.76 0 0065.247 13.576c26.162-.283 52.325-7.136 75.907-20.734 10.043-5.787 19.617-12.792 28.529-21.038a161.007 161.007 0 0024.308-28.392c12.367-18.427 29.041-33.026 48.167-43.316 9.616-5.178 19.851-9.268 30.491-12.206 13.71-3.785 26.845-10.421 38.572-19.928a112.588 112.588 0 008.806-7.985 108.392 108.392 0 0015.309-19.537c9.809-16.034 15.203-34.244 16.077-52.671 1.131-23.715-5.202-47.799-19.168-68.097a112.602 112.602 0 00-5.715-7.571c-16.567-20.06-38.572-32.46-61.813-36.964-.938-.174-1.898-.348-2.836-.5-21.621-3.59-42.431-11.575-60.363-24.411a105.113 105.113 0 00-7.57-4.917c-11.258-6.57-23.518-10.639-35.992-12.292a99.107 99.107 0 00-48.871 5.896 97.7 97.7 0 00-27.847 16.6 103.41 103.41 0 00-7.121 6.679c-14.265 14.838-31.451 26.499-50.427 33.852-2.474.958-4.99 1.85-7.527 2.655-22.069 7.071-42.965 19.21-60.96 36.55a159.024 159.024 0 00-29.276 38.291c-12.047 21.995-18.7 46.384-19.894 71.056l-.021-.022z"/><path d="M12.17 248.152a162.039 162.039 0 002.238 35.746c4.136 23.714 13.604 46.667 28.487 66.834a155.682 155.682 0 007.526 9.421c15.395 17.796 33.818 31.198 53.754 40.14 20.235 9.072 42.048 13.511 63.86 13.293a151.694 151.694 0 0074.308-20.298 155.874 155.874 0 0027.933-20.604 156.507 156.507 0 0023.774-27.782c12.111-18.036 28.423-32.33 47.144-42.403a143.774 143.774 0 0129.851-11.944c13.412-3.699 26.29-10.204 37.74-19.515a107.876 107.876 0 008.615-7.833 105.838 105.838 0 0014.989-19.123c9.617-15.708 14.883-33.527 15.736-51.562 1.109-23.214-5.096-46.776-18.763-66.661a113.917 113.917 0 00-5.587-7.419c-16.226-19.646-37.762-31.764-60.513-36.202-.917-.174-1.855-.349-2.772-.5-21.173-3.525-41.535-11.314-59.084-23.89a93.513 93.513 0 00-7.399-4.807c-11.023-6.44-23.006-10.422-35.224-12.032a97.078 97.078 0 00-47.847 5.766 95.745 95.745 0 00-27.272 16.252 99.494 99.494 0 00-6.972 6.548c-13.966 14.512-30.789 25.934-49.361 33.135a147.727 147.727 0 01-7.356 2.611c-21.6 6.918-42.048 18.819-59.681 35.767a155.901 155.901 0 00-28.658 37.486c-11.79 21.538-18.316 45.405-19.467 69.554v.022z"/><path d="M9.419 233.858a159.041 159.041 0 002.196 34.984c4.051 23.192 13.305 45.666 27.89 65.399a149.142 149.142 0 007.377 9.225c15.053 17.427 33.07 30.524 52.602 39.27a149.016 149.016 0 0062.474 13.01c25.054-.261 50.129-6.831 72.709-19.863 9.617-5.548 18.785-12.271 27.314-20.147a153.338 153.338 0 0023.263-27.195c11.834-17.644 27.804-31.633 46.141-41.489 9.212-4.96 19.02-8.876 29.191-11.683 13.134-3.633 25.714-9.964 36.93-19.08 2.9-2.371 5.736-4.917 8.444-7.658a102.93 102.93 0 0014.669-18.711c9.404-15.359 14.564-32.808 15.395-50.452 1.088-22.714-4.989-45.775-18.358-65.225a103.829 103.829 0 00-5.48-7.245c-15.885-19.232-36.952-31.09-59.212-35.419a59.095 59.095 0 00-2.708-.479c-20.704-3.437-40.641-11.073-57.826-23.387a89.985 89.985 0 00-7.25-4.7 92.21 92.21 0 00-34.457-11.77c-15.778-2.088-31.941-.13-46.802 5.657a93.395 93.395 0 00-26.675 15.903 90.953 90.953 0 00-6.823 6.419c-13.667 14.206-30.128 25.367-48.295 32.416a134.607 134.607 0 01-7.207 2.546c-21.13 6.766-41.152 18.405-58.402 35.005a152.721 152.721 0 00-28.038 36.681C16.945 186.93 10.57 210.296 9.44 233.924l-.021-.066z"/><path d="M6.668 219.586A155.84 155.84 0 008.8 253.787c3.966 22.692 13.028 44.665 27.271 63.941 2.282 3.068 4.67 6.092 7.207 9.007 14.734 17.036 32.346 29.85 51.43 38.4a145.667 145.667 0 0061.11 12.727c24.499-.261 49.02-6.679 71.109-19.428a148.02 148.02 0 0026.717-19.711 150.629 150.629 0 0022.751-26.586c11.578-17.253 27.207-30.937 45.118-40.575a136.981 136.981 0 0128.551-11.422c12.836-3.547 25.16-9.747 36.12-18.667a102.707 102.707 0 008.252-7.484 100.018 100.018 0 0014.328-18.297c9.19-15.034 14.243-32.09 15.054-49.343 1.066-22.213-4.862-44.774-17.954-63.789a104.016 104.016 0 00-5.352-7.093c-15.522-18.797-36.12-30.393-57.911-34.636-.874-.174-1.77-.326-2.644-.478-20.256-3.372-39.745-10.835-56.547-22.866a91.693 91.693 0 00-7.079-4.59c-10.554-6.157-22.026-9.965-33.71-11.51-15.438-2.045-31.238-.13-45.779 5.527a90.937 90.937 0 00-32.751 21.821c-13.369 13.88-29.446 24.802-47.229 31.72a134.92 134.92 0 01-7.037 2.502c-20.661 6.614-40.235 17.993-57.1 34.223a148.847 148.847 0 00-27.421 35.854c-11.28 20.603-17.527 43.447-18.636 66.574v-.022z"/><path d="M3.917 205.292a151.634 151.634 0 002.09 33.44c3.88 22.169 12.73 43.643 26.653 62.505a142.155 142.155 0 007.058 8.811c14.392 16.644 31.62 29.175 50.278 37.53a142.3 142.3 0 0059.723 12.423 141.824 141.824 0 0069.49-18.972 145.323 145.323 0 0026.12-19.276 145.832 145.832 0 0022.239-25.998c11.322-16.861 26.589-30.241 44.094-39.662 8.806-4.743 18.188-8.485 27.911-11.161 12.559-3.459 24.585-9.529 35.31-18.253 2.772-2.263 5.48-4.7 8.06-7.31a98.153 98.153 0 0014.009-17.884c8.976-14.685 13.923-31.35 14.712-48.233 1.045-21.713-4.755-43.752-17.548-62.354a99.702 99.702 0 00-5.224-6.94c-15.182-18.384-35.31-29.719-56.611-33.852a49.92 49.92 0 00-2.601-.457c-19.787-3.285-38.85-10.596-55.268-22.344a87.858 87.858 0 00-6.929-4.482c-10.32-6.026-21.536-9.746-32.943-11.248-15.075-2.001-30.534-.13-44.756 5.396a89.808 89.808 0 00-25.501 15.186 82.74 82.74 0 00-6.504 6.135c-13.049 13.576-28.785 24.258-46.163 31.003-2.26.87-4.563 1.697-6.887 2.436-20.192 6.462-39.34 17.601-55.822 33.461a145.751 145.751 0 00-26.802 35.05C11.082 160.388 4.984 182.71 3.896 205.314l.021-.022z"/><path d="M1.167 190.999c-.512 10.899.15 21.865 2.047 32.677 3.774 21.67 12.43 42.642 26.034 61.07a144.049 144.049 0 006.887 8.615c14.073 16.274 30.896 28.523 49.106 36.681a138.953 138.953 0 0058.359 12.14 138.836 138.836 0 0067.89-18.536 142.278 142.278 0 0025.523-18.819 143.136 143.136 0 0021.727-25.39c11.067-16.469 25.971-29.544 43.093-38.747a130.445 130.445 0 0127.271-10.9c12.26-3.394 24.03-9.312 34.5-17.818 2.707-2.22 5.351-4.591 7.867-7.158a96.333 96.333 0 0013.689-17.492c8.785-14.359 13.604-30.633 14.393-47.124 1.002-21.212-4.648-42.75-17.143-60.917a101.544 101.544 0 00-5.118-6.767c-14.819-17.948-34.499-29.022-55.288-33.069a51.785 51.785 0 00-2.538-.457c-19.339-3.22-37.953-10.334-53.988-21.843a80.519 80.519 0 00-6.78-4.395 85.99 85.99 0 00-32.197-10.987c-14.734-1.958-29.83-.13-43.711 5.265a87.468 87.468 0 00-24.904 14.838 87.169 87.169 0 00-6.354 5.983c-12.751 13.271-28.124 23.692-45.097 30.285-2.217.87-4.456 1.653-6.716 2.371-19.724 6.331-38.423 17.187-54.522 32.678a142.104 142.104 0 00-26.183 34.244C8.246 147.095 2.276 168.916 1.23 190.999h-.064z"/></g></svg>