<svg width="20" height="21" viewBox="0 0 20 21" fill="none" xmlns="http://www.w3.org/2000/svg">
<path d="M14.1667 5.51514C13.9167 5.51514 13.75 5.59847 13.5833 5.76514L5.25 14.0985C4.91667 14.4318 4.91667 14.9318 5.25 15.2651C5.58333 15.5985 6.08333 15.5985 6.41667 15.2651L14.75 6.9318C15.0833 6.59847 15.0833 6.09847 14.75 5.76514C14.5833 5.59847 14.4167 5.51514 14.1667 5.51514Z" fill="#3B4653"/>
<path d="M14.1667 5.5151H6.66666C6.16666 5.5151 5.83333 5.84843 5.83333 6.34843C5.83333 6.84843 6.16666 7.18176 6.66666 7.18176H13.3333V13.8484C13.3333 14.3484 13.6667 14.6818 14.1667 14.6818C14.6667 14.6818 15 14.3484 15 13.8484V6.34843C15 5.84843 14.6667 5.5151 14.1667 5.5151Z" fill="#3B4653"/>
</svg>
