<svg width="16" height="16" viewBox="0 0 16 16" fill="none" xmlns="http://www.w3.org/2000/svg">
<circle cx="8" cy="8" r="8" fill="url(#paint0_linear_418_752)"/>
<path d="M7.61513 11.8623C7.58861 11.8623 7.56237 11.8568 7.53807 11.8462C7.51376 11.8356 7.49192 11.82 7.47392 11.8006L3.66648 7.68199C3.6411 7.65454 3.62427 7.62027 3.61806 7.5834C3.61185 7.54653 3.61652 7.50865 3.6315 7.47439C3.64649 7.44013 3.67113 7.41099 3.70243 7.39052C3.73372 7.37005 3.7703 7.35915 3.80769 7.35915H5.64038C5.6679 7.35915 5.6951 7.36506 5.72014 7.37647C5.74518 7.38787 5.76748 7.40452 5.78554 7.42528L7.058 8.88921C7.19552 8.59524 7.46173 8.10578 7.92888 7.50936C8.6195 6.62763 9.90408 5.33088 12.1018 4.16026C12.1443 4.13764 12.1937 4.13177 12.2403 4.14381C12.2869 4.15585 12.3273 4.18492 12.3535 4.22528C12.3797 4.26565 12.3899 4.31437 12.3819 4.36184C12.3739 4.4093 12.3484 4.45205 12.3105 4.48165C12.3021 4.4882 11.4547 5.15551 10.4795 6.3778C9.58196 7.50261 8.38884 9.34184 7.80175 11.7163C7.79143 11.758 7.76745 11.795 7.73361 11.8215C7.69978 11.848 7.65805 11.8624 7.61507 11.8624L7.61513 11.8623Z" fill="white"/>
<defs>
<linearGradient id="paint0_linear_418_752" x1="8" y1="0" x2="8" y2="16" gradientUnits="userSpaceOnUse">
<stop stop-color="#46EDA2"/>
<stop offset="0.0001" stop-color="#46EDA2"/>
<stop offset="1" stop-color="#15201B"/>
</linearGradient>
</defs>
</svg>
