<svg width="1440" height="662" viewBox="0 0 1440 662" fill="none" xmlns="http://www.w3.org/2000/svg">
<g opacity="0.15">
<path d="M709.065 659.619C720.959 622.621 735.172 586.144 751.595 550.426C758.903 534.549 766.88 518.475 779.668 505.77C812.329 473.29 865.356 472.123 910.057 479.032C951.225 485.392 991.21 496.425 1028.9 511.838C1066.25 527.108 1102.03 546.86 1142.78 553.259C1183.55 559.653 1232.29 549.026 1256.97 515.618C1271.66 495.734 1275.61 470.609 1272.14 447.718C1268.66 424.813 1258.37 403.769 1246.7 383.921C1233.33 361.189 1217.55 338.195 1217.27 311.468C1216.97 283.799 1235.3 255.445 1262.15 242.042C1300.36 222.98 1344.55 234.725 1385.3 241.697C1437.07 250.548 1493.33 250.304 1542.86 228.15C1592.39 206.015 1632.94 158.093 1631.71 108.132" stroke="white" stroke-width="0.5" stroke-miterlimit="10"/>
<path d="M717.829 667.113C729.475 630.735 743.581 594.9 759.946 559.909C767.227 544.358 775.181 528.623 787.734 516.128C812.952 491.036 850.264 484.441 886.355 485.652C896.183 485.972 905.933 486.879 915.319 488.137C955.682 493.574 994.993 503.634 1032.17 517.98C1069.01 532.203 1104.3 551.027 1144.46 556.843C1166.97 560.102 1191.7 558.738 1213.91 551.645C1233.26 545.46 1250.76 534.759 1262.83 518.881C1265 516.044 1266.93 513.097 1268.66 510.066C1279.32 491.328 1281.85 469.327 1278.96 448.922C1278.02 442.37 1276.58 435.953 1274.75 429.655C1269.97 413.231 1262.61 397.59 1254.74 382.568C1242.27 358.718 1228.55 334.675 1229.34 307.592C1230.13 280.689 1247.62 253.261 1273.79 240.047C1311.02 221.253 1353.96 231.824 1393.46 237.684C1396.57 238.143 1399.71 238.572 1402.84 238.961C1450.33 244.856 1500.64 242.236 1544.94 221.289C1592.18 198.95 1630.46 152.085 1628.52 103.538" stroke="#F9F9F9" stroke-width="0.5" stroke-miterlimit="10"/>
<path d="M726.571 674.606C737.984 638.839 751.958 603.665 768.288 569.375C775.537 554.135 783.488 538.744 795.807 526.458C820.555 501.785 856.932 494.798 892.197 495.335C901.807 495.468 911.349 496.17 920.556 497.212C960.121 501.739 998.768 510.808 1035.42 524.096C1071.74 537.274 1106.57 555.133 1146.1 560.412C1169.36 563.518 1194.79 562.234 1217.79 555.195C1237.77 549.067 1256.05 538.309 1268.67 522.14C1270.93 519.25 1272.97 516.232 1274.8 513.103C1286.02 493.874 1288.57 471.214 1285.77 450.09C1284.87 443.312 1283.46 436.671 1281.68 430.169C1277.06 413.184 1270.07 396.855 1262.76 381.175C1251.22 356.211 1239.49 331.151 1241.38 303.653C1243.18 277.547 1259.89 251.001 1285.37 237.976C1321.63 219.449 1363.34 228.845 1401.58 233.595C1404.59 233.97 1407.63 234.303 1410.66 234.61C1456.6 239.208 1504.84 235.492 1547.01 214.354C1591.96 191.828 1627.97 145.995 1625.32 98.8586" stroke="#F4F4F4" stroke-width="0.5" stroke-miterlimit="10"/>
<path d="M735.291 682.093C746.476 646.95 760.328 612.419 776.595 578.84C783.831 563.919 791.745 548.871 803.849 536.802C828.147 512.554 863.569 505.167 898.026 505.038C907.439 504.992 916.768 505.475 925.796 506.3C964.557 509.905 1002.54 517.983 1038.67 530.225C1074.47 542.357 1108.87 559.229 1147.77 563.987C1171.79 566.922 1197.89 565.738 1221.68 558.758C1242.29 552.688 1261.35 541.853 1274.52 525.392C1276.89 522.444 1279.03 519.36 1280.93 516.153C1292.7 496.425 1295.27 473.118 1292.57 451.274C1291.71 444.285 1290.33 437.419 1288.62 430.695C1284.14 413.136 1277.52 396.149 1270.79 379.793C1260.15 353.705 1250.41 327.692 1253.43 299.737C1256.16 274.455 1272.18 248.777 1296.99 235.934C1332.28 217.674 1372.74 225.896 1409.73 229.535C1412.64 229.827 1415.57 230.083 1418.52 230.287C1462.91 233.57 1509.08 228.756 1549.09 207.44C1591.75 184.726 1625.48 139.932 1622.12 94.2047" stroke="#EEEEEE" stroke-width="0.5" stroke-miterlimit="10"/>
<path d="M744.031 689.591C754.969 655.064 768.714 621.171 784.932 588.299C792.136 573.688 800.038 559.004 811.902 547.132C835.735 523.315 870.217 515.523 903.867 514.728C913.062 514.494 922.198 514.766 931.032 515.38C968.994 518.074 1006.31 525.161 1041.92 536.344C1077.18 547.435 1111.16 563.286 1149.41 567.557C1174.19 570.319 1200.97 569.222 1225.55 562.316C1246.79 556.315 1266.62 545.409 1280.34 528.644C1282.8 525.644 1285.05 522.488 1287.04 519.202C1299.36 498.97 1301.95 475.002 1299.33 452.445C1298.49 445.236 1297.16 438.153 1295.5 431.211C1291.2 413.086 1284.93 395.434 1278.75 378.407C1269.01 351.197 1261.22 324.273 1265.4 295.822C1269 271.375 1284.39 246.537 1308.5 233.901C1342.83 215.908 1382.04 222.942 1417.78 225.482C1420.59 225.679 1423.43 225.851 1426.26 225.978C1469.1 227.964 1513.22 222.046 1551.08 200.544C1591.44 177.643 1622.91 133.882 1618.84 89.5659" stroke="#E9E9E9" stroke-width="0.5" stroke-miterlimit="10"/>
<path d="M752.773 697.091C763.477 663.175 777.105 629.94 793.274 597.774C800.451 583.488 808.331 569.142 819.979 557.486C843.363 534.096 876.889 525.903 909.732 524.441C918.71 524.021 927.638 524.087 936.297 524.497C973.457 526.268 1010.1 532.382 1045.18 542.505C1079.92 552.536 1113.47 567.365 1151.07 571.153C1176.6 573.731 1204.07 572.747 1229.42 565.9C1251.3 559.956 1271.9 548.993 1286.19 531.931C1288.76 528.872 1291.1 525.651 1293.19 522.28C1306.07 501.557 1308.67 476.935 1306.16 453.652C1305.35 446.232 1304.05 438.911 1302.47 431.759C1298.32 413.073 1292.37 394.748 1286.8 377.033C1277.9 348.722 1272.09 320.883 1277.47 291.914C1281.87 268.329 1296.7 244.322 1320.12 231.862C1353.47 214.136 1391.44 219.995 1425.93 221.423C1428.64 221.536 1431.38 221.612 1434.11 221.656C1475.4 222.344 1517.46 215.308 1553.16 193.628C1591.25 170.533 1620.41 127.804 1615.65 84.9067" stroke="#E3E3E3" stroke-width="0.5" stroke-miterlimit="10"/>
<path d="M761.514 704.593C771.986 671.289 785.492 638.698 801.602 607.258C808.752 593.297 816.61 579.288 828.039 567.837C850.958 544.879 883.543 536.28 915.574 534.137C924.349 533.524 933.068 533.385 941.549 533.578C977.909 534.438 1013.89 539.559 1048.44 548.609C1082.66 557.592 1115.79 571.368 1152.73 574.699C1179.04 577.086 1207.19 576.215 1233.31 569.434C1255.83 563.561 1277.19 552.526 1292.05 535.155C1294.73 532.025 1297.15 528.751 1299.34 525.301C1312.76 504.078 1315.4 478.804 1312.97 454.806C1312.19 447.162 1310.93 439.629 1309.4 432.26C1305.39 413 1299.82 394.018 1294.82 375.625C1286.82 346.179 1282.87 317.494 1289.52 287.972C1294.63 265.252 1308.98 242.062 1331.73 229.798C1364.11 212.339 1400.83 217.022 1434.07 217.324C1436.68 217.355 1439.31 217.334 1441.94 217.301C1481.69 216.671 1521.67 208.549 1555.23 186.683C1591.02 163.387 1617.92 121.707 1612.44 80.2212" stroke="#DEDEDE" stroke-width="0.5" stroke-miterlimit="10"/>
<path d="M770.252 712.084C780.476 679.398 793.88 647.459 809.941 616.727C817.074 603.072 824.9 589.42 836.108 578.173C858.577 555.642 890.222 546.637 921.431 543.832C929.988 543.032 938.505 542.7 946.801 542.663C982.358 542.598 1017.67 546.727 1051.71 554.728C1085.4 562.664 1118.11 575.354 1154.39 578.266C1181.48 580.443 1210.29 579.71 1237.2 572.988C1260.35 567.172 1282.49 556.062 1297.88 538.418C1300.66 535.235 1303.19 531.89 1305.46 528.36C1319.45 506.647 1322.08 480.705 1319.76 456C1319.01 448.13 1317.79 440.386 1316.32 432.795C1312.49 412.968 1307.25 393.307 1302.83 374.25C1295.74 343.681 1293.6 314.154 1301.56 284.062C1307.33 262.216 1321.27 239.843 1343.32 227.773C1374.71 210.587 1410.21 214.088 1442.19 213.277C1444.7 213.211 1447.24 213.121 1449.77 212.991C1487.96 211.062 1525.88 201.821 1557.29 179.776C1590.78 156.292 1615.4 115.652 1609.21 75.5795" stroke="#D8D8D8" stroke-width="0.5" stroke-miterlimit="10"/>
<path d="M778.979 719.595C788.971 687.521 802.254 656.228 818.252 626.209C825.357 612.879 833.161 599.566 844.14 588.541C866.159 566.437 896.853 557.091 927.236 553.565C935.58 552.59 943.898 552.033 952.015 551.78C986.772 550.803 1021.42 553.939 1054.93 560.879C1088.11 567.766 1120.41 579.351 1156.03 581.856C1183.88 583.83 1213.37 583.215 1241.06 576.566C1264.84 570.821 1287.75 559.64 1303.71 541.686C1306.6 538.445 1309.22 535.021 1311.59 531.42C1326.11 509.208 1328.79 482.612 1326.56 457.188C1325.85 449.106 1324.66 441.137 1323.24 433.328C1319.56 412.927 1314.69 392.609 1310.83 372.88C1304.64 341.187 1304.26 310.841 1313.58 280.144C1319.94 259.182 1333.52 237.608 1354.88 225.727C1385.3 208.808 1419.56 211.133 1450.29 209.208C1452.7 209.059 1455.13 208.878 1457.55 208.664C1494.2 205.436 1530.04 195.095 1559.32 172.859C1590.52 149.187 1612.87 109.583 1605.97 70.9236" stroke="#D2D2D2" stroke-width="0.5" stroke-miterlimit="10"/>
<path d="M787.722 727.103C797.482 695.642 810.633 665.014 826.597 635.697C833.67 622.679 841.457 609.718 852.215 598.897C873.77 577.226 903.524 567.473 933.098 563.279C941.225 562.118 949.335 561.355 957.273 560.884C991.226 558.982 1025.2 561.142 1058.2 567.015C1090.85 572.841 1122.74 583.32 1157.69 585.437C1186.34 587.182 1216.47 586.724 1244.96 580.13C1269.38 574.442 1293.06 563.203 1309.58 544.952C1312.56 541.659 1315.3 538.157 1317.75 534.483C1332.83 511.767 1335.51 484.516 1333.38 458.385C1332.69 450.084 1331.55 441.884 1330.2 433.866C1326.68 412.904 1322.16 391.901 1318.88 371.508C1313.6 338.692 1314.9 307.522 1325.65 276.237C1332.54 256.155 1345.85 235.393 1366.52 223.7C1395.97 207.05 1428.99 208.178 1458.46 205.158C1460.78 204.925 1463.1 204.647 1465.43 204.351C1500.53 199.817 1534.3 188.362 1561.42 165.947C1590.34 142.081 1610.41 103.518 1602.8 66.273" stroke="#CDCDCD" stroke-width="0.5" stroke-miterlimit="10"/>
<path d="M796.467 734.612C805.979 703.77 819.023 673.782 834.943 645.187C842.004 632.489 849.754 619.872 860.297 609.269C881.397 588.012 910.205 577.884 938.962 572.996C946.876 571.66 954.787 570.672 962.546 569.984C995.7 567.169 1029.01 568.336 1061.49 573.146C1093.6 577.929 1125.1 587.264 1159.38 589.006C1188.8 590.516 1219.61 590.221 1248.88 583.687C1273.93 578.07 1298.37 566.747 1315.45 548.205C1318.54 544.854 1321.38 541.286 1323.91 537.533C1339.55 514.325 1342.25 486.414 1340.2 459.555C1339.55 451.042 1338.43 442.617 1337.15 434.376C1333.79 412.834 1329.65 391.173 1326.92 370.109C1322.55 336.163 1325.47 304.171 1337.72 272.303C1345.1 253.086 1358.14 233.143 1378.14 221.653C1406.62 205.27 1438.39 205.221 1466.59 201.091C1468.81 200.762 1471.04 200.414 1473.25 200.027C1506.8 194.18 1538.52 181.631 1563.49 159.03C1590.11 134.963 1607.9 97.4552 1599.58 61.6249" stroke="white" stroke-width="0.5" stroke-miterlimit="10"/>
<path d="M805.205 742.111C814.485 711.882 827.413 682.553 843.264 654.66C850.299 642.287 858.032 630.022 868.335 619.616C888.971 598.792 916.838 588.258 944.787 582.701C952.498 581.172 960.201 579.978 967.771 579.091C1000.12 575.351 1032.77 575.523 1064.7 579.276C1096.3 583.009 1127.38 591.18 1160.99 592.578C1191.19 593.833 1222.67 593.702 1252.71 587.247C1278.4 581.688 1303.63 570.302 1321.25 551.456C1324.46 548.046 1327.38 544.413 1330.01 540.562C1346.19 516.855 1348.92 488.297 1346.97 460.711C1346.35 451.973 1345.28 443.337 1344.05 434.878C1340.84 412.775 1337.05 390.43 1334.91 368.701C1331.44 333.632 1335.93 300.789 1349.72 268.365C1357.53 250.004 1370.38 230.904 1389.68 219.589C1417.19 203.474 1447.72 202.247 1474.67 197.003C1476.79 196.59 1478.92 196.146 1481.03 195.675C1513.03 188.527 1542.68 174.857 1565.49 152.077C1589.82 127.822 1605.34 91.351 1596.31 56.9359" stroke="white" stroke-width="0.5" stroke-miterlimit="10"/>
<path d="M813.95 749.623C822.983 720.014 835.808 691.339 851.612 664.155C858.614 652.095 866.33 640.181 876.413 629.98C896.599 609.584 923.525 598.643 950.652 592.423C958.145 590.706 965.64 589.306 973.045 588.197C1004.6 583.543 1036.58 582.72 1067.99 585.411C1099.06 588.094 1129.75 595.106 1162.67 596.154C1193.66 597.135 1225.79 597.206 1256.61 590.811C1282.94 585.322 1308.93 573.866 1327.11 554.729C1330.41 551.266 1333.44 547.562 1336.15 543.631C1352.9 519.42 1355.64 490.201 1353.79 461.914C1353.2 452.965 1352.15 444.09 1351 435.421C1347.95 412.757 1344.57 389.737 1342.95 367.334C1340.46 331.126 1346.34 297.422 1361.78 264.463C1369.98 246.961 1382.69 228.683 1401.31 217.57C1427.85 201.723 1457.13 199.317 1482.82 192.957C1484.85 192.461 1486.88 191.921 1488.88 191.372C1519.32 182.922 1546.92 168.145 1567.58 145.18C1589.62 120.737 1602.85 85.3081 1593.13 52.3032" stroke="#BCBCBC" stroke-width="0.5" stroke-miterlimit="10"/>
<path d="M822.695 757.137C831.495 728.142 844.199 700.114 859.944 673.658C866.934 661.918 874.614 650.35 884.482 640.366C904.203 620.404 930.188 609.056 956.503 602.153C963.778 600.249 971.084 598.65 978.29 597.316C1009.04 591.749 1040.35 589.937 1071.24 591.558C1101.8 593.191 1132.08 599.019 1164.33 599.737C1196.1 600.45 1228.9 600.716 1260.5 594.382C1287.46 588.951 1314.23 577.437 1332.97 557.99C1336.38 554.469 1339.5 550.699 1342.3 546.689C1359.6 521.987 1362.35 492.113 1360.59 463.105C1360.03 453.936 1359.03 444.844 1357.92 435.958C1355.02 412.719 1352.02 389.022 1350.95 365.965C1349.38 328.628 1356.65 294.024 1373.81 260.559C1382.37 243.883 1394.95 226.466 1412.89 215.555C1438.46 199.976 1466.5 196.391 1490.93 188.916C1492.86 188.324 1494.79 187.713 1496.7 187.068C1525.6 177.31 1551.12 161.418 1569.64 138.267C1589.39 113.63 1600.34 79.2443 1589.9 47.6614" stroke="#B7B7B7" stroke-width="0.5" stroke-miterlimit="10"/>
<path d="M831.426 764.659C839.993 736.278 852.581 708.91 868.278 683.164C875.236 671.737 882.899 660.521 892.532 650.747C911.803 631.214 936.832 619.464 962.325 611.898C969.396 609.801 976.48 608.001 983.507 606.449C1013.45 599.955 1044.1 597.161 1074.47 597.719C1104.5 598.288 1134.38 602.925 1165.95 603.337C1198.5 603.75 1231.96 604.231 1264.35 597.97C1291.93 592.602 1319.47 581.012 1338.78 561.281C1342.29 557.695 1345.52 553.866 1348.42 549.772C1366.26 524.571 1369.05 494.03 1367.39 464.315C1366.86 454.935 1365.89 445.617 1364.86 436.508C1362.13 412.702 1359.47 388.339 1358.97 364.605C1358.31 326.144 1366.88 290.576 1385.87 256.663C1394.74 240.798 1407.24 224.271 1424.5 213.544C1449.1 198.232 1475.89 193.455 1499.08 184.877C1500.91 184.201 1502.72 183.5 1504.53 182.771C1531.87 171.698 1555.32 154.717 1571.7 131.38C1589.16 106.555 1597.83 73.2127 1586.68 43.041" stroke="white" stroke-width="0.5" stroke-miterlimit="10"/>
<path d="M840.17 772.172C848.495 744.424 860.971 717.684 876.619 692.648C883.55 681.547 891.192 670.67 900.605 661.101C919.411 642.001 943.508 629.826 968.184 621.609C975.038 619.324 981.927 617.312 988.775 615.542C1017.92 608.134 1047.9 604.332 1077.75 603.838C1107.25 603.357 1136.73 606.796 1167.64 606.89C1200.98 606.997 1235.09 607.712 1268.26 601.511C1296.48 596.214 1324.8 584.549 1344.65 564.519C1348.26 560.874 1351.58 556.979 1354.57 552.806C1372.98 527.113 1375.77 495.917 1374.2 465.467C1373.71 455.861 1372.78 446.332 1371.79 437.005C1369.21 412.624 1366.91 387.589 1367 363.19C1367.24 323.604 1377.04 287.029 1397.91 252.698C1407.09 237.604 1419.54 221.987 1436.1 211.454C1459.72 196.411 1485.27 190.454 1507.2 180.759C1508.93 180 1510.65 179.202 1512.36 178.39C1538.15 166.014 1559.53 147.911 1573.76 124.389C1588.92 99.3615 1595.33 67.0699 1583.47 38.315" stroke="#ABABAB" stroke-width="0.5" stroke-miterlimit="10"/>
<path d="M848.923 779.717C857.016 752.582 869.362 726.508 884.961 702.182C891.88 691.401 899.485 680.868 908.683 671.517C927.04 652.845 950.181 640.267 974.049 631.38C980.685 628.907 987.367 626.689 994.035 624.702C1022.38 616.366 1051.69 611.581 1081 610.029C1109.98 608.501 1139.07 610.718 1169.29 610.519C1203.42 610.294 1238.18 611.27 1272.15 605.123C1301 599.884 1330.1 588.161 1350.52 567.833C1354.24 564.13 1357.65 560.169 1360.73 555.917C1379.67 529.723 1382.5 497.873 1381.02 466.707C1380.55 456.875 1379.66 447.12 1378.74 437.583C1376.32 412.639 1374.38 386.932 1375.04 361.854C1376.19 321.155 1387.11 283.474 1409.98 248.821C1419.43 234.496 1431.84 219.811 1447.72 209.467C1470.36 194.697 1494.67 187.554 1515.35 176.742C1516.98 175.887 1518.6 175.005 1520.2 174.115C1544.45 160.43 1563.76 141.223 1575.83 117.52C1588.69 92.3031 1592.83 61.0484 1580.27 33.7101" stroke="#A6A6A6" stroke-width="0.5" stroke-miterlimit="10"/>
<path d="M857.676 787.262C865.537 760.742 877.761 735.315 893.317 711.711C900.205 701.243 907.793 691.063 916.77 681.916C934.678 663.672 956.858 650.679 979.918 641.122C986.337 638.461 992.824 636.031 999.318 633.839C1026.86 624.588 1055.51 618.807 1084.29 616.177C1112.74 613.598 1141.43 614.584 1170.97 614.091C1205.87 613.521 1241.31 614.751 1276.06 608.684C1305.55 603.515 1335.41 591.721 1356.39 571.083C1360.21 567.328 1363.73 563.295 1366.9 558.958C1386.41 532.259 1389.24 499.751 1387.87 467.871C1387.43 457.832 1386.58 447.846 1385.72 438.092C1383.46 412.567 1381.89 386.2 1383.09 360.454C1385.16 318.623 1397.12 279.767 1422.05 244.885C1431.77 231.285 1444.14 217.564 1459.35 207.416C1481.02 192.914 1504.09 184.59 1523.52 172.662C1525.05 171.722 1526.57 170.757 1528.07 169.771C1550.76 154.769 1568.01 134.451 1577.93 110.562C1588.52 85.1504 1590.36 54.9444 1577.08 29.0234" stroke="#A0A0A0" stroke-width="0.5" stroke-miterlimit="10"/>
<path d="M866.425 794.794C874.038 768.894 886.161 744.122 901.649 721.221C908.51 711.079 916.081 701.251 924.824 692.315C942.262 674.492 963.492 661.064 985.759 650.876C991.969 648.009 998.254 645.385 1004.55 642.981C1031.29 632.802 1059.27 626.043 1087.54 622.342C1115.47 618.712 1143.74 618.452 1172.62 617.688C1208.32 616.752 1244.41 618.276 1279.94 612.269C1310.06 607.158 1340.7 595.293 1362.23 574.363C1366.16 570.549 1369.78 566.445 1373.03 562.034C1393.09 534.843 1395.95 501.673 1394.66 469.076C1394.25 458.812 1393.44 448.614 1392.64 438.636C1390.53 412.548 1389.32 385.495 1391.11 359.083C1394.08 316.127 1406.98 275.993 1434.09 240.975C1444.07 228.086 1456.44 215.349 1470.94 205.384C1491.64 191.149 1513.46 181.645 1531.63 168.598C1533.06 167.562 1534.49 166.513 1535.89 165.43C1557.02 149.124 1572.21 127.696 1579.98 103.626C1588.26 78.0253 1587.84 48.8575 1573.85 24.3542" stroke="#9B9B9B" stroke-width="0.5" stroke-miterlimit="10"/>
<path d="M875.164 802.344C882.545 777.059 894.547 752.934 909.992 730.757C916.836 720.923 924.375 711.453 932.898 702.722C949.887 685.327 970.161 671.497 991.619 660.639C997.612 657.584 1003.69 654.766 1009.82 652.126C1035.76 641.031 1063.07 633.262 1090.82 628.509C1118.22 623.813 1146.09 622.322 1174.3 621.29C1210.77 619.964 1247.53 621.806 1283.84 615.859C1314.6 610.82 1346.02 598.879 1368.1 577.657C1372.13 573.79 1375.85 569.602 1379.19 565.125C1399.8 537.433 1402.67 503.601 1401.49 470.295C1401.12 459.819 1400.33 449.382 1399.59 439.199C1397.64 412.549 1396.79 384.823 1399.15 357.733C1403.02 313.65 1416.8 272.13 1446.16 237.084C1456.39 224.868 1468.74 213.148 1482.56 203.385C1502.29 189.432 1522.87 178.714 1539.78 164.568C1541.12 163.449 1542.42 162.309 1543.72 161.142C1563.32 143.526 1576.43 120.98 1582.05 96.7235C1588.04 70.9334 1585.33 42.8097 1570.65 19.7193" stroke="#959595" stroke-width="0.5" stroke-miterlimit="10"/>
<path d="M883.919 809.889C891.053 785.225 902.953 761.756 918.351 740.29C925.168 730.782 932.686 721.652 940.988 713.126C957.513 696.165 976.859 681.922 997.481 670.404C1003.26 667.161 1009.14 664.131 1015.08 661.278C1040.21 649.255 1066.86 640.502 1094.08 634.683C1120.97 628.934 1148.44 626.179 1175.97 624.893C1213.23 623.144 1250.65 625.337 1287.74 619.451C1319.14 614.469 1351.33 602.47 1373.96 580.944C1378.1 577.019 1381.91 572.764 1385.35 568.189C1406.52 540.005 1409.41 505.511 1408.32 471.484C1407.98 460.782 1407.23 450.132 1406.56 439.727C1404.77 412.495 1404.27 384.115 1407.21 356.346C1412 311.132 1426.57 268.105 1458.25 233.158C1468.75 221.576 1481.07 210.925 1494.21 201.346C1512.97 187.66 1532.31 175.761 1547.97 160.497C1549.2 159.294 1550.41 158.07 1551.61 156.807C1569.65 137.885 1580.69 114.235 1584.16 89.7921C1587.85 63.7996 1582.88 36.728 1567.47 15.0624" stroke="#909090" stroke-width="0.5" stroke-miterlimit="10"/>
<path d="M892.673 817.434C908.719 761.549 951.067 712.35 1003.34 680.17C1055.61 647.99 1117.1 631.971 1177.63 628.501C1215.67 626.315 1253.75 628.859 1291.63 623.047C1329.51 617.235 1368.7 601.401 1391.49 571.285C1420.04 533.584 1416.1 484.742 1413.5 440.278C1409.2 367.169 1415.33 285.302 1470.3 229.261C1497.68 201.351 1534.9 182.619 1559.43 152.5C1593.43 110.741 1595.51 49.7061 1564.24 10.4101" stroke="#8A8A8A" stroke-width="0.5" stroke-miterlimit="10"/>
</g>
<g opacity="0.2">
<path d="M-81.5352 587.458C-82.0863 598.802 -81.3681 610.196 -79.364 621.423C-75.3556 643.943 -66.1697 665.761 -51.7563 684.907C-49.4515 687.964 -47.0298 690.955 -44.4577 693.862C-29.5433 710.769 -11.6893 723.499 7.6344 731.986C27.242 740.59 48.3862 744.833 69.5136 744.616C94.3321 744.366 119.151 737.984 141.514 725.337C151.051 719.957 160.12 713.425 168.57 705.774C177.439 697.721 185.138 688.85 191.619 679.377C203.343 662.253 219.159 648.671 237.314 639.098C246.433 634.287 256.153 630.477 266.224 627.754C279.235 624.229 291.694 618.065 302.801 609.227C305.69 606.938 308.479 604.449 311.152 601.792C316.78 596.212 321.623 590.098 325.665 583.616C334.968 568.697 340.079 551.756 340.914 534.632C341.983 512.58 335.987 490.193 322.726 471.298C321.039 468.892 319.235 466.537 317.298 464.248C301.565 445.587 280.705 434.059 258.659 429.866C257.757 429.699 256.872 429.532 255.97 429.398C235.46 426.057 215.702 418.639 198.7 406.694C196.362 405.057 193.957 403.537 191.518 402.133C180.829 396.019 169.205 392.243 157.38 390.706C141.748 388.685 125.748 390.572 111.017 396.186C101.53 399.811 92.5785 404.973 84.5951 411.623C82.2569 413.577 80.0022 415.649 77.8477 417.837C64.3194 431.62 48.0187 442.479 30.0145 449.329C27.6596 450.214 25.2879 451.05 22.8829 451.802C1.95587 458.367 -17.8689 469.678 -34.9545 485.783C-46.2448 496.425 -55.4975 508.453 -62.7292 521.384C-74.1531 541.833 -80.4663 564.537 -81.5853 587.475L-81.5352 587.458Z" stroke="white" stroke-width="0.5"/>
<path d="M-83.6896 576.499C-84.2408 587.642 -83.5226 598.852 -81.5685 609.878C-77.627 632.015 -68.6081 653.449 -54.4285 672.261C-52.1738 675.268 -49.7688 678.191 -47.2468 681.065C-32.5996 697.688 -15.063 710.201 3.9267 718.521C23.2003 726.974 43.9603 731.134 64.737 730.934C89.1213 730.683 113.506 724.401 135.485 711.989C144.854 706.693 153.773 700.294 162.074 692.759C170.792 684.84 178.341 676.12 184.721 666.814C196.245 649.974 211.794 636.642 229.615 627.236C238.583 622.509 248.12 618.766 258.024 616.093C270.801 612.635 283.06 606.571 293.966 597.883C296.805 595.628 299.544 593.189 302.166 590.583C307.694 585.103 312.454 579.105 316.429 572.723C325.582 558.072 330.592 541.432 331.411 524.592C332.463 502.924 326.567 480.921 313.54 462.36C311.887 459.988 310.099 457.682 308.212 455.444C292.763 437.1 272.27 425.79 250.592 421.663C249.707 421.496 248.838 421.346 247.953 421.195C227.794 417.921 208.387 410.637 191.685 398.892C189.381 397.272 187.026 395.785 184.637 394.415C174.132 388.401 162.725 384.692 151.101 383.188C135.752 381.2 120.019 383.055 105.556 388.584C96.2362 392.143 87.4344 397.205 79.6014 403.754C77.3133 405.658 75.092 407.697 72.9709 409.868C59.6765 423.417 43.6597 434.076 25.9727 440.809C23.6679 441.694 21.3297 442.496 18.9748 443.231C-1.58481 449.697 -21.0588 460.79 -37.8439 476.628C-48.9337 487.086 -58.036 498.914 -65.1342 511.611C-76.3576 531.709 -82.5706 554.012 -83.6729 576.549L-83.6896 576.499Z" stroke="white" stroke-width="0.5"/>
<path d="M-85.8441 565.523C-86.3786 576.466 -85.6771 587.475 -83.7564 598.301C-79.8817 620.036 -71.0299 641.086 -57.1008 659.58C-54.8795 662.521 -52.5245 665.411 -50.0527 668.217C-35.656 684.54 -18.4367 696.836 0.218935 705.022C19.1418 713.325 39.5511 717.418 59.9437 717.201C83.8937 716.95 107.86 710.786 129.439 698.59C138.641 693.394 147.41 687.096 155.56 679.695C164.128 671.926 171.543 663.356 177.806 654.217C189.13 637.678 204.395 624.58 221.899 615.341C230.7 610.697 240.087 607.022 249.807 604.399C262.366 601.007 274.392 595.06 285.114 586.506C287.903 584.284 290.592 581.895 293.181 579.339C298.609 573.96 303.285 568.062 307.193 561.797C316.179 547.396 321.106 531.057 321.907 514.518C322.943 493.234 317.147 471.616 304.354 453.389C302.717 451.067 300.98 448.795 299.127 446.589C283.945 428.58 263.819 417.453 242.525 413.41C241.656 413.243 240.805 413.093 239.936 412.959C220.145 409.735 201.072 402.584 184.671 391.057C182.416 389.47 180.095 388 177.74 386.646C167.418 380.749 156.211 377.09 144.788 375.603C129.706 373.649 114.257 375.47 100.044 380.899C90.8916 384.391 82.2569 389.37 74.5408 395.802C72.2861 397.673 70.1149 399.677 68.0272 401.799C54.9666 415.114 39.2337 425.573 21.8641 432.188C19.5927 433.057 17.3046 433.842 14.9831 434.577C-5.20906 440.926 -24.349 451.818 -40.8335 467.372C-51.7229 477.647 -60.6582 489.258 -67.6394 501.737C-78.6625 521.484 -84.7585 543.387 -85.8441 565.523Z" stroke="white" stroke-width="0.5"/>
<path d="M-87.9986 554.547C-88.5164 565.289 -87.8483 576.098 -85.9443 586.74C-82.1364 608.091 -73.4516 628.757 -59.773 646.917C-57.5851 649.807 -55.2803 652.647 -52.8586 655.404C-38.7291 671.425 -21.8104 683.504 -3.48881 691.54C15.1 699.693 35.1252 703.719 55.167 703.502C78.6828 703.268 102.215 697.203 123.41 685.225C132.445 680.129 141.046 673.948 149.063 666.68C157.481 659.046 164.763 650.642 170.909 641.654C182.032 625.416 197.013 612.551 214.216 603.48C222.867 598.919 232.07 595.31 241.623 592.738C253.949 589.396 265.774 583.566 276.295 575.179C279.035 573.007 281.673 570.652 284.212 568.129C289.54 562.85 294.133 557.053 297.974 550.905C306.793 536.771 311.636 520.716 312.438 504.477C313.456 483.577 307.761 462.36 295.202 444.451C293.598 442.162 291.895 439.94 290.058 437.785C275.16 420.093 255.385 409.183 234.475 405.191C233.623 405.024 232.771 404.873 231.919 404.74C212.479 401.582 193.756 394.549 177.656 383.222C175.435 381.668 173.163 380.231 170.859 378.895C160.737 373.097 149.714 369.522 138.508 368.052C123.693 366.131 108.528 367.918 94.566 373.248C85.5805 376.673 77.0962 381.568 69.5304 387.883C67.309 389.72 65.1879 391.692 63.1337 393.78C50.3069 406.845 34.8579 417.136 17.8057 423.618C15.5844 424.47 13.3297 425.255 11.0415 425.957C-8.7832 432.188 -27.5724 442.897 -43.7729 458.167C-54.4619 468.258 -63.2469 479.651 -70.0946 491.914C-80.9172 511.293 -86.913 532.811 -87.9652 554.547H-87.9986Z" stroke="white" stroke-width="0.5"/>
<path d="M-90.1531 543.587C-90.6709 554.129 -90.0028 564.738 -88.1322 575.179C-84.3911 596.129 -75.8566 616.427 -62.4453 634.236C-60.3075 637.077 -58.0361 639.85 -55.6477 642.573C-41.7688 658.311 -25.1674 670.155 -7.19656 678.041C11.0415 686.043 30.716 689.986 50.3737 689.786C73.4552 689.552 96.5535 683.604 117.364 671.843C126.232 666.831 134.683 660.766 142.533 653.633C150.783 646.148 157.948 637.878 163.978 629.074C174.884 613.136 189.598 600.506 206.483 591.602C214.967 587.124 224.003 583.582 233.389 581.043C245.481 577.769 257.089 572.038 267.427 563.802C270.099 561.664 272.705 559.358 275.193 556.885C280.438 551.69 284.93 546.01 288.705 539.979C297.356 526.095 302.116 510.341 302.901 494.403C303.903 473.888 298.308 453.055 285.982 435.479C284.412 433.241 282.726 431.052 280.939 428.931C266.308 411.572 246.901 400.847 226.375 396.938C225.54 396.787 224.704 396.637 223.869 396.503C204.796 393.396 186.408 386.496 170.591 375.386C168.42 373.849 166.182 372.446 163.911 371.143C153.973 365.463 143.167 361.938 132.161 360.501C117.614 358.613 102.733 360.367 89.0378 365.596C80.2194 368.954 71.8853 373.766 64.4531 379.964C62.2819 381.768 60.1775 383.706 58.1733 385.744C45.5803 398.575 30.4153 408.666 13.6804 415.031C11.4925 415.866 9.28788 416.635 7.04987 417.336C-12.4241 423.451 -30.8626 433.959 -46.7458 448.945C-57.2344 458.852 -65.8524 470.045 -72.5831 482.074C-83.2053 501.103 -89.0842 522.22 -90.1364 543.554L-90.1531 543.587Z" stroke="white" stroke-width="0.5"/>
<path d="M-92.3076 532.611C-92.8087 542.969 -92.1573 553.377 -90.3368 563.618C-86.6792 584.184 -78.295 604.098 -65.1342 621.573C-63.0298 624.363 -60.8085 627.086 -58.4703 629.742C-44.8585 645.179 -28.5578 656.807 -10.921 664.542C6.98309 672.394 26.2734 676.27 45.5637 676.07C68.211 675.836 90.8749 670.005 111.301 658.478C120.002 653.566 128.286 647.602 136.003 640.618C144.103 633.268 151.117 625.165 157.046 616.511C167.752 600.874 182.199 588.477 198.75 579.74C207.084 575.346 215.953 571.871 225.155 569.382C237.03 566.174 248.404 560.544 258.542 552.458C261.164 550.37 263.719 548.098 266.174 545.675C271.318 540.58 275.728 535 279.435 529.086C287.936 515.47 292.596 500.017 293.364 484.363C294.35 464.231 288.855 443.783 276.763 426.542C275.227 424.336 273.573 422.198 271.82 420.11C257.473 403.069 238.416 392.561 218.291 388.718C217.473 388.568 216.654 388.417 215.836 388.284C197.114 385.243 179.076 378.46 163.56 367.568C161.422 366.064 159.234 364.677 157.013 363.408C147.259 357.828 136.654 354.37 125.848 352.966C111.585 351.112 96.971 352.849 83.5263 357.978C74.8749 361.286 66.6911 365.997 59.4092 372.062C57.2714 373.833 55.2171 375.737 53.2464 377.742C40.9039 390.322 26.0061 400.229 9.58853 406.477C7.45073 407.296 5.27952 408.047 3.07492 408.732C-16.0316 414.73 -34.1194 425.055 -49.7187 439.756C-60.0235 449.463 -68.4745 460.456 -75.0716 472.267C-85.5101 490.945 -91.2721 511.661 -92.2909 532.594L-92.3076 532.611Z" stroke="white" stroke-width="0.5"/>
<path d="M-94.4621 521.635C-94.9632 531.792 -94.3118 542 -92.5247 552.041C-88.9339 572.205 -80.7167 591.735 -67.8064 608.893C-65.7522 611.633 -63.5643 614.306 -61.2761 616.912C-47.9149 632.048 -31.9482 643.458 -14.6287 651.06C2.92461 658.762 21.8642 662.554 40.787 662.37C63.0168 662.136 85.2298 656.423 105.272 645.112C113.806 640.284 121.94 634.454 129.506 627.587C137.456 620.37 144.337 612.435 150.149 603.948C160.654 588.611 174.817 576.449 191.068 567.878C199.235 563.568 207.936 560.16 216.955 557.721C228.596 554.563 239.769 549.05 249.707 541.131C252.279 539.076 254.784 536.854 257.189 534.482C262.233 529.487 266.559 524.024 270.183 518.21C278.517 504.845 283.093 489.692 283.845 474.339C284.813 454.592 279.419 434.544 267.561 417.62C266.041 415.465 264.437 413.36 262.7 411.322C248.621 394.615 229.932 384.291 210.191 380.532C209.389 380.381 208.587 380.231 207.786 380.114C189.414 377.124 171.727 370.491 156.512 359.782C154.424 358.312 152.27 356.942 150.082 355.689C140.512 350.21 130.107 346.835 119.518 345.448C105.522 343.627 91.1923 345.331 77.9981 350.36C69.5137 353.601 61.4969 358.229 54.332 364.176C52.2443 365.914 50.2234 367.785 48.286 369.739C36.1774 382.085 21.5802 391.792 5.44655 397.923C3.34215 398.725 1.22104 399.46 -0.933455 400.145C-19.6726 406.026 -37.4263 416.15 -52.7249 430.584C-62.8294 440.107 -71.1301 450.883 -77.5936 462.46C-87.8316 480.771 -93.4767 501.102 -94.4788 521.635H-94.4621Z" stroke="white" stroke-width="0.5"/>
<path d="M-96.6166 510.675C-97.101 520.632 -96.4663 530.64 -94.7127 540.496C-91.1886 560.277 -83.1385 579.422 -70.462 596.246C-68.4411 598.936 -66.3033 601.559 -64.0486 604.115C-50.9546 618.967 -35.2885 630.143 -18.3198 637.595C-1.10048 645.146 17.4549 648.871 36.0104 648.688C57.8059 648.47 79.6014 642.857 99.2257 631.764C107.593 627.036 115.56 621.306 122.992 614.59C130.792 607.523 137.539 599.721 143.234 591.401C153.539 576.365 167.418 564.437 183.351 556.033C191.368 551.807 199.886 548.465 208.738 546.076C220.162 542.986 231.101 537.573 240.855 529.804C243.377 527.783 245.832 525.611 248.187 523.272C253.13 518.377 257.389 513.014 260.93 507.317C269.097 494.219 273.59 479.351 274.325 464.298C275.26 444.935 269.999 425.272 258.358 408.699C256.872 406.594 255.285 404.522 253.598 402.518C239.786 386.128 221.481 376.021 202.107 372.329C201.322 372.179 200.537 372.045 199.752 371.911C181.748 368.988 164.395 362.472 149.481 351.98C147.426 350.544 145.322 349.207 143.184 347.971C133.798 342.608 123.593 339.284 113.205 337.93C99.4762 336.143 85.4302 337.813 72.5032 342.742C64.1859 345.916 56.3194 350.443 49.3048 356.291C47.2505 357.995 45.2797 359.816 43.3758 361.754C31.5009 373.866 17.1877 383.389 1.37135 389.403C-0.682936 390.188 -2.77063 390.907 -4.89173 391.575C-23.2634 397.339 -40.6664 407.262 -55.6644 421.413C-65.5685 430.752 -73.7021 441.327 -80.0487 452.67C-90.0863 470.63 -95.6312 490.544 -96.6166 510.692V510.675Z" stroke="white" stroke-width="0.5"/>
<path d="M-98.7711 499.699C-99.2388 509.456 -98.6208 519.262 -96.9006 528.936C-93.4433 548.315 -85.5435 567.093 -73.1343 583.566C-71.1468 586.189 -69.0591 588.761 -66.8545 591.267C-54.0277 605.819 -38.6623 616.778 -22.0275 624.079C-5.14227 631.48 13.0457 635.139 31.2337 634.938C52.595 634.721 73.9563 629.225 93.1964 618.349C101.397 613.721 109.213 608.108 116.478 601.508C124.111 594.575 130.725 586.94 136.32 578.788C146.408 564.053 160.019 552.358 175.635 544.122C183.485 539.979 191.852 536.704 200.521 534.365C211.711 531.341 222.45 526.029 232.003 518.41C234.475 516.439 236.88 514.301 239.185 512.012C244.028 507.217 248.204 501.955 251.677 496.375C259.694 483.527 264.087 468.959 264.805 454.207C265.723 435.229 260.563 415.966 249.155 399.711C247.702 397.639 246.149 395.618 244.496 393.646C230.967 377.592 213.013 367.668 194.024 364.059C193.255 363.909 192.487 363.775 191.719 363.658C174.065 360.785 157.063 354.403 142.433 344.128C140.412 342.708 138.357 341.405 136.253 340.202C127.05 334.94 117.063 331.682 106.875 330.362C93.4303 328.625 79.6515 330.245 66.975 335.074C58.808 338.181 51.1085 342.625 44.2442 348.355C42.24 350.026 40.3026 351.813 38.4321 353.701C26.7911 365.563 12.7618 374.902 -2.73724 380.799C-4.75812 381.568 -6.81242 382.286 -8.86671 382.921C-26.871 388.584 -43.94 398.308 -58.6373 412.174C-68.3409 421.329 -76.3243 431.687 -82.5372 442.814C-92.3744 460.422 -97.8025 479.935 -98.7711 499.683V499.699Z" stroke="white" stroke-width="0.5"/>
<path d="M-100.942 488.723C-101.41 498.279 -100.809 507.902 -99.1218 517.358C-95.7314 536.353 -87.9986 554.747 -75.8399 570.886C-73.9025 573.458 -71.8482 575.981 -69.677 578.437C-57.1007 592.687 -42.0526 603.43 -25.7519 610.58C-9.21741 617.831 8.60315 621.406 26.4237 621.222C47.3507 621.005 68.2778 615.626 87.1338 604.967C95.1673 600.423 102.833 594.926 109.948 588.461C117.43 581.678 123.911 574.193 129.389 566.208C139.276 551.757 152.621 540.313 167.919 532.243C175.619 528.184 183.802 524.976 192.303 522.687C203.276 519.714 213.782 514.518 223.151 507.067C225.573 505.129 227.928 503.04 230.199 500.802C234.942 496.091 239.034 490.945 242.441 485.482C250.291 472.902 254.6 458.635 255.302 444.184C256.204 425.589 251.143 406.711 239.97 390.79C238.55 388.768 237.013 386.78 235.393 384.859C222.132 369.121 204.546 359.415 185.94 355.873C185.189 355.723 184.437 355.589 183.669 355.472C166.383 352.665 149.715 346.401 135.385 336.327C133.414 334.94 131.393 333.653 129.339 332.484C120.32 327.322 110.533 324.147 100.562 322.844C87.3843 321.14 73.8895 322.727 61.4803 327.472C53.4802 330.529 45.9311 334.873 39.2004 340.486C37.2296 342.124 35.3256 343.878 33.5051 345.732C22.098 357.36 8.35261 366.498 -6.8291 372.279C-8.81658 373.031 -10.8208 373.732 -12.8417 374.367C-30.4785 379.914 -47.1967 389.436 -61.6102 403.019C-71.1301 411.99 -78.9297 422.148 -85.0257 433.04C-94.6625 450.281 -99.9903 469.41 -100.926 488.756L-100.942 488.723Z" stroke="white" stroke-width="0.5"/>
<path d="M-103.097 477.763C-103.548 487.119 -102.963 496.542 -101.31 505.814C-98.0029 524.408 -90.4204 542.418 -78.5122 558.239C-76.6082 560.761 -74.604 563.234 -72.4829 565.64C-60.1739 579.606 -45.4264 590.115 -29.4764 597.115C-13.2759 604.215 4.16049 607.723 21.6303 607.539C42.1231 607.322 62.6159 602.06 81.0878 591.618C88.9542 587.174 96.4532 581.795 103.434 575.463C110.766 568.814 117.113 561.48 122.474 553.661C132.161 539.511 145.222 528.301 160.203 520.398C167.735 516.422 175.752 513.281 184.086 511.026C194.825 508.119 205.114 503.024 214.299 495.723C216.671 493.835 218.976 491.78 221.197 489.592C225.84 484.981 229.849 479.935 233.189 474.589C240.872 462.277 245.097 448.293 245.782 434.143C246.667 415.933 241.707 397.439 230.767 381.852C229.364 379.864 227.878 377.926 226.291 376.038C213.314 360.634 196.078 351.112 177.873 347.653C177.138 347.52 176.387 347.386 175.652 347.269C158.717 344.513 142.416 338.381 128.37 328.524C126.433 327.171 124.462 325.918 122.441 324.749C113.622 319.703 104.019 316.579 94.2486 315.31C81.3383 313.639 68.1274 315.193 55.9687 319.837C48.1357 322.828 40.7536 327.088 34.1565 332.584C32.2358 334.188 30.3652 335.909 28.5782 337.713C17.4048 349.107 3.94338 358.062 -10.921 363.708C-12.8584 364.443 -14.8292 365.128 -16.8166 365.747C-34.1027 371.176 -50.4703 380.498 -64.5664 393.813C-73.8858 402.601 -81.5351 412.541 -87.4976 423.217C-96.934 440.107 -102.145 458.835 -103.08 477.78L-103.097 477.763Z" stroke="white" stroke-width="0.5"/>
<path d="M-105.251 466.787C-105.702 475.959 -105.118 485.165 -103.498 494.236C-100.258 512.446 -92.8421 530.072 -81.1844 545.559C-79.3305 548.031 -77.3597 550.437 -75.2888 552.792C-63.2302 566.458 -48.8001 576.75 -33.1842 583.616C-17.3344 590.582 -0.248702 593.991 16.837 593.824C36.8955 593.623 56.9541 588.461 75.0419 578.236C82.7413 573.876 90.09 568.613 96.9209 562.415C104.103 555.9 110.316 548.733 115.543 541.081C125.03 527.232 137.806 516.255 152.47 508.52C159.852 504.628 167.702 501.554 175.852 499.348C186.358 496.508 196.445 491.513 205.414 484.363C207.736 482.508 209.99 480.503 212.162 478.348C216.704 473.838 220.629 468.909 223.903 463.663C231.435 451.601 235.56 437.919 236.229 424.069C237.097 406.243 232.237 388.15 221.531 372.88C220.162 370.942 218.709 369.038 217.155 367.183C204.445 352.097 187.577 342.792 169.756 339.384C169.038 339.25 168.303 339.116 167.585 339C151.001 336.293 135.051 330.312 121.305 320.656C119.418 319.319 117.481 318.1 115.51 316.964C106.875 312.019 97.4887 308.961 87.9188 307.725C75.2924 306.088 62.3487 307.608 50.4405 312.152C42.7745 315.076 35.5427 319.252 29.0792 324.632C27.1919 326.202 25.3715 327.89 23.6178 329.661C12.6783 340.804 -0.499226 349.575 -15.0463 355.105C-16.9503 355.823 -18.8709 356.491 -20.8083 357.109C-37.727 362.422 -53.7438 371.56 -67.5559 384.575C-76.675 393.179 -84.1573 402.902 -90.0028 413.36C-99.2388 429.9 -104.349 448.227 -105.251 466.771V466.787Z" stroke="white" stroke-width="0.5"/>
<path d="M-107.406 455.811C-107.84 464.783 -107.272 473.804 -105.686 482.675C-102.512 500.484 -95.2638 517.742 -83.84 532.895C-82.0195 535.317 -80.0988 537.673 -78.0612 539.978C-66.2699 553.36 -52.1571 563.418 -36.8585 570.134C-21.3428 576.95 -4.64124 580.291 12.077 580.124C31.7013 579.924 51.3423 574.878 69.0293 564.871C76.5617 560.611 83.7433 555.449 90.424 549.401C97.4386 543.036 103.518 536.019 108.645 528.518C117.915 514.969 130.424 504.227 144.787 496.659C152.003 492.849 159.685 489.842 167.652 487.687C177.94 484.897 187.794 480.036 196.579 473.036C198.85 471.215 201.072 469.26 203.193 467.155C207.652 462.744 211.477 457.916 214.683 452.787C222.049 440.993 226.091 427.594 226.742 414.045C227.594 396.603 222.834 378.895 212.362 363.959C211.026 362.054 209.59 360.2 208.07 358.396C195.627 343.627 179.126 334.522 161.689 331.198C160.988 331.064 160.27 330.93 159.568 330.83C143.351 328.19 127.735 322.326 114.274 312.871C112.42 311.567 110.533 310.365 108.595 309.262C100.144 304.434 90.9584 301.427 81.6055 300.224C69.2464 298.62 56.5866 300.123 44.9457 304.567C37.4467 307.424 30.3652 311.517 24.052 316.78C22.1982 318.317 20.4278 319.954 18.7075 321.708C8.00183 332.618 -4.89176 341.188 -19.1215 346.601C-20.9754 347.303 -22.8626 347.954 -24.7666 348.556C-41.3178 353.751 -57.0006 362.689 -70.5121 375.436C-79.4308 383.856 -86.7627 393.379 -92.4747 403.603C-101.51 419.775 -106.504 437.718 -107.389 455.861L-107.406 455.811Z" stroke="white" stroke-width="0.5"/>
<path d="M-109.56 444.852C-109.995 453.623 -109.427 462.444 -107.89 471.114C-104.784 488.539 -97.6855 505.413 -86.5289 520.215C-84.7418 522.57 -82.8712 524.892 -80.8838 527.131C-69.343 540.212 -55.5475 550.052 -40.5996 556.618C-25.4346 563.284 -9.0838 566.558 7.26701 566.391C26.4571 566.191 45.6639 561.263 62.9667 551.473C70.3321 547.313 77.3634 542.267 83.8937 536.336C90.7581 530.105 96.7038 523.239 101.714 515.921C110.783 502.673 123.025 492.164 137.055 484.763C144.119 481.038 151.618 478.098 159.418 475.993C169.472 473.269 179.126 468.508 187.71 461.658C189.932 459.888 192.103 457.966 194.174 455.911C198.533 451.601 202.274 446.873 205.397 441.861C212.596 430.317 216.554 417.219 217.189 403.971C218.024 386.914 213.381 369.589 203.126 354.988C201.823 353.133 200.42 351.312 198.934 349.541C186.775 335.107 170.642 326.202 153.573 322.945C152.888 322.811 152.186 322.694 151.502 322.577C135.635 319.987 120.37 314.257 107.209 305.018C105.405 303.749 103.551 302.579 101.664 301.493C93.3969 296.765 84.4115 293.842 75.259 292.656C63.1671 291.085 50.7912 292.555 39.4008 296.899C32.0688 299.689 25.1377 303.682 18.9581 308.844C17.1543 310.348 15.4174 311.952 13.7472 313.656C3.27534 324.314 -9.31762 332.701 -23.2467 338.014C-25.0672 338.699 -26.9044 339.35 -28.7582 339.935C-44.942 345.014 -60.274 353.751 -73.485 366.214C-82.2199 374.451 -89.3848 383.756 -94.9632 393.747C-103.798 409.568 -108.692 427.109 -109.56 444.868V444.852Z" stroke="white" stroke-width="0.5"/>
<path d="M-111.715 433.876C-112.132 442.446 -111.598 451.067 -110.078 459.553C-107.038 476.577 -100.107 493.067 -89.2011 507.551C-87.4642 509.857 -85.627 512.112 -83.6729 514.317C-72.3994 527.098 -58.9045 536.721 -44.2907 543.136C-29.4597 549.652 -13.493 552.842 2.49038 552.675C21.2462 552.492 40.0188 547.663 56.9207 538.107C64.1191 534.031 71.0001 529.103 77.3801 523.305C84.0941 517.224 89.9063 510.508 94.7998 503.341C103.668 490.394 115.627 480.119 129.339 472.885C136.236 469.243 143.585 466.37 151.201 464.315C161.038 461.658 170.458 456.997 178.859 450.298C181.03 448.561 183.151 446.689 185.172 444.685C189.431 440.475 193.088 435.847 196.145 430.952C203.176 419.675 207.051 406.878 207.669 393.914C208.487 377.241 203.944 360.317 193.924 346.033C192.654 344.212 191.285 342.441 189.832 340.704C177.94 326.587 162.174 317.883 145.489 314.708C144.821 314.575 144.136 314.458 143.451 314.357C127.952 311.835 113.021 306.221 100.161 297.2C98.3907 295.964 96.5869 294.811 94.733 293.758C86.6495 289.131 77.8645 286.274 68.9291 285.121C57.1211 283.584 45.0125 285.021 33.8726 289.264C26.7076 292.004 19.9435 295.897 13.8975 300.925C12.1272 302.396 10.4236 303.966 8.80356 305.637C-1.41778 316.061 -13.7435 324.264 -27.3553 329.443C-29.1257 330.112 -30.9294 330.746 -32.7499 331.315C-48.5663 336.276 -63.5642 344.83 -76.4745 357.009C-85.009 365.062 -92.007 374.15 -97.4684 383.923C-106.103 399.393 -110.88 416.534 -111.732 433.892L-111.715 433.876Z" stroke="white" stroke-width="0.5"/>
<path d="M-113.869 422.899C-114.27 431.269 -113.752 439.689 -112.266 447.993C-109.31 464.632 -102.529 480.737 -91.8734 494.888C-90.1698 497.143 -88.3828 499.348 -86.4788 501.503C-75.4558 514 -62.2782 523.406 -48.0151 529.671C-33.5349 536.036 -17.9189 539.16 -2.303 538.993C16.0186 538.809 34.3569 534.081 50.8747 524.759C57.9061 520.783 64.6201 515.971 70.8665 510.308C77.4302 504.36 83.092 497.811 87.8854 490.811C96.5535 478.165 108.228 468.124 121.639 461.057C128.387 457.499 135.552 454.692 143 452.687C152.604 450.081 161.823 445.537 170.024 439.005C172.145 437.3 174.216 435.479 176.186 433.508C180.345 429.382 183.919 424.871 186.909 420.076C193.79 409.05 197.564 396.553 198.182 383.89C198.967 367.601 194.541 351.062 184.754 337.112C183.502 335.341 182.166 333.603 180.746 331.916C169.138 318.133 153.723 309.629 137.439 306.522C136.771 306.388 136.119 306.271 135.451 306.171C120.303 303.699 105.723 298.236 93.163 289.398C91.4428 288.178 89.6724 287.059 87.852 286.023C79.9521 281.512 71.3842 278.706 62.6326 277.586C51.0918 276.083 39.2672 277.486 28.3944 281.629C21.3965 284.302 14.7827 288.112 8.88704 293.023C7.16678 294.46 5.49662 295.997 3.90998 297.618C-6.07755 307.808 -18.1194 315.811 -31.4138 320.873C-33.1508 321.541 -34.9044 322.143 -36.6748 322.694C-52.1237 327.556 -66.771 335.892 -79.3806 347.787C-87.7147 355.639 -94.5623 364.544 -99.8901 374.083C-108.324 389.186 -113.001 405.942 -113.819 422.899H-113.869Z" stroke="white" stroke-width="0.5"/>
</g>
</svg>
