<svg width="23" height="23" viewBox="0 0 23 23" fill="none" xmlns="http://www.w3.org/2000/svg">
<g clip-path="url(#clip0_418_1230)">
<path d="M0.642326 13.1623L2.14323 13.4083C2.38036 14.5576 2.83416 15.6512 3.48038 16.6307L2.59156 17.8712C2.50178 17.9935 2.45401 18.1415 2.45542 18.2932C2.45683 18.4448 2.50733 18.592 2.59937 18.7125C2.8235 18.9865 3.06162 19.2487 3.31279 19.498C3.56618 19.7518 3.82738 19.9857 4.09639 20.2118C4.21701 20.3041 4.36429 20.3547 4.51612 20.3561C4.66796 20.3575 4.81615 20.3096 4.93846 20.2197L6.17817 19.3304C7.15673 19.977 8.24961 20.4311 9.39827 20.6684L9.64389 22.1704C9.66665 22.32 9.73759 22.458 9.84595 22.5635C9.9543 22.6691 10.0941 22.7364 10.2442 22.7552C10.4579 22.7794 10.6731 22.7942 10.8929 22.8051C10.9458 22.8077 10.9986 22.7996 11.0482 22.7812C11.0979 22.7629 11.1433 22.7347 11.1817 22.6983C11.2202 22.662 11.2509 22.6183 11.272 22.5697C11.2931 22.5212 11.3042 22.469 11.3046 22.4161V19.2919C11.3041 19.1905 11.2643 19.0933 11.1937 19.0206C11.123 18.9479 11.027 18.9054 10.9257 18.902C6.98613 18.6978 3.89661 15.4439 3.89661 11.4991C3.89661 7.55426 6.98613 4.30042 10.9257 4.09619C11.027 4.09276 11.123 4.05025 11.1937 3.97757C11.2643 3.90489 11.3041 3.80769 11.3046 3.70634V0.58486C11.3043 0.531977 11.2934 0.479694 11.2724 0.431154C11.2514 0.382614 11.2208 0.338819 11.1825 0.302403C11.1441 0.265986 11.0988 0.2377 11.0492 0.219244C10.9997 0.200788 10.9469 0.192543 10.8941 0.195006C10.677 0.203966 10.4603 0.219303 10.2442 0.240997C10.094 0.261465 9.9544 0.329899 9.84622 0.43611C9.73805 0.54232 9.66707 0.680627 9.64385 0.830439L9.39823 2.33251C8.24961 2.57008 7.15677 3.02429 6.17813 3.67084L4.93843 2.78122C4.81612 2.69124 4.66792 2.64335 4.51609 2.64476C4.36425 2.64617 4.21697 2.69679 4.09635 2.78903C3.82315 3.01345 3.56161 3.2517 3.31275 3.50283C3.0597 3.75041 2.82148 4.0127 2.59933 4.28835C2.50692 4.40903 2.45619 4.55646 2.45478 4.70846C2.45337 4.86046 2.50136 5.0088 2.59152 5.13118L3.48035 6.37168C2.83427 7.35086 2.38047 8.44407 2.14319 9.59295L0.642289 9.83856C0.492713 9.86141 0.354677 9.93243 0.249138 10.0409C0.1436 10.1493 0.0763237 10.2892 0.0575252 10.4393C-0.0192158 11.1389 -0.0192158 11.8448 0.0575252 12.5445C0.0743996 12.6971 0.140652 12.84 0.24621 12.9516C0.351768 13.0631 0.490856 13.1371 0.642326 13.1623Z" fill="white"/>
<path d="M10.9318 5.66448C7.85196 5.85958 5.45386 8.4144 5.45386 11.5004C5.45386 14.5864 7.85199 17.1413 10.9318 17.3364C10.9803 17.3384 11.0287 17.3305 11.0741 17.3133C11.1194 17.296 11.1608 17.2697 11.1957 17.2359C11.2305 17.2021 11.2582 17.1616 11.2769 17.1168C11.2956 17.072 11.305 17.0239 11.3045 16.9754V6.02547C11.305 5.97694 11.2956 5.92881 11.2769 5.88402C11.2582 5.83923 11.2305 5.79872 11.1957 5.76495C11.1608 5.73118 11.1194 5.70486 11.0741 5.68758C11.0287 5.67031 10.9803 5.66245 10.9318 5.66448ZM14.0334 6.04264H12.0842V6.82231H14.0334C14.6785 6.82039 15.201 6.29791 15.2029 5.65278V3.24201C15.74 3.05216 16.0621 2.50301 15.9658 1.9416C15.8695 1.38019 15.3827 0.969849 14.8131 0.969849C14.2435 0.969849 13.7567 1.38019 13.6604 1.9416C13.5641 2.50301 13.8862 3.05216 14.4232 3.24201V5.65278C14.4232 5.8681 14.2487 6.04264 14.0334 6.04264ZM12.0842 8.38169H15.9826C16.1979 8.38169 16.3725 8.20716 16.3725 7.99184C16.3725 7.77652 16.1979 7.60198 15.9826 7.60198H12.0842V8.38169ZM12.0842 16.9582H14.0334C14.2487 16.9582 14.4232 17.1327 14.4232 17.348V19.7588C13.8862 19.9487 13.5641 20.4978 13.6604 21.0592C13.7567 21.6206 14.2435 22.031 14.8131 22.031C15.3827 22.031 15.8695 21.6206 15.9658 21.0592C16.0621 20.4978 15.74 19.9487 15.2029 19.7588V17.348C15.201 16.7029 14.6785 16.1804 14.0334 16.1785H12.0842V16.9582H12.0842ZM17.9318 13.0598H12.0842V13.8395H17.9318C18.1471 13.8395 18.3217 14.014 18.3217 14.2293V16.2503C17.7846 16.4401 17.4625 16.9893 17.5588 17.5507C17.6551 18.1121 18.1419 18.5224 18.7115 18.5224C19.2811 18.5224 19.7679 18.1121 19.8642 17.5507C19.9605 16.9893 19.6384 16.4401 19.1014 16.2503V14.2293C19.0994 13.5842 18.5769 13.0617 17.9318 13.0598ZM21.8302 10.3309C21.5892 10.3319 21.3544 10.4073 21.1579 10.5469C20.9614 10.6865 20.8128 10.8833 20.7324 11.1106H12.0842V11.8902H20.7324C20.9317 12.4495 21.5188 12.7702 22.0971 12.6356C22.6753 12.501 23.0604 11.9539 22.9922 11.3642C22.9239 10.7745 22.4239 10.3298 21.8302 10.3309Z" fill="white"/>
<path d="M16.3725 15.009C16.3725 14.7936 16.1979 14.6191 15.9826 14.6191H12.0842V15.3988H15.9826C16.1979 15.3988 16.3725 15.2243 16.3725 15.009ZM19.1013 8.77151V6.75055C19.6384 6.5607 19.9605 6.01155 19.8642 5.45014C19.7679 4.88874 19.2811 4.47839 18.7115 4.47839C18.1419 4.47839 17.6551 4.88874 17.5588 5.45014C17.4625 6.01155 17.7846 6.5607 18.3216 6.75055V8.77151C18.3216 8.98683 18.1471 9.16137 17.9318 9.16137H12.0841V9.94104H17.9318C18.5769 9.93908 19.0994 9.4166 19.1013 8.77151Z" fill="white"/>
</g>
<defs>
<clipPath id="clip0_418_1230">
<rect width="23" height="23" fill="white"/>
</clipPath>
</defs>
</svg>
