<svg width="23" height="24" viewBox="0 0 23 24" fill="none" xmlns="http://www.w3.org/2000/svg">
<g clip-path="url(#clip0_418_830)">
<path d="M22.1219 4.76918L8.03547 1.78811C7.4395 1.66202 6.84878 2.04652 6.7227 2.6425L6.45508 4.36232L22.7084 7.80178L22.976 6.08196C23.1021 5.48621 22.7178 4.89531 22.1219 4.76918ZM16.1982 8.16652C16.0336 7.574 15.4144 7.22377 14.8221 7.38804L12.148 8.1304L5.84392 6.79624L5.15061 10.0721L0.818761 11.2744C0.22647 11.4387 -0.123756 12.0579 0.0405144 12.6502L2.48176 21.4473C2.6463 22.0396 3.26553 22.3901 3.85783 22.2256L17.8612 18.3395C18.4535 18.175 18.8037 17.556 18.6394 16.9634L18.2204 15.4532L19.7909 15.7853C20.3869 15.9116 20.9776 15.5271 21.1037 14.9311L22.0973 10.2357L16.4402 9.03864L16.1982 8.16652ZM17.8153 12.6376L18.1617 11.0008C18.2137 10.7557 18.4567 10.5977 18.7017 10.6494L20.3385 10.9959C20.5838 11.048 20.7419 11.2907 20.6901 11.536L20.3438 13.1728C20.2918 13.4178 20.0488 13.5761 19.8037 13.5242L18.167 13.1778C17.9214 13.1256 17.7633 12.8826 17.8153 12.6376ZM1.06244 12.1523L4.93771 11.0772L14.0814 8.53978L15.0653 8.26641C15.0833 8.26156 15.1012 8.25927 15.1187 8.25927C15.1976 8.25927 15.292 8.31106 15.3196 8.41024L15.4351 8.82627L15.797 10.1305L1.3961 14.1268L0.918617 12.4068C0.888701 12.2988 0.954545 12.1822 1.06244 12.1523ZM17.7613 17.2069C17.7797 17.2736 17.7604 17.3288 17.7408 17.3633C17.7215 17.3978 17.6842 17.443 17.6174 17.4614L3.61437 21.3474C3.59697 21.3523 3.57901 21.3547 3.56097 21.3548C3.48204 21.3548 3.38768 21.3028 3.36009 21.2036L1.93619 16.0724L16.3371 12.0759L17.2155 15.2406L17.7613 17.2069Z" fill="white"/>
<path d="M5.87703 17.558C5.80983 17.3163 5.55762 17.1737 5.316 17.2406L3.68063 17.6946C3.43924 17.7616 3.29635 18.014 3.36355 18.2557L3.81731 19.8908C3.88451 20.1324 4.13672 20.2751 4.37833 20.2079L6.01371 19.7541C6.25533 19.6872 6.39799 19.4347 6.33102 19.1931L5.87703 17.558Z" fill="white"/>
</g>
<defs>
<clipPath id="clip0_418_830">
<rect width="23" height="23" fill="white" transform="translate(0 0.515137)"/>
</clipPath>
</defs>
</svg>
