<svg width="24" height="24" viewBox="0 0 24 24" fill="none" xmlns="http://www.w3.org/2000/svg">
<path d="M11.6406 9.17871V9.89746H10.5596L11.0829 11.335H11.6406V12.0537H11.3445L11.8753 13.5121L13.1985 9.30737L13.7969 8.3924V1.27246H10.2031V2.70996H11.6406V3.42871H10.2031V4.86621H11.6406V5.58496H10.2031V7.02246H11.6406V7.74121H10.2031V8.9178L10.298 9.17871H11.6406ZM9.61449 15.7075C10.0472 15.9651 10.5186 16.1511 11.0107 16.2584L11.5206 14.6391L8.26252 5.6899L6.23637 6.42734L9.61449 15.7075ZM8.01743 5.01427L5.89819 2.34376L5.99127 5.75171L8.01743 5.01427ZM12 16.3662C12.665 16.3658 13.3222 16.2229 13.9273 15.9472L16.5224 10.6881L16.9073 8.62491C16.8354 8.6321 16.7607 8.64432 16.6866 8.64432C16.3656 8.64555 16.0483 8.57636 15.757 8.44161C15.4656 8.30687 15.2074 8.10986 15.0004 7.86448L13.8544 9.61787L11.7341 16.3533C11.8228 16.3583 11.9109 16.3662 12 16.3662ZM16.1256 7.81884C17.0464 8.18863 18.1597 7.57482 18.6122 6.44782C19.0646 5.32082 18.2675 2.48248 18.2675 2.48248C18.2675 2.48248 15.7293 3.98251 15.2768 5.10915C14.8243 6.23579 15.2046 7.44904 16.1256 7.81884Z" fill="white"/>
<path d="M22.2638 13.4912C22.4746 12.3026 22.4746 11.0861 22.2638 9.89746H17.0816C17.287 10.4742 17.3915 11.0821 17.3906 11.6943C17.3906 13.124 16.8227 14.4951 15.8117 15.5061C14.8008 16.517 13.4297 17.085 12 17.085C10.5703 17.085 9.19919 16.517 8.18825 15.5061C7.17731 14.4951 6.60938 13.124 6.60938 11.6943C6.60848 11.0821 6.71303 10.4742 6.91844 9.89746H1.73625C1.52542 11.0861 1.52542 12.3026 1.73625 13.4912H3.93203C4.14034 14.4272 4.51003 15.3198 5.02453 16.129L3.47203 17.6815C4.1613 18.6727 5.02167 19.533 6.01281 20.2223L7.56531 18.6698C8.37451 19.1843 9.26711 19.554 10.2031 19.7623V21.9581C11.3918 22.1689 12.6082 22.1689 13.7969 21.9581V19.7623C14.7329 19.554 15.6255 19.1843 16.4347 18.6698L17.9872 20.2223C18.9783 19.533 19.8387 18.6727 20.528 17.6815L18.9755 16.129C19.49 15.3198 19.8597 14.4272 20.068 13.4912H22.2638Z" fill="white"/>
</svg>
