<svg width="23" height="23" viewBox="0 0 23 23" fill="none" xmlns="http://www.w3.org/2000/svg">
<g clip-path="url(#clip0_418_739)">
<path d="M7.41211 13.5215C7.04034 13.5215 6.73828 13.8235 6.73828 14.1953C6.73828 14.5671 7.04034 14.8691 7.41211 14.8691C7.78388 14.8691 8.08594 14.5671 8.08594 14.1953C8.08594 13.8235 7.78388 13.5215 7.41211 13.5215Z" fill="white"/>
<path d="M12.8027 9.47852H2.02148C0.906793 9.47852 0 10.3853 0 11.5V19.5859C0 20.7006 0.906793 21.6074 2.02148 21.6074H12.8027C13.9174 21.6074 14.8242 20.7006 14.8242 19.5859V11.5C14.8242 10.3853 13.9174 9.47852 12.8027 9.47852ZM8.08594 16.0927V18.2383C8.08594 18.6107 7.78456 18.9121 7.41211 18.9121C7.03966 18.9121 6.73828 18.6107 6.73828 18.2383V16.0927C5.95565 15.8136 5.39062 15.0726 5.39062 14.1953C5.39062 13.0806 6.29742 12.1738 7.41211 12.1738C8.5268 12.1738 9.43359 13.0806 9.43359 14.1953C9.43359 15.0726 8.86857 15.8136 8.08594 16.0927ZM20.9785 13.5215C20.1012 13.5215 19.3603 14.0865 19.0812 14.8691H16.1719V16.2168H19.0812C19.3603 16.9994 20.1012 17.5645 20.9785 17.5645C22.0932 17.5645 23 16.6577 23 15.543C23 14.4283 22.0932 13.5215 20.9785 13.5215ZM20.9785 18.9121C20.6092 18.9121 20.2674 19.019 19.9691 19.1926L18.7984 17.804C18.7352 17.7289 18.6563 17.6686 18.5673 17.6272C18.4783 17.5859 18.3813 17.5644 18.2832 17.5645H16.1719V18.9121H17.97L19.0879 20.2382C19.0075 20.4559 18.957 20.6882 18.957 20.9336C18.957 22.0483 19.8638 23 20.9785 23C22.0932 23 23 22.0483 23 20.9336C23 19.8189 22.0932 18.9121 20.9785 18.9121ZM20.9785 8.13086C19.8638 8.13086 18.957 9.03765 18.957 10.1523C18.957 10.4796 19.0426 10.7844 19.1812 11.0581L18.0127 12.1738H16.1719V13.5215H18.2832C18.4563 13.5215 18.6234 13.4544 18.7484 13.3346L20.1526 11.9931C20.4054 12.107 20.6837 12.1738 20.9785 12.1738C22.0932 12.1738 23 11.267 23 10.1523C23 9.03765 22.0932 8.13086 20.9785 8.13086ZM7.41211 0C4.43976 0 2.02148 2.41828 2.02148 5.39062V8.13086H4.7168V5.39062C4.7168 3.90412 5.9256 2.69531 7.41211 2.69531C8.89862 2.69531 10.1074 3.90412 10.1074 5.39062V8.13086H12.8027V5.39062C12.8027 2.41828 10.3845 0 7.41211 0Z" fill="white"/>
</g>
<defs>
<clipPath id="clip0_418_739">
<rect width="23" height="23" fill="white"/>
</clipPath>
</defs>
</svg>
