<svg width="23" height="24" viewBox="0 0 23 24" fill="none" xmlns="http://www.w3.org/2000/svg">
<path d="M7.15 0.515074H1C0.755001 0.515074 0.430001 0.215074 4 2.89007L7.15 0.515074Z" fill="white"/>
<path d="M8 5.51506C8 1.17006 8.025 1.40506 7.94 1.18506C3.97 4.16006 4.235 4.01506 4 4.01506C3.765 4.01506 4 4.13506 0.06 1.18506C3.72529e-09 1.41006 0 1.19506 0 5.51506C0 5.78027 0.105357 6.03463 0.292893 6.22217C0.48043 6.4097 0.734784 6.51506 1 6.51506H7C7.26522 6.51506 7.51957 6.4097 7.70711 6.22217C7.89464 6.03463 8 5.78027 8 5.51506ZM18.5 4.21006L19.88 3.51506L18.5 2.82506V4.21006Z" fill="white"/>
<path d="M22 0.515015H16C15.7348 0.515015 15.4804 0.620372 15.2929 0.807908C15.1054 0.995444 15 1.2498 15 1.51501V5.51501C15 5.78023 15.1054 6.03458 15.2929 6.22212C15.4804 6.40966 15.7348 6.51501 16 6.51501H22C22.2652 6.51501 22.5196 6.40966 22.7071 6.22212C22.8946 6.03458 23 5.78023 23 5.51501V1.51501C23 1.2498 22.8946 0.995444 22.7071 0.807908C22.5196 0.620372 22.2652 0.515015 22 0.515015ZM20.33 4.41001C18.83 5.15001 18.83 5.20501 18.5 5.20501C18.2348 5.20501 17.9804 5.09966 17.7929 4.91212C17.6054 4.72459 17.5 4.47023 17.5 4.20501C17.5 2.98501 17.36 2.35501 18 1.97501C18.64 1.59501 19.055 1.97501 20.355 2.62001C20.5203 2.70525 20.6585 2.83488 20.7542 2.99435C20.8498 3.15382 20.8992 3.33681 20.8966 3.52275C20.894 3.7087 20.8396 3.89023 20.7395 4.04697C20.6394 4.2037 20.4976 4.32943 20.33 4.41001Z" fill="white"/>
<path d="M19 20.515C19.5523 20.515 20 20.0673 20 19.515C20 18.9627 19.5523 18.515 19 18.515C18.4477 18.515 18 18.9627 18 19.515C18 20.0673 18.4477 20.515 19 20.515Z" fill="white"/>
<path d="M22.535 18.515C22.4427 18.5155 22.3523 18.4885 22.2754 18.4374C22.1985 18.3864 22.1385 18.3136 22.1031 18.2283C22.0677 18.143 22.0585 18.0492 22.0767 17.9586C22.0948 17.8681 22.1395 17.7851 22.205 17.72C22.2914 17.6329 22.3399 17.5152 22.3399 17.3925C22.3399 17.2698 22.2914 17.1521 22.205 17.065L21.45 16.31C21.4076 16.266 21.3567 16.231 21.3004 16.2071C21.2441 16.1832 21.1836 16.1709 21.1225 16.1709C21.0614 16.1709 21.0009 16.1832 20.9446 16.2071C20.8883 16.231 20.8374 16.266 20.795 16.31C20.73 16.3755 20.6469 16.4202 20.5564 16.4383C20.4659 16.4565 20.372 16.4473 20.2867 16.4119C20.2015 16.3765 20.1287 16.3165 20.0776 16.2396C20.0265 16.1627 19.9995 16.0723 20 15.98C20 15.8567 19.951 15.7384 19.8638 15.6512C19.7766 15.564 19.6583 15.515 19.535 15.515H18.465C18.3417 15.515 18.2234 15.564 18.1362 15.6512C18.049 15.7384 18 15.8567 18 15.98C18.0005 16.0723 17.9735 16.1627 17.9224 16.2396C17.8713 16.3165 17.7985 16.3765 17.7133 16.4119C17.628 16.4473 17.5341 16.4565 17.4436 16.4383C17.3531 16.4202 17.27 16.3755 17.205 16.31C17.1626 16.266 17.1117 16.231 17.0554 16.2071C16.9991 16.1832 16.9386 16.1709 16.8775 16.1709C16.8164 16.1709 16.7559 16.1832 16.6996 16.2071C16.6433 16.231 16.5924 16.266 16.55 16.31L15.795 17.065C15.7516 17.1078 15.7172 17.1588 15.6936 17.215C15.6701 17.2712 15.658 17.3316 15.658 17.3925C15.658 17.4535 15.6701 17.5138 15.6936 17.57C15.7172 17.6262 15.7516 17.6772 15.795 17.72C15.8581 17.7859 15.9007 17.8688 15.9175 17.9586C15.9343 18.0483 15.9247 18.141 15.8897 18.2253C15.8547 18.3096 15.7959 18.3819 15.7204 18.4334C15.645 18.4848 15.5563 18.5132 15.465 18.515C15.3417 18.515 15.2234 18.564 15.1362 18.6512C15.049 18.7384 15 18.8567 15 18.98V20.05C15 20.1733 15.049 20.2916 15.1362 20.3788C15.2234 20.466 15.3417 20.515 15.465 20.515C15.5573 20.5145 15.6477 20.5416 15.7246 20.5926C15.8015 20.6437 15.8615 20.7165 15.8969 20.8017C15.9323 20.887 15.9415 20.9809 15.9233 21.0714C15.9052 21.1619 15.8605 21.245 15.795 21.31C15.751 21.3525 15.716 21.4033 15.6921 21.4596C15.6682 21.5159 15.6559 21.5764 15.6559 21.6375C15.6559 21.6987 15.6682 21.7592 15.6921 21.8154C15.716 21.8717 15.751 21.9226 15.795 21.965L16.55 22.72C16.5924 22.764 16.6433 22.799 16.6996 22.8229C16.7559 22.8468 16.8164 22.8592 16.8775 22.8592C16.9386 22.8592 16.9991 22.8468 17.0554 22.8229C17.1117 22.799 17.1626 22.764 17.205 22.72C17.27 22.6545 17.3531 22.6098 17.4436 22.5917C17.5341 22.5735 17.628 22.5828 17.7133 22.6181C17.7985 22.6535 17.8713 22.7135 17.9224 22.7904C17.9735 22.8673 18.0005 22.9577 18 23.05C18 23.1733 18.049 23.2916 18.1362 23.3788C18.2234 23.466 18.3417 23.515 18.465 23.515H19.535C19.6583 23.515 19.7766 23.466 19.8638 23.3788C19.951 23.2916 20 23.1733 20 23.05C19.9995 22.9577 20.0265 22.8673 20.0776 22.7904C20.1287 22.7135 20.2015 22.6535 20.2867 22.6181C20.372 22.5828 20.4659 22.5735 20.5564 22.5917C20.6469 22.6098 20.73 22.6545 20.795 22.72C20.8374 22.764 20.8883 22.799 20.9446 22.8229C21.0009 22.8468 21.0614 22.8592 21.1225 22.8592C21.1836 22.8592 21.2441 22.8468 21.3004 22.8229C21.3567 22.799 21.4076 22.764 21.45 22.72L22.205 21.965C22.249 21.9226 22.284 21.8717 22.3079 21.8154C22.3318 21.7592 22.3441 21.6987 22.3441 21.6375C22.3441 21.5764 22.3318 21.5159 22.3079 21.4596C22.284 21.4033 22.249 21.3525 22.205 21.31C22.1395 21.245 22.0948 21.1619 22.0767 21.0714C22.0585 20.9809 22.0677 20.887 22.1031 20.8017C22.1385 20.7165 22.1985 20.6437 22.2754 20.5926C22.3523 20.5416 22.4427 20.5145 22.535 20.515C22.6583 20.515 22.7766 20.466 22.8638 20.3788C22.951 20.2916 23 20.1733 23 20.05V18.98C23 18.8567 22.951 18.7384 22.8638 18.6512C22.7766 18.564 22.6583 18.515 22.535 18.515ZM19 21.515C18.6044 21.515 18.2178 21.3977 17.8889 21.178C17.56 20.9582 17.3036 20.6458 17.1522 20.2804C17.0009 19.9149 16.9613 19.5128 17.0384 19.1248C17.1156 18.7369 17.3061 18.3805 17.5858 18.1008C17.8655 17.8211 18.2219 17.6306 18.6098 17.5534C18.9978 17.4763 19.3999 17.5159 19.7654 17.6673C20.1308 17.8186 20.4432 18.075 20.6629 18.4039C20.8827 18.7328 21 19.1195 21 19.515C21 20.0454 20.7893 20.5542 20.4142 20.9292C20.0391 21.3043 19.5304 21.515 19 21.515ZM3.21 15.8L1.44 17.565C1.1591 17.8463 1.00132 18.2275 1.00132 18.625C1.00132 19.0225 1.1591 19.4038 1.44 19.685L2.855 21.1C3.13625 21.3809 3.5175 21.5387 3.915 21.5387C4.3125 21.5387 4.69375 21.3809 4.975 21.1L6.745 19.335L3.21 15.8ZM7.095 20.395L5.685 21.81L7.095 23.22C7.28716 23.3774 7.531 23.4576 7.77906 23.4451C8.02711 23.4325 8.26162 23.3281 8.43693 23.1522C8.61224 22.9762 8.71581 22.7414 8.72747 22.4933C8.73913 22.2452 8.65804 22.0016 8.5 21.81L7.095 20.395ZM3.79 14.965L7.575 18.75L13.815 15.795L6.745 8.72501L3.79 14.965ZM9.76 10.33L12.21 12.78C12.301 12.4408 12.3011 12.0836 12.2103 11.7444C12.1194 11.4051 11.9409 11.0958 11.6925 10.8475C11.4442 10.5991 11.1349 10.4206 10.7956 10.3297C10.4564 10.2389 10.0992 10.239 9.76 10.33ZM13.105 9.93501C13.38 9.93501 13.39 9.85501 14.52 8.72501C14.6142 8.63153 14.6673 8.50446 14.6678 8.37178C14.6682 8.2391 14.616 8.11167 14.5225 8.01751C14.429 7.92336 14.3019 7.87021 14.1693 7.86974C14.0366 7.86927 13.9092 7.92153 13.815 8.01501L12.755 9.07502C12.683 9.14436 12.6335 9.23368 12.6128 9.33145C12.5921 9.42921 12.6012 9.53094 12.6389 9.6235C12.6765 9.71606 12.7411 9.79521 12.8242 9.85074C12.9072 9.90626 13.0051 9.93562 13.105 9.93501ZM11.5 8.51501V7.01501C11.5 6.88241 11.4473 6.75523 11.3536 6.66146C11.2598 6.56769 11.1326 6.51501 11 6.51501C10.8674 6.51501 10.7402 6.56769 10.6464 6.66146C10.5527 6.75523 10.5 6.88241 10.5 7.01501V8.51501C10.5 8.64762 10.5527 8.7748 10.6464 8.86857C10.7402 8.96234 10.8674 9.01501 11 9.01501C11.1326 9.01501 11.2598 8.96234 11.3536 8.86857C11.4473 8.7748 11.5 8.64762 11.5 8.51501ZM15.5 11.015H14C13.8674 11.015 13.7402 11.0677 13.6464 11.1615C13.5527 11.2552 13.5 11.3824 13.5 11.515C13.5 11.6476 13.5527 11.7748 13.6464 11.8686C13.7402 11.9623 13.8674 12.015 14 12.015H15.5C15.6326 12.015 15.7598 11.9623 15.8536 11.8686C15.9473 11.7748 16 11.6476 16 11.515C16 11.3824 15.9473 11.2552 15.8536 11.1615C15.7598 11.0677 15.6326 11.015 15.5 11.015Z" fill="white"/>
</svg>
