<svg width="22" height="23" viewBox="0 0 22 23" fill="none" xmlns="http://www.w3.org/2000/svg">
<path d="M7.23637 11.6665L8.47349 10.4294C8.73833 10.1645 8.73833 9.73589 8.47349 9.47104L6.71712 7.71467C6.45227 7.44983 6.02364 7.44983 5.75879 7.71467L4.52167 8.95179L7.23637 11.6665ZM13.1745 14.1721C12.9097 13.9072 12.4811 13.9072 12.2162 14.1721L10.9791 15.4092L13.6938 18.1239L14.9309 16.8868C15.1958 16.6219 15.1958 16.1933 14.9309 15.9285L13.1745 14.1721ZM13.4742 6.8121C13.4445 6.79109 13.4186 6.76516 13.3976 6.73543C13.0938 6.28835 12.6863 5.92141 12.2099 5.66593C11.7336 5.41046 11.2025 5.27404 10.662 5.26831C10.648 5.26831 10.6376 5.2718 10.6236 5.2718C10.6097 5.2718 10.5992 5.26831 10.5853 5.26831C9.48758 5.28225 8.46652 5.82589 7.8497 6.73543C7.82879 6.7668 7.80091 6.7877 7.77303 6.8121C8.45258 7.63452 9.47364 8.16073 10.6236 8.16073C11.7736 8.16073 12.7947 7.63452 13.4742 6.8121Z" fill="white"/>
<path d="M9.37606 4.78391C9.27152 4.68981 9.17743 4.58178 9.09379 4.45981C8.90465 4.18159 8.79489 3.85709 8.7763 3.52117C8.75772 3.18525 8.83101 2.85062 8.98831 2.55323C9.1456 2.25584 9.38096 2.00692 9.66908 1.83323C9.9572 1.65954 10.2872 1.56763 10.6236 1.56739C11.6447 1.56739 12.4741 2.39678 12.4741 3.41784C12.4741 3.78724 12.3626 4.14966 12.1535 4.45633C12.0733 4.57481 11.9758 4.68284 11.8712 4.78042C12.6658 5.0383 13.3627 5.53663 13.868 6.22315C14.1538 5.69694 14.3176 5.09754 14.3176 4.45981C14.3176 2.41769 12.6623 0.76239 10.6202 0.76239C8.57803 0.76239 6.92273 2.41769 6.92273 4.45981C6.92273 5.10103 7.09 5.69694 7.37228 6.22315C7.88455 5.54012 8.585 5.04178 9.37606 4.78391Z" fill="white"/>
<path d="M10.5992 4.58178H10.648C11.0244 4.57481 11.3729 4.38663 11.5854 4.07648C11.7179 3.88132 11.7876 3.65481 11.7876 3.42132C11.7876 2.78011 11.2648 2.25739 10.6236 2.25739C9.98241 2.25739 9.45969 2.78011 9.45969 3.42132C9.45969 3.65481 9.52938 3.88132 9.66181 4.07648C9.87438 4.38663 10.2229 4.57481 10.5992 4.58178ZM18.7712 12.7084H18.813C19.1197 12.7015 19.4054 12.5481 19.5797 12.2937C19.6768 12.15 19.733 11.9826 19.7422 11.8094C19.7514 11.6361 19.7134 11.4637 19.6321 11.3104C19.5508 11.1572 19.4294 11.0289 19.2808 10.9394C19.1322 10.8499 18.9621 10.8025 18.7886 10.8022C18.54 10.8063 18.3028 10.9073 18.1276 11.0838C17.9524 11.2603 17.853 11.4982 17.8508 11.7468C17.8485 11.9955 17.9434 12.2352 18.1154 12.4149C18.2874 12.5945 18.5227 12.6998 18.7712 12.7084Z" fill="white"/>
<path d="M18.7921 9.47101C17.0357 9.47101 15.6104 10.8963 15.6104 12.6527C15.6104 13.1859 15.7464 13.6807 15.9764 14.1233C16.4015 13.5553 16.9765 13.1371 17.6282 12.9071C17.5585 12.8374 17.4923 12.7607 17.4365 12.6771C17.2518 12.4018 17.1542 12.0812 17.1542 11.7536C17.1542 10.851 17.8895 10.1122 18.7921 10.1122C19.6947 10.1122 20.4335 10.8475 20.4335 11.7536C20.4335 12.0812 20.3359 12.4018 20.1512 12.6736C20.0954 12.7572 20.0292 12.8339 19.956 12.9036C20.6112 13.1336 21.1862 13.5518 21.6079 14.1198C21.8474 13.6666 21.973 13.1618 21.9738 12.6492C21.9738 10.8963 20.5485 9.47101 18.7921 9.47101Z" fill="white"/>
<path d="M18.827 13.3949C18.8165 13.3949 18.8061 13.3984 18.7956 13.3984C18.7851 13.3984 18.7747 13.3949 18.7642 13.3949C18.3071 13.3999 17.8579 13.5153 17.455 13.7313C17.0521 13.9473 16.7074 14.2576 16.4503 14.6356C16.4294 14.6669 16.4015 14.6913 16.3736 14.7122C16.6717 15.0638 17.0427 15.3464 17.461 15.5401C17.8792 15.7339 18.3346 15.8343 18.7956 15.8343C19.7679 15.8343 20.6356 15.3987 21.2211 14.7122C21.1913 14.6912 21.1654 14.6653 21.1444 14.6356C20.8865 14.2575 20.5412 13.9473 20.1377 13.7313C19.7342 13.5153 19.2846 13.3999 18.827 13.3949ZM16.7361 6.78767C16.7221 6.8051 16.7047 6.81555 16.6873 6.82949C17.1577 7.29995 17.8024 7.58919 18.5203 7.58919C19.2382 7.58919 19.8864 7.29646 20.3533 6.82601C20.3359 6.81207 20.3185 6.80161 20.3045 6.78419C19.8724 6.22661 19.2242 5.90601 18.5203 5.90601C17.8164 5.90601 17.1682 6.2301 16.7361 6.78767Z" fill="white"/>
<path d="M17.4609 5.42161C17.2407 5.16838 17.1194 4.84414 17.1194 4.50858C17.1194 3.73843 17.7467 3.11115 18.5168 3.11115C18.7842 3.11174 19.0459 3.18893 19.2708 3.33357C19.4957 3.47822 19.6745 3.68428 19.7859 3.92735C19.8974 4.17043 19.9368 4.44035 19.8997 4.70516C19.8625 4.96998 19.7503 5.2186 19.5762 5.42161C20.0327 5.59934 20.4405 5.88858 20.7645 6.2754C20.9771 5.89903 21.1095 5.46691 21.1095 5.00343C21.1095 3.57115 19.9491 2.41418 18.5203 2.41418C17.088 2.41418 15.9311 3.57464 15.9311 5.00343C15.9311 5.46691 16.06 5.89903 16.2761 6.2754C16.5924 5.89516 17.0001 5.6014 17.4609 5.42161Z" fill="white"/>
<path d="M18.5203 5.22303C18.6137 5.22335 18.7063 5.20518 18.7927 5.16957C18.8791 5.13396 18.9576 5.0816 19.0237 5.01552C19.0898 4.94945 19.1421 4.87095 19.1777 4.78455C19.2134 4.69815 19.2315 4.60557 19.2312 4.51212C19.2312 4.11833 18.9106 3.80121 18.5203 3.80121C18.13 3.80121 17.8094 4.12181 17.8094 4.51212C17.8094 4.655 17.8512 4.79439 17.9348 4.91288C18.0673 5.10803 18.2868 5.22303 18.5203 5.22303ZM11.1882 13.3671C11.23 13.3845 11.2753 13.395 11.3206 13.395C11.453 13.395 11.582 13.3148 11.6377 13.1859L12.3312 11.5236C12.3765 11.4191 12.3626 11.2971 12.2998 11.1995C12.2684 11.1526 12.2258 11.1141 12.176 11.0873C12.1262 11.0606 12.0706 11.0465 12.0141 11.0462H11.1254L11.5645 9.91015C11.5939 9.82635 11.5895 9.73443 11.5523 9.65381C11.5151 9.57318 11.4481 9.51016 11.3653 9.47804C11.2825 9.44593 11.1905 9.44724 11.1087 9.4817C11.0269 9.51616 10.9617 9.58107 10.9268 9.66272L10.303 11.2623C10.2612 11.3668 10.2751 11.4853 10.3414 11.5794C10.4041 11.6735 10.5121 11.7292 10.6236 11.7292H11.4983L11.0035 12.9176C10.9687 13.0017 10.9686 13.0962 11.0032 13.1804C11.0378 13.2646 11.1043 13.3317 11.1882 13.3671ZM3.01969 5.98272C3.09287 6.06636 3.20438 6.11166 3.31938 6.09772C3.4309 6.08378 3.52847 6.01757 3.58075 5.91651L3.98499 5.13939L4.80741 6.12909C4.87711 6.20924 4.97469 6.25454 5.07226 6.25454C5.14893 6.25454 5.22559 6.23015 5.29181 6.17439C5.43817 6.05242 5.45908 5.83636 5.33711 5.69L4.18362 4.30303C4.14755 4.25962 4.10132 4.22579 4.04905 4.20451C3.99677 4.18324 3.94006 4.17518 3.88393 4.18106C3.82761 4.1864 3.77353 4.20578 3.72665 4.23744C3.67977 4.2691 3.64159 4.31202 3.61559 4.36227L3.20438 5.14984L2.40287 4.23681C2.27741 4.09394 2.06135 4.08 1.91847 4.20545C1.77559 4.33091 1.76166 4.54697 1.88711 4.68984L3.01969 5.98272ZM17.8059 18.3505L16.9486 18.5944L17.0601 17.3817C17.0776 17.1935 16.9382 17.0262 16.75 17.0088C16.5618 16.9914 16.3945 17.1308 16.3771 17.3189L16.2203 19.03C16.2098 19.1415 16.2551 19.253 16.3423 19.3262C16.4294 19.3994 16.5479 19.4238 16.6559 19.3924L17.4957 19.152L17.3424 20.4309C17.3371 20.4755 17.3406 20.5208 17.3528 20.5641C17.3649 20.6073 17.3855 20.6478 17.4134 20.6831C17.4412 20.7183 17.4758 20.7478 17.515 20.7697C17.5543 20.7916 17.5975 20.8056 17.6421 20.8108C17.656 20.8108 17.67 20.8142 17.6839 20.8142C17.8547 20.8142 18.0045 20.6853 18.0254 20.5111L18.238 18.7198C18.2446 18.6635 18.2372 18.6064 18.2165 18.5535C18.1959 18.5006 18.1626 18.4537 18.1195 18.4167C18.0764 18.3812 18.0254 18.3567 17.9708 18.3451C17.9162 18.3336 17.8596 18.3354 17.8059 18.3505ZM8.53969 17.8486C7.5465 18.8418 5.93302 18.9533 4.87711 18.0298C4.59151 17.7816 4.36275 17.4748 4.2064 17.1302C4.05005 16.7856 3.96978 16.4114 3.97105 16.033C3.96756 15.357 4.22544 14.6809 4.74469 14.1617L6.75544 12.1509L4.04075 9.43621L1.92544 11.5515C-0.608042 14.085 -0.608042 18.1901 1.92544 20.7201L1.92893 20.7236C4.46241 23.2571 8.56756 23.2571 11.0976 20.7236L13.2129 18.6083L10.4982 15.8936L8.53969 17.8486Z" fill="white"/>
</svg>
