<svg width="24" height="24" viewBox="0 0 24 24" fill="none" xmlns="http://www.w3.org/2000/svg">
<path d="M2.58617 16.3662H3.01562V22.4756H4.45312V16.3662H4.88257L3.73437 14.5287L2.58617 16.3662ZM19.5469 9.53811H20.9844V3.42873H21.4138L20.2656 1.59125L19.1174 3.42873H19.5469V9.53811ZM16.3125 14.7688C17.8851 13.5922 18.8281 11.7493 18.8281 9.73253C18.8281 6.25665 16.0002 3.42873 12.5243 3.42873H11.4757C7.99979 3.42873 5.17187 6.25665 5.17187 9.73253C5.17187 11.7493 6.11487 13.5922 7.68749 14.7688V13.1319H9.12499V15.6051L9.48437 15.7848V17.085H11.2812V13.8506H12.7187V17.085H14.5156V15.7848L14.875 15.6051V10.2569H16.3125V14.7688ZM15.5937 8.81936C15.3379 8.8181 15.0871 8.74783 14.8678 8.61595L13.2341 10.2497C13.3602 10.4635 13.4375 10.7093 13.4375 10.9756C13.4375 11.3569 13.286 11.7225 13.0165 11.9921C12.7469 12.2617 12.3812 12.4131 12 12.4131C11.3308 12.4131 10.7738 11.9538 10.6132 11.335H9.02509C8.90074 11.5488 8.67146 11.6944 8.40589 11.6944C8.21526 11.6944 8.03244 11.6186 7.89765 11.4838C7.76286 11.349 7.68714 11.1662 7.68714 10.9756C7.68714 10.785 7.76286 10.6022 7.89765 10.4674C8.03244 10.3326 8.21526 10.2569 8.40589 10.2569C8.6711 10.2569 8.90038 10.4024 9.02509 10.6162H10.6132C10.6921 10.3082 10.8712 10.0352 11.1222 9.84002C11.3733 9.64487 11.682 9.53866 12 9.53811C12.2663 9.53811 12.5121 9.61537 12.7259 9.74151L14.3597 8.10779C14.2278 7.88852 14.1575 7.63773 14.1562 7.38186C14.1562 7.09755 14.2406 6.81962 14.3985 6.58322C14.5565 6.34683 14.781 6.16258 15.0436 6.05378C15.3063 5.94498 15.5953 5.91651 15.8742 5.97198C16.153 6.02744 16.4092 6.16435 16.6102 6.36539C16.8112 6.56643 16.9482 6.82257 17.0036 7.10141C17.0591 7.38026 17.0306 7.6693 16.9218 7.93196C16.813 8.19463 16.6288 8.41914 16.3924 8.57709C16.156 8.73505 15.8781 8.81936 15.5937 8.81936ZM10.5625 17.8037H13.4375V18.5225H10.5625V17.8037ZM9.84374 19.2412H9.48437V19.6006C9.48437 20.9878 10.6132 22.1162 12 22.1162C13.3868 22.1162 14.5156 20.9878 14.5156 19.6006V19.2412H14.1562H9.84374Z" fill="white"/>
<path d="M2.33317 8.1261L3.34948 9.14277L3.36566 9.1266C3.51224 8.98019 3.69892 8.88049 3.90211 8.84006C4.10531 8.79964 4.31593 8.82032 4.50739 8.89948C4.55159 8.52752 4.62706 8.16491 4.72733 7.81309C4.31993 7.60061 3.9785 7.28061 3.7401 6.88782C3.5017 6.49503 3.37543 6.04444 3.375 5.58496C3.375 4.19705 4.50272 3.06934 5.89062 3.06934C6.59428 3.06934 7.2293 3.36151 7.68606 3.82834C8.22476 3.47966 8.80898 3.20696 9.4222 3.01795L8.43177 2.02751L8.41559 2.04368C8.26854 2.19068 8.08109 2.29063 7.87708 2.33081C7.67308 2.371 7.46173 2.34961 7.26991 2.26937C7.07508 2.19154 6.90803 2.05713 6.7903 1.88348C6.67257 1.70983 6.60955 1.5049 6.60938 1.2951V1.27246H5.17188V1.2951C5.17209 1.50358 5.11006 1.70737 4.99372 1.88037C4.87739 2.05337 4.71205 2.18769 4.51889 2.26613C4.11567 2.43216 3.66645 2.34412 3.36566 2.04332L3.34948 2.02751L2.33317 3.04382L2.34934 3.05999C2.49643 3.20699 2.59643 3.39445 2.63662 3.59847C2.67681 3.8025 2.65537 4.01388 2.57503 4.20568C2.4972 4.40051 2.3628 4.56755 2.18915 4.68528C2.0155 4.80301 1.81056 4.86603 1.60077 4.86621H1.57812V6.30371H1.60077C2.0277 6.30371 2.40864 6.55995 2.57144 6.9567C2.65349 7.14923 2.67612 7.3619 2.63642 7.56739C2.59672 7.77288 2.4965 7.96182 2.34863 8.10993L2.33317 8.1261Z" fill="white"/>
<path d="M6.54936 4.74115C6.36249 4.591 6.13035 4.50843 5.89063 4.50684C5.66224 4.50715 5.43986 4.57999 5.25553 4.71485C5.07121 4.84971 4.93448 5.03961 4.86504 5.25719C4.79561 5.47477 4.79706 5.70877 4.8692 5.92547C4.94133 6.14217 5.08041 6.33036 5.2664 6.46291C5.60375 5.82693 6.03641 5.24629 6.54936 4.74115ZM21.343 14.9391C21.2454 14.7053 21.2001 14.4529 21.2105 14.1997C21.2209 13.9465 21.2866 13.6987 21.4031 13.4736L20.2829 12.3534C19.8847 12.5595 19.422 12.6029 18.9924 12.4745C18.8504 12.8106 18.679 13.1322 18.4871 13.4409C19.746 14.0004 20.625 15.2593 20.625 16.7256C20.625 18.7104 19.0161 20.3193 17.0313 20.3193C16.3951 20.3196 15.7705 20.15 15.2218 19.8281C15.1951 20.2149 15.0988 20.5938 14.9375 20.9464C15.0428 20.9687 15.1467 20.9968 15.2473 21.0384C15.4816 21.1345 15.692 21.2808 15.8635 21.4671C16.035 21.6534 16.1635 21.8751 16.2399 22.1166H17.8237C17.9004 21.875 18.0293 21.6532 18.2011 21.4669C18.3729 21.2805 18.5835 21.1341 18.8181 21.0381C19.0518 20.9402 19.3042 20.8949 19.5573 20.9053C19.8105 20.9156 20.0583 20.9815 20.2832 21.0981L21.4038 19.9779C21.2873 19.7527 21.2216 19.5046 21.2113 19.2512C21.201 18.9979 21.2463 18.7453 21.3441 18.5113C21.4402 18.2769 21.5865 18.0665 21.7728 17.8949C21.9591 17.7232 22.1808 17.5946 22.4222 17.518V15.9342C22.1806 15.8573 21.9587 15.7283 21.7723 15.5564C21.5858 15.3844 21.4393 15.1738 21.343 14.9391Z" fill="white"/>
<path d="M15.5553 16.0687L15.2344 16.3784V17.085C15.2344 17.2708 15.1614 17.4389 15.0453 17.5665C15.2398 18.0241 15.5862 18.4004 16.0262 18.6319C16.4661 18.8633 16.9725 18.9358 17.4597 18.8368C17.9469 18.7379 18.3849 18.4738 18.6998 18.0891C19.0146 17.7044 19.1869 17.2227 19.1875 16.7256C19.1874 16.2444 19.0263 15.777 18.7298 15.3979C18.4334 15.0188 18.0186 14.7498 17.5516 14.6337C17.004 15.1956 16.3663 15.662 15.6649 16.0137L15.5553 16.0687Z" fill="white"/>
<path d="M12 11.335C12.1985 11.335 12.3594 11.1741 12.3594 10.9756C12.3594 10.7771 12.1985 10.6162 12 10.6162C11.8015 10.6162 11.6406 10.7771 11.6406 10.9756C11.6406 11.1741 11.8015 11.335 12 11.335Z" fill="white"/>
<path d="M15.5938 7.74121C15.7922 7.74121 15.9531 7.58031 15.9531 7.38184C15.9531 7.18336 15.7922 7.02246 15.5938 7.02246C15.3953 7.02246 15.2344 7.18336 15.2344 7.38184C15.2344 7.58031 15.3953 7.74121 15.5938 7.74121Z" fill="white"/>
</svg>
