<svg width="23" height="23" viewBox="0 0 23 23" fill="none" xmlns="http://www.w3.org/2000/svg">
<path d="M6.04505 13.9488V13.9209C6.045 11.5763 6.92274 9.36556 8.52246 7.65995H0V17.6041C0 17.8888 0.230855 18.1197 0.515617 18.1197H7.05522C6.45258 16.8978 6.10965 15.5031 6.04622 13.9768L6.04505 13.9488ZM15.2031 4.75371H15.2213C15.8166 4.75371 16.3986 4.8117 16.9628 4.92109V1.81615C16.9628 1.53139 16.7319 1.30054 16.4471 1.30054H0.515617C0.230855 1.30054 0 1.53139 0 1.81615V6.31224H10.1009C11.6 5.29879 13.3616 4.75371 15.2031 4.75371ZM4.06456 3.82427C4.06456 4.1964 3.76287 4.4981 3.39073 4.4981C3.01859 4.4981 2.7169 4.1964 2.7169 3.82427V3.7842C2.7169 3.41206 3.01859 3.11036 3.39073 3.11036C3.76287 3.11036 4.06456 3.41206 4.06456 3.7842V3.82427ZM6.7599 3.82427C6.7599 4.1964 6.4582 4.4981 6.08606 4.4981C5.71393 4.4981 5.41223 4.1964 5.41223 3.82427V3.7842C5.41223 3.41206 5.71393 3.11036 6.08606 3.11036C6.4582 3.11036 6.7599 3.41206 6.7599 3.7842V3.82427ZM9.45523 3.82427C9.45523 4.1964 9.15353 4.4981 8.7814 4.4981C8.40926 4.4981 8.10756 4.1964 8.10756 3.82427V3.7842C8.10756 3.41206 8.40926 3.11036 8.7814 3.11036C9.15353 3.11036 9.45523 3.41206 9.45523 3.7842V3.82427ZM10.9435 7.3733L15.1891 12.8035L19.4502 7.35354C18.2249 6.55963 16.7677 6.09958 15.2122 6.10138C13.6432 6.09958 12.1748 6.56735 10.9435 7.3733ZM23 13.2238C22.8234 11.2323 21.8981 9.45945 20.5143 8.18051L16.5713 13.2238H23Z" fill="white"/>
<path d="M15.1896 14.5715L15.1892 14.5714H15.189C15.0867 14.5715 14.9857 14.5482 14.8937 14.5034C14.8017 14.4586 14.7212 14.3933 14.6582 14.3127L9.88304 8.20508C8.35492 9.63051 7.39269 11.6611 7.39273 13.9208C7.81473 24.0788 21.9841 24.2799 22.9837 14.5714H15.1901L15.1896 14.5715Z" fill="white"/>
</svg>
