<svg width="132" height="34" viewBox="0 0 132 34" fill="none" xmlns="http://www.w3.org/2000/svg">
<path d="M0.52 0.799998H10.42C13.876 0.799998 16.744 2.012 19.024 4.436C21.328 6.86 22.48 9.848 22.48 13.4C22.48 16.928 21.328 19.916 19.024 22.364C16.744 24.788 13.876 26 10.42 26H0.52V0.799998ZM4.66 22.04H10.42C12.796 22.04 14.728 21.224 16.216 19.592C17.728 17.96 18.484 15.896 18.484 13.4C18.484 10.904 17.728 8.84 16.216 7.208C14.728 5.576 12.796 4.76 10.42 4.76H4.66V22.04ZM40.2584 10.556V8H44.1464V26H40.2584V23.408C38.7944 25.448 36.6944 26.468 33.9584 26.468C31.4864 26.468 29.3744 25.556 27.6224 23.732C25.8704 21.908 24.9944 19.664 24.9944 17C24.9944 14.336 25.8704 12.092 27.6224 10.268C29.3744 8.444 31.4864 7.532 33.9584 7.532C36.6944 7.532 38.7944 8.54 40.2584 10.556ZM30.5024 21.14C31.5824 22.22 32.9384 22.76 34.5704 22.76C36.2024 22.76 37.5584 22.22 38.6384 21.14C39.7184 20.036 40.2584 18.656 40.2584 17C40.2584 15.344 39.7184 13.976 38.6384 12.896C37.5584 11.792 36.2024 11.24 34.5704 11.24C32.9384 11.24 31.5824 11.792 30.5024 12.896C29.4224 13.976 28.8824 15.344 28.8824 17C28.8824 18.632 29.4224 20.012 30.5024 21.14ZM56.2022 21.068L60.8102 8H64.9502L58.0382 26.576C56.3102 31.232 53.3822 33.44 49.2542 33.2V29.564C50.4542 29.636 51.4262 29.384 52.1702 28.808C52.9142 28.232 53.5382 27.308 54.0422 26.036L54.2222 25.676L46.5902 8H50.8382L56.2022 21.068ZM81.9062 23.732C80.0822 25.556 77.8382 26.468 75.1742 26.468C72.5102 26.468 70.2662 25.556 68.4422 23.732C66.5942 21.884 65.6702 19.64 65.6702 17C65.6702 14.36 66.5942 12.116 68.4422 10.268C70.2662 8.444 72.5102 7.532 75.1742 7.532C77.8382 7.532 80.0822 8.444 81.9062 10.268C83.7542 12.116 84.6782 14.36 84.6782 17C84.6782 19.64 83.7542 21.884 81.9062 23.732ZM69.5582 17C69.5582 18.632 70.0982 19.988 71.1782 21.068C72.2582 22.148 73.5902 22.688 75.1742 22.688C76.7582 22.688 78.0902 22.148 79.1702 21.068C80.2502 19.988 80.7902 18.632 80.7902 17C80.7902 15.368 80.2502 14.012 79.1702 12.932C78.0902 11.852 76.7582 11.312 75.1742 11.312C73.5902 11.312 72.2582 11.852 71.1782 12.932C70.0982 14.012 69.5582 15.368 69.5582 17ZM107.85 7.532C109.89 7.532 111.534 8.192 112.782 9.512C114.03 10.832 114.654 12.608 114.654 14.84V26H110.766V15.092C110.766 13.868 110.454 12.908 109.83 12.212C109.206 11.516 108.354 11.168 107.274 11.168C106.05 11.168 105.09 11.576 104.394 12.392C103.698 13.184 103.35 14.36 103.35 15.92V26H99.4618V15.092C99.4618 13.844 99.1618 12.884 98.5618 12.212C97.9858 11.516 97.1578 11.168 96.0778 11.168C94.8778 11.168 93.9058 11.576 93.1618 12.392C92.4418 13.208 92.0818 14.384 92.0818 15.92V26H88.1938V8H92.0818V10.16C93.2338 8.408 94.9498 7.532 97.2298 7.532C99.5338 7.532 101.238 8.48 102.342 10.376C103.518 8.48 105.354 7.532 107.85 7.532ZM122.487 4.58C122.007 5.06 121.431 5.3 120.759 5.3C120.087 5.3 119.499 5.06 118.995 4.58C118.515 4.076 118.275 3.488 118.275 2.816C118.275 2.144 118.515 1.568 118.995 1.088C119.475 0.583998 120.063 0.331998 120.759 0.331998C121.455 0.331998 122.043 0.583998 122.523 1.088C123.003 1.568 123.243 2.144 123.243 2.816C123.243 3.488 122.991 4.076 122.487 4.58ZM122.703 26H118.815V8H122.703V26ZM130.889 4.58C130.409 5.06 129.833 5.3 129.161 5.3C128.489 5.3 127.901 5.06 127.397 4.58C126.917 4.076 126.677 3.488 126.677 2.816C126.677 2.144 126.917 1.568 127.397 1.088C127.877 0.583998 128.465 0.331998 129.161 0.331998C129.857 0.331998 130.445 0.583998 130.925 1.088C131.405 1.568 131.645 2.144 131.645 2.816C131.645 3.488 131.393 4.076 130.889 4.58ZM131.105 26H127.217V8H131.105V26Z" fill="white"/>
</svg>
