<svg width="80" height="34" viewBox="0 0 80 34" fill="none" xmlns="http://www.w3.org/2000/svg">
<path d="M4.66 0.799998V22.04H14.92V26H0.52V0.799998H4.66ZM32.4062 23.732C30.5822 25.556 28.3382 26.468 25.6742 26.468C23.0102 26.468 20.7662 25.556 18.9422 23.732C17.0942 21.884 16.1702 19.64 16.1702 17C16.1702 14.36 17.0942 12.116 18.9422 10.268C20.7662 8.444 23.0102 7.532 25.6742 7.532C28.3382 7.532 30.5822 8.444 32.4062 10.268C34.2542 12.116 35.1782 14.36 35.1782 17C35.1782 19.64 34.2542 21.884 32.4062 23.732ZM20.0582 17C20.0582 18.632 20.5982 19.988 21.6782 21.068C22.7582 22.148 24.0902 22.688 25.6742 22.688C27.2582 22.688 28.5902 22.148 29.6702 21.068C30.7502 19.988 31.2902 18.632 31.2902 17C31.2902 15.368 30.7502 14.012 29.6702 12.932C28.5902 11.852 27.2582 11.312 25.6742 11.312C24.0902 11.312 22.7582 11.852 21.6782 12.932C20.5982 14.012 20.0582 15.368 20.0582 17ZM53.0218 10.664V8H56.8378V25.172C56.8378 27.908 55.9378 30.008 54.1378 31.472C52.3618 32.936 50.1778 33.668 47.5858 33.668C43.4338 33.668 40.5898 32.216 39.0538 29.312L42.4018 27.368C43.3378 29.216 45.0898 30.14 47.6578 30.14C49.3378 30.14 50.6458 29.696 51.5818 28.808C52.5418 27.944 53.0218 26.732 53.0218 25.172V22.976C51.5578 25.064 49.4698 26.108 46.7578 26.108C44.2378 26.108 42.0898 25.208 40.3138 23.408C38.5618 21.584 37.6858 19.388 37.6858 16.82C37.6858 14.228 38.5618 12.044 40.3138 10.268C42.0658 8.444 44.2138 7.532 46.7578 7.532C49.4698 7.532 51.5578 8.576 53.0218 10.664ZM43.1938 20.852C44.2978 21.932 45.6658 22.472 47.2978 22.472C48.9298 22.472 50.2858 21.932 51.3658 20.852C52.4698 19.772 53.0218 18.428 53.0218 16.82C53.0218 15.212 52.4698 13.868 51.3658 12.788C50.2858 11.708 48.9298 11.168 47.2978 11.168C45.6658 11.168 44.2978 11.708 43.1938 12.788C42.1138 13.868 41.5738 15.212 41.5738 16.82C41.5738 18.428 42.1138 19.772 43.1938 20.852ZM76.5976 23.732C74.7736 25.556 72.5296 26.468 69.8656 26.468C67.2016 26.468 64.9576 25.556 63.1336 23.732C61.2856 21.884 60.3616 19.64 60.3616 17C60.3616 14.36 61.2856 12.116 63.1336 10.268C64.9576 8.444 67.2016 7.532 69.8656 7.532C72.5296 7.532 74.7736 8.444 76.5976 10.268C78.4456 12.116 79.3696 14.36 79.3696 17C79.3696 19.64 78.4456 21.884 76.5976 23.732ZM64.2496 17C64.2496 18.632 64.7896 19.988 65.8696 21.068C66.9496 22.148 68.2816 22.688 69.8656 22.688C71.4496 22.688 72.7816 22.148 73.8616 21.068C74.9416 19.988 75.4816 18.632 75.4816 17C75.4816 15.368 74.9416 14.012 73.8616 12.932C72.7816 11.852 71.4496 11.312 69.8656 11.312C68.2816 11.312 66.9496 11.852 65.8696 12.932C64.7896 14.012 64.2496 15.368 64.2496 17Z" fill="white"/>
</svg>
