<svg width="24" height="25" viewBox="0 0 24 25" fill="none" xmlns="http://www.w3.org/2000/svg">
<path fill-rule="evenodd" clip-rule="evenodd" d="M12 24.2041C5.37364 24.2041 0 18.8305 0 12.2041C0 5.57774 5.37364 0.204102 12 0.204102C18.6264 0.204102 24 5.57774 24 12.2041C24 18.8305 18.6264 24.2041 12 24.2041ZM12 4.39881C15.2827 4.39881 17.9438 7.05988 17.9438 10.3426C17.9438 13.6252 12 20.0093 12 20.0093C12 20.0093 6.05622 13.6252 6.05622 10.3426C6.05622 7.05988 8.71729 4.39881 12 4.39881ZM12 7.98105C13.2446 7.98105 14.2539 8.99037 14.2539 10.2351C14.2539 11.4797 13.2446 12.489 12 12.489C10.7554 12.489 9.74608 11.4797 9.74608 10.2351C9.74608 8.99037 10.7554 7.98105 12 7.98105Z" fill="#46EDA2"/>
</svg>
