<svg width="24" height="25" viewBox="0 0 24 25" fill="none" xmlns="http://www.w3.org/2000/svg">
<path fill-rule="evenodd" clip-rule="evenodd" d="M12 0.204102C18.6274 0.204102 24 5.57668 24 12.2041C24 18.8315 18.6274 24.2041 12 24.2041C5.37258 24.2041 0 18.8315 0 12.2041C0 5.57668 5.37258 0.204102 12 0.204102ZM19.6172 16.856V7.93745L15.1576 12.3967L19.6172 16.856ZM5.3355 17.0377H18.6648L14.591 12.9639L13.0383 14.5163C12.963 14.5914 12.8611 14.6335 12.7547 14.6335H11.2454C11.1927 14.6335 11.1405 14.6232 11.0919 14.6031C11.0432 14.583 10.999 14.5535 10.9617 14.5163L9.40912 12.9639L5.33531 17.0377H5.3355ZM4.38281 7.93716V16.8563L8.84236 12.3967L4.38281 7.93716ZM19.0503 7.37049H4.95L11.4114 13.8319H12.5888L19.0503 7.37049Z" fill="#46EDA2"/>
</svg>
