<svg width="320" height="568" viewBox="0 0 320 568" fill="none" xmlns="http://www.w3.org/2000/svg">
<g opacity="0.15">
<path d="M-91.3224 640.839C-95.6885 614.488 -98.4714 587.691 -99.6631 560.629C-100.188 548.597 -100.366 536.226 -96.5398 524.32C-86.7778 493.892 -54.7005 475.775 -25.1755 465.292C2.01441 455.636 29.9515 449.203 57.8617 446.181C85.5232 443.183 113.626 443.423 140.575 433.926C167.531 424.422 194.008 401.974 198.597 373.601C201.327 356.715 195.84 340.173 186.511 327.425C177.175 314.671 164.257 305.281 150.868 297.071C135.533 287.669 118.644 278.898 110.06 262.775C101.167 246.088 103.463 222.866 115.676 205.918C133.052 181.811 163.786 174.43 190.914 165.281C225.375 153.656 259.717 135.04 283.054 105.337C306.39 75.6487 316.125 33.2591 299.65 3.35089" stroke="white" stroke-width="0.5" stroke-miterlimit="10"/>
<path d="M-83.6022 642.51C-87.9245 616.615 -90.5712 590.243 -91.5696 563.641C-92.0086 551.816 -92.0937 539.658 -88.3448 527.956C-80.8119 504.454 -60.0575 488.203 -37.5943 477.09C-31.4802 474.057 -25.2293 471.407 -19.0906 469.089C7.3166 459.137 34.5347 452.335 61.7967 448.834C88.8099 445.371 116.329 445.204 142.731 435.55C157.528 430.137 172.231 421.19 183.587 409.596C193.479 399.492 200.823 387.253 203.212 373.656C203.642 371.225 203.9 368.801 204.003 366.395C204.63 351.526 199.254 337.348 191.06 325.919C188.427 322.25 185.525 318.831 182.424 315.61C174.33 307.214 164.906 300.141 155.363 293.61C140.229 283.233 124.264 273.152 116.224 256.462C108.242 239.88 110.313 217.497 122.165 200.89C139.031 177.264 168.634 169.578 194.646 160.167C196.69 159.426 198.748 158.654 200.784 157.864C231.696 145.85 261.656 127.743 282.167 100.492C304.042 71.4299 312.716 30.4287 296.252 1.61199" stroke="#F9F9F9" stroke-width="0.5" stroke-miterlimit="10"/>
<path d="M-75.8954 644.186C-80.1681 618.739 -82.687 592.811 -83.4864 566.645C-83.8472 555.019 -83.8256 543.071 -80.1545 531.573C-72.7772 508.479 -52.7186 492.298 -30.9729 481.047C-25.0507 477.972 -18.9917 475.266 -13.0307 472.875C12.6017 462.633 39.1019 455.448 65.7097 451.478C92.0759 447.551 119.012 446.949 144.86 437.175C160.07 431.423 175.22 422.298 187.081 410.475C197.377 400.198 205.174 387.671 207.809 373.717C208.281 371.223 208.582 368.72 208.712 366.224C209.528 350.873 203.956 336.288 195.596 324.391C192.911 320.575 189.958 317.009 186.828 313.646C178.653 304.859 169.239 297.246 159.834 290.132C144.913 278.776 129.851 267.422 122.353 250.119C115.236 233.69 117.111 212.097 128.601 195.829C144.958 172.684 173.431 164.695 198.327 155.02C200.285 154.261 202.251 153.464 204.203 152.655C233.757 140.364 262.104 122.272 281.252 95.6048C301.665 67.1814 309.277 27.5514 292.822 -0.176738" stroke="#F4F4F4" stroke-width="0.5" stroke-miterlimit="10"/>
<path d="M-68.2036 645.865C-72.4197 620.871 -74.8107 595.374 -75.4252 569.661C-75.6936 558.232 -75.5865 546.504 -71.979 535.209C-64.743 512.521 -45.3945 496.41 -24.3523 485.02C-18.6078 481.902 -12.7478 479.132 -6.96452 476.669C17.8859 466.131 43.6679 458.563 69.6286 454.129C95.3477 449.738 121.709 448.679 147.003 438.798C162.624 432.692 178.223 423.405 190.58 411.361C201.28 400.912 209.531 388.082 212.413 373.769C212.934 371.204 213.27 368.631 213.428 366.059C214.418 350.227 208.658 335.242 200.13 322.877C197.401 318.92 194.397 315.207 191.237 311.687C182.973 302.503 173.577 294.371 164.31 286.658C149.589 274.324 135.442 261.74 128.494 243.786C122.208 227.552 123.928 206.714 135.065 190.778C150.912 168.113 178.254 159.82 202.034 149.882C203.908 149.104 205.781 148.297 207.647 147.455C235.844 134.872 262.578 116.794 280.349 90.7264C299.3 62.942 305.843 24.6913 289.396 -1.9481" stroke="#EEEEEE" stroke-width="0.5" stroke-miterlimit="10"/>
<path d="M-60.4964 647.545C-64.6698 623.006 -66.9258 597.931 -67.348 572.663C-67.538 561.433 -67.3241 549.93 -63.8014 538.832C-56.7138 516.558 -38.0684 500.511 -17.7298 488.981C-12.1772 485.821 -6.50211 482.987 -0.903724 480.459C23.1717 469.631 48.2354 461.68 73.5416 456.775C98.6062 451.928 124.384 450.39 149.132 440.424C165.165 433.964 181.204 424.507 194.065 412.25C205.178 401.634 213.875 388.509 216.996 373.832C217.559 371.203 217.937 368.553 218.123 365.904C219.295 349.584 213.339 334.192 204.636 321.367C201.85 317.271 198.809 313.409 195.612 309.741C187.273 300.158 177.88 291.508 168.744 283.204C154.222 269.893 140.984 256.114 134.586 237.482C129.096 221.467 130.697 201.344 141.472 185.763C156.809 163.579 183.015 154.974 205.685 144.78C207.466 143.977 209.254 143.152 211.028 142.299C237.867 129.438 262.995 111.366 279.397 85.8898C296.886 58.7444 302.366 21.8651 285.928 -3.68508" stroke="#E9E9E9" stroke-width="0.5" stroke-miterlimit="10"/>
<path d="M-52.7879 649.226C-56.9114 625.134 -59.0321 600.496 -59.2619 575.673C-59.3664 564.649 -59.0597 553.358 -55.6005 542.462C-48.6541 520.595 -30.719 504.618 -11.0842 492.949C-5.72354 489.747 -0.240395 486.856 5.1873 484.262C28.4803 473.137 52.8256 464.816 77.477 459.441C101.887 454.123 127.081 452.107 151.276 442.063C167.713 435.242 184.207 425.629 197.566 413.151C209.083 402.362 218.233 388.95 221.608 373.907C222.221 371.206 222.634 368.486 222.855 365.753C224.215 348.951 218.056 333.159 209.193 319.858C206.363 315.621 203.263 311.607 200.044 307.787C191.624 297.813 182.219 288.647 173.235 279.728C158.884 265.472 146.563 250.491 140.742 231.147C136.013 215.394 137.531 195.96 147.938 180.713C162.765 159.009 187.84 150.1 209.394 139.642C211.09 138.82 212.785 137.97 214.473 137.098C239.954 123.96 263.468 105.886 278.493 81.0099C294.527 54.4954 298.924 18.9978 282.509 -5.46447" stroke="#E3E3E3" stroke-width="0.5" stroke-miterlimit="10"/>
<path d="M-45.0785 650.907C-49.152 627.263 -51.1443 603.056 -51.1815 578.692C-51.2004 567.875 -50.8009 556.796 -47.4123 546.096C-40.614 524.644 -23.3823 508.729 -4.4585 496.914C0.717244 493.661 6.00833 490.714 11.2581 488.048C33.7757 476.632 57.4022 467.927 81.3916 462.074C105.154 456.292 129.757 453.775 153.412 443.666C170.261 436.478 187.211 426.708 201.059 414.018C212.988 403.062 222.585 389.355 226.206 373.94C226.861 371.161 227.316 368.377 227.565 365.568C229.1 348.285 222.76 332.085 213.722 318.323C210.84 313.94 207.697 309.785 204.441 305.817C195.932 295.445 186.545 285.76 177.699 276.241C163.539 261.001 152.093 244.896 146.87 224.802C142.852 209.337 144.33 190.559 154.39 175.65C168.707 154.427 192.651 145.212 213.081 134.485C214.692 133.644 216.295 132.768 217.891 131.886C242.013 118.455 263.921 100.401 277.575 76.1166C292.139 50.2347 295.481 16.1157 279.076 -7.25659" stroke="#DEDEDE" stroke-width="0.5" stroke-miterlimit="10"/>
<path d="M-37.375 652.584C-41.4053 629.396 -43.255 605.618 -43.0994 581.7C-43.0326 571.074 -42.5402 560.222 -39.2221 549.718C-32.5648 528.672 -16.0365 512.821 2.17612 500.873C7.15982 497.578 12.266 494.581 17.3307 491.835C39.0655 480.123 61.9731 471.034 85.3145 464.716C108.429 458.469 132.434 455.43 155.55 445.286C172.81 437.714 190.208 427.81 204.553 414.9C216.887 403.771 226.938 389.762 230.805 374.003C231.502 371.16 232 368.299 232.277 365.413C234 347.648 227.45 331.043 218.251 316.819C215.319 312.289 212.132 307.992 208.846 303.868C200.262 293.097 190.871 282.887 182.17 272.776C168.21 256.558 157.609 239.346 153.007 218.477C149.665 203.328 151.152 185.178 160.844 170.617C174.644 149.883 197.464 140.355 216.777 129.363C218.295 128.498 219.82 127.609 221.323 126.702C244.086 112.993 264.38 94.9368 276.658 71.2522C289.759 46.0092 292.032 13.2708 275.637 -9.01096" stroke="#D8D8D8" stroke-width="0.5" stroke-miterlimit="10"/>
<path d="M-29.6709 654.276C-33.6509 631.536 -35.3719 608.19 -35.0305 584.725C-34.8779 574.305 -34.2926 563.666 -31.0449 553.373C-24.5285 532.733 -8.68933 516.986 8.79051 504.873C13.5893 501.542 18.5032 498.474 23.39 495.655C44.349 483.652 66.5375 474.178 89.2235 467.389C111.689 460.676 135.096 457.102 157.68 446.928C175.345 438.981 193.191 428.928 208.04 415.804C220.787 404.509 231.284 390.205 235.398 374.074C236.144 371.16 236.669 368.222 236.988 365.258C238.886 347.013 232.154 329.999 222.788 315.306C219.812 310.635 216.574 306.192 213.251 301.919C204.578 290.75 195.204 280.021 186.634 269.319C172.873 252.123 163.09 233.836 159.129 212.154C156.428 197.346 157.945 179.8 167.276 165.579C180.567 145.326 202.255 135.492 220.451 124.236C221.884 123.352 223.309 122.447 224.727 121.521C246.131 107.533 264.811 89.4896 275.725 66.3885C287.364 41.7845 288.575 10.4189 272.19 -10.7721" stroke="#D2D2D2" stroke-width="0.5" stroke-miterlimit="10"/>
<path d="M-21.9588 655.961C-25.8883 633.669 -27.4804 610.769 -26.9389 587.742C-26.7076 577.521 -26.0221 567.101 -22.8449 557.005C-16.4764 536.78 -1.34083 521.095 15.4347 508.842C20.0414 505.469 24.7631 502.344 29.4719 499.452C49.6478 487.152 71.1171 477.308 93.1546 470.038C114.965 462.854 137.773 458.744 159.824 448.554C177.9 440.209 196.195 430.037 211.549 416.685C224.7 405.217 235.651 390.625 240.019 374.127C240.807 371.15 241.382 368.126 241.722 365.094C243.801 346.36 236.866 328.947 227.34 313.792C224.305 308.982 221.023 304.384 217.678 299.96C208.924 288.4 199.552 277.139 191.127 265.844C177.565 247.669 168.557 228.328 165.288 205.819C163.185 191.372 164.79 174.409 173.76 160.528C186.54 140.757 207.098 130.602 224.176 119.096C225.523 118.193 226.855 117.263 228.188 116.318C248.24 102.043 265.298 84.0061 274.835 61.5048C285.018 37.5316 285.161 7.54719 268.786 -12.5525" stroke="#CDCDCD" stroke-width="0.5" stroke-miterlimit="10"/>
<path d="M-14.2458 657.646C-18.1317 635.811 -19.5879 613.334 -18.846 590.759C-18.5218 580.737 -17.7502 570.538 -14.6363 560.644C-8.41571 540.82 6.02337 525.218 22.0801 512.812C26.5018 509.403 31.0313 506.206 35.5621 503.242C54.9618 490.65 75.7116 480.422 97.0935 472.68C118.248 465.038 140.457 460.362 161.983 450.164C180.457 441.422 199.214 431.129 215.065 417.557C228.629 405.923 240.019 391.03 244.633 374.174C245.471 371.125 246.081 368.031 246.449 364.923C248.717 345.707 241.586 327.886 231.877 312.264C228.799 307.314 225.466 302.569 222.091 297.988C213.255 286.022 203.901 274.241 195.606 262.355C182.25 243.194 173.968 222.826 171.433 199.47C169.9 185.389 171.607 169.007 180.223 155.472C192.494 136.182 211.919 125.721 227.872 113.959C229.127 113.031 230.381 112.088 231.614 111.126C250.299 96.5655 265.757 78.5391 273.923 56.6295C282.636 33.2889 281.717 4.69233 265.353 -14.3158" stroke="white" stroke-width="0.5" stroke-miterlimit="10"/>
<path d="M-6.53895 659.326C-10.3742 637.94 -11.6941 615.902 -10.7731 593.775C-10.3629 583.959 -9.49105 573.979 -6.46173 564.283C-0.388956 544.874 13.3464 529.335 28.6986 516.787C32.9351 513.329 37.2724 510.075 41.6251 507.053C60.2415 494.163 80.2716 483.549 100.991 475.343C121.497 467.236 143.085 461.989 164.092 451.803C182.964 442.65 202.184 432.236 218.532 418.458C232.501 406.651 244.353 391.462 249.206 374.241C250.093 371.121 250.738 367.957 251.134 364.758C253.576 345.062 246.257 326.84 236.388 310.742C233.258 305.644 229.881 300.758 226.469 296.028C217.551 283.671 208.2 271.358 200.051 258.878C186.894 238.739 179.302 217.341 177.536 193.142C176.538 179.437 178.389 163.631 186.637 150.431C198.398 131.622 216.691 120.855 231.527 108.827C232.696 107.88 233.858 106.913 235.005 105.932C252.33 91.092 266.173 73.0631 272.962 51.7533C280.212 29.0518 278.231 1.8288 261.877 -16.0874" stroke="white" stroke-width="0.5" stroke-miterlimit="10"/>
<path d="M1.17556 661.013C-2.61591 640.084 -3.79238 618.476 -2.67791 596.795C-2.1888 587.179 -1.21664 577.418 1.74231 567.919C7.67444 548.918 20.7059 533.44 35.3463 520.761C39.3907 517.259 43.5357 513.949 47.7174 510.845C65.5573 497.664 84.8677 486.665 104.931 477.987C124.788 469.413 145.77 463.594 166.245 453.421C185.513 443.844 205.196 433.337 222.042 419.339C236.423 407.366 248.722 391.882 253.822 374.303C254.751 371.12 255.438 367.878 255.862 364.602C258.486 344.417 250.971 325.788 240.934 309.235C237.76 303.997 234.324 298.958 230.89 294.078C221.891 281.328 212.578 268.471 204.538 255.41C191.623 234.259 184.614 211.88 183.689 186.814C183.198 173.504 185.222 158.242 193.116 145.388C204.367 127.061 221.528 115.987 235.246 103.695C236.329 102.729 237.398 101.736 238.453 100.744C254.418 85.6248 266.653 67.5998 272.071 46.8818C277.859 24.8193 274.809 -1.02167 258.473 -17.8538" stroke="#BCBCBC" stroke-width="0.5" stroke-miterlimit="10"/>
<path d="M8.8906 662.701C5.15007 642.221 4.10288 621.045 5.41102 599.825C5.99328 590.408 7.05171 580.868 9.94748 571.571C15.7319 552.986 28.0594 537.57 41.9878 524.744C45.84 521.2 49.8069 517.831 53.7963 514.656C70.8596 501.183 89.4429 489.807 108.857 480.648C128.065 471.608 148.426 465.204 168.389 455.049C188.048 445.054 208.201 434.448 225.545 420.229C240.331 408.083 253.084 392.311 258.43 374.36C259.409 371.104 260.131 367.793 260.582 364.441C263.395 343.773 255.677 324.745 245.472 307.723C242.241 302.346 238.768 297.158 235.297 292.129C226.209 278.982 216.913 265.591 209.004 251.953C196.295 229.815 189.849 206.436 189.822 180.496C189.808 167.57 192.027 152.871 199.567 140.364C210.308 122.518 226.337 111.138 238.936 98.5799C239.927 97.589 240.918 96.5835 241.88 95.567C256.492 80.1595 267.105 62.1399 271.151 42.0137C275.483 20.5822 271.365 -3.87662 255.033 -19.608" stroke="#B7B7B7" stroke-width="0.5" stroke-miterlimit="10"/>
<path d="M16.5998 664.399C12.9103 644.367 11.9997 623.63 13.5016 602.857C14.1629 593.64 15.3217 584.319 18.1401 575.227C23.784 557.049 35.4004 541.704 48.6169 528.745C52.2838 525.15 56.0513 521.733 59.8625 518.485C76.1419 504.713 94.0124 492.958 112.77 483.326C131.322 473.814 151.069 466.815 170.514 456.701C190.555 446.268 211.178 435.576 229.027 421.143C244.212 408.833 257.418 392.759 263.026 374.447C264.039 371.122 264.811 367.739 265.297 364.302C268.285 343.154 260.378 323.711 250.013 306.226C246.737 300.708 243.213 295.373 239.712 290.187C230.549 276.64 221.257 262.731 213.485 248.494C200.975 225.377 195.027 200.984 195.969 174.176C196.406 161.638 198.855 147.506 206.041 135.331C216.273 117.966 231.161 106.272 242.649 93.4557C243.555 92.4459 244.446 91.4234 245.323 90.388C258.567 74.6941 267.571 56.6926 270.247 37.1582C273.115 16.3658 267.928 -6.71045 251.614 -21.3571" stroke="white" stroke-width="0.5" stroke-miterlimit="10"/>
<path d="M24.3141 666.087C20.6757 646.518 19.8944 626.2 21.59 605.873C22.3374 596.862 23.5896 587.754 26.3377 578.859C31.834 561.097 42.7462 545.799 55.2578 532.713C58.7324 529.076 62.3147 525.594 65.9476 522.272C81.4503 508.209 98.5935 496.062 116.702 485.963C134.604 475.984 153.723 468.393 172.664 458.303C193.095 447.424 214.189 436.661 232.536 422.008C248.133 409.531 261.793 393.154 267.634 374.486C268.697 371.089 269.503 367.635 270.018 364.123C273.194 342.492 265.084 322.649 254.543 304.689C251.216 299.024 247.649 293.547 244.11 288.213C234.859 274.268 225.576 259.832 217.949 245.001C205.638 220.906 200.124 195.498 202.092 167.816C202.957 155.645 205.658 142.084 212.476 130.258C222.198 113.374 235.954 101.373 246.323 88.2912C247.143 87.2627 247.941 86.2148 248.733 85.1607C260.616 69.1864 268.004 51.1819 269.309 32.239C270.707 12.0791 264.466 -9.6165 248.163 -23.1703" stroke="#ABABAB" stroke-width="0.5" stroke-miterlimit="10"/>
<path d="M32.0443 667.79C28.4568 648.671 27.8049 628.799 29.6942 608.918C30.5348 600.106 31.8733 591.219 34.5582 582.526C39.9139 565.171 50.1148 549.943 61.9214 536.716C65.2038 533.037 68.5937 529.497 72.0484 526.103C86.7672 511.74 103.197 499.214 120.642 488.65C137.889 478.212 156.386 470.006 174.816 459.963C195.624 448.624 217.203 437.802 236.054 422.921C252.057 410.271 266.172 393.606 272.266 374.571C273.378 371.102 274.22 367.579 274.762 363.99C278.112 341.877 269.82 321.624 259.104 303.203C255.726 297.39 252.107 291.766 248.546 286.281C239.212 271.944 229.939 256.981 222.45 241.55C210.344 216.481 205.171 190.033 208.258 161.501C209.53 149.708 212.504 136.723 218.961 125.237C228.166 108.843 240.796 96.526 250.046 83.1778C250.774 82.1239 251.487 81.0573 252.185 79.9923C262.715 63.7293 268.487 45.7357 268.413 27.3922C268.347 7.87073 261.044 -12.4508 244.752 -24.9118" stroke="#A6A6A6" stroke-width="0.5" stroke-miterlimit="10"/>
<path d="M39.7743 669.495C36.2378 650.824 35.7153 631.384 37.8056 611.957C38.7253 603.344 40.1644 594.677 42.779 586.18C47.9942 569.233 57.4767 554.068 68.5782 540.699C71.6682 536.978 74.8727 533.373 78.1564 529.912C92.0982 515.257 107.808 502.344 124.589 491.3C141.186 480.395 159.048 471.576 176.967 461.579C198.143 449.775 220.215 438.886 239.565 423.799C255.98 410.983 270.542 394.022 276.883 374.614C278.038 371.082 278.921 367.48 279.499 363.807C283.03 341.205 274.535 320.551 263.665 301.659C260.236 295.713 256.572 289.934 252.974 284.299C243.558 269.555 234.302 254.073 226.936 238.057C215.036 212 210.125 184.499 214.402 155.152C216.068 143.71 219.322 131.322 225.432 120.174C234.127 104.261 245.624 91.6372 253.755 78.0228C254.397 76.9501 255.025 75.8646 255.631 74.7744C264.792 58.224 268.955 40.233 267.51 22.4809C265.987 3.58992 257.608 -15.3409 241.327 -26.7087" stroke="#A0A0A0" stroke-width="0.5" stroke-miterlimit="10"/>
<path d="M47.4973 671.192C44.0049 652.979 43.6263 633.97 45.8964 614.991C46.9024 606.585 48.442 598.137 50.9793 589.845C56.0399 573.307 64.8037 558.191 75.2214 544.7C78.119 540.921 81.1383 537.266 84.2366 533.74C97.3942 518.786 112.384 505.501 128.515 493.975C144.463 482.603 161.681 473.163 179.111 463.218C200.656 450.933 223.22 440.007 243.068 424.699C259.889 411.71 274.899 394.455 281.486 374.688C282.69 371.084 283.616 367.404 284.214 363.662C287.935 340.577 279.243 319.516 268.197 300.161C264.717 294.068 261.009 288.148 257.381 282.356C247.883 267.22 238.629 251.204 231.408 234.595C219.706 207.558 214.973 178.971 220.54 148.825C222.592 137.729 226.149 125.942 231.883 115.136C240.068 99.7048 250.432 86.7727 257.444 72.892C257.993 71.794 258.535 70.6896 259.048 69.5741C266.848 52.7426 269.402 34.7542 266.578 17.6016C263.59 -0.650637 254.15 -18.2067 237.88 -28.4809" stroke="#9B9B9B" stroke-width="0.5" stroke-miterlimit="10"/>
<path d="M55.2202 672.904C51.7791 655.14 51.5303 636.563 54.0018 618.038C55.094 609.824 56.7273 601.604 59.1944 593.509C64.1147 577.378 72.1669 562.332 81.8792 548.699C84.5843 544.878 87.4183 541.172 90.3383 537.558C102.719 522.311 116.98 508.633 132.462 496.64C147.753 484.794 164.335 474.74 181.268 464.855C203.167 452.076 226.238 441.126 246.585 425.597C263.819 412.442 279.283 394.883 286.117 374.758C287.363 371.09 288.324 367.326 288.958 363.514C292.853 339.948 283.965 318.478 272.758 298.66C269.233 292.426 265.468 286.352 261.809 280.418C252.229 264.889 242.985 248.346 235.901 231.136C224.398 203.12 219.764 173.405 226.7 142.503C229.116 131.732 232.983 120.568 238.363 110.11C246.045 95.1659 255.268 81.9048 261.161 67.7722C261.625 66.6553 262.067 65.5337 262.495 64.3993C268.94 47.2785 269.87 29.2945 265.674 12.7333C261.222 -4.88005 250.713 -21.0529 234.462 -30.2413" stroke="#959595" stroke-width="0.5" stroke-miterlimit="10"/>
<path d="M62.9517 674.607C59.555 657.301 59.4503 639.156 62.1161 621.078C63.2947 613.071 65.0216 605.064 67.4185 597.165C72.1914 581.45 79.5462 566.457 88.5388 552.7C91.0516 548.836 93.7001 545.065 96.4347 541.385C108.03 525.839 121.579 511.781 136.403 499.314C151.044 487 166.983 476.311 183.425 466.492C205.673 453.198 229.258 442.244 250.102 426.495C267.742 413.167 283.661 395.32 290.735 374.829C292.031 371.09 293.027 367.256 293.688 363.353C297.772 339.303 288.688 317.425 277.313 297.138C273.737 290.757 269.927 284.542 266.239 278.45C256.576 262.515 247.342 245.459 240.396 227.649C229.099 198.645 224.477 167.754 232.862 136.152C235.642 125.678 239.826 115.173 244.852 105.046C252.024 90.5842 260.114 77.0149 264.887 62.6157C265.265 61.48 265.622 60.3395 265.957 59.1798C271.04 41.7776 270.353 23.8042 264.785 7.8347C258.862 -9.14613 247.298 -23.9371 231.051 -32.023" stroke="#909090" stroke-width="0.5" stroke-miterlimit="10"/>
<path d="M70.6819 676.311C62.9129 637.137 73.3411 593.386 95.1975 556.701C117.054 520.016 149.632 490.113 185.574 468.137C208.162 454.322 232.261 443.365 253.611 427.401C274.961 411.438 293.952 388.969 298.424 363.213C304.027 330.967 286.244 302.629 270.66 276.505C245.023 233.561 223.01 181.879 239.008 129.832C246.976 103.91 263.853 80.3279 269.383 54.0013C277.047 17.5024 259.11 -20.2099 227.612 -33.7857" stroke="#8A8A8A" stroke-width="0.5" stroke-miterlimit="10"/>
</g>
</svg>
