<svg width="24" height="25" viewBox="0 0 24 25" fill="none" xmlns="http://www.w3.org/2000/svg">
<path d="M20.484 3.71754C15.797 -0.968037 8.19902 -0.966912 3.51344 3.72012C-1.17214 8.40715 -1.17101 16.0051 3.51602 20.6907C8.20305 25.3763 15.801 25.3752 20.4866 20.6881C21.6007 19.5736 22.4844 18.2506 23.0873 16.7946C23.6901 15.3386 24.0003 13.7782 24 12.2023C23.9998 10.6264 23.6892 9.06605 23.0859 7.61023C22.4826 6.15441 21.5985 4.83168 20.484 3.71754ZM18.1736 16.92L18.172 16.9216V16.9176L17.564 17.5216C17.1774 17.9131 16.6963 18.1983 16.1673 18.3496C15.6383 18.501 15.0792 18.5134 14.544 18.3856C13.4474 18.092 12.4048 17.6248 11.456 17.0016C10.5744 16.4382 9.75752 15.7796 9.01999 15.0376C8.3414 14.3639 7.73171 13.6243 7.19997 12.8296C6.61835 11.9745 6.15798 11.043 5.83197 10.0616C5.64873 9.49627 5.62651 8.89113 5.76781 8.31394C5.90911 7.73674 6.20835 7.21029 6.63199 6.79357L7.34397 6.08159C7.54192 5.88274 7.86358 5.88204 8.06238 6.07999L8.06397 6.08159L10.312 8.32957C10.5108 8.52753 10.5115 8.84918 10.3135 9.04798L10.312 9.04957L8.99196 10.3696C8.61321 10.7442 8.56558 11.3395 8.87997 11.7696C9.35741 12.4248 9.88571 13.0414 10.46 13.6136C11.1003 14.2566 11.7963 14.8416 12.54 15.3616C12.9697 15.6613 13.5522 15.6108 13.924 15.2416L15.1999 13.9456C15.3979 13.7468 15.7195 13.7461 15.9183 13.944L15.9199 13.9456L18.172 16.2016C18.3708 16.3995 18.3715 16.7211 18.1736 16.92Z" fill="#46EDA2"/>
</svg>
