<svg width="273" height="901" viewBox="0 0 273 901" fill="none" xmlns="http://www.w3.org/2000/svg">
<g opacity="0.3">
<path opacity="0.0416667" d="M-468.886 223.512C-385.905 220.308 -386.757 174.618 -317.707 118.611C-262.466 73.8048 -183.027 76.7836 -150.213 83.8737C-139.111 79.3381 -126.724 81.529 -116.59 87.2717C-107.062 92.661 -99.2384 101.05 -93.7771 111.54C-93.4182 112.232 -93.0687 112.934 -92.7304 113.639C-88.4317 122.578 -85.7342 132.925 -80.4463 142.953C-76.7478 149.986 -71.487 155.965 -66.1917 160.789C-52.6109 173.166 -36.9807 180.125 -19.8114 182.95C-9.24179 184.659 1.67162 185.2 12.2602 185.403C16.3066 185.481 20.4481 185.575 24.5981 185.848C37.7768 186.73 51.0806 189.456 61.4623 199.112C63.1486 200.683 64.6984 202.388 66.1246 204.211C73.9625 214.222 77.8742 227.664 79.0683 240.635C80.4659 255.919 78.8346 271.165 77.9625 286.263C77.2282 299.041 75.9122 311.382 76.0721 323.787C76.2427 336.335 77.7159 348.973 80.6535 361.294C81.3504 364.2 82.1461 367.113 83.0387 370.008C86.2449 380.407 90.8947 390.585 97.8435 399.16C101.327 403.459 105.281 407.206 109.375 410.663C118.607 418.471 128.696 424.924 139.373 429.544C151.898 430.974 179.667 441.444 190.545 471.884C204.142 509.933 221.196 611.925 139.646 644.291C58.0954 676.657 34.7373 695.938 -22.0732 729.883C-78.8837 763.828 -280.135 747.007 -338.207 899.756" stroke="#A0A0A0" stroke-miterlimit="10"/>
<path opacity="0.0833333" d="M-468.769 221.802C-386.01 219.377 -386.493 173.713 -317.2 118.393C-261.766 74.1364 -182.589 77.8563 -149.93 85.2483C-138.826 80.8199 -126.493 83.1251 -116.436 88.9585C-106.979 94.4329 -99.2466 102.889 -93.8859 113.422C-93.5337 114.118 -93.1908 114.822 -92.8592 115.53C-88.6452 124.502 -86.0388 134.867 -80.8473 144.937C-77.2164 152 -72.0194 158.023 -66.7787 162.893C-53.338 175.388 -37.8106 182.489 -20.7154 185.472C-10.1913 187.279 0.685 187.922 11.2401 188.224C15.2738 188.339 19.4021 188.472 23.5375 188.783C36.6696 189.788 49.9115 192.637 60.1846 202.382C61.8532 203.968 63.3846 205.687 64.792 207.521C72.5259 217.599 76.318 231.067 77.4044 244.04C78.675 259.325 76.9263 274.545 75.9356 289.624C75.1009 302.386 73.6897 314.705 73.7496 327.103C73.819 339.644 75.1862 352.286 78.0161 364.626C78.6876 367.535 79.4575 370.454 80.3242 373.355C83.4373 383.776 87.9914 393.99 94.8505 402.624C98.2892 406.953 102.201 410.734 106.255 414.227C115.397 422.116 125.403 428.659 136.011 433.374C148.487 434.921 176.089 445.643 186.69 476.162C199.941 514.311 216.125 616.388 134.559 647.967C52.9938 679.546 29.551 698.594 -27.3616 731.983C-84.2741 765.371 -284.787 746.679 -343.911 898.773" stroke="#A0A0A0" stroke-miterlimit="10"/>
<path opacity="0.125" d="M-468.649 220.143C-386.121 218.492 -386.236 172.856 -316.707 118.223C-261.084 74.5167 -182.176 78.9734 -149.675 86.6651C-138.569 82.3436 -126.292 84.7623 -116.312 90.6854C-106.928 96.2442 -99.2866 104.766 -94.0269 115.342C-93.6813 116.04 -93.3452 116.748 -93.0202 117.458C-88.8912 126.463 -86.376 136.845 -81.2813 146.955C-77.7182 154.048 -72.5853 160.115 -67.3996 165.031C-54.1001 177.642 -38.6767 184.882 -21.6572 188.023C-11.1794 189.927 -0.341124 190.671 10.1797 191.071C14.2002 191.224 18.315 191.395 22.4354 191.746C35.5197 192.872 48.6987 195.842 58.8623 205.677C60.5132 207.277 62.0262 209.009 63.4145 210.855C71.044 220.998 74.7162 234.491 75.695 247.465C76.8388 262.751 74.9729 277.944 73.8638 293.002C72.9289 305.747 71.4229 318.045 71.3829 330.434C71.3511 342.966 72.6125 355.612 75.3346 367.969C75.9807 370.883 76.7247 373.807 77.5655 376.714C80.5853 387.157 85.0435 397.406 91.8124 406.098C95.2059 410.455 99.0753 414.27 103.09 417.799C112.14 425.767 122.063 432.398 132.602 437.21C145.027 438.872 172.46 449.844 182.783 480.44C195.687 518.685 211 620.839 129.427 651.634C47.854 682.428 24.3287 701.244 -32.6805 734.077C-89.6898 766.91 -289.446 746.358 -349.615 897.789" stroke="#A0A0A0" stroke-miterlimit="10"/>
<path opacity="0.166667" d="M-468.526 218.533C-386.236 217.653 -385.982 172.048 -316.224 118.102C-260.418 74.9455 -181.786 80.1346 -149.445 88.1237C-138.338 83.9089 -126.119 86.4402 -116.216 92.4521C-106.906 98.0944 -99.3564 106.682 -94.198 117.299C-93.8591 118 -93.5297 118.71 -93.2114 119.423C-89.1676 128.46 -86.7438 138.858 -81.746 149.009C-78.251 156.129 -73.1826 162.24 -68.0524 167.2C-54.895 179.926 -39.5769 187.306 -22.6345 190.603C-12.2039 192.603 -1.40461 193.447 9.08098 193.946C13.0881 194.136 17.1889 194.345 21.294 194.734C34.3294 195.981 47.4444 199.072 57.4978 208.994C59.1307 210.609 60.6251 212.353 61.9943 214.211C69.5188 224.418 73.0711 237.936 73.9422 250.91C74.9593 266.196 72.9765 281.36 71.7495 296.398C70.7146 309.125 69.114 321.399 68.9742 333.779C68.8415 346.302 69.9971 358.951 72.6113 371.325C73.2318 374.243 73.95 377.172 74.7648 380.084C77.6912 390.547 82.0533 400.831 88.7315 409.58C92.0795 413.966 95.9064 417.814 99.88 421.377C108.838 429.424 118.678 436.144 129.146 441.05C141.52 442.826 168.781 454.047 178.826 484.717C191.382 523.055 205.825 625.279 124.252 655.291C42.6785 685.303 19.0731 703.886 -38.0275 736.164C-95.1281 768.442 -294.111 746.044 -355.318 896.806" stroke="#A0A0A0" stroke-miterlimit="10"/>
<path opacity="0.208333" d="M-468.402 216.973C-386.357 216.859 -385.735 171.289 -315.754 118.03C-259.77 75.4225 -181.421 81.3395 -149.244 89.6239C-138.137 85.5154 -125.975 88.1586 -116.152 94.2584C-106.916 99.9834 -99.4587 108.635 -94.4019 119.293C-94.0697 119.996 -93.747 120.709 -93.4355 121.424C-89.4771 130.493 -87.1448 140.906 -82.2444 151.096C-78.8175 158.244 -73.8141 164.397 -68.7397 169.402C-55.7254 182.242 -40.5138 189.758 -23.65 193.21C-13.2675 195.306 -2.50809 196.251 7.94138 196.846C11.9346 197.074 16.0213 197.321 20.1106 197.747C33.096 199.115 46.1459 202.326 56.0883 212.335C57.7032 213.963 59.1789 215.721 60.5289 217.59C67.9479 227.86 71.38 241.401 72.1436 254.374C73.0341 269.659 70.9348 284.794 69.59 299.809C68.4555 312.518 66.7606 324.769 66.5211 337.139C66.2876 349.652 67.3374 362.303 69.8436 374.692C70.4387 377.613 71.131 380.547 71.9198 383.465C74.7527 393.948 79.0182 404.265 85.6053 413.07C88.9076 417.484 92.6917 421.365 96.6243 424.963C105.49 433.087 115.246 439.894 125.641 444.894C137.964 446.784 165.05 458.25 174.816 488.992C187.024 527.42 200.597 629.707 119.031 658.939C37.465 688.171 13.7817 706.521 -43.4049 738.245C-100.592 769.97 -298.784 745.736 -361.022 895.822" stroke="#A0A0A0" stroke-miterlimit="10"/>
<path opacity="0.25" d="M-468.275 215.463C-386.482 216.111 -385.493 170.578 -315.297 118.006C-259.14 75.9481 -181.08 82.5884 -149.07 91.1658C-137.963 87.1633 -125.861 89.9176 -116.117 96.1044C-106.956 101.911 -99.5917 110.626 -94.6368 121.323C-94.3113 122.029 -93.9954 122.744 -93.6906 123.462C-89.8178 132.561 -87.5771 142.989 -82.7743 153.217C-79.4159 160.392 -74.4777 166.588 -69.4595 171.636C-56.5893 184.588 -41.4855 192.24 -24.7016 195.847C-14.3681 198.037 -3.64953 199.081 6.7629 199.773C10.742 200.038 14.814 200.323 18.8873 200.787C31.8216 202.274 44.8052 205.604 54.636 215.698C56.2327 217.341 57.6896 219.11 59.0203 220.991C66.3332 231.322 69.6451 244.887 70.3013 257.857C71.0652 273.14 68.8498 288.245 67.3875 303.237C66.1535 315.926 64.3646 328.153 64.0257 340.512C63.6915 353.015 64.6357 365.666 67.0337 378.07C67.6033 380.995 68.2698 383.933 69.0325 386.857C71.7717 397.359 75.9405 407.708 82.436 416.568C85.6924 421.01 89.4334 424.923 93.3247 428.555C102.097 436.756 111.768 443.648 122.091 448.742C134.36 450.745 161.27 462.455 170.757 493.266C182.616 531.781 195.319 634.122 113.767 662.577C32.2157 691.032 8.45675 709.149 -48.8106 740.32C-106.078 771.492 -303.464 745.434 -366.726 894.839" stroke="#A0A0A0" stroke-miterlimit="10"/>
<path opacity="0.291667" d="M-468.148 214.003C-386.614 215.409 -385.258 169.916 -314.853 118.03C-258.529 76.5215 -180.766 83.8806 -148.924 92.7488C-137.82 88.8519 -125.777 91.7164 -116.114 97.9893C-107.028 103.877 -99.7575 112.654 -94.9049 123.39C-94.5861 124.099 -94.277 124.816 -93.979 125.536C-90.1921 134.665 -88.0429 145.106 -83.3381 155.372C-80.0484 162.573 -75.1758 168.81 -70.2142 173.902C-57.4891 186.964 -42.4943 194.751 -25.7917 198.51C-15.508 200.795 -4.83116 201.938 5.54336 202.726C9.50799 203.027 13.5651 203.35 17.6219 203.851C30.5041 205.457 43.4204 208.905 53.1386 219.084C54.717 220.739 56.1551 222.522 57.4664 224.413C64.6728 234.805 67.8642 248.391 68.4131 261.359C69.0505 276.638 66.7194 291.712 65.1399 306.681C63.8067 319.35 61.9241 331.552 61.4859 343.899C61.0513 356.39 61.8897 369.042 64.1797 381.459C64.7237 384.388 65.3643 387.33 66.1008 390.258C68.7463 400.779 72.8182 411.16 79.2216 420.073C82.4318 424.542 86.1294 428.488 89.9792 432.154C98.658 440.43 108.242 447.407 118.492 452.593C130.707 454.708 157.438 466.659 166.646 497.538C178.156 536.136 189.988 638.525 108.458 666.205C26.9288 693.884 3.0964 711.769 -54.2464 742.388C-111.589 773.008 -308.151 745.139 -372.43 893.855" stroke="#A0A0A0" stroke-miterlimit="10"/>
<path opacity="0.333333" d="M-468.02 212.594C-386.752 214.752 -385.03 169.303 -314.423 118.103C-257.937 77.1429 -180.476 85.2161 -148.806 94.3727C-137.704 90.5811 -125.722 93.5551 -116.14 99.913C-107.131 105.881 -99.9545 114.719 -95.2043 125.493C-94.8923 126.204 -94.59 126.924 -94.2988 127.646C-90.598 136.804 -88.5405 147.257 -83.9339 157.56C-80.7131 164.787 -75.9065 171.065 -71.0017 176.199C-58.4227 189.37 -43.538 197.29 -26.9182 201.202C-16.6852 203.58 -6.05099 204.821 4.28473 205.704C8.23454 206.041 12.2763 206.401 16.3164 206.94C29.1453 208.664 41.9932 212.229 51.5983 222.491C53.1583 224.16 54.5774 225.954 55.8692 227.857C62.9685 238.308 66.0395 251.914 66.4811 264.879C66.9922 280.153 64.5456 295.196 62.8492 310.14C61.4171 322.788 59.4411 334.964 58.9038 347.299C58.3689 359.778 59.1018 372.429 61.2835 384.859C61.802 387.79 62.4166 390.736 63.1271 393.67C65.6787 404.207 69.6534 414.619 75.9642 423.586C79.1281 428.082 82.782 432.059 86.5899 435.757C95.1743 444.109 104.672 451.17 114.848 456.447C127.007 458.674 153.558 470.864 162.485 501.806C173.645 540.485 184.607 642.915 103.107 669.822C21.6064 696.729 -2.29713 714.381 -59.7101 744.449C-117.123 774.518 -312.844 744.85 -378.133 892.872" stroke="#A0A0A0" stroke-miterlimit="10"/>
<path opacity="0.375" d="M-467.893 211.234C-386.898 214.141 -384.811 168.738 -314.007 118.223C-257.365 77.8119 -180.213 86.5944 -148.717 96.0371C-137.619 92.3505 -125.699 95.4331 -116.199 101.875C-107.267 107.922 -100.185 116.821 -95.5379 127.631C-95.2327 128.345 -94.9372 129.067 -94.6528 129.791C-91.0384 138.977 -89.0726 149.443 -84.5645 159.781C-81.4128 167.032 -76.6725 173.351 -71.825 178.527C-59.3929 191.805 -44.6196 199.857 -28.0839 203.919C-17.9025 206.391 -7.31173 207.729 2.98432 208.707C6.91896 209.081 10.9451 209.477 14.9682 210.053C27.7426 211.895 40.5211 215.576 50.0123 225.919C51.5539 227.602 52.9538 229.408 54.226 231.321C61.2178 241.831 64.1681 255.456 64.5026 268.416C64.8875 283.685 62.3259 298.695 60.5129 313.614C58.9822 326.24 56.913 338.39 56.2768 350.712C55.6418 363.177 56.2691 375.826 58.3426 388.268C58.8356 391.203 59.4243 394.152 60.1085 397.09C62.5662 407.645 66.4435 418.086 72.6613 427.105C75.7786 431.627 79.3886 435.635 83.1544 439.367C91.6437 447.792 101.054 454.935 111.155 460.303C123.258 462.64 149.625 475.067 158.273 506.072C169.082 544.828 179.174 647.29 97.71 673.427C16.2462 699.564 -7.72626 716.984 -65.2041 746.503C-122.682 776.022 -317.547 744.568 -383.837 891.889" stroke="#A0A0A0" stroke-miterlimit="10"/>
<path opacity="0.416667" d="M-467.765 209.924C-387.049 213.575 -384.598 168.221 -313.605 118.391C-256.811 78.528 -179.975 88.0151 -148.656 97.7416C-137.563 94.1595 -125.706 97.3499 -116.288 103.875C-107.434 110 -100.447 118.958 -95.9028 129.805C-95.6044 130.52 -95.3157 131.245 -95.0381 131.971C-91.5102 141.184 -89.6362 151.661 -85.2269 162.034C-82.1444 169.31 -77.4708 175.668 -72.681 180.885C-60.3967 194.269 -45.736 202.452 -29.2857 206.664C-19.1566 209.227 -8.61033 210.662 1.64519 211.734C5.56434 212.144 9.57452 212.577 13.5801 213.19C26.2992 215.148 39.0072 218.944 48.3839 229.368C49.9067 231.064 51.2875 232.881 52.5401 234.805C59.4238 245.372 62.2534 259.016 62.4808 271.97C62.7397 287.233 60.0634 302.209 58.1342 317.101C56.5051 329.705 54.3431 341.829 53.6081 354.136C52.8731 366.587 53.3951 379.234 55.3603 391.687C55.8278 394.624 56.3904 397.577 57.0485 400.52C59.4121 411.09 63.1917 421.56 69.3162 430.63C72.3866 435.178 75.9525 439.217 79.6759 442.98C88.0694 451.478 97.3916 458.704 107.416 464.16C119.462 466.608 145.645 479.269 154.011 510.333C164.469 549.163 173.692 651.651 92.2716 677.021C10.8515 702.391 -13.1877 719.579 -70.7253 748.549C-128.263 777.519 -322.255 744.292 -389.541 890.905" stroke="#A0A0A0" stroke-miterlimit="10"/>
<path opacity="0.458333" d="M-467.638 208.664C-387.209 213.054 -384.394 167.752 -313.218 118.607C-256.278 79.2915 -179.764 89.4784 -148.624 99.4863C-137.537 96.0085 -125.744 99.3056 -116.41 105.913C-107.634 112.116 -100.743 121.132 -96.3018 132.013C-96.0102 132.731 -95.7283 133.458 -95.4576 134.186C-92.0164 143.426 -90.2343 153.913 -85.924 164.32C-82.911 171.619 -78.3043 178.016 -73.5724 183.273C-61.4369 196.762 -46.8899 205.074 -30.5264 209.434C-20.4506 212.089 -9.94955 213.62 0.26457 214.785C4.16791 215.231 8.16179 215.701 12.1497 216.35C24.8122 218.423 37.4487 222.334 46.7101 232.837C48.2143 234.546 49.5757 236.375 50.8086 238.309C57.5838 248.933 60.2925 262.594 60.4131 275.542C60.546 290.797 57.7555 305.739 55.7103 320.603C53.9831 333.184 51.7286 345.28 50.8951 357.573C50.0604 370.009 50.477 382.652 52.3339 395.115C52.7758 398.055 53.3124 401.011 53.9443 403.958C56.2138 414.542 59.8956 425.04 65.9262 434.161C68.9496 438.734 72.471 442.803 76.1517 446.598C84.4489 455.168 93.6823 462.474 103.631 468.02C115.618 470.576 141.614 483.47 149.699 514.591C159.805 553.491 168.158 655.998 86.789 680.603C5.41975 705.208 -18.6838 722.164 -76.276 750.587C-133.868 779.009 -326.971 744.022 -395.245 889.922" stroke="#A0A0A0" stroke-miterlimit="10"/>
<path opacity="0.5" d="M-467.512 207.454C-387.376 212.578 -384.197 167.331 -312.846 118.871C-255.764 80.1019 -179.579 90.9836 -148.621 101.271C-137.541 97.8966 -125.812 101.3 -116.562 107.989C-107.865 114.268 -101.07 123.341 -96.733 134.256C-96.4482 134.976 -96.1733 135.705 -95.9094 136.435C-92.5551 145.701 -90.8648 156.198 -86.6539 166.637C-83.7104 173.959 -79.1711 180.394 -74.4975 185.692C-62.5117 199.283 -48.0794 207.723 -31.8041 212.231C-21.7823 214.976 -11.3275 216.602 -1.15558 217.86C2.73162 218.341 6.70886 218.848 10.6787 219.533C23.2837 221.721 35.8477 225.745 44.9931 236.326C46.4784 238.048 47.8205 239.888 49.0335 241.832C55.6998 252.511 58.2876 266.188 58.3014 279.129C58.3085 294.376 55.4042 309.283 53.2434 324.119C51.4182 336.676 49.0716 348.743 48.1397 361.02C47.2055 373.441 47.5169 386.08 49.2655 398.552C49.6818 401.493 50.1924 404.453 50.7981 407.403C52.9733 418.002 56.5571 428.527 62.4935 437.698C65.4696 442.295 68.9463 446.394 72.5841 450.22C80.7844 458.86 89.9281 466.247 99.799 471.88C111.727 474.545 137.534 487.669 145.337 518.843C155.092 557.812 162.576 660.329 81.2645 684.172C-0.0467301 708.016 -24.2126 724.74 -81.8542 752.617C-139.496 780.493 -331.693 743.758 -400.948 888.938" stroke="#A0A0A0" stroke-miterlimit="10"/>
<path opacity="0.541667" d="M-467.389 206.294C-387.553 212.148 -384.012 166.958 -312.49 119.181C-255.273 80.959 -179.422 92.5306 -148.648 103.094C-137.576 99.8236 -125.913 103.332 -116.748 110.101C-108.131 116.456 -101.433 125.586 -97.1991 136.533C-96.9212 137.256 -96.6532 137.986 -96.3961 138.719C-93.129 148.009 -91.5306 158.515 -87.4192 168.986C-84.5455 176.331 -80.0738 182.803 -75.4589 188.14C-63.6235 201.832 -49.3072 210.399 -33.1214 215.052C-23.1545 217.888 -12.7466 219.608 -2.6178 220.959C1.25293 221.475 5.21321 222.018 9.1646 222.738C21.7111 225.04 34.2015 229.177 43.2304 239.835C44.6967 241.569 46.0193 243.421 47.2124 245.375C53.7692 256.108 56.2361 269.8 56.1432 282.732C56.0247 297.969 53.0069 312.84 50.7309 327.647C48.8082 340.18 46.3697 352.218 45.3397 364.479C44.3062 376.883 44.5125 389.517 46.1526 401.997C46.5434 404.94 47.028 407.903 47.6074 410.857C49.6883 421.469 53.1739 432.02 59.0156 441.239C61.9443 445.861 65.3761 449.988 68.9706 453.846C77.0734 462.555 86.1269 470.021 95.9196 475.74C107.787 478.513 133.403 491.864 140.925 523.091C150.327 562.124 156.942 664.644 75.6959 687.729C-5.55022 710.814 -29.7761 727.306 -87.462 754.638C-145.148 781.97 -336.425 743.5 -406.652 887.955" stroke="#A0A0A0" stroke-miterlimit="10"/>
<path opacity="0.583333" d="M-467.267 205.183C-387.738 211.762 -383.835 166.633 -312.15 119.539C-254.802 81.8626 -179.292 94.119 -148.705 104.957C-137.642 101.789 -126.046 105.402 -116.966 112.251C-108.429 118.68 -101.828 127.865 -97.6984 138.844C-97.4274 139.569 -97.1662 140.302 -96.9161 141.036C-93.7362 150.35 -92.2298 160.864 -88.2182 171.366C-85.4144 178.732 -81.0106 185.241 -76.4547 190.617C-64.7707 204.408 -50.5715 213.101 -34.4764 217.899C-24.5651 220.823 -14.2051 222.638 -4.12024 224.08C-0.266286 224.631 3.6767 225.21 7.60936 225.966C20.0963 228.381 32.5121 232.629 41.4238 243.363C42.8711 245.109 44.1741 246.972 45.3472 248.935C51.7942 259.722 54.14 273.427 53.9406 286.351C53.6966 301.577 50.5658 316.412 48.1749 331.189C46.1549 343.696 43.6248 355.704 42.4969 367.948C41.3643 380.335 41.4656 392.963 42.9974 405.45C43.3626 408.395 43.8211 411.36 44.3743 414.317C46.3608 424.942 49.7479 435.518 55.4947 444.784C58.3757 449.43 61.7623 453.586 65.3134 457.474C73.318 466.252 82.2806 473.796 91.9944 479.601C103.801 482.48 129.223 496.057 136.463 527.332C145.512 566.427 151.259 668.943 70.0854 691.272C-11.0886 713.601 -35.3724 729.862 -93.0974 756.651C-150.822 783.439 -341.163 743.248 -412.356 886.972" stroke="#A0A0A0" stroke-miterlimit="10"/>
<path opacity="0.625" d="M-467.147 204.123C-387.93 211.421 -383.666 166.356 -311.825 119.943C-254.352 82.8125 -179.188 95.7487 -148.791 106.858C-137.737 103.793 -126.209 107.509 -117.215 114.436C-108.759 120.939 -102.256 130.179 -98.2306 141.189C-97.9664 141.916 -97.7122 142.65 -97.4689 143.386C-94.3765 152.724 -92.962 163.245 -89.0504 173.777C-86.3168 181.164 -81.9812 187.709 -77.4846 193.123C-65.9528 207.012 -51.8717 215.829 -35.8687 220.77C-26.0138 223.783 -15.7026 225.69 -5.6624 227.224C-1.82555 227.81 2.09983 228.424 6.01344 229.215C18.4397 231.743 30.78 236.101 39.5739 246.909C41.002 248.668 42.2853 250.541 43.4383 252.514C49.7751 263.352 51.9998 277.071 51.694 289.985C51.3248 305.199 48.0813 319.996 45.5758 334.742C43.4588 347.223 40.8376 359.2 39.612 371.427C38.3805 383.796 38.3769 396.417 39.8003 408.91C40.1399 411.857 40.5725 414.824 41.0993 417.785C42.9914 428.42 46.28 439.021 51.9313 448.334C54.7645 453.003 58.1057 457.188 61.613 461.106C69.5189 469.951 78.3899 477.571 88.024 483.461C99.7682 486.446 124.996 500.246 131.953 531.568C140.649 570.72 145.529 673.226 64.4338 694.802C-16.6612 716.378 -41.0006 732.408 -98.7597 758.654C-156.519 784.9 -345.908 743.001 -418.06 885.988" stroke="#A0A0A0" stroke-miterlimit="10"/>
<path opacity="0.666667" d="M-467.03 203.112C-388.133 211.125 -383.509 166.127 -311.517 120.394C-253.924 83.8085 -179.114 97.4194 -148.908 108.798C-137.865 105.836 -126.405 109.654 -117.499 116.658C-109.124 123.234 -102.718 132.527 -98.7978 143.567C-98.5405 144.296 -98.2932 145.032 -98.0568 145.77C-95.052 155.13 -93.7295 165.657 -89.9181 176.219C-87.2547 183.626 -82.9876 190.206 -78.5507 195.658C-67.1719 209.643 -53.21 218.582 -37.3004 223.666C-27.5027 226.766 -17.241 228.766 -7.2464 230.39C-3.42695 231.01 0.480498 231.66 4.37474 232.486C16.7394 235.125 29.0032 239.592 37.6786 250.474C39.0874 252.244 40.351 254.128 41.4839 256.11C47.7099 267 49.8135 280.73 49.4015 293.633C48.9072 308.835 45.5515 323.593 42.9318 338.307C40.7181 350.761 38.006 362.708 36.6829 374.915C35.3528 387.265 35.2444 399.879 36.5595 412.378C36.8735 415.325 37.28 418.295 37.7806 421.258C39.5782 431.905 42.768 442.529 48.3236 451.887C51.1088 456.579 54.4043 460.792 57.8676 464.739C65.6742 473.651 74.453 481.347 84.0067 487.321C95.6877 490.411 120.718 504.431 127.392 535.797C135.735 575.004 139.748 677.491 58.7392 698.318C-22.2697 719.144 -46.6626 734.943 -104.451 760.649C-162.239 786.354 -350.661 742.761 -423.764 885.005" stroke="#A0A0A0" stroke-miterlimit="10"/>
<path opacity="0.708333" d="M-466.916 202.15C-388.345 210.874 -383.362 165.944 -311.226 120.892C-253.517 84.8501 -179.066 99.1305 -149.054 110.776C-138.023 107.915 -126.632 111.835 -117.813 118.916C-109.521 125.564 -103.214 134.909 -99.3981 145.978C-99.1477 146.708 -98.9073 147.446 -98.6779 148.186C-95.7609 157.567 -94.5303 168.1 -90.8193 178.69C-88.2264 186.117 -84.028 192.732 -79.6511 198.22C-68.426 212.3 -54.5845 221.36 -38.7694 226.585C-29.0298 229.772 -18.8184 231.864 -8.87019 233.577C-5.06846 234.232 -1.17925 234.916 2.69531 235.777C14.9974 238.527 27.1837 243.102 35.74 254.056C37.1294 255.838 38.3732 257.732 39.4859 259.724C45.6008 270.663 47.5832 284.404 47.0652 297.295C46.446 312.484 42.9785 327.202 40.2449 341.884C37.9349 354.31 35.1323 366.225 33.7119 378.413C32.2833 390.744 32.0704 403.348 33.2771 415.851C33.5656 418.8 33.946 421.771 34.4203 424.738C36.1234 435.394 39.2143 446.04 44.6737 455.444C47.4107 460.158 50.6603 464.398 54.0794 468.374C61.7862 477.351 70.472 485.122 79.9446 491.179C91.5615 494.373 116.393 508.611 122.784 540.019C130.773 579.278 133.92 681.739 53.0041 701.819C-27.9119 721.899 -52.3561 737.467 -110.168 762.634C-167.98 787.8 -355.42 742.526 -429.467 884.021" stroke="#A0A0A0" stroke-miterlimit="10"/>
<path opacity="0.75" d="M-466.806 201.239C-388.567 210.667 -383.225 165.809 -310.952 121.436C-253.133 85.9376 -179.047 100.882 -149.231 112.792C-138.213 110.033 -126.893 114.053 -118.162 121.209C-109.952 127.928 -103.744 137.325 -100.033 148.421C-99.7899 149.154 -99.5565 149.894 -99.334 150.635C-96.5049 160.037 -95.3663 170.574 -91.7559 181.191C-89.2335 188.637 -85.1043 195.286 -80.7876 200.811C-69.7171 214.983 -55.9968 224.163 -40.2777 229.528C-30.5968 232.802 -20.4366 234.984 -10.5356 236.786C-6.75184 237.475 -2.8812 238.194 0.973377 239.09C13.2119 241.948 25.3197 246.632 33.7563 257.656C35.1264 259.449 36.3502 261.354 37.4426 263.354C43.446 274.342 45.3072 288.092 44.6833 300.972C43.9394 316.145 40.3606 330.823 37.5135 345.472C35.1074 357.87 32.2146 369.752 30.6972 381.92C29.1705 394.23 28.8531 406.825 29.9515 419.332C30.2144 422.281 30.5688 425.254 31.0167 428.223C32.6253 438.888 35.6171 449.556 40.98 459.003C43.6686 463.739 46.8721 468.006 50.2467 472.011C57.8532 481.052 66.4454 488.897 75.8362 495.036C87.3881 498.333 112.019 512.787 118.127 544.233C125.762 583.541 128.043 685.969 47.227 705.305C-33.5893 724.642 -58.0827 739.98 -115.914 764.609C-173.745 789.238 -360.188 742.297 -435.17 883.038" stroke="#A0A0A0" stroke-miterlimit="10"/>
<path opacity="0.791667" d="M-466.7 200.376C-388.8 210.504 -383.101 165.722 -310.696 122.026C-252.772 87.0702 -179.057 102.674 -149.44 114.845C-138.435 112.187 -127.186 116.307 -118.544 123.538C-110.418 130.326 -104.309 139.774 -100.704 150.897C-100.467 151.631 -100.241 152.373 -100.025 153.115C-97.2841 162.537 -96.2374 173.079 -92.7279 183.722C-90.2762 191.186 -86.2162 197.869 -81.9601 203.429C-71.045 217.693 -57.4471 226.991 -41.825 232.494C-32.2037 235.853 -22.0955 238.126 -12.2424 240.016C-8.47698 240.738 -4.6252 241.492 -0.790919 242.422C11.383 245.389 23.4115 250.179 31.7278 261.273C33.0783 263.077 34.2822 264.991 35.3542 267C41.2458 278.036 42.9857 291.795 42.2561 304.661C41.3878 319.819 37.698 334.456 34.7378 349.07C32.2359 361.439 29.2533 373.288 27.6392 385.435C26.0145 397.724 25.5928 410.309 26.5829 422.818C26.8202 425.768 27.1486 428.742 27.5702 431.713C29.0841 442.387 31.9768 453.075 37.2429 462.565C39.8829 467.322 43.0401 471.615 46.37 475.648C53.8755 484.753 62.3736 492.671 71.6819 498.89C83.1677 502.289 107.596 516.957 113.42 548.44C120.701 587.793 122.118 690.18 41.4083 708.777C-39.3015 727.373 -63.8419 742.482 -121.687 766.574C-179.532 790.667 -364.963 742.074 -440.875 882.055" stroke="#A0A0A0" stroke-miterlimit="10"/>
<path opacity="0.833333" d="M-466.599 199.563C-389.044 210.386 -382.988 165.681 -310.458 122.663C-252.434 88.2479 -179.096 104.505 -149.68 116.936C-138.689 114.378 -127.513 118.597 -118.96 125.901C-110.918 132.759 -104.909 142.255 -101.409 153.404C-101.179 154.14 -100.96 154.883 -100.751 155.628C-98.0982 165.068 -97.1435 175.613 -93.7349 186.282C-91.354 193.764 -87.3637 200.479 -83.1684 206.074C-72.4093 220.427 -58.9348 229.842 -43.411 235.482C-33.85 238.926 -23.7946 241.288 -13.9902 243.266C-10.2434 244.022 -6.41084 244.81 -2.59715 245.774C9.51128 248.849 21.4594 253.743 29.655 264.906C30.9858 266.721 32.1696 268.645 33.2211 270.662C39.0005 281.744 40.6192 295.511 39.7841 308.363C38.7915 323.504 34.9912 338.099 31.9183 352.678C29.321 365.017 26.249 376.832 24.5383 388.957C22.8159 401.225 22.29 413.798 23.1718 426.309C23.3837 429.26 23.686 432.235 24.0812 435.208C25.5006 445.889 28.2939 456.597 33.4628 466.129C36.0542 470.907 39.1648 475.226 42.4497 479.286C49.8538 488.453 58.2571 496.442 67.4821 502.742C78.9012 506.242 103.125 521.121 108.666 552.638C115.592 592.033 116.145 694.372 35.5487 712.232C-45.0477 730.092 -69.633 744.971 -127.487 768.529C-185.342 792.087 -369.746 741.855 -446.579 881.071" stroke="#A0A0A0" stroke-miterlimit="10"/>
<path opacity="0.875" d="M-466.502 198.8C-389.299 210.312 -382.887 165.687 -310.238 123.345C-252.119 89.4706 -179.164 106.376 -149.951 119.063C-138.976 116.605 -127.872 120.922 -119.41 128.299C-111.452 135.224 -105.543 144.769 -102.148 155.943C-101.926 156.681 -101.713 157.425 -101.511 158.171C-98.9469 167.63 -98.0841 178.178 -94.7768 188.87C-92.4668 196.369 -88.5463 203.116 -84.4122 208.745C-73.8099 223.187 -60.4598 232.717 -45.0355 238.494C-35.5355 242.021 -25.5337 244.472 -15.7788 246.537C-12.051 247.326 -8.23783 248.147 -4.44504 249.145C7.59693 252.327 19.4638 257.326 27.538 268.555C28.8491 270.381 30.0127 272.315 31.0438 274.34C36.7105 285.467 38.208 299.241 37.2676 312.078C36.1509 327.201 32.2406 341.754 29.0553 356.296C26.363 368.605 23.2018 380.385 21.3949 392.488C19.5751 404.733 18.9452 417.294 19.7188 429.805C19.9051 432.756 20.1814 435.733 20.5503 438.708C21.8751 449.395 24.569 460.122 29.6403 469.694C32.1828 474.493 35.2466 478.837 38.4864 482.925C45.7885 492.152 54.0965 500.212 63.2376 506.591C74.5889 510.192 98.6059 525.279 103.863 556.827C110.435 596.261 110.125 698.546 29.6489 715.672C-50.8276 732.799 -75.4556 747.448 -133.314 770.474C-191.173 793.499 -374.536 741.643 -452.282 880.088" stroke="#A0A0A0" stroke-miterlimit="10"/>
<path opacity="0.916667" d="M-466.411 198.086C-389.565 210.282 -382.798 165.741 -310.037 124.073C-251.828 90.7381 -179.261 108.286 -150.253 121.227C-139.294 118.869 -128.264 123.283 -119.893 130.731C-112.021 137.724 -106.212 147.316 -102.923 158.514C-102.707 159.253 -102.502 159.999 -102.307 160.746C-99.8308 170.222 -99.0599 180.771 -95.8539 191.487C-93.6149 199.003 -89.7646 205.781 -85.6918 211.444C-75.2471 225.972 -62.0224 235.616 -46.6987 241.527C-37.2605 245.137 -27.3131 247.676 -17.6085 249.827C-13.8998 250.649 -10.1065 251.504 -6.33488 252.535C5.63968 255.823 17.4244 260.925 25.3767 272.22C26.6679 274.057 27.8114 276 28.8219 278.033C34.3757 289.205 35.7519 302.983 34.7064 315.804C33.4659 330.909 29.446 345.418 26.1488 359.923C23.3616 372.201 20.1118 383.946 18.2088 396.026C16.2919 408.247 15.5581 420.796 16.2236 433.306C16.3844 436.257 16.6346 439.234 16.9772 442.211C18.2074 452.904 20.8017 463.649 25.7752 473.261C28.2686 478.08 31.2855 482.449 34.4799 486.563C41.6796 495.85 49.8916 503.98 58.9481 510.437C70.2308 514.137 94.0396 529.431 99.0131 561.007C105.23 600.477 104.059 702.699 23.7088 719.096C-56.641 735.492 -81.3096 749.913 -139.167 772.408C-197.025 794.902 -379.334 741.436 -457.986 879.104" stroke="#A0A0A0" stroke-miterlimit="10"/>
<path opacity="0.958333" d="M-466.326 197.421C-389.843 210.295 -382.722 165.84 -309.855 124.846C-251.561 92.0497 -179.388 110.235 -150.588 123.428C-139.646 121.169 -128.691 125.678 -120.411 133.196C-112.624 140.255 -106.916 149.894 -103.733 161.115C-103.524 161.855 -103.326 162.603 -103.138 163.351C-100.751 172.844 -100.072 183.394 -96.967 194.132C-94.7992 201.663 -91.0193 208.472 -87.0082 214.168C-76.7217 228.781 -63.6233 238.537 -48.4015 244.581C-39.0258 248.274 -29.1335 250.9 -19.4799 253.136C-15.7908 253.991 -12.0175 254.879 -8.26737 255.943C3.63886 259.336 15.3406 264.541 23.1704 275.9C24.4417 277.747 25.5648 279.699 26.5547 281.741C31.9952 292.955 33.2502 306.738 32.0998 319.542C30.7357 334.627 26.6067 349.092 23.198 363.56C20.3164 375.805 16.9782 387.515 14.9795 399.57C12.9657 411.768 12.1283 424.302 12.6857 436.812C12.821 439.762 13.0451 442.74 13.3614 445.718C14.4969 456.415 16.9916 467.177 21.867 476.828C24.3112 481.666 27.2809 486.06 30.4297 490.2C37.5265 499.546 45.6419 507.745 54.6131 514.279C65.8263 518.077 89.4252 533.574 94.1148 565.177C99.9768 604.68 97.9448 706.832 17.7281 722.502C-62.4885 738.173 -87.1956 752.365 -145.048 774.33C-202.9 796.296 -384.14 741.233 -463.69 878.121" stroke="#A0A0A0" stroke-miterlimit="10"/>
<path d="M-466.247 196.793C-390.131 210.34 -382.657 165.974 -309.688 125.65C-251.313 93.391 -179.538 112.209 -150.948 125.65C-140.023 123.49 -129.143 128.094 -120.955 135.682C-113.255 142.806 -107.648 152.49 -104.57 163.733C-104.369 164.475 -104.177 165.224 -103.997 165.974C-101.698 175.483 -101.11 186.032 -98.1073 196.793C-96.0106 204.339 -92.3012 211.177 -88.352 216.905C-78.2242 231.602 -65.2528 241.469 -50.1337 247.646C-40.8209 251.419 -30.9843 254.133 -21.3823 256.453C-17.7129 257.34 -13.9599 258.262 -10.2315 259.358C1.60578 262.855 13.2239 268.161 20.9309 279.584C22.1822 281.442 23.285 283.402 24.2542 285.451C29.5812 296.708 30.7151 310.494 29.4599 323.281C27.9725 338.345 23.7347 352.766 20.2147 367.195C17.239 379.408 13.8128 391.081 11.7186 403.112C9.60809 415.285 8.66713 427.805 9.11657 440.313C9.22635 443.263 9.42454 446.241 9.71446 449.22C10.7554 459.922 13.1504 470.7 17.9274 480.388C20.3223 485.246 23.2447 489.663 26.3478 493.829C33.3413 503.234 41.3598 511.5 50.2453 518.11C61.3884 522.006 84.7761 537.705 89.1818 569.331C94.6889 608.864 91.7972 710.942 11.7185 725.89C-68.3602 740.837 -93.1043 754.802 -150.948 776.24C-208.791 797.678 -388.951 741.034 -469.394 877.138" stroke="url(#paint0_linear_446_4595)" stroke-miterlimit="10"/>
</g>
<defs>
<linearGradient id="paint0_linear_446_4595" x1="-110.101" y1="147.684" x2="85.8761" y2="462.717" gradientUnits="userSpaceOnUse">
<stop stop-color="#ACACAC"/>
<stop offset="1" stop-color="#A0A0A0" stop-opacity="0"/>
</linearGradient>
</defs>
</svg>
