<svg width="459" height="1046" viewBox="0 0 459 1046" fill="none" xmlns="http://www.w3.org/2000/svg">
<g clip-path="url(#clip0_360_2115)">
<g opacity="0.2" clip-path="url(#clip1_360_2115)">
<path d="M262.057 1189.85C230.796 1165.43 200.651 1138.76 171.813 1110.02C158.997 1097.24 146.178 1083.7 137.808 1066.21C116.399 1021.55 129.714 965.723 148.296 921.218C165.407 880.231 186.554 841.992 211.159 807.573C235.542 773.457 263.671 742.446 280.707 701.904C297.74 661.345 301.072 606.942 276.631 570.316C262.084 548.52 239.735 536.251 217.452 532.472C195.154 528.695 172.74 532.64 151.066 538.422C126.243 545.044 100.522 554.097 75.5279 545.74C49.6514 537.099 28.1987 508.749 22.9976 476.33C15.6037 430.211 38.5557 387.807 56.1245 347.452C78.4371 296.185 93.4893 237.284 86.2908 178.316C79.1072 119.364 45.4483 61.4401 -1.46211 46.5518" stroke="white" stroke-miterlimit="10"/>
<path d="M271.423 1183.11C240.673 1159.15 211.096 1132.8 182.922 1104.36C170.402 1091.72 157.893 1078.3 149.654 1061.13C133.112 1026.64 137.098 985.491 148.03 948.146C150.998 937.972 154.492 928.071 158.214 918.664C174.246 878.219 194.301 840.37 217.774 806.141C241.038 772.229 268.173 741.417 284.504 701.309C293.655 678.827 299.101 652.525 298.521 627.006C298.01 604.773 292.789 583.004 281.266 565.241C279.208 562.063 276.987 559.081 274.631 556.295C260.058 539.079 240.235 529.313 220.426 525.736C214.063 524.59 207.689 524.022 201.321 523.895C184.711 523.577 168.131 526.208 151.99 529.574C126.368 534.89 100.226 541.459 75.1924 531.866C50.3269 522.331 29.5083 495.161 24.297 463.522C16.8895 418.505 38.4081 377.021 54.6001 337.617C55.8711 334.519 57.1247 331.372 58.3374 328.227C76.7319 280.477 87.9556 227.021 80.4595 173.921C72.4652 117.291 39.1726 62.0903 -6.61175 48.4027" stroke="#F9F9F9" stroke-miterlimit="10"/>
<path d="M280.783 1176.39C250.539 1152.88 221.543 1126.88 194.012 1098.7C181.773 1086.19 169.585 1072.89 161.478 1056.04C145.197 1022.17 148.564 981.872 158.644 945.172C161.378 935.166 164.624 925.415 168.096 916.126C183.063 876.221 202.015 838.746 224.358 804.723C246.507 771.016 272.619 740.369 288.277 700.743C297.491 677.427 303.199 650.429 302.885 624.096C302.6 601.22 297.534 578.627 285.889 560.192C283.809 556.896 281.55 553.781 279.129 550.863C264.251 532.902 243.817 522.902 223.364 518.991C216.801 517.739 210.227 517.065 203.684 516.812C186.593 516.151 169.472 518.17 152.87 520.734C126.461 524.725 99.9131 528.877 74.7914 517.999C50.9418 507.67 30.7348 481.597 25.5124 450.737C18.0901 406.822 38.177 366.258 52.9932 327.804C54.1606 324.78 55.297 321.707 56.4061 318.636C73.1707 272.09 82.8089 220.444 74.5573 169.509C65.7657 115.216 32.8202 62.7213 -11.8432 50.2333" stroke="#F4F4F4" stroke-miterlimit="10"/>
<path d="M290.131 1169.7C260.407 1146.63 231.978 1120.96 205.092 1093.08C193.147 1080.69 181.268 1067.54 173.305 1050.98C157.299 1017.72 160.034 978.289 169.273 942.217C171.786 932.36 174.771 922.762 177.992 913.589C191.88 874.226 209.728 837.125 230.956 803.306C251.988 769.805 277.062 739.29 292.062 700.162C301.322 675.994 307.309 648.317 307.263 621.186C307.202 597.668 302.277 574.233 290.511 555.127C288.406 551.697 286.111 548.465 283.639 545.432C268.443 526.743 247.414 516.507 226.315 512.263C219.565 510.904 212.79 510.123 206.058 509.729C188.473 508.725 170.838 510.148 153.762 511.893C126.551 514.577 99.654 516.341 74.4132 504.13C51.5861 493.092 31.9981 468.029 26.7634 437.932C19.3262 395.118 37.981 355.474 51.4211 317.97C52.4849 315.02 53.5188 312.039 54.5094 309.026C69.6287 263.667 77.6809 213.831 68.676 165.095C59.0867 113.139 26.4896 63.3664 -17.0526 52.0782" stroke="#EEEEEE" stroke-miterlimit="10"/>
<path d="M299.495 1162.99C270.278 1140.37 242.415 1115.03 216.174 1087.43C204.511 1075.17 192.968 1062.15 185.122 1045.9C169.393 1013.27 171.494 974.691 179.892 939.247C182.172 929.557 184.907 920.092 187.879 911.054C200.702 872.231 217.445 835.503 237.542 801.89C257.46 768.611 281.466 738.213 295.837 699.599C305.143 674.579 311.394 646.223 311.63 618.293C311.807 594.132 307.024 569.874 295.123 550.096C292.995 546.549 290.662 543.184 288.14 540.034C272.625 520.601 250.985 510.131 229.244 505.569C222.294 504.121 215.33 503.216 208.409 502.698C190.343 501.333 172.183 502.178 154.632 503.121C126.62 504.497 99.4051 503.923 74.0155 490.347C52.2028 478.667 33.228 454.531 27.9971 425.23C20.5451 383.517 37.7536 344.793 49.8306 308.238C50.777 305.364 51.7073 302.457 52.5954 299.535C66.0837 255.379 72.548 207.337 62.7885 160.782C52.4014 111.163 20.1519 64.0964 -22.2684 54.0082" stroke="#E9E9E9" stroke-miterlimit="10"/>
<path d="M308.861 1156.27C280.151 1134.1 252.869 1109.09 227.273 1081.77C215.905 1069.64 204.671 1056.76 196.969 1040.81C181.515 1008.78 182.983 971.074 190.541 936.258C192.587 926.735 195.074 917.421 197.809 908.499C209.552 870.217 225.205 833.879 244.172 800.472C262.958 767.398 285.896 737.118 299.638 699.033C308.978 673.163 315.52 644.127 316.024 615.399C316.426 590.596 311.799 565.512 299.775 545.046C297.623 541.364 295.253 537.882 292.68 534.6C276.859 514.421 254.611 503.734 232.223 498.822C225.086 497.266 217.908 496.255 210.811 495.596C192.263 493.887 173.565 494.172 155.536 494.262C126.728 494.397 99.1941 491.468 73.6507 476.459C52.8594 464.222 34.5065 440.945 29.251 412.424C21.7844 371.813 37.5596 334.008 48.2595 298.403C49.1021 295.603 49.915 292.771 50.6994 289.924C62.556 246.971 67.4182 200.723 56.9052 156.367C45.719 109.069 13.8064 64.7422 -27.4789 55.8364" stroke="#E3E3E3" stroke-miterlimit="10"/>
<path d="M318.229 1149.56C290.026 1127.83 263.311 1103.16 238.377 1076.13C227.304 1064.14 216.379 1051.39 208.807 1035.73C193.63 1004.33 194.464 967.476 201.167 933.289C202.978 923.916 205.217 914.753 207.701 905.948C218.378 868.206 232.925 832.242 250.747 799.041C268.416 766.172 290.256 735.994 303.397 698.437C312.769 671.7 319.603 641.983 320.375 612.474C321.017 587.027 316.532 561.119 304.371 539.965C302.181 536.15 299.788 532.551 297.165 529.152C281.026 508.246 258.18 497.306 235.149 492.077C227.811 490.415 220.445 489.297 213.16 488.513C194.118 486.461 174.906 486.15 156.402 485.422C126.778 484.25 98.9626 479.099 73.2467 462.589C53.4564 449.881 35.7332 427.378 30.4792 399.619C22.9981 360.109 37.3393 323.224 46.6479 288.57C47.3868 285.844 48.0822 283.087 48.7641 280.331C58.9736 238.565 62.2616 194.127 50.9939 151.953C38.9959 106.993 7.44553 65.3716 -32.7164 57.6661" stroke="#DEDEDE" stroke-miterlimit="10"/>
<path d="M327.586 1142.85C299.892 1121.58 273.758 1097.22 249.47 1070.48C238.677 1058.6 228.076 1046 220.635 1030.64C205.733 999.849 205.934 963.845 211.796 930.303C213.374 921.097 215.377 912.084 217.597 903.397C227.194 866.197 240.635 830.605 257.339 797.609C273.889 764.945 294.604 734.853 307.173 697.857C316.561 670.236 323.703 639.871 324.744 609.564C325.61 583.475 321.266 556.727 308.999 534.916C306.786 530.983 304.355 527.251 301.681 523.737C285.237 502.085 261.769 490.929 238.106 485.365C230.567 483.596 223.014 482.371 215.539 481.446C196.015 479.033 176.264 478.144 157.297 476.596C126.872 474.117 98.7647 466.794 72.8727 448.733C54.0752 435.624 37.003 413.808 31.7394 386.845C24.2451 348.454 37.1506 312.472 45.081 278.768C45.7024 276.117 46.3077 273.433 46.8721 270.752C55.4488 230.189 57.1338 187.545 45.1123 147.571C32.3163 104.948 1.11605 66.05 -37.9218 59.545" stroke="#D8D8D8" stroke-miterlimit="10"/>
<path d="M336.959 1136.16C309.772 1115.33 284.207 1091.31 260.567 1064.86C250.07 1053.11 239.778 1040.64 232.482 1025.6C217.857 995.416 217.48 960.295 222.446 927.385C223.804 918.344 225.544 909.467 227.512 900.897C236.042 864.237 248.377 829.018 263.949 796.228C279.381 763.768 298.953 733.747 310.964 697.311C320.37 668.822 327.805 637.794 329.128 606.688C330.233 579.955 326.031 552.383 313.628 529.884C311.391 525.817 308.91 521.968 306.198 518.321C289.436 495.941 265.369 484.533 241.061 478.635C233.335 476.759 225.581 475.427 217.917 474.378C197.899 471.622 177.634 470.137 158.193 467.787C126.966 463.999 98.5723 454.574 72.4854 434.895C54.6727 421.452 38.2479 400.272 32.9735 374.09C25.4648 336.8 36.9355 301.738 43.4872 268.983C44.0048 266.407 44.4938 263.815 44.9544 261.208C51.8977 221.848 51.9941 181.015 39.2163 143.206C25.622 102.92 -5.22893 66.7294 -43.1421 61.425" stroke="#D2D2D2" stroke-miterlimit="10"/>
<path d="M346.333 1129.45C319.655 1109.06 294.673 1085.39 271.679 1059.21C261.464 1047.6 251.496 1035.26 244.33 1020.5C229.982 990.95 228.971 956.681 233.094 924.399C234.219 915.526 235.71 906.799 237.428 898.346C244.876 862.227 256.12 827.398 270.557 794.796C284.856 762.542 303.287 732.591 314.754 696.731C324.162 667.342 331.919 635.682 333.509 603.761C334.84 576.386 330.794 547.988 318.268 524.8C316.008 520.616 313.488 516.617 310.727 512.87C293.646 489.746 268.97 478.12 244.03 471.887C236.104 469.921 228.148 468.466 220.308 467.275C199.809 464.176 179.003 462.096 159.1 458.926C127.071 453.83 98.3686 442.37 72.1227 421.004C55.2729 407.296 39.5305 386.666 34.2453 361.263C26.7225 325.076 36.7428 290.917 41.9303 259.128C42.344 256.626 42.7155 254.109 43.0722 251.577C48.3804 213.403 46.8741 174.381 33.3425 138.771C18.9485 100.807 -11.5515 67.3394 -48.3394 63.2359" stroke="#CDCDCD" stroke-miterlimit="10"/>
<path d="M355.709 1122.73C329.54 1102.8 305.126 1079.45 282.793 1053.55C272.873 1042.06 263.215 1029.87 256.194 1015.41C242.109 986.467 240.492 953.066 243.746 921.413C244.65 912.706 245.878 904.114 247.344 895.778C253.725 860.199 263.861 825.744 277.165 793.347C290.347 761.314 307.605 731.402 318.541 696.116C327.939 665.846 336.032 633.536 337.89 600.817C339.459 572.798 335.542 543.577 322.895 519.717C320.611 515.397 318.054 511.282 315.243 507.42C297.856 483.549 272.57 471.689 246.972 465.14C238.859 463.067 230.702 461.505 222.672 460.173C201.677 456.714 180.357 454.038 159.98 450.065C127.147 443.645 98.1153 430.236 71.7327 407.113C55.8216 393.176 40.7741 373.078 35.4919 348.454C27.9549 313.369 36.5394 280.129 40.3487 249.307C40.6448 246.88 40.9261 244.437 41.1664 241.996C44.8267 205.026 41.7431 167.797 27.4563 134.37C12.2503 98.7445 -17.8848 68.0004 -53.5468 65.0979" stroke="white" stroke-miterlimit="10"/>
<path d="M365.073 1116.02C339.413 1096.53 315.582 1073.52 293.884 1047.92C284.26 1036.56 274.926 1024.5 268.024 1010.36C254.216 982.038 251.964 949.488 254.375 918.464C255.044 909.907 256.023 901.466 257.253 893.263C262.552 858.225 271.581 824.143 283.753 791.968C295.815 760.14 311.874 730.285 322.309 695.589C331.68 664.42 340.109 631.461 342.251 597.959C344.045 569.297 340.283 539.234 327.501 514.703C325.192 510.249 322.599 506.017 319.722 502.023C302.018 477.424 276.135 465.329 249.891 458.429C241.576 456.249 233.232 454.58 225.013 453.124C203.537 449.321 181.676 446.05 160.837 441.257C127.202 433.528 97.8021 418.208 71.321 393.29C56.3255 379.177 42.0103 359.558 36.7039 335.715C29.1528 301.731 36.301 269.411 38.7304 239.54C38.9226 237.187 39.0863 234.819 39.2227 232.452C41.2481 196.685 36.5598 161.251 21.5189 130.024C5.5143 96.7357 -24.2704 68.6991 -58.8061 66.9977" stroke="white" stroke-miterlimit="10"/>
<path d="M374.451 1109.31C349.301 1090.28 326.053 1067.59 305.003 1042.26C295.662 1031.04 286.651 1019.11 279.88 1005.26C266.349 977.555 263.462 945.858 265.031 915.479C265.466 907.089 266.197 898.798 267.174 890.696C271.405 856.199 279.326 822.489 290.364 790.52C301.306 758.896 316.178 729.08 326.098 694.992C335.429 662.908 344.223 629.331 346.633 595.032C348.667 565.726 345.047 534.839 332.144 509.635C329.812 505.064 327.181 500.698 324.254 496.588C306.23 471.245 279.737 458.914 252.862 451.697C244.36 449.409 235.801 447.635 227.407 446.037C205.449 441.889 183.07 437.972 161.745 432.411C127.316 423.288 97.4923 406.228 70.9598 379.413C56.8705 365.174 43.2828 345.967 37.9795 322.903C30.4144 290.021 36.1258 258.621 37.175 229.699C37.2632 227.42 37.3092 225.127 37.3429 222.852C37.7332 188.288 31.4532 154.648 15.6569 125.603C-1.14625 94.6535 -30.579 69.3414 -63.989 68.8244" stroke="#BCBCBC" stroke-miterlimit="10"/>
<path d="M383.832 1102.6C359.191 1084.01 336.513 1061.65 316.126 1036.63C307.08 1025.52 298.381 1013.74 291.754 1000.19C278.501 973.106 274.98 942.262 275.692 912.512C275.893 904.288 276.387 896.131 277.1 888.164C280.263 854.207 287.077 820.887 296.98 789.106C306.801 757.687 320.459 727.912 329.89 694.412C339.182 661.431 348.34 627.22 351.018 592.122C353.278 562.173 349.814 530.46 336.774 504.568C334.419 499.862 331.751 495.38 328.774 491.154C310.444 465.065 283.342 452.517 255.821 444.965C247.12 442.588 238.372 440.689 229.789 438.967C207.336 434.476 184.428 429.946 162.644 423.599C127.411 413.151 97.1228 394.354 70.5884 365.569C57.366 351.224 44.5471 332.427 39.2469 310.142C31.6678 278.362 35.9422 247.882 35.6107 219.91C35.5813 217.706 35.5369 215.486 35.453 213.286C34.2063 179.908 26.322 148.08 9.77026 121.218C-7.83293 92.5902 -36.9134 70.0028 -69.1948 70.7042" stroke="#B7B7B7" stroke-miterlimit="10"/>
<path d="M393.215 1095.91C369.084 1077.76 346.989 1055.74 327.251 1030.99C318.488 1020.01 310.113 1008.37 303.618 995.133C290.642 968.659 286.487 938.684 286.358 909.579C286.323 901.505 286.569 893.516 287.031 885.666C289.111 852.249 294.83 819.302 303.599 787.727C312.285 756.512 324.727 726.761 333.686 693.884C342.91 659.99 352.446 625.159 355.408 589.262C357.894 558.688 354.571 526.133 341.423 499.551C339.031 494.729 336.339 490.112 333.31 485.753C314.663 458.936 286.948 446.136 258.796 438.25C249.907 435.765 240.958 433.76 232.184 431.896C209.249 427.045 185.815 421.936 163.555 414.769C127.519 403.013 96.6892 382.535 70.2297 351.707C57.8497 337.292 45.8382 318.868 40.5263 297.346C32.9333 266.668 35.7565 237.108 34.0577 210.085C33.9243 207.956 33.7636 205.828 33.5755 203.702C30.6792 171.528 21.2175 141.51 3.91017 116.832C-14.4918 90.5421 -43.2198 70.6799 -74.3745 72.5659" stroke="white" stroke-miterlimit="10"/>
<path d="M402.594 1089.19C378.987 1071.51 357.448 1049.8 338.358 1025.34C329.892 1014.5 321.827 1002.98 315.463 990.044C302.765 964.196 297.96 935.057 297.002 906.596C296.733 898.689 296.729 890.834 296.939 883.101C297.95 850.225 302.547 817.651 310.194 786.28C317.76 755.27 328.973 725.56 337.456 693.271C346.611 658.446 356.542 623.013 359.772 586.317C362.498 555.099 359.316 521.703 346.034 494.465C343.617 489.508 340.889 484.775 337.81 480.3C318.856 452.737 290.532 439.719 261.72 431.499C252.629 428.909 243.493 426.796 234.531 424.808C211.1 419.613 187.138 413.908 164.415 405.921C127.576 392.856 96.1399 370.768 69.8044 337.827C58.2259 323.344 47.0479 305.274 41.7267 284.549C34.1197 254.973 35.5051 226.333 32.4249 200.26C32.1874 198.204 31.909 196.152 31.6169 194.1C27.0839 163.129 16.0158 134.906 -2.04752 112.411C-21.2624 88.4604 -49.6257 71.3054 -79.6526 74.3932" stroke="#ABABAB" stroke-miterlimit="10"/>
<path d="M412.006 1082.48C388.908 1065.24 367.953 1043.89 349.512 1019.7C341.341 1008.98 333.587 997.614 327.368 984.969C314.947 959.73 309.507 931.46 307.705 903.626C307.202 895.886 306.948 888.182 306.907 880.566C306.835 848.23 310.336 816.029 316.85 784.879C323.296 754.089 333.264 724.387 341.288 692.719C350.346 656.966 360.699 620.928 364.197 583.416C367.148 551.554 364.123 517.332 350.717 489.404C348.276 484.313 345.511 479.462 342.382 474.872C323.109 446.579 294.185 433.309 264.727 424.772C255.435 422.074 246.097 419.855 236.958 417.725C213.045 412.186 188.554 405.885 165.354 397.078C127.724 382.703 95.5636 359.08 69.4691 323.949C58.681 309.433 48.3624 291.698 43.0306 271.753C35.4106 243.297 35.3565 215.558 30.8944 190.435C30.5391 188.455 30.1566 186.476 29.7616 184.516C23.5902 154.73 10.9297 128.318 -7.88896 108.023C-27.9037 86.4111 -55.9166 71.9642 -84.8161 76.2539" stroke="#A6A6A6" stroke-miterlimit="10"/>
<path d="M421.417 1075.77C398.829 1058.97 378.445 1037.96 360.666 1014.05C352.777 1003.46 345.348 992.228 339.259 979.879C327.115 955.249 321.027 927.849 318.381 900.643C317.644 893.07 317.14 885.499 316.861 878C315.718 846.204 318.11 814.375 323.476 783.43C328.799 752.844 337.51 723.168 345.074 692.121C354.023 655.439 364.796 618.78 368.577 580.485C371.768 547.978 368.886 512.93 355.343 484.314C352.879 479.105 350.076 474.121 346.895 469.397C327.302 440.359 297.767 426.871 267.675 417.981C258.196 415.193 248.656 412.85 239.327 410.596C214.917 404.696 189.911 397.799 166.236 388.206C127.8 372.504 94.8248 347.419 69.0782 310.058C59.0386 295.495 49.6084 278.111 44.2784 258.928C36.6444 231.574 35.1515 204.754 29.3071 180.581C28.8477 178.675 28.361 176.77 27.8483 174.885C20.0256 146.303 5.77106 121.685 -13.8043 103.573C-34.6203 84.2833 -62.2796 72.5788 -90.0509 78.0705" stroke="#A0A0A0" stroke-miterlimit="10"/>
<path d="M430.815 1069.07C408.738 1052.72 388.936 1032.02 371.794 1008.41C364.203 997.957 357.097 986.859 351.141 974.824C339.262 950.82 332.51 924.275 329.061 897.694C328.074 890.272 327.335 882.851 326.805 875.485C324.579 844.229 325.876 812.789 330.105 782.032C334.306 751.651 341.745 722.001 348.876 691.556C357.699 653.93 368.923 616.681 372.973 577.586C376.39 544.436 373.65 508.563 359.986 479.273C357.498 473.929 354.656 468.811 351.426 463.989C331.527 434.204 301.38 420.48 270.642 411.274C260.962 408.379 251.233 405.928 241.715 403.533C216.822 397.289 191.273 389.796 167.135 379.382C127.895 362.371 93.9856 335.883 68.7036 296.199C59.3993 281.589 50.8839 264.537 45.531 246.152C37.883 219.9 34.951 194 27.7239 170.776C27.1467 168.945 26.5558 167.115 25.9253 165.304C16.4645 137.926 0.615663 115.102 -19.7151 99.1905C-41.3311 82.2393 -68.639 73.2438 -95.2816 79.9378" stroke="#9B9B9B" stroke-miterlimit="10"/>
<path d="M440.227 1062.37C418.66 1046.47 399.43 1026.11 382.95 1002.78C375.641 992.439 368.861 981.489 363.036 969.751C351.434 946.356 344.048 920.679 339.754 894.727C338.533 887.471 337.558 880.2 336.762 872.935C333.465 842.22 333.638 811.153 336.744 780.6C339.81 750.423 345.99 720.799 352.689 690.973C361.359 652.404 373.061 614.564 377.381 574.669C381.037 540.875 378.438 504.159 364.652 474.196C362.141 468.735 359.248 463.484 355.981 458.544C335.763 428.03 305.004 414.072 273.633 404.53C263.765 401.528 253.821 398.971 244.127 396.45C218.753 389.862 192.675 381.774 168.06 370.539C128.016 352.219 93.0515 324.368 68.3547 282.32C59.745 267.666 52.1734 250.962 46.8237 233.356C39.1755 208.205 34.7754 183.209 26.1803 160.951C25.4989 159.195 24.7914 157.457 24.0567 155.72C12.9562 129.528 -4.49959 108.516 -25.587 94.7886C-48.003 80.1765 -74.9579 73.9072 -100.472 81.7868" stroke="#959595" stroke-miterlimit="10"/>
<path d="M449.639 1055.66C428.583 1040.21 409.937 1020.17 394.107 997.124C387.095 986.918 380.626 976.101 374.932 964.659C363.609 941.89 355.585 917.05 350.449 891.759C348.994 884.67 347.768 877.533 346.721 870.402C342.34 840.227 341.417 809.532 343.387 779.184C345.33 749.21 350.222 719.597 356.502 690.39C364.991 650.863 377.2 612.446 381.788 571.752C385.67 537.313 383.228 499.771 369.307 469.136C366.772 463.54 363.842 458.172 360.509 453.101C339.985 421.84 308.614 407.646 276.596 397.77C266.527 394.661 256.395 391.997 246.511 389.335C220.639 382.386 194.048 373.718 168.955 361.663C128.106 342.016 91.9535 312.845 67.9776 268.408C60.033 253.677 53.449 237.352 48.0876 220.509C40.4256 196.461 34.5856 172.384 24.6073 151.076C23.8217 149.394 23.0101 147.73 22.1575 146.069C9.41818 121.08 -9.63122 101.879 -31.4753 90.3358C-54.7049 78.0641 -81.2941 74.5036 -105.678 83.6027" stroke="#909090" stroke-miterlimit="10"/>
<path d="M459.051 1048.95C411.31 1014.08 376.947 953.869 361.145 888.793C345.344 823.716 347.11 754.241 360.316 689.826C368.61 649.341 381.325 610.347 386.196 568.853C391.068 527.359 386.949 481.263 365.066 447.674C337.673 405.618 291.069 393.93 248.911 382.254C179.587 363.081 104.931 330.169 67.6185 254.546C49.0351 216.883 41.6813 171.903 20.2651 136.503C-9.42843 87.428 -65.7645 65.4978 -110.892 85.473" stroke="#8A8A8A" stroke-miterlimit="10"/>
</g>
</g>
<defs>
<clipPath id="clip0_360_2115">
<rect width="557" height="1046" fill="white" transform="translate(-98)"/>
</clipPath>
<clipPath id="clip1_360_2115">
<rect width="1040.97" height="470.579" fill="white" transform="matrix(-0.0733067 -0.99731 0.997917 -0.0645138 -10.5981 1090.23)"/>
</clipPath>
</defs>
</svg>
