<svg width="589" height="1384" viewBox="0 0 589 1384" fill="none" xmlns="http://www.w3.org/2000/svg">
<g opacity="0.15">
<path opacity="0.0416667" d="M92.2435 555.206C82.5365 569.949 73.7002 585.824 65.7873 602.719C62.2724 610.233 58.8841 618.151 58.1196 627.902C56.1556 652.812 71.3886 681.636 87.0497 704.156C101.472 724.896 117.214 743.946 133.843 760.772C150.324 777.45 167.937 792.267 182.251 812.775C196.567 833.292 207.155 861.938 202.505 882.761C199.737 895.153 191.929 902.945 182.726 906.232C173.517 909.52 162.962 908.721 152.426 906.906C140.359 904.826 127.489 901.51 117.857 907.381C107.883 913.453 103.165 929.717 106.303 947.202C110.768 972.074 128.006 993.229 142.524 1013.61C160.965 1039.5 177.48 1069.85 184.185 1101.52C190.895 1133.18 185.745 1165.83 167.534 1176.43" stroke="url(#paint0_linear_606_2497)" stroke-miterlimit="10"/>
<path opacity="0.0833333" d="M92.7618 549.378C83.2891 564.324 74.6974 580.391 67.0377 597.466C63.6354 605.059 60.3643 613.057 59.728 622.849C58.0912 647.865 73.6199 676.524 89.4943 698.854C104.113 719.418 120.024 738.267 136.789 754.87C153.403 771.328 171.123 785.899 185.63 806.233C200.141 826.576 211.044 855.133 206.682 876.093C204.085 888.567 196.413 896.511 187.296 899.959C178.173 903.407 167.658 902.779 157.149 901.131C145.113 899.243 132.261 896.129 122.75 902.174C112.901 908.428 108.413 924.818 111.759 942.302C116.521 967.175 133.947 988.109 148.656 1008.31C167.34 1033.97 184.164 1064.15 191.242 1095.8C198.324 1127.45 193.615 1160.27 175.626 1171.2" stroke="url(#paint1_linear_606_2497)" stroke-miterlimit="10"/>
<path opacity="0.125" d="M93.1898 543.523C83.953 558.668 75.6073 574.923 68.202 592.174C64.9128 599.846 61.7594 607.92 61.2511 617.752C59.9416 642.869 75.7626 671.358 91.8468 693.493C106.658 713.879 122.735 732.522 139.632 748.9C156.378 765.134 174.2 779.457 188.898 799.614C203.599 819.779 214.816 848.241 210.742 869.336C208.317 881.889 200.783 889.982 191.753 893.589C182.717 897.198 172.244 896.74 161.764 895.259C149.76 893.563 136.93 890.65 127.541 896.87C117.819 903.303 113.562 919.815 117.115 937.296C122.172 962.165 139.783 982.875 154.68 1002.89C173.603 1028.33 190.733 1058.31 198.181 1089.95C205.633 1121.57 201.367 1154.57 183.602 1165.82" stroke="url(#paint2_linear_606_2497)" stroke-miterlimit="10"/>
<path opacity="0.166667" d="M93.5291 537.641C84.5295 552.982 76.4311 569.422 69.2813 586.845C66.1057 594.594 63.0704 602.744 62.6902 612.613C61.7078 637.825 77.8177 666.139 94.1083 688.076C109.11 708.28 125.348 726.714 142.375 742.863C159.249 758.871 177.169 772.945 192.055 792.92C206.944 812.903 218.471 841.266 214.686 862.489C212.432 875.12 205.038 883.36 196.097 887.126C187.15 890.893 176.721 890.605 166.271 889.292C154.303 887.788 141.496 885.076 132.232 891.468C122.638 898.08 118.612 914.71 122.371 932.185C127.722 957.044 145.514 977.527 160.596 997.36C179.754 1022.56 197.186 1052.35 205.003 1083.96C212.824 1115.55 208.999 1148.72 191.462 1160.3" stroke="url(#paint3_linear_606_2497)" stroke-miterlimit="10"/>
<path opacity="0.208333" d="M93.7795 531.734C85.0187 547.268 77.1688 563.889 70.2756 581.48C67.2141 589.303 64.2973 597.527 64.045 607.431C63.3894 632.734 79.7847 660.868 96.2784 682.603C111.467 702.62 127.864 720.843 145.016 736.761C162.015 752.539 180.029 766.361 195.1 786.151C210.174 805.95 222.008 834.207 218.513 855.555C216.431 868.26 209.177 876.645 200.327 880.569C191.47 884.493 181.087 884.376 170.67 883.23C158.74 881.917 145.959 879.408 136.82 885.97C127.356 892.758 123.562 909.504 127.527 926.968C133.17 951.813 151.139 972.065 166.403 991.71C185.792 1016.67 203.522 1046.26 211.706 1077.83C219.893 1109.39 216.511 1142.72 199.205 1154.62" stroke="url(#paint4_linear_606_2497)" stroke-miterlimit="10"/>
<path opacity="0.25" d="M93.9407 525.802C85.42 541.525 77.8198 558.324 71.1841 576.08C68.2371 583.976 65.4393 592.272 65.3148 602.21C64.9858 627.598 81.663 655.546 98.3563 677.075C113.729 696.902 130.281 714.911 147.555 730.594C164.675 746.141 182.781 759.708 198.033 779.31C213.288 798.92 225.428 827.067 222.222 848.535C220.313 861.311 213.2 869.84 204.442 873.92C195.677 878.002 185.342 878.053 174.96 877.075C163.069 875.954 150.317 873.646 141.305 880.377C131.973 887.341 128.41 904.198 132.58 921.649C138.514 946.474 156.656 966.491 172.1 985.944C191.716 1010.66 209.74 1040.05 218.289 1071.58C226.841 1103.1 223.9 1136.58 206.829 1148.8" stroke="url(#paint5_linear_606_2497)" stroke-miterlimit="10"/>
<path opacity="0.291667" d="M94.0124 519.848C85.7331 535.757 78.3837 552.73 72.0065 570.647C69.1745 578.615 66.496 586.981 66.4991 596.95C66.4963 622.418 83.4518 650.175 100.341 671.494C115.895 691.128 132.598 708.919 149.991 724.366C167.228 739.678 185.422 752.989 200.853 772.399C216.286 791.817 228.728 819.848 225.812 841.432C224.075 854.277 217.105 862.947 208.441 867.183C199.77 871.419 189.484 871.641 179.139 870.829C167.29 869.899 154.569 867.793 145.686 874.692C136.487 881.829 133.157 898.793 137.53 916.228C143.753 941.029 162.066 960.808 177.684 980.066C197.524 1004.53 215.838 1033.72 224.749 1065.2C233.664 1096.67 231.165 1130.3 214.331 1142.83" stroke="url(#paint6_linear_606_2497)" stroke-miterlimit="10"/>
<path opacity="0.333333" d="M93.9956 513.873C85.9591 529.964 78.8615 547.107 72.7437 565.181C70.027 573.219 67.4682 581.653 67.5989 591.651C67.9218 617.195 85.152 644.756 102.234 665.861C117.965 685.299 134.817 702.868 152.325 718.076C169.676 733.151 187.954 746.204 203.56 765.418C219.169 784.641 231.91 812.551 229.284 834.246C227.72 847.157 220.894 855.967 212.324 860.357C203.749 864.747 193.515 865.138 183.208 864.493C171.404 863.754 158.716 861.85 149.963 868.915C140.899 876.223 137.801 893.292 142.377 910.706C148.888 935.478 167.366 955.016 183.157 974.075C203.215 998.288 221.816 1027.26 231.088 1058.69C240.363 1090.11 238.306 1123.87 221.712 1136.72" stroke="url(#paint7_linear_606_2497)" stroke-miterlimit="10"/>
<path opacity="0.375" d="M93.8905 507.879C86.0979 524.149 79.2533 541.458 73.3957 559.685C70.7947 567.79 68.3559 576.291 68.6138 586.317C69.262 611.93 86.7632 639.291 104.034 660.178C119.939 679.416 136.936 696.761 154.556 711.727C172.018 726.563 190.376 739.355 206.154 758.37C221.935 777.394 234.973 805.178 232.636 826.979C231.245 839.954 224.564 848.901 216.091 853.444C207.613 857.988 197.432 858.547 187.166 858.069C175.408 857.521 162.756 855.819 154.135 863.048C145.207 870.525 142.343 887.695 147.119 905.086C153.916 929.825 172.557 949.117 188.517 967.974C208.79 991.93 227.674 1020.68 237.304 1052.05C246.937 1083.41 245.321 1117.31 228.97 1130.46" stroke="url(#paint8_linear_606_2497)" stroke-miterlimit="10"/>
<path opacity="0.416667" d="M93.6953 501.866C86.1478 518.311 79.5571 535.783 73.9605 554.159C71.4756 562.331 69.1571 570.897 69.5421 580.948C70.515 606.625 88.2835 633.78 105.74 654.447C121.816 673.48 138.954 690.599 156.682 705.321C174.252 719.914 192.686 732.444 208.633 751.257C224.582 770.079 237.914 797.731 235.868 819.634C234.649 832.67 228.114 841.753 219.74 846.447C211.359 851.144 201.234 851.87 191.011 851.559C179.301 851.202 166.687 849.701 158.2 857.092C149.41 864.738 146.779 882.005 151.755 899.368C158.837 924.068 177.636 943.113 193.762 961.764C214.245 985.459 233.408 1013.99 243.393 1045.29C253.382 1076.58 252.208 1110.61 236.103 1124.07" stroke="url(#paint9_linear_606_2497)" stroke-miterlimit="10"/>
<path opacity="0.458333" d="M93.4134 495.836C86.1121 512.452 79.7762 530.083 74.4413 548.605C72.0727 556.841 69.8749 565.47 70.3867 575.544C71.6837 601.281 89.7156 628.225 107.354 648.667C123.598 667.494 140.874 684.382 158.706 698.857C176.379 713.207 194.887 725.471 210.999 744.079C227.114 762.696 240.737 790.211 238.981 812.212C237.934 825.305 231.547 834.522 223.272 839.367C214.991 844.214 204.923 845.108 194.744 844.963C183.086 844.796 170.512 843.498 162.159 851.049C153.509 858.86 151.112 876.221 156.287 893.554C163.651 918.211 182.605 937.004 198.893 955.446C219.583 978.875 239.02 1007.17 249.359 1038.41C259.701 1069.63 258.968 1103.77 243.111 1117.54" stroke="url(#paint10_linear_606_2497)" stroke-miterlimit="10"/>
<path opacity="0.5" d="M93.0422 489.791C85.9882 506.575 79.908 524.361 74.8355 543.024C72.5836 551.323 70.5066 560.013 71.145 570.108C72.7654 595.899 91.057 622.628 108.874 642.841C125.281 661.458 142.692 678.113 160.626 692.34C178.399 706.442 196.976 718.441 213.25 736.839C229.527 755.247 243.438 782.62 241.972 804.715C241.098 817.863 234.858 827.211 226.685 832.206C218.506 837.202 208.497 838.264 198.364 838.284C186.758 838.307 174.228 837.211 166.011 844.92C157.502 852.896 155.338 870.347 160.71 887.646C168.355 912.254 187.461 930.793 203.908 949.023C224.8 972.183 244.507 1000.25 255.197 1031.4C265.889 1062.55 265.598 1096.8 249.992 1110.86" stroke="url(#paint11_linear_606_2497)" stroke-miterlimit="10"/>
<path opacity="0.541667" d="M92.5837 483.732C85.778 500.68 79.9544 518.617 75.1449 537.418C73.0099 545.778 71.054 554.528 71.8187 564.641C73.7617 590.482 92.3091 616.989 110.301 636.971C126.869 655.374 144.411 671.794 162.442 685.769C180.311 699.622 198.955 711.352 215.387 729.539C231.823 747.735 246.019 774.961 244.842 797.143C244.141 810.345 238.051 819.822 229.98 824.965C221.903 830.109 211.955 831.337 201.87 831.524C190.32 831.736 177.835 830.841 169.756 838.707C161.389 846.845 159.458 864.382 165.027 881.644C172.951 906.2 192.204 924.481 208.806 942.495C229.896 965.382 249.869 993.205 260.908 1024.28C271.949 1055.34 272.097 1089.7 256.745 1104.06" stroke="url(#paint12_linear_606_2497)" stroke-miterlimit="10"/>
<path opacity="0.583333" d="M92.0377 477.659C85.4813 494.769 79.9149 512.853 75.369 531.787C73.3512 540.207 71.5167 549.013 72.4072 559.144C74.6721 585.028 93.4714 611.31 111.634 631.057C128.36 649.243 146.029 665.424 164.154 679.146C182.116 692.748 200.822 704.208 217.409 722.179C234.001 740.16 248.478 767.233 247.591 789.5C247.063 802.752 241.122 812.356 233.156 817.646C225.183 822.937 215.298 824.331 205.263 824.682C193.77 825.084 181.332 824.39 173.392 832.411C165.169 840.71 163.473 858.329 169.236 875.551C177.437 900.049 196.833 918.069 213.588 935.865C234.871 958.474 255.106 986.052 266.491 1017.03C277.877 1048.01 278.465 1082.46 263.37 1097.12" stroke="url(#paint13_linear_606_2497)" stroke-miterlimit="10"/>
<path opacity="0.625" d="M91.4035 471.576C85.0972 488.842 79.7889 507.07 75.507 526.134C73.6066 534.611 71.8936 543.473 72.9098 553.619C75.4956 579.541 94.5429 605.594 112.873 625.101C129.752 643.067 147.546 659.007 165.761 672.473C183.813 685.822 202.576 697.01 219.316 714.763C236.06 732.525 250.815 759.441 250.218 781.788C249.862 795.086 244.073 804.815 236.211 810.25C228.344 815.687 218.523 817.247 208.541 817.763C197.107 818.354 184.719 817.86 176.919 826.034C168.841 834.491 167.378 852.19 173.335 869.368C181.811 893.803 201.346 911.559 218.251 929.133C239.723 951.461 260.216 978.79 271.944 1009.68C283.673 1040.55 284.7 1075.1 269.864 1090.04" stroke="url(#paint14_linear_606_2497)" stroke-miterlimit="10"/>
<path opacity="0.666667" d="M90.6824 465.483C84.6272 482.902 79.5775 501.27 75.5602 520.459C73.7774 528.992 72.186 537.908 73.3275 548.067C76.2333 574.022 95.5245 599.84 114.018 619.105C131.048 636.848 148.962 652.544 167.263 665.752C185.401 678.845 204.22 689.759 221.108 707.291C238 724.832 253.031 751.586 252.723 774.007C252.539 787.35 246.902 797.202 239.147 802.781C231.387 808.362 221.632 810.086 211.703 810.767C200.331 811.546 187.995 811.253 180.337 819.578C172.405 828.192 171.177 845.966 177.325 863.096C186.075 887.465 205.745 904.953 222.795 922.303C244.452 944.345 265.198 971.419 277.267 1002.2C289.337 1032.98 290.801 1067.61 276.226 1082.84" stroke="url(#paint15_linear_606_2497)" stroke-miterlimit="10"/>
<path opacity="0.708333" d="M89.8745 459.381C84.0711 476.95 79.2808 495.454 75.5283 514.763C73.8633 523.35 72.3938 532.318 73.66 542.488C76.8849 568.472 96.4161 594.049 115.069 613.069C132.246 630.586 150.277 646.036 168.661 658.983C186.881 671.818 205.751 682.458 222.784 699.765C239.822 717.081 255.125 743.668 255.105 766.159C255.093 779.544 249.609 789.517 241.962 795.238C234.31 800.962 224.624 802.851 214.75 803.695C203.442 804.662 191.16 804.57 183.645 813.044C175.861 821.811 174.866 839.657 181.206 856.737C190.226 881.034 210.028 898.252 227.219 915.375C249.057 937.128 270.053 963.942 282.459 994.62C294.866 1025.29 296.767 1060 282.457 1075.5" stroke="url(#paint16_linear_606_2497)" stroke-miterlimit="10"/>
<path opacity="0.75" d="M88.9798 453.273C83.429 470.987 78.8985 489.623 75.4113 509.05C73.8643 517.688 72.5166 526.706 73.9073 536.885C77.4501 562.892 97.2171 588.225 116.026 606.996C133.347 624.283 151.49 639.484 169.954 652.17C188.253 664.745 207.17 675.108 224.345 692.188C241.524 709.276 257.096 735.69 257.365 758.247C257.524 771.671 252.194 781.762 244.657 787.625C237.114 793.49 227.497 795.542 217.682 796.55C206.439 797.704 194.214 797.812 186.843 806.433C179.208 815.353 178.446 833.267 184.975 850.293C194.264 874.513 214.194 891.459 231.524 908.351C253.537 929.811 274.778 956.361 287.518 986.925C300.26 1017.48 302.598 1052.26 288.554 1068.04" stroke="url(#paint17_linear_606_2497)" stroke-miterlimit="10"/>
<path opacity="0.791667" d="M87.9986 447.159C82.7012 465.015 78.431 483.778 75.2093 503.318C73.7803 512.007 72.5547 521.073 74.0694 531.259C77.9289 557.283 97.9277 582.368 116.889 600.886C134.35 617.942 152.603 632.891 171.142 645.312C189.516 657.626 208.477 667.71 225.79 684.56C243.107 701.418 258.944 727.655 259.501 750.273C259.832 763.733 254.656 773.94 247.23 779.943C239.798 785.948 230.253 788.162 220.496 789.333C209.321 790.674 197.155 790.981 189.929 799.747C182.445 808.818 181.917 826.796 188.633 843.765C198.189 867.904 218.242 884.574 235.707 901.232C257.892 922.396 279.373 948.677 292.445 979.122C305.519 1009.56 308.292 1044.4 294.516 1060.46" stroke="url(#paint18_linear_606_2497)" stroke-miterlimit="10"/>
<path opacity="0.833333" d="M86.9319 441.04C81.8884 459.034 77.879 477.921 74.9231 497.57C73.6123 506.308 72.5088 515.42 74.1469 525.61C78.3221 551.647 98.5485 576.478 117.658 594.741C135.255 611.562 153.614 626.257 172.225 638.412C190.671 650.462 209.672 660.267 227.119 676.883C244.571 693.508 260.67 719.562 261.515 742.237C262.017 755.731 256.996 766.051 249.682 772.193C242.362 778.336 232.89 780.713 223.194 782.046C212.089 783.572 199.985 784.078 192.905 792.988C185.572 802.206 185.277 820.245 192.179 837.154C202 861.207 222.172 877.599 239.769 894.021C262.121 914.884 283.837 940.891 297.239 971.211C310.642 1001.52 313.848 1036.42 300.343 1052.75" stroke="url(#paint19_linear_606_2497)" stroke-miterlimit="10"/>
<path opacity="0.875" d="M85.7801 434.918C80.9912 453.046 77.2429 472.053 74.5531 491.807C73.3605 500.591 72.379 509.748 74.1402 519.941C78.6298 545.985 99.0795 570.559 118.333 588.563C136.064 605.146 154.524 619.584 173.204 631.471C191.718 643.256 210.755 652.779 228.334 669.159C245.917 685.548 262.274 711.416 263.406 734.142C264.078 747.667 259.214 758.099 252.012 764.377C244.806 770.658 235.409 773.195 225.776 774.69C214.743 776.401 202.702 777.107 195.77 786.157C188.59 795.522 188.527 813.618 195.614 830.463C205.697 854.425 225.985 870.536 243.709 886.718C266.223 907.278 288.172 933.006 301.899 963.196C315.628 993.375 319.267 1028.32 306.035 1044.92" stroke="url(#paint20_linear_606_2497)" stroke-miterlimit="10"/>
<path opacity="0.916667" d="M84.5422 428.795C80.0085 447.053 76.5217 466.176 74.098 486.031C73.0237 494.86 72.1643 504.059 74.048 514.253C78.8507 540.299 99.5196 564.61 118.914 582.353C136.774 598.695 155.333 612.874 174.077 624.492C192.655 636.009 211.725 645.25 229.431 661.391C247.142 677.54 263.754 703.217 265.172 725.99C266.015 739.543 261.307 750.084 254.22 756.498C247.128 762.914 237.808 765.611 228.24 767.267C217.28 769.164 205.305 770.067 198.521 779.256C191.496 788.765 191.666 806.914 198.935 823.692C209.278 847.56 229.677 863.386 247.525 879.327C270.198 899.58 292.373 925.025 306.423 955.078C320.475 985.12 324.545 1020.11 311.588 1036.97" stroke="url(#paint21_linear_606_2497)" stroke-miterlimit="10"/>
<path opacity="0.958333" d="M83.2194 422.672C78.9412 441.057 75.7162 460.292 73.5586 480.243C72.6028 489.115 71.8655 498.354 73.8711 508.547C78.9854 534.589 99.8693 558.635 119.4 576.113C137.386 592.211 156.04 606.129 174.845 617.475C193.483 628.723 212.582 637.68 230.412 653.579C248.247 669.487 265.111 694.967 266.814 717.782C267.827 731.361 263.277 742.009 256.306 748.556C249.329 755.106 240.088 757.964 230.585 759.78C219.702 761.86 207.794 762.961 201.161 772.287C194.29 781.937 194.692 800.136 202.142 816.844C212.743 840.612 233.249 856.152 251.219 871.848C274.044 891.79 296.442 916.948 310.812 946.859C325.183 976.759 329.683 1011.78 317.003 1028.9" stroke="url(#paint22_linear_606_2497)" stroke-miterlimit="10"/>
<path d="M81.82 416.551C77.7978 435.058 74.8347 454.401 72.9433 474.445C72.1058 483.358 71.4905 492.637 73.6176 502.826C79.0422 528.861 100.137 552.635 119.801 569.847C137.909 585.698 156.654 599.353 175.518 610.426C194.213 621.403 213.337 630.075 231.288 645.73C249.243 661.394 266.356 686.673 268.344 709.527C269.526 723.127 265.134 733.881 258.279 740.561C251.419 747.243 242.258 750.259 232.823 752.235C222.017 754.498 210.179 755.796 203.697 765.257C196.982 775.047 197.615 793.292 205.246 809.927C216.102 833.591 236.711 848.843 254.798 864.292C277.773 883.92 300.389 908.785 315.076 938.549C329.763 968.302 334.691 1003.35 322.291 1020.73" stroke="url(#paint23_linear_606_2497)" stroke-miterlimit="10"/>
</g>
<g opacity="0.2">
<path opacity="0.0416667" d="M-525.83 335.986C-401.092 331.169 -402.373 262.488 -298.576 178.297C-215.538 110.944 -96.1238 115.422 -46.7966 126.08C-30.1092 119.262 -11.4891 122.555 3.74488 131.188C18.0675 139.289 29.8282 151.899 38.0376 167.668C38.5771 168.709 39.1026 169.764 39.6111 170.824C46.0729 184.261 50.1279 199.815 58.0766 214.888C63.6362 225.461 71.5444 234.448 79.5043 241.7C99.9191 260.304 123.415 270.766 149.224 275.012C165.112 277.581 181.517 278.395 197.434 278.7C203.516 278.817 209.742 278.958 215.98 279.369C235.791 280.694 255.789 284.792 271.395 299.306C273.93 301.668 276.259 304.232 278.403 306.972C290.185 322.021 296.065 342.226 297.86 361.725C299.961 384.699 297.509 407.618 296.198 430.313C295.094 449.521 293.116 468.072 293.357 486.719C293.613 505.582 295.827 524.58 300.243 543.101C301.291 547.468 302.487 551.848 303.829 556.199C308.648 571.831 315.638 587.13 326.084 600.021C331.32 606.483 337.263 612.116 343.418 617.313C357.295 629.05 372.461 638.75 388.511 645.694C407.339 647.844 449.082 663.583 465.433 709.34C485.873 766.536 511.508 919.852 388.921 968.505C266.334 1017.16 231.222 1046.14 145.824 1097.17C60.4256 1148.19 -242.098 1122.91 -329.392 1352.52" stroke="#A0A0A0" stroke-miterlimit="10"/>
<path opacity="0.0833333" d="M-525.653 333.415C-401.25 329.77 -401.976 261.127 -297.814 177.969C-214.485 111.443 -95.4653 117.034 -46.3716 128.146C-29.6796 121.489 -11.1418 124.954 3.97714 133.723C18.1918 141.952 29.8159 154.663 37.8741 170.498C38.4036 171.543 38.919 172.602 39.4176 173.666C45.752 187.153 49.67 202.734 57.4739 217.87C62.9319 228.488 70.7442 237.542 78.6219 244.863C98.8262 263.645 122.167 274.319 147.865 278.803C163.685 281.519 180.034 282.486 195.901 282.94C201.964 283.113 208.17 283.312 214.386 283.781C234.126 285.291 254.032 289.573 269.474 304.223C271.983 306.607 274.285 309.19 276.4 311.948C288.026 327.097 293.726 347.342 295.359 366.843C297.269 389.82 294.641 412.699 293.151 435.365C291.897 454.549 289.775 473.068 289.865 491.704C289.97 510.555 292.025 529.56 296.279 548.109C297.288 552.482 298.446 556.87 299.748 561.231C304.428 576.896 311.274 592.25 321.584 605.228C326.754 611.735 332.634 617.419 338.729 622.67C352.47 634.528 367.512 644.363 383.458 651.452C402.212 653.777 443.703 669.895 459.638 715.771C479.557 773.117 503.885 926.559 381.275 974.03C258.665 1021.5 223.426 1050.13 137.874 1100.32C52.3226 1150.51 -249.09 1122.42 -337.965 1351.04" stroke="#A0A0A0" stroke-miterlimit="10"/>
<path opacity="0.125" d="M-525.472 330.92C-401.416 328.439 -401.588 259.839 -297.071 177.714C-213.458 112.014 -94.8433 118.714 -45.9874 130.276C-29.2922 123.78 -10.8383 127.415 4.16442 136.319C18.2699 144.675 29.7567 157.485 37.6631 173.384C38.1826 174.433 38.6879 175.496 39.1764 176.564C45.3832 190.101 49.164 205.706 56.8225 220.905C62.1786 231.566 69.8944 240.686 77.6895 248.075C97.6815 267.033 120.866 277.917 146.45 282.638C162.2 285.499 178.492 286.618 194.307 287.22C200.351 287.45 206.537 287.707 212.73 288.234C232.399 289.927 252.21 294.392 267.488 309.175C269.969 311.58 272.243 314.184 274.33 316.959C285.799 332.206 291.319 352.49 292.791 371.992C294.51 394.97 291.705 417.808 290.038 440.444C288.633 459.602 286.369 478.088 286.309 496.711C286.261 515.55 288.157 534.56 292.249 553.135C293.22 557.515 294.338 561.91 295.602 566.28C300.142 581.977 306.843 597.384 317.018 610.45C322.12 617 327.936 622.734 333.97 628.039C347.574 640.017 362.492 649.985 378.333 657.218C397.012 659.716 438.248 676.21 453.766 722.202C473.163 779.692 496.183 933.251 373.561 979.542C250.94 1025.83 215.576 1054.12 129.88 1103.47C44.1827 1152.83 -256.093 1121.93 -346.54 1349.56" stroke="#A0A0A0" stroke-miterlimit="10"/>
<path opacity="0.166667" d="M-525.288 328.5C-401.589 327.178 -401.207 258.625 -296.347 177.533C-212.458 112.659 -94.2579 120.459 -45.6438 132.469C-28.9471 126.133 -10.5786 129.938 4.30671 138.975C18.3019 147.457 29.6504 160.365 37.4046 176.325C37.9141 177.379 38.4093 178.446 38.8877 179.517C44.9664 193.103 48.6099 208.732 56.1225 223.991C61.3763 234.695 68.9951 243.881 76.7069 251.337C96.4853 270.467 119.512 281.56 144.98 286.516C160.659 289.522 176.892 290.792 192.655 291.541C198.678 291.827 204.842 292.142 211.013 292.725C230.608 294.601 250.323 299.247 265.435 314.162C267.89 316.589 270.136 319.212 272.194 322.005C283.505 337.347 288.845 357.668 290.155 377.17C291.683 400.148 288.703 422.943 286.858 445.548C285.303 464.679 282.897 483.131 282.687 501.74C282.487 520.565 284.224 539.579 288.154 558.179C289.087 562.565 290.166 566.968 291.391 571.346C295.79 587.075 302.347 602.533 312.386 615.684C317.419 622.277 323.171 628.062 329.144 633.419C342.61 645.515 357.402 655.615 373.137 662.99C391.738 665.661 432.717 682.527 447.816 728.631C466.691 786.261 488.402 939.925 365.78 985.04C243.159 1030.15 207.675 1058.09 121.841 1106.61C36.0065 1155.13 -263.107 1121.46 -355.114 1348.09" stroke="#A0A0A0" stroke-miterlimit="10"/>
<path opacity="0.208333" d="M-525.101 326.155C-401.77 325.984 -400.835 257.483 -295.64 177.424C-211.484 113.376 -93.709 122.27 -45.3408 134.724C-28.644 128.548 -10.3626 132.521 4.40413 141.69C18.2879 150.296 29.4974 163.301 37.0988 179.322C37.5982 180.38 38.0833 181.451 38.5515 182.526C44.5019 196.158 48.0079 211.811 55.3742 227.129C60.5254 237.873 68.0467 247.124 75.6746 254.647C95.2378 273.948 118.104 285.246 143.454 290.436C159.061 293.586 175.234 295.006 190.942 295.901C196.945 296.243 203.088 296.615 209.235 297.256C228.755 299.312 248.372 304.138 263.317 319.184C265.745 321.632 267.963 324.273 269.992 327.084C281.145 342.521 286.304 362.877 287.452 382.378C288.79 405.353 285.635 428.105 283.613 450.676C281.908 469.78 279.36 488.196 279 506.79C278.649 525.6 280.227 544.617 283.994 563.24C284.889 567.632 285.929 572.042 287.115 576.428C291.374 592.187 297.786 607.695 307.687 620.93C312.651 627.566 318.34 633.4 324.251 638.808C337.578 651.021 352.243 661.252 367.87 668.769C386.393 671.61 427.109 688.846 441.79 735.058C460.141 792.823 480.544 946.581 357.933 990.523C235.322 1034.47 199.721 1062.05 113.758 1109.74C27.7945 1157.43 -270.131 1121 -363.688 1346.61" stroke="#A0A0A0" stroke-miterlimit="10"/>
<path opacity="0.25" d="M-524.911 323.886C-401.959 324.86 -400.472 256.415 -294.953 177.388C-210.538 114.166 -93.1975 124.148 -45.0793 137.042C-28.3839 131.025 -10.1909 135.165 4.45596 144.465C18.2272 153.194 29.2968 166.294 36.745 182.375C37.2343 183.436 37.7092 184.511 38.1674 185.589C43.9889 199.268 47.3573 214.942 54.5769 230.318C59.6252 241.103 67.0483 250.417 74.5918 258.005C93.9384 277.474 116.642 288.978 141.872 294.399C157.406 297.692 173.518 299.261 189.17 300.301C195.151 300.699 201.273 301.127 207.395 301.825C226.838 304.061 246.356 309.066 261.133 324.24C263.533 326.709 265.723 329.369 267.724 332.196C278.717 347.726 283.695 368.116 284.681 387.614C285.83 410.586 282.5 433.292 280.301 455.829C278.446 474.904 275.757 493.284 275.248 511.861C274.746 530.655 276.165 549.673 279.77 568.319C280.626 572.716 281.628 577.132 282.774 581.527C286.892 597.314 293.158 612.871 302.922 626.189C307.817 632.866 313.441 638.749 319.29 644.208C332.478 656.536 347.014 666.897 362.532 674.553C380.975 677.564 421.426 695.166 435.688 741.483C453.514 799.378 472.609 953.219 350.02 995.992C227.431 1038.77 191.716 1066 105.631 1112.86C19.5466 1159.71 -277.165 1120.54 -372.261 1345.13" stroke="#A0A0A0" stroke-miterlimit="10"/>
<path opacity="0.291667" d="M-524.72 321.692C-402.158 323.804 -400.12 255.42 -294.286 177.424C-209.62 115.028 -92.7243 126.09 -44.8601 139.421C-28.1676 133.563 -10.0647 137.869 4.46123 147.299C18.1189 156.149 29.0478 169.342 36.3424 185.481C36.8215 186.546 37.2862 187.625 37.7342 188.707C43.4267 202.43 46.6573 218.124 53.7296 233.557C58.6747 244.381 65.9992 253.757 73.4577 261.411C92.5862 281.046 115.126 292.752 140.234 298.403C155.692 301.838 171.742 303.555 187.337 304.74C193.297 305.192 199.395 305.677 205.494 306.431C224.858 308.845 244.274 314.028 258.883 329.328C261.255 331.818 263.417 334.497 265.388 337.34C276.221 352.961 281.018 373.384 281.843 392.877C282.802 415.845 279.297 438.504 276.923 461.006C274.919 480.05 272.089 498.392 271.43 516.953C270.777 535.729 272.037 554.747 275.48 573.413C276.298 577.815 277.26 582.238 278.368 586.64C282.344 602.454 288.465 618.059 298.091 631.458C302.916 638.176 308.475 644.107 314.262 649.617C327.308 662.059 341.715 672.547 357.123 680.342C375.484 683.522 415.667 701.487 429.508 747.903C446.809 805.925 464.596 959.837 342.04 1001.45C219.484 1043.05 183.659 1069.94 97.4606 1115.97C11.2624 1161.99 -284.211 1120.1 -380.835 1343.65" stroke="#A0A0A0" stroke-miterlimit="10"/>
<path opacity="0.333333" d="M-524.528 319.573C-402.365 322.817 -399.777 254.498 -293.639 177.534C-208.729 115.962 -92.2891 128.098 -44.6827 141.862C-27.9947 136.162 -9.98335 140.633 4.42053 150.19C17.9636 159.161 28.751 172.447 35.8914 188.642C36.3604 189.711 36.8149 190.793 37.2526 191.878C42.8157 205.645 45.9085 221.359 52.8332 236.846C57.6748 247.709 64.9001 257.146 72.273 264.864C91.182 284.662 113.557 296.568 138.54 302.448C153.922 306.023 169.908 307.888 185.444 309.216C191.382 309.724 197.457 310.264 203.53 311.074C222.815 313.666 242.128 319.025 256.566 334.45C258.912 336.96 261.045 339.657 262.986 342.517C273.658 358.227 278.275 378.68 278.938 398.168C279.707 421.129 276.029 443.741 273.479 466.205C271.326 485.218 268.356 503.522 267.548 522.063C266.744 540.821 267.846 559.838 271.125 578.524C271.905 582.93 272.829 587.359 273.897 591.768C277.732 607.608 283.707 623.259 293.194 636.738C297.949 643.496 303.442 649.475 309.166 655.035C322.07 667.589 336.347 678.203 351.644 686.135C369.922 689.483 409.833 707.807 423.253 754.32C440.028 812.462 456.506 966.435 333.994 1006.88C211.482 1047.33 175.55 1073.86 89.2467 1119.06C2.94305 1164.26 -291.267 1119.67 -389.409 1342.17" stroke="#A0A0A0" stroke-miterlimit="10"/>
<path opacity="0.375" d="M-524.337 317.529C-402.584 321.898 -399.446 253.648 -293.014 177.715C-207.869 116.968 -91.893 130.17 -44.5484 144.364C-27.8664 138.822 -9.94806 143.456 4.33262 153.14C17.7599 162.229 28.4051 175.606 35.391 191.856C35.8498 192.929 36.294 194.014 36.7215 195.103C42.1548 208.911 45.1098 224.644 51.8863 240.184C56.6241 251.085 63.7497 260.583 71.0365 268.363C89.7246 288.323 111.932 300.427 136.789 306.534C152.093 310.249 168.013 312.26 183.491 313.73C189.405 314.292 195.457 314.888 201.505 315.753C220.707 318.522 239.916 324.055 254.184 339.603C256.501 342.133 258.605 344.848 260.518 347.724C271.028 363.522 275.463 384.004 275.965 403.486C276.544 426.438 272.693 449.001 269.968 471.427C267.667 490.407 264.557 508.671 263.6 527.193C262.646 545.931 263.589 564.945 266.706 583.649C267.447 588.059 268.332 592.494 269.36 596.91C273.055 612.775 278.883 628.47 288.23 642.028C292.916 648.825 298.342 654.851 304.003 660.46C316.764 673.124 330.91 683.863 346.093 691.931C364.287 695.445 403.923 714.125 416.921 760.732C433.169 818.99 448.34 973.012 325.883 1012.3C203.426 1051.59 167.39 1077.78 80.989 1122.15C-5.41227 1166.52 -298.335 1119.24 -397.983 1340.7" stroke="#A0A0A0" stroke-miterlimit="10"/>
<path opacity="0.416667" d="M-524.145 315.56C-402.812 321.047 -399.127 252.871 -292.41 177.967C-207.037 118.044 -91.5357 132.305 -44.4568 146.926C-27.7821 141.542 -9.95829 146.337 4.19808 156.146C17.5086 165.354 28.0108 178.819 34.8417 195.124C35.2903 196.199 35.7243 197.288 36.1415 198.38C41.4447 212.23 44.2617 227.979 50.8898 243.572C55.5234 254.508 62.5489 264.066 69.749 271.908C88.2149 292.027 110.253 304.328 134.981 310.659C150.207 314.512 166.061 316.669 181.477 318.281C187.368 318.897 193.396 319.549 199.417 320.469C218.537 323.412 237.64 329.119 251.735 344.788C254.024 347.337 256.1 350.07 257.982 352.961C268.33 368.846 272.584 389.356 272.925 408.829C273.314 431.771 269.292 454.284 266.392 476.67C263.943 495.616 260.693 513.84 259.588 532.341C258.483 551.058 259.268 570.068 262.222 588.788C262.925 593.203 263.77 597.642 264.76 602.065C268.312 617.954 273.994 633.692 283.2 647.328C287.816 654.163 293.176 660.234 298.773 665.892C311.39 678.666 325.404 689.528 340.473 697.73C358.58 701.41 397.939 720.442 410.515 767.138C426.235 825.507 440.099 979.568 317.707 1017.7C195.316 1055.84 159.18 1081.68 72.6888 1125.23C-13.8023 1168.77 -305.412 1118.83 -406.557 1339.22" stroke="#A0A0A0" stroke-miterlimit="10"/>
<path opacity="0.458333" d="M-523.954 313.666C-403.053 320.265 -398.82 252.167 -291.829 178.292C-206.236 119.192 -91.2185 134.505 -44.4091 149.549C-27.7433 144.321 -10.0155 149.277 4.01549 159.21C17.2083 168.534 27.5667 182.087 34.2423 198.443C34.6806 199.523 35.1042 200.615 35.5112 201.71C40.684 215.599 43.363 231.364 49.8422 247.007C54.3714 257.98 61.2962 267.595 68.4092 275.498C86.6514 295.774 108.519 308.27 133.116 314.824C148.262 318.815 164.048 321.115 179.402 322.867C185.269 323.537 191.273 324.244 197.267 325.219C216.302 328.336 235.297 334.214 249.219 350.003C251.48 352.572 253.527 355.321 255.38 358.229C265.564 374.198 269.636 394.733 269.817 414.197C270.017 437.128 265.823 459.59 262.748 481.934C260.152 500.846 256.763 519.028 255.51 537.507C254.255 556.201 254.881 575.207 257.673 593.941C258.337 598.359 259.144 602.804 260.094 607.233C263.505 623.144 269.039 638.925 278.105 652.635C282.65 659.509 287.943 665.626 293.476 671.331C305.948 684.212 319.828 695.196 334.782 703.531C352.802 707.375 391.879 726.757 404.032 773.538C419.224 832.013 431.781 986.102 309.466 1023.09C187.151 1060.08 150.918 1085.56 64.3451 1128.29C-22.228 1171.01 -312.502 1118.42 -415.131 1337.74" stroke="#A0A0A0" stroke-miterlimit="10"/>
<path opacity="0.5" d="M-523.765 311.847C-403.305 319.55 -398.526 251.534 -291.269 178.687C-205.464 120.41 -90.9409 136.767 -44.4048 152.231C-27.7494 147.159 -10.119 152.275 3.78552 162.33C16.8595 171.768 27.0734 185.408 33.5932 201.815C34.0213 202.898 34.4346 203.993 34.8313 205.091C39.8734 219.019 42.4143 234.798 48.7442 250.491C53.1688 261.498 59.9925 271.171 67.0178 279.134C85.035 299.563 106.73 312.252 131.195 319.027C146.26 323.154 161.976 325.598 177.266 327.49C183.109 328.213 189.088 328.975 195.055 330.004C214.003 333.293 232.89 339.342 246.637 355.248C248.87 357.836 250.887 360.603 252.711 363.525C262.731 379.578 266.622 400.137 266.642 419.59C266.653 442.508 262.287 464.917 259.039 487.219C256.295 506.094 252.768 524.233 251.367 542.689C249.963 561.36 250.431 580.359 253.059 599.107C253.685 603.529 254.453 607.978 255.363 612.412C258.633 628.345 264.02 644.166 272.944 657.951C277.418 664.862 282.644 671.023 288.112 676.776C300.439 689.763 314.184 700.867 329.022 709.334C346.952 713.34 385.745 733.068 397.475 779.93C412.138 838.508 423.388 992.612 301.161 1028.45C178.933 1064.3 142.607 1089.44 55.9592 1131.34C-30.6881 1173.24 -319.601 1118.02 -423.705 1336.26" stroke="#A0A0A0" stroke-miterlimit="10"/>
<path opacity="0.541667" d="M-523.579 310.103C-403.569 318.902 -398.245 250.974 -290.734 179.154C-204.725 121.698 -90.7044 139.093 -44.4453 154.972C-27.8016 150.056 -10.2701 155.33 3.50688 165.505C16.4611 175.057 26.5298 188.782 32.8935 205.238C33.3113 206.324 33.7142 207.422 34.1006 208.523C39.0118 222.488 41.4144 238.281 47.5948 254.022C51.9145 265.062 58.6365 274.791 65.5736 282.814C83.3646 303.395 104.885 316.274 129.216 323.269C144.198 327.531 159.843 330.117 175.069 332.147C180.887 332.923 186.841 333.739 192.78 334.822C211.64 338.283 230.416 344.501 243.988 360.522C246.193 363.129 248.181 365.912 249.974 368.849C259.83 384.984 263.539 405.565 263.399 425.006C263.221 447.91 258.685 470.264 255.263 492.523C252.373 511.361 248.707 529.457 247.159 547.888C245.605 566.534 245.916 585.525 248.381 604.286C248.969 608.71 249.697 613.163 250.568 617.604C253.696 633.556 258.935 649.416 267.717 663.274C272.119 670.222 277.278 676.427 282.681 682.225C294.861 695.317 308.471 706.54 323.191 715.137C341.031 719.305 379.537 739.375 390.843 786.315C404.976 844.989 414.921 999.099 292.791 1033.8C170.661 1068.5 134.244 1093.29 47.5305 1134.38C-39.1834 1175.46 -326.713 1117.64 -432.279 1334.78" stroke="#A0A0A0" stroke-miterlimit="10"/>
<path opacity="0.583333" d="M-523.395 308.434C-403.846 318.323 -397.979 250.485 -290.222 179.692C-204.016 123.057 -90.5082 141.481 -44.5298 157.772C-27.8994 153.011 -10.4681 158.441 3.18027 168.736C16.0137 178.401 25.9365 192.208 32.1437 208.712C32.5512 209.801 32.9437 210.903 33.3198 212.007C38.0997 226.008 40.3642 241.812 46.3946 257.6C50.6091 268.672 57.229 278.457 64.0775 286.538C81.641 307.268 102.985 320.335 127.18 327.548C142.078 331.944 157.652 334.671 172.811 336.839C178.605 337.668 184.532 338.538 190.443 339.674C209.214 343.305 227.877 349.69 241.274 365.825C243.449 368.45 245.408 371.25 247.171 374.202C256.862 390.416 260.389 411.019 260.089 430.446C259.722 453.334 255.016 475.633 251.422 497.846C248.385 516.646 244.582 534.697 242.887 553.102C241.184 571.723 241.336 590.705 243.639 609.476C244.188 613.903 244.877 618.36 245.709 622.806C248.695 638.776 253.786 654.675 262.425 668.604C266.756 675.587 271.847 681.835 277.185 687.68C289.217 700.875 302.69 712.214 317.292 720.941C335.039 725.269 373.255 745.678 384.137 792.691C397.74 851.458 406.38 1005.56 284.358 1039.13C162.336 1072.69 125.833 1097.14 39.0601 1137.4C-47.7127 1177.67 -333.834 1117.26 -440.853 1333.3" stroke="#A0A0A0" stroke-miterlimit="10"/>
<path opacity="0.625" d="M-523.215 306.839C-404.137 317.811 -397.727 250.068 -289.734 180.3C-203.34 124.485 -90.3536 143.93 -44.6597 160.63C-28.0439 156.023 -10.7142 161.609 2.80453 172.022C15.5162 181.797 25.2924 195.686 31.3428 212.237C31.7399 213.329 32.1221 214.433 32.4877 215.54C37.1363 229.576 39.2625 245.391 45.1425 261.224C49.2517 272.328 55.7691 282.166 62.5283 290.305C79.8631 311.182 101.03 324.436 125.086 331.864C139.9 336.393 155.4 339.26 170.492 341.565C176.26 342.446 182.16 343.369 188.043 344.559C206.723 348.358 225.273 354.909 238.492 371.156C240.638 373.799 242.568 376.616 244.301 379.581C253.826 395.874 257.17 416.496 256.711 435.908C256.156 458.779 251.28 481.021 247.514 503.187C244.332 521.949 240.391 539.953 238.549 558.332C236.698 576.925 236.692 595.897 238.832 614.678C239.343 619.107 239.993 623.567 240.785 628.018C243.629 644.006 248.572 659.94 257.068 673.94C261.326 680.958 266.349 687.249 271.621 693.138C283.505 706.435 296.84 717.89 311.322 726.744C328.976 731.23 366.899 751.974 377.356 799.058C390.428 857.912 397.764 1012 275.861 1044.43C153.959 1076.87 117.371 1100.96 30.5475 1140.42C-56.2765 1179.87 -340.968 1116.89 -449.427 1331.83" stroke="#A0A0A0" stroke-miterlimit="10"/>
<path opacity="0.666667" d="M-523.039 305.319C-404.441 317.366 -397.49 249.723 -289.271 180.978C-202.696 125.982 -90.2405 146.442 -44.8346 163.546C-28.2349 159.093 -11.0083 164.833 2.37983 175.362C14.9688 185.247 24.5977 199.216 30.491 215.812C30.8777 216.907 31.2495 218.014 31.6047 219.123C36.1216 233.192 38.1096 249.017 43.8389 264.893C47.8425 276.028 54.2569 285.92 60.9265 294.115C78.0313 315.137 99.0189 328.574 122.934 336.216C137.662 340.877 153.088 343.883 168.112 346.324C173.853 347.257 179.727 348.233 185.581 349.475C204.168 353.442 222.603 360.157 235.643 376.515C237.761 379.176 239.661 382.008 241.364 384.987C250.723 401.356 253.885 421.996 253.265 441.392C252.522 464.244 247.478 486.428 243.54 508.547C240.213 527.268 236.136 545.226 234.147 563.576C232.147 582.141 231.984 601.101 233.961 619.89C234.433 624.321 235.044 628.784 235.797 633.239C238.499 649.243 243.294 665.213 251.645 679.281C255.832 686.334 260.786 692.666 265.992 698.6C277.727 711.996 290.923 723.565 305.284 732.546C322.843 737.19 360.469 758.266 370.502 805.415C383.043 864.352 389.075 1018.41 267.302 1049.72C145.529 1081.02 108.861 1104.77 21.9934 1143.41C-64.8742 1182.05 -348.112 1116.53 -458.001 1330.35" stroke="#A0A0A0" stroke-miterlimit="10"/>
<path opacity="0.708333" d="M-522.868 303.874C-404.76 316.988 -397.269 249.449 -288.834 181.726C-202.085 127.548 -90.1698 149.014 -45.0555 166.52C-28.4732 162.219 -11.351 168.112 1.90547 178.756C14.3708 188.749 23.8518 202.797 29.5876 219.435C29.9639 220.533 30.3252 221.643 30.6701 222.755C35.055 236.857 36.9048 252.69 42.4832 268.609C46.3809 279.773 52.6919 289.717 59.2714 297.967C76.145 319.131 96.9518 332.751 120.725 340.605C135.366 345.396 150.716 348.54 165.67 351.116C171.385 352.1 177.231 353.128 183.055 354.423C201.548 358.556 219.866 365.434 232.728 381.9C234.817 384.578 236.687 387.426 238.359 390.419C247.551 406.863 250.531 427.518 249.752 446.897C248.822 469.728 243.609 491.853 239.5 513.923C236.028 532.602 231.815 550.513 229.68 568.834C227.532 587.369 227.212 606.317 229.026 625.112C229.46 629.544 230.032 634.011 230.744 638.47C233.305 654.489 237.951 670.492 246.158 684.627C250.272 691.714 255.157 698.087 260.296 704.064C271.881 717.559 284.938 729.24 299.177 738.345C316.64 743.146 353.967 764.55 363.574 811.761C375.583 870.776 380.314 1024.8 258.68 1054.98C137.046 1085.17 100.301 1108.57 13.3977 1146.4C-73.506 1184.23 -355.267 1116.17 -466.575 1328.87" stroke="#A0A0A0" stroke-miterlimit="10"/>
<path opacity="0.75" d="M-522.704 302.504C-405.095 316.676 -397.065 249.246 -288.423 182.544C-201.509 129.182 -90.1421 151.647 -45.323 169.55C-28.7596 165.402 -11.7431 171.446 1.38074 182.203C13.7215 192.303 23.054 206.428 28.6319 223.108C28.9979 224.209 29.3487 225.321 29.6832 226.436C33.9359 240.569 35.6475 256.409 41.0746 272.369C44.8663 283.561 51.0735 293.556 57.5623 301.861C74.2036 323.165 94.828 336.964 118.457 345.029C133.01 349.949 148.282 353.23 163.166 355.939C168.854 356.975 174.672 358.055 180.466 359.402C198.863 363.699 217.064 370.739 229.746 387.311C231.805 390.007 233.645 392.869 235.287 395.876C244.311 412.393 247.109 433.063 246.171 452.423C245.053 475.232 239.673 497.297 235.394 519.316C231.777 537.953 227.428 555.814 225.147 574.105C222.852 592.61 222.375 611.543 224.026 630.343C224.421 634.777 224.954 639.246 225.628 643.709C228.046 659.741 232.543 675.777 240.605 689.978C244.646 697.097 249.462 703.511 254.534 709.531C265.968 723.122 278.884 734.915 293.001 744.143C310.365 749.098 347.391 770.826 356.572 818.096C368.049 877.184 371.479 1031.15 249.995 1060.22C128.511 1089.29 91.6926 1112.35 4.76026 1149.37C-82.172 1186.39 -362.435 1115.83 -475.149 1327.39" stroke="#A0A0A0" stroke-miterlimit="10"/>
<path opacity="0.791667" d="M-522.544 301.208C-405.444 316.432 -396.877 249.115 -288.037 183.432C-200.965 130.885 -90.1565 154.341 -45.6359 172.637C-29.0929 168.641 -12.1834 174.834 0.806849 185.703C13.0221 195.908 22.2054 210.109 27.6253 226.83C27.9808 227.933 28.3212 229.048 28.6452 230.165C32.7656 244.327 34.3389 260.174 39.6145 276.173C43.3 287.393 49.4029 297.438 55.8007 305.796C72.2085 327.238 92.6489 341.215 116.132 349.487C130.595 354.536 145.79 357.953 160.601 360.794C166.261 361.88 172.051 363.013 177.815 364.411C196.115 368.871 214.196 376.071 226.698 392.748C228.728 395.46 230.537 398.338 232.149 401.357C241.005 417.946 243.62 438.629 242.524 457.969C241.218 480.754 235.672 502.757 231.222 524.725C227.461 543.318 222.978 561.129 220.551 579.389C218.109 597.862 217.475 616.78 218.964 635.583C219.32 640.018 219.814 644.489 220.448 648.955C222.723 665 227.072 681.067 234.988 695.332C238.956 702.484 243.702 708.937 248.708 714.999C259.99 728.685 272.764 740.587 286.757 749.937C304.022 755.046 340.743 777.095 349.498 824.42C360.443 883.576 362.573 1037.49 241.249 1065.44C119.926 1093.39 83.0363 1116.11 -3.91716 1152.32C-90.8706 1188.54 -369.612 1115.49 -483.723 1325.91" stroke="#A0A0A0" stroke-miterlimit="10"/>
<path opacity="0.833333" d="M-522.392 299.986C-405.811 316.254 -396.707 249.053 -287.68 184.388C-200.458 132.655 -90.2152 157.093 -45.9967 175.779C-29.4753 171.934 -12.6742 178.276 0.181462 189.256C12.2704 199.564 21.3039 213.84 26.5654 230.599C26.9105 231.705 27.2404 232.822 27.554 233.941C31.5417 248.132 32.9769 263.984 38.1006 280.021C41.6797 291.267 47.6779 301.361 53.9843 309.772C70.1574 331.349 90.4124 345.501 113.748 353.98C128.12 359.156 143.236 362.707 157.974 365.68C163.606 366.816 169.367 368 175.1 369.449C193.301 374.072 211.262 381.43 223.581 398.209C225.582 400.938 227.361 403.83 228.942 406.863C237.63 423.521 240.063 444.215 238.808 463.534C237.315 486.294 231.603 508.234 226.984 530.149C223.079 548.697 218.461 566.458 215.89 584.685C213.301 603.125 212.51 622.026 213.836 640.832C214.154 645.267 214.609 649.74 215.203 654.209C217.337 670.265 221.535 686.361 229.305 700.689C233.201 707.872 237.877 714.364 242.815 720.468C253.944 734.247 266.576 746.257 280.444 755.727C297.609 760.988 334.022 783.355 342.351 830.73C352.763 889.949 353.594 1043.79 232.441 1070.63C111.288 1097.48 74.3308 1119.85 -12.6363 1155.26C-99.6034 1190.67 -376.802 1115.16 -492.297 1324.43" stroke="#A0A0A0" stroke-miterlimit="10"/>
<path opacity="0.875" d="M-522.247 298.838C-406.193 316.143 -396.555 249.063 -287.349 185.413C-199.984 134.493 -90.3167 159.906 -46.4036 178.977C-29.9053 175.283 -13.2139 181.771 -0.493649 192.86C11.468 203.271 20.3511 217.619 25.454 234.416C25.7886 235.524 26.108 236.644 26.4112 237.765C30.2662 251.983 31.5632 267.838 36.5348 283.912C40.0072 295.184 45.9005 305.326 52.115 313.788C68.0524 335.497 88.1204 349.823 111.306 358.506C125.587 363.808 140.622 367.493 155.285 370.596C160.889 371.782 166.621 373.017 172.322 374.517C190.424 379.3 208.262 386.815 220.399 403.694C222.37 406.44 224.119 409.346 225.669 412.391C234.188 429.117 236.439 449.822 235.025 469.118C233.346 491.851 227.468 513.727 222.68 535.588C218.633 554.09 213.881 571.799 211.165 589.992C208.43 608.398 207.483 627.281 208.646 646.087C208.926 650.523 209.341 654.997 209.895 659.469C211.887 675.534 215.936 691.659 223.56 706.048C227.382 713.262 231.987 719.792 236.857 725.937C247.834 739.808 260.322 751.924 274.063 761.513C291.127 766.925 327.229 789.605 335.132 837.027C345.011 896.305 344.546 1050.06 223.573 1075.8C102.6 1101.55 65.5786 1123.57 -21.3948 1158.18C-108.368 1192.8 -384.002 1114.84 -500.871 1322.96" stroke="#A0A0A0" stroke-miterlimit="10"/>
<path opacity="0.916667" d="M-522.109 297.765C-406.593 316.097 -396.421 249.143 -287.046 186.507C-199.546 136.398 -90.4625 162.777 -46.8582 182.23C-30.3843 178.686 -13.8039 185.32 -1.22002 196.516C10.6135 207.027 19.3457 221.447 24.2897 238.28C24.6139 239.39 24.9227 240.512 25.2154 241.635C28.9375 255.88 30.0963 271.737 34.9157 287.846C38.2813 299.143 44.0692 309.331 50.1913 317.844C65.8919 339.683 85.7715 354.18 108.806 363.065C122.994 368.492 137.947 372.309 152.535 375.542C158.11 376.778 163.812 378.063 169.481 379.613C187.482 384.555 205.197 392.225 217.151 409.203C219.092 411.965 220.81 414.885 222.329 417.942C230.678 434.735 232.747 455.447 231.175 474.72C229.31 497.425 223.268 519.236 218.311 541.04C214.122 559.496 209.236 577.152 206.376 595.31C203.494 613.681 202.391 632.544 203.392 651.35C203.633 655.786 204.009 660.261 204.524 664.736C206.374 680.809 210.273 696.961 217.75 711.41C221.498 718.654 226.033 725.221 230.835 731.406C241.657 745.367 254.002 757.588 267.615 767.294C284.576 772.855 320.365 795.845 327.841 843.31C337.187 902.642 335.426 1056.3 214.643 1080.95C93.8608 1105.6 56.7787 1127.28 -30.1937 1161.09C-117.166 1194.9 -391.214 1114.53 -509.444 1321.48" stroke="#A0A0A0" stroke-miterlimit="10"/>
<path opacity="0.958333" d="M-521.982 296.765C-407.011 316.118 -396.307 249.293 -286.773 187.669C-199.145 138.37 -90.6536 165.707 -47.3614 185.538C-30.9133 182.142 -14.4451 188.92 -1.99849 200.222C9.70607 210.833 18.2867 225.322 23.0716 242.189C23.3853 243.302 23.6836 244.426 23.9658 245.551C27.5548 259.821 28.5756 275.679 33.2424 291.822C36.5011 303.142 42.1831 313.376 48.2126 321.939C63.6753 343.905 83.365 358.571 106.246 367.657C120.34 373.207 135.21 377.156 149.722 380.517C155.267 381.801 160.939 383.137 166.577 384.736C184.474 389.836 202.064 397.66 213.834 414.735C215.745 417.513 217.433 420.446 218.921 423.515C227.1 440.373 228.986 461.092 227.257 480.339C225.206 503.014 219 524.758 213.875 546.506C209.544 564.913 204.526 582.516 201.521 600.638C198.494 618.973 197.235 637.815 198.073 656.619C198.277 661.055 198.614 665.531 199.089 670.007C200.796 686.088 204.546 702.265 211.875 716.772C215.549 724.045 220.013 730.65 224.746 736.873C235.414 750.923 247.613 763.247 261.099 773.069C277.955 778.778 313.429 802.074 320.478 849.579C329.29 908.96 326.236 1062.52 205.653 1086.07C85.0708 1109.63 47.9309 1130.96 -39.0333 1163.98C-125.997 1197 -398.438 1114.23 -518.019 1320" stroke="#A0A0A0" stroke-miterlimit="10"/>
<path d="M-521.862 295.821C-407.444 316.186 -396.209 249.493 -286.522 188.878C-198.772 140.386 -90.8787 168.673 -47.901 188.878C-31.4796 185.631 -15.1244 192.552 -2.81575 203.958C8.75928 214.668 17.188 229.225 21.8137 246.125C22.1168 247.24 22.4047 248.366 22.6763 249.493C26.1321 263.787 27.015 279.646 31.5291 295.821C34.6807 307.163 40.2568 317.443 46.1933 326.054C61.4174 348.146 80.9162 362.979 103.643 372.263C117.642 377.936 132.429 382.014 146.863 385.503C152.379 386.836 158.02 388.221 163.625 389.87C181.419 395.126 198.883 403.102 210.468 420.273C212.349 423.065 214.007 426.013 215.464 429.093C223.472 446.014 225.176 466.738 223.289 485.959C221.053 508.604 214.683 530.28 209.392 551.971C204.919 570.329 199.768 587.877 196.62 605.962C193.448 624.26 192.033 643.081 192.709 661.882C192.874 666.317 193.172 670.793 193.608 675.271C195.172 691.358 198.773 707.56 205.953 722.124C209.554 729.426 213.947 736.066 218.611 742.329C229.124 756.465 241.177 768.891 254.534 778.828C271.284 784.684 306.441 808.282 313.064 855.823C321.342 915.25 316.995 1068.69 196.62 1091.16C76.2452 1113.63 39.0496 1134.62 -47.9009 1166.85C-134.852 1199.08 -405.67 1113.93 -526.593 1318.52" stroke="url(#paint24_linear_606_2497)" stroke-miterlimit="10"/>
</g>
<defs>
<linearGradient id="paint0_linear_606_2497" x1="-258.241" y1="766.142" x2="168.895" y2="658.734" gradientUnits="userSpaceOnUse">
<stop stop-color="#E6E6E6"/>
<stop offset="1" stop-color="#E6E6E6" stop-opacity="0"/>
</linearGradient>
<linearGradient id="paint1_linear_606_2497" x1="-253.366" y1="766.685" x2="171.145" y2="654.894" gradientUnits="userSpaceOnUse">
<stop stop-color="#E6E6E6"/>
<stop offset="1" stop-color="#E6E6E6" stop-opacity="0"/>
</linearGradient>
<linearGradient id="paint2_linear_606_2497" x1="-248.52" y1="767.146" x2="173.364" y2="651.027" gradientUnits="userSpaceOnUse">
<stop stop-color="#E6E6E6"/>
<stop offset="1" stop-color="#E6E6E6" stop-opacity="0"/>
</linearGradient>
<linearGradient id="paint3_linear_606_2497" x1="-243.703" y1="767.523" x2="175.553" y2="647.132" gradientUnits="userSpaceOnUse">
<stop stop-color="#E6E6E6"/>
<stop offset="1" stop-color="#E6E6E6" stop-opacity="0"/>
</linearGradient>
<linearGradient id="paint4_linear_606_2497" x1="-238.915" y1="767.818" x2="177.712" y2="643.206" gradientUnits="userSpaceOnUse">
<stop stop-color="#E6E6E6"/>
<stop offset="1" stop-color="#E6E6E6" stop-opacity="0"/>
</linearGradient>
<linearGradient id="paint5_linear_606_2497" x1="-234.159" y1="768.029" x2="179.839" y2="639.248" gradientUnits="userSpaceOnUse">
<stop stop-color="#E6E6E6"/>
<stop offset="1" stop-color="#E6E6E6" stop-opacity="0"/>
</linearGradient>
<linearGradient id="paint6_linear_606_2497" x1="-229.435" y1="768.159" x2="181.934" y2="635.257" gradientUnits="userSpaceOnUse">
<stop stop-color="#E6E6E6"/>
<stop offset="1" stop-color="#E6E6E6" stop-opacity="0"/>
</linearGradient>
<linearGradient id="paint7_linear_606_2497" x1="-224.743" y1="768.206" x2="183.998" y2="631.229" gradientUnits="userSpaceOnUse">
<stop stop-color="#E6E6E6"/>
<stop offset="1" stop-color="#E6E6E6" stop-opacity="0"/>
</linearGradient>
<linearGradient id="paint8_linear_606_2497" x1="-220.084" y1="768.172" x2="186.03" y2="627.166" gradientUnits="userSpaceOnUse">
<stop stop-color="#E6E6E6"/>
<stop offset="1" stop-color="#E6E6E6" stop-opacity="0"/>
</linearGradient>
<linearGradient id="paint9_linear_606_2497" x1="-215.462" y1="768.056" x2="188.027" y2="623.064" gradientUnits="userSpaceOnUse">
<stop stop-color="#E6E6E6"/>
<stop offset="1" stop-color="#E6E6E6" stop-opacity="0"/>
</linearGradient>
<linearGradient id="paint10_linear_606_2497" x1="-210.874" y1="767.859" x2="189.993" y2="618.921" gradientUnits="userSpaceOnUse">
<stop stop-color="#E6E6E6"/>
<stop offset="1" stop-color="#E6E6E6" stop-opacity="0"/>
</linearGradient>
<linearGradient id="paint11_linear_606_2497" x1="-206.322" y1="767.582" x2="191.922" y2="614.738" gradientUnits="userSpaceOnUse">
<stop stop-color="#E6E6E6"/>
<stop offset="1" stop-color="#E6E6E6" stop-opacity="0"/>
</linearGradient>
<linearGradient id="paint12_linear_606_2497" x1="-201.808" y1="767.224" x2="193.818" y2="610.513" gradientUnits="userSpaceOnUse">
<stop stop-color="#E6E6E6"/>
<stop offset="1" stop-color="#E6E6E6" stop-opacity="0"/>
</linearGradient>
<linearGradient id="paint13_linear_606_2497" x1="-197.331" y1="766.785" x2="195.678" y2="606.243" gradientUnits="userSpaceOnUse">
<stop stop-color="#E6E6E6"/>
<stop offset="1" stop-color="#E6E6E6" stop-opacity="0"/>
</linearGradient>
<linearGradient id="paint14_linear_606_2497" x1="-192.894" y1="766.268" x2="197.5" y2="601.928" gradientUnits="userSpaceOnUse">
<stop stop-color="#E6E6E6"/>
<stop offset="1" stop-color="#E6E6E6" stop-opacity="0"/>
</linearGradient>
<linearGradient id="paint15_linear_606_2497" x1="-188.496" y1="765.671" x2="199.285" y2="597.566" gradientUnits="userSpaceOnUse">
<stop stop-color="#E6E6E6"/>
<stop offset="1" stop-color="#E6E6E6" stop-opacity="0"/>
</linearGradient>
<linearGradient id="paint16_linear_606_2497" x1="-184.139" y1="764.995" x2="201.032" y2="593.157" gradientUnits="userSpaceOnUse">
<stop stop-color="#E6E6E6"/>
<stop offset="1" stop-color="#E6E6E6" stop-opacity="0"/>
</linearGradient>
<linearGradient id="paint17_linear_606_2497" x1="-179.824" y1="764.241" x2="202.739" y2="588.699" gradientUnits="userSpaceOnUse">
<stop stop-color="#E6E6E6"/>
<stop offset="1" stop-color="#E6E6E6" stop-opacity="0"/>
</linearGradient>
<linearGradient id="paint18_linear_606_2497" x1="-175.551" y1="763.409" x2="204.406" y2="584.191" gradientUnits="userSpaceOnUse">
<stop stop-color="#E6E6E6"/>
<stop offset="1" stop-color="#E6E6E6" stop-opacity="0"/>
</linearGradient>
<linearGradient id="paint19_linear_606_2497" x1="-171.32" y1="762.499" x2="206.031" y2="579.631" gradientUnits="userSpaceOnUse">
<stop stop-color="#E6E6E6"/>
<stop offset="1" stop-color="#E6E6E6" stop-opacity="0"/>
</linearGradient>
<linearGradient id="paint20_linear_606_2497" x1="-167.133" y1="761.512" x2="207.615" y2="575.02" gradientUnits="userSpaceOnUse">
<stop stop-color="#E6E6E6"/>
<stop offset="1" stop-color="#E6E6E6" stop-opacity="0"/>
</linearGradient>
<linearGradient id="paint21_linear_606_2497" x1="-162.991" y1="760.448" x2="209.154" y2="570.356" gradientUnits="userSpaceOnUse">
<stop stop-color="#E6E6E6"/>
<stop offset="1" stop-color="#E6E6E6" stop-opacity="0"/>
</linearGradient>
<linearGradient id="paint22_linear_606_2497" x1="-158.895" y1="759.309" x2="210.647" y2="565.638" gradientUnits="userSpaceOnUse">
<stop stop-color="#E6E6E6"/>
<stop offset="1" stop-color="#E6E6E6" stop-opacity="0"/>
</linearGradient>
<linearGradient id="paint23_linear_606_2497" x1="-154.842" y1="758.101" x2="212.106" y2="560.867" gradientUnits="userSpaceOnUse">
<stop stop-color="#E6E6E6"/>
<stop offset="1" stop-color="#E6E6E6" stop-opacity="0"/>
</linearGradient>
<linearGradient id="paint24_linear_606_2497" x1="13.5" y1="222" x2="308.094" y2="695.561" gradientUnits="userSpaceOnUse">
<stop stop-color="#ACACAC"/>
<stop offset="1" stop-color="#A0A0A0" stop-opacity="0"/>
</linearGradient>
</defs>
</svg>
