<svg width="360" height="611" viewBox="0 0 360 611" fill="none" xmlns="http://www.w3.org/2000/svg">
<g opacity="0.25">
<path d="M42.4468 405.297C41.7432 420.069 42.66 434.907 45.2187 449.527C50.3361 478.855 62.0633 507.268 80.4645 532.201C83.407 536.182 86.4987 540.077 89.7823 543.862C108.823 565.879 131.617 582.458 156.287 593.51C181.319 604.714 208.313 610.24 235.286 609.957C266.971 609.631 298.656 601.32 327.206 584.851C339.381 577.845 350.959 569.339 361.748 559.374C373.071 548.888 382.9 537.335 391.173 524.999C406.142 502.699 426.334 485.012 449.511 472.545C461.153 466.28 473.563 461.319 486.42 457.773C503.03 453.182 518.937 445.154 533.116 433.645C536.805 430.665 540.365 427.423 543.777 423.964C550.963 416.697 557.146 408.735 562.306 400.293C574.183 380.865 580.707 358.804 581.773 336.504C583.138 307.786 575.483 278.633 558.553 254.026C556.4 250.893 554.097 247.826 551.624 244.845C531.538 220.544 504.906 205.532 476.761 200.071C475.61 199.853 474.48 199.636 473.328 199.462C447.144 195.111 421.92 185.451 400.214 169.895C397.229 167.763 394.158 165.783 391.045 163.956C377.399 155.993 362.559 151.076 347.462 149.075C327.505 146.442 307.078 148.9 288.272 156.211C276.161 160.932 264.732 167.654 254.54 176.313C251.555 178.859 248.676 181.556 245.926 184.407C228.655 202.355 207.844 216.497 184.859 225.417C181.852 226.57 178.824 227.658 175.754 228.637C149.037 237.187 123.727 251.916 101.915 272.889C87.5009 286.748 75.6883 302.412 66.4557 319.251C51.8713 345.881 43.8114 375.448 42.3829 405.319L42.4468 405.297Z" stroke="white" stroke-width="0.25"/>
<path d="M39.6963 391.025C38.9926 405.536 39.9095 420.135 42.4042 434.494C47.4363 463.321 58.9503 491.234 77.0529 515.732C79.9315 519.648 83.0019 523.455 86.2215 527.197C104.921 548.844 127.31 565.14 151.553 575.974C176.159 586.983 202.663 592.4 229.188 592.139C260.318 591.813 291.449 583.632 319.509 567.468C331.471 560.571 342.857 552.238 353.454 542.426C364.584 532.114 374.222 520.757 382.367 508.639C397.08 486.709 416.931 469.347 439.682 457.099C451.132 450.942 463.307 446.068 475.951 442.587C492.262 438.084 507.913 430.186 521.836 418.873C525.461 415.936 528.958 412.759 532.306 409.366C539.363 402.229 545.44 394.419 550.515 386.108C562.199 367.028 568.596 345.359 569.641 323.429C570.984 295.211 563.458 266.558 546.826 242.387C544.715 239.297 542.434 236.295 540.024 233.38C520.301 209.491 494.139 194.763 466.462 189.389C465.332 189.171 464.223 188.975 463.093 188.78C437.357 184.515 412.581 175.03 391.259 159.735C388.316 157.625 385.31 155.688 382.261 153.904C368.849 146.072 354.286 141.242 339.445 139.284C319.85 136.695 299.765 139.11 281.299 146.312C269.402 150.946 258.165 157.538 248.165 166.066C245.243 168.546 242.407 171.201 239.7 174.029C222.727 191.673 202.279 205.554 179.699 214.321C176.756 215.474 173.771 216.519 170.765 217.476C144.517 225.896 119.655 240.342 98.226 260.967C84.068 274.586 72.4473 289.989 63.3853 306.524C49.0568 332.697 41.1248 361.741 39.7176 391.09L39.6963 391.025Z" stroke="white" stroke-width="0.25"/>
<path d="M36.9456 376.731C36.2633 390.981 37.1589 405.319 39.6109 419.417C44.5577 447.722 55.8585 475.134 73.6413 499.218C76.4772 503.047 79.4836 506.811 82.6393 510.466C101.019 531.722 123.002 547.735 146.82 558.395C170.978 569.208 197.034 574.538 223.068 574.255C253.644 573.929 284.242 565.901 311.79 550.019C323.539 543.253 334.733 535.051 345.138 525.413C356.077 515.296 365.544 504.135 373.54 492.235C387.996 470.696 407.485 453.639 429.831 441.608C441.067 435.56 453.051 430.773 465.46 427.358C481.495 422.941 496.847 415.196 510.535 404.057C514.096 401.163 517.529 398.052 520.834 394.724C527.764 387.718 533.734 380.038 538.724 371.88C550.195 353.126 556.485 331.848 557.509 310.31C558.831 282.592 551.432 254.44 535.099 230.704C533.009 227.68 530.792 224.721 528.425 221.849C509.043 198.396 483.35 183.906 456.164 178.641C455.055 178.424 453.967 178.228 452.859 178.054C427.592 173.855 403.242 164.543 382.303 149.531C379.425 147.465 376.461 145.55 373.454 143.788C360.277 136.108 345.97 131.343 331.385 129.407C312.131 126.861 292.408 129.233 274.263 136.304C262.578 140.851 251.555 147.334 241.704 155.71C238.825 158.147 236.053 160.758 233.388 163.521C216.714 180.86 196.628 194.48 174.453 203.095C171.553 204.226 168.632 205.249 165.668 206.206C139.89 214.474 115.454 228.659 94.4093 248.914C80.5071 262.294 69.0997 277.414 60.187 293.666C46.1142 319.382 38.3316 347.904 36.9456 376.731Z" stroke="white" stroke-width="0.25"/>
<path d="M34.1951 362.437C33.5341 376.427 34.387 390.503 36.8177 404.361C41.6792 432.166 52.7668 459.078 70.2298 482.727C73.023 486.491 75.9655 490.19 79.0573 493.779C97.0959 514.644 118.695 530.373 142.086 540.838C165.818 551.455 191.383 556.698 216.97 556.415C246.992 556.111 277.035 548.213 304.093 532.614C315.628 525.978 326.609 517.929 336.844 508.465C347.59 498.522 356.887 487.579 364.734 475.874C378.934 454.727 398.06 437.975 420.022 426.161C431.067 420.222 442.816 415.522 455.012 412.172C470.748 407.821 485.844 400.228 499.277 389.306C502.774 386.478 506.143 383.41 509.384 380.125C516.186 373.25 522.05 365.701 526.954 357.695C538.212 339.289 544.395 318.381 545.419 297.234C546.72 270.017 539.449 242.387 523.414 219.064C521.367 216.084 519.192 213.19 516.847 210.383C497.828 187.344 472.582 173.137 445.886 167.937C444.799 167.72 443.711 167.524 442.624 167.35C417.805 163.238 393.903 154.078 373.348 139.328C370.512 137.304 367.612 135.433 364.67 133.693C351.748 126.143 337.676 121.488 323.368 119.573C304.455 117.071 285.095 119.399 267.269 126.339C255.798 130.799 244.966 137.174 235.307 145.398C232.471 147.791 229.763 150.358 227.141 153.078C210.765 170.091 191.042 183.493 169.272 191.934C166.436 193.044 163.558 194.066 160.636 194.98C135.327 203.095 111.339 217.041 90.6566 236.926C77.0103 250.067 65.7948 264.904 57.0526 280.873C43.2358 306.111 35.5811 334.133 34.2377 362.437H34.1951Z" stroke="white" stroke-width="0.25"/>
<path d="M31.4445 348.165C30.7835 361.893 31.6364 375.709 34.0245 389.306C38.8007 416.588 49.6964 443.022 66.8182 466.214C69.5475 469.913 72.4473 473.524 75.4964 477.071C93.2152 497.565 114.41 512.99 137.352 523.259C160.636 533.68 185.754 538.815 210.85 538.554C240.318 538.249 269.807 530.504 296.374 515.188C307.696 508.661 318.485 500.763 328.507 491.473C339.04 481.726 348.187 470.957 355.885 459.492C369.808 438.736 388.593 422.289 410.15 410.693C420.982 404.862 432.517 400.25 444.5 396.943C459.938 392.678 474.757 385.216 487.955 374.49C491.367 371.705 494.693 368.703 497.87 365.483C504.565 358.717 510.301 351.32 515.12 343.466C526.165 325.387 532.242 304.871 533.244 284.115C534.523 257.399 527.38 230.269 511.644 207.381C509.64 204.466 507.486 201.616 505.205 198.853C486.527 176.248 461.75 162.281 435.545 157.19C434.479 156.994 433.413 156.798 432.347 156.624C407.997 152.577 384.521 143.592 364.328 129.124C361.557 127.123 358.699 125.295 355.8 123.598C343.113 116.201 329.317 111.61 315.266 109.739C296.694 107.281 277.696 109.565 260.212 116.375C248.953 120.748 238.314 127.014 228.825 135.085C226.053 137.435 223.367 139.959 220.808 142.613C204.731 159.322 185.37 172.462 164.005 180.752C161.212 181.839 158.398 182.84 155.54 183.754C130.679 191.717 107.139 205.401 86.8612 224.917C73.4708 237.818 62.4685 252.395 53.8756 268.059C40.3146 292.839 32.8091 320.339 31.4658 348.122L31.4445 348.165Z" stroke="white" stroke-width="0.25"/>
<path d="M28.6939 333.871C28.0542 347.36 28.8858 360.914 31.2099 374.251C35.8795 401.033 46.5833 426.966 63.3853 449.723C66.0719 453.356 68.9078 456.903 71.8929 460.362C89.2706 480.465 110.081 495.607 132.598 505.68C155.455 515.905 180.082 520.953 204.71 520.692C233.623 520.387 262.557 512.794 288.634 497.783C299.743 491.386 310.319 483.619 320.17 474.525C330.511 464.952 339.467 454.401 347.036 443.131C360.704 422.767 379.147 406.624 400.278 395.246C410.918 389.524 422.24 384.998 433.988 381.757C449.149 377.58 463.669 370.248 476.612 359.718C479.959 356.998 483.222 354.039 486.356 350.885C492.923 344.249 498.552 336.983 503.286 329.281C514.139 311.55 520.088 291.425 521.069 271.04C522.327 244.823 515.312 218.194 499.874 195.742C497.913 192.87 495.802 190.085 493.563 187.365C475.247 165.174 450.918 151.489 425.225 146.486C424.18 146.29 423.135 146.094 422.091 145.92C398.188 141.96 375.16 133.127 355.352 118.942C352.622 116.984 349.829 115.178 346.993 113.525C334.541 106.258 321.001 101.755 307.206 99.9273C288.997 97.5124 270.34 99.775 253.175 106.454C242.13 110.762 231.682 116.897 222.386 124.795C219.657 127.101 217.034 129.581 214.518 132.192C198.761 148.574 179.741 161.476 158.781 169.612C156.052 170.678 153.28 171.657 150.466 172.549C126.073 180.36 102.981 193.805 83.0658 212.951C69.9099 225.591 59.1208 239.907 50.6985 255.288C37.3721 279.612 30.0159 306.589 28.7152 333.85L28.6939 333.871Z" stroke="white" stroke-width="0.25"/>
<path d="M25.9434 319.578C25.3037 332.805 26.1353 346.098 28.4168 359.174C33.0011 385.434 43.4916 410.867 59.9738 433.21C62.5964 436.778 65.3896 440.259 68.3108 443.653C85.3687 463.364 105.753 478.224 127.864 488.123C150.274 498.152 174.453 503.091 198.611 502.852C226.991 502.547 255.35 495.107 280.937 480.378C291.833 474.09 302.217 466.497 311.876 457.555C322.025 448.157 330.81 437.822 338.23 426.77C351.642 406.798 369.723 390.96 390.47 379.799C400.896 374.186 412.005 369.747 423.519 366.571C438.381 362.459 452.646 355.28 465.332 344.967C468.616 342.291 471.814 339.397 474.885 336.308C481.324 329.803 486.847 322.689 491.473 315.118C502.113 297.713 507.956 277.98 508.915 257.986C510.152 232.27 503.265 206.163 488.126 184.124C486.186 181.317 484.139 178.576 481.921 175.922C463.946 154.165 440.087 140.72 414.884 135.825C413.86 135.629 412.837 135.433 411.813 135.281C388.359 131.387 365.778 122.749 346.354 108.804C343.689 106.889 340.938 105.105 338.145 103.474C325.927 96.3375 312.643 91.9428 299.125 90.137C281.257 87.7656 262.962 89.9847 246.118 96.5333C235.286 100.754 225.051 106.78 215.904 114.526C213.239 116.788 210.659 119.225 208.185 121.771C192.727 137.848 174.091 150.489 153.493 158.473C150.807 159.517 148.099 160.475 145.348 161.367C121.425 169.025 98.7591 182.209 79.2278 201.006C66.3278 213.407 55.7306 227.44 47.4789 242.517C34.4083 266.362 27.2014 292.839 25.922 319.578H25.9434Z" stroke="white" stroke-width="0.25"/>
<path d="M23.1927 305.306C22.5744 318.272 23.3846 331.304 25.6235 344.14C30.1225 369.9 40.3998 394.832 56.5835 416.741C59.1635 420.243 61.8927 423.659 64.7712 426.988C81.4879 446.329 101.488 460.884 123.152 470.587C145.135 480.421 168.824 485.273 192.513 485.033C220.339 484.75 248.164 477.44 273.218 462.994C283.901 456.837 294.071 449.375 303.56 440.629C313.517 431.426 322.132 421.266 329.403 410.431C342.558 390.851 360.277 375.317 380.619 364.374C390.853 358.869 401.728 354.518 413.029 351.407C427.613 347.382 441.579 340.333 454.031 330.216C457.251 327.584 460.385 324.756 463.392 321.71C469.703 315.335 475.141 308.351 479.661 300.933C490.087 283.876 495.823 264.513 496.761 244.91C497.955 219.695 491.239 194.088 476.377 172.506C474.48 169.765 472.454 167.067 470.3 164.456C452.667 143.113 429.298 129.951 404.564 125.143C403.562 124.947 402.559 124.773 401.557 124.599C378.572 120.791 356.418 112.307 337.377 98.6437C334.754 96.7727 332.068 95.0322 329.339 93.4222C317.355 86.4385 304.327 82.109 291.065 80.3467C273.538 78.0188 255.606 80.1945 239.102 86.6125C228.484 90.7462 218.441 96.6421 209.486 104.257C206.863 106.476 204.347 108.847 201.916 111.371C186.756 127.144 168.483 139.545 148.291 147.378C145.668 148.4 143.003 149.336 140.295 150.206C116.84 157.712 94.6225 170.635 75.4751 189.062C62.8309 201.224 52.447 214.996 44.3445 229.768C31.5298 253.156 24.4508 279.089 23.1927 305.327V305.306Z" stroke="white" stroke-width="0.25"/>
<path d="M20.4422 291.012C19.8452 303.717 20.6341 316.488 22.8303 329.085C27.244 354.322 37.3295 378.776 53.1719 400.228C55.7093 403.643 58.3746 406.994 61.1891 410.257C77.5647 429.207 97.1812 443.479 118.418 452.986C139.975 462.624 163.195 467.389 186.415 467.128C213.686 466.845 240.958 459.687 265.521 445.524C275.99 439.498 285.969 432.188 295.244 423.594C304.988 414.565 313.432 404.622 320.575 394.005C333.454 374.817 350.831 359.587 370.768 348.861C380.789 343.466 391.472 339.202 402.538 336.156C416.824 332.218 430.534 325.3 442.731 315.379C445.886 312.811 448.957 310.027 451.899 307.046C458.083 300.802 463.413 293.949 467.848 286.682C478.083 269.952 483.691 250.98 484.608 231.77C485.78 207.055 479.192 181.97 464.629 160.801C462.774 158.103 460.791 155.471 458.68 152.904C441.409 131.996 418.487 119.073 394.244 114.373C393.263 114.178 392.282 114.004 391.301 113.851C368.764 110.109 347.057 101.798 328.379 88.4183C325.799 86.569 323.176 84.872 320.49 83.3056C308.741 76.4524 295.99 72.2099 282.984 70.4912C265.819 68.2286 248.228 70.3389 232.045 76.6265C221.618 80.6731 211.789 86.4602 203.025 93.9226C200.466 96.0982 197.993 98.4261 195.605 100.885C180.743 116.331 162.833 128.493 143.046 136.173C140.466 137.174 137.843 138.109 135.22 138.936C112.235 146.311 90.4433 158.974 71.6797 177.031C59.2914 188.954 49.0994 202.442 41.1675 216.932C28.6086 239.863 21.6789 265.274 20.4422 290.99V291.012Z" stroke="white" stroke-width="0.25"/>
<path d="M17.6703 276.718C17.0733 289.163 17.8409 301.694 19.9944 314.008C24.3228 338.745 34.1951 362.698 49.7177 383.715C52.1911 387.065 54.8138 390.35 57.5857 393.549C73.6414 412.107 92.8528 426.096 113.663 435.408C134.772 444.85 157.523 449.506 180.274 449.266C206.991 448.983 233.708 441.978 257.781 428.097C268.037 422.18 277.824 415.022 286.907 406.602C296.46 397.769 304.733 388.023 311.726 377.623C324.349 358.804 341.386 343.901 360.917 333.393C370.747 328.106 381.194 323.929 392.047 320.948C406.056 317.076 419.468 310.31 431.43 300.606C434.522 298.083 437.528 295.363 440.428 292.448C446.483 286.312 451.707 279.612 456.057 272.497C466.079 256.115 471.58 237.535 472.475 218.716C473.627 194.501 467.166 169.917 452.901 149.183C451.089 146.551 449.127 143.962 447.059 141.46C430.129 120.966 407.677 108.325 383.924 103.713C382.964 103.517 382.005 103.343 381.024 103.191C358.955 99.5357 337.676 91.3771 319.381 78.2582C316.865 76.4524 314.285 74.7771 311.662 73.2542C300.148 66.5315 287.653 62.3979 274.924 60.7009C258.101 58.4818 240.872 60.5486 225.03 66.7273C214.816 70.7087 205.179 76.3654 196.586 83.6754C194.07 85.8075 191.639 88.0919 189.315 90.5068C174.752 105.649 157.204 117.55 137.822 125.077C135.284 126.056 132.725 126.97 130.145 127.797C107.629 135.02 86.2855 147.421 67.8843 165.109C55.7306 176.792 45.7731 190.02 37.9905 204.205C25.6875 226.657 18.8857 251.568 17.6916 276.761L17.6703 276.718Z" stroke="white" stroke-width="0.25"/>
<path d="M14.9197 262.446C14.344 274.629 15.0903 286.9 17.2012 298.975C21.423 323.189 31.1033 346.642 46.3062 367.245C48.7369 370.531 51.2956 373.75 54.0035 376.883C69.7181 395.072 88.5457 408.756 108.908 417.872C129.591 427.118 151.852 431.687 174.155 431.448C200.317 431.165 226.48 424.312 250.062 410.714C260.105 404.927 269.679 397.922 278.591 389.676C287.952 381.017 296.054 371.466 302.899 361.284C315.266 342.857 331.94 328.258 351.066 317.968C360.682 312.79 370.917 308.7 381.557 305.762C395.267 301.977 408.402 295.341 420.129 285.834C423.157 283.375 426.099 280.699 428.935 277.849C434.863 271.845 439.98 265.274 444.244 258.312C454.053 242.278 459.447 224.068 460.321 205.641C461.452 181.926 455.119 157.842 441.153 137.544C439.362 134.955 437.464 132.431 435.438 129.973C418.871 109.913 396.866 97.5124 373.625 93.0088C372.687 92.8348 371.727 92.6607 370.789 92.5084C349.168 88.9187 328.358 80.9341 310.426 68.098C307.952 66.3357 305.436 64.704 302.856 63.1811C291.598 56.6107 279.338 52.5423 266.864 50.8888C250.382 48.7132 233.516 50.7365 217.993 56.7848C207.993 60.6791 198.569 66.2269 190.146 73.3847C187.694 75.4733 185.306 77.7142 183.025 80.0639C168.76 94.9016 151.574 106.563 132.598 113.916C130.124 114.874 127.608 115.766 125.071 116.571C103.002 123.642 82.1063 135.781 64.1103 153.121C52.2124 164.565 42.4468 177.51 34.8347 191.412C22.7876 213.407 16.1351 237.796 14.941 262.468L14.9197 262.446Z" stroke="white" stroke-width="0.25"/>
<path d="M12.1691 248.152C11.5934 260.096 12.3397 272.084 14.408 283.898C18.5445 307.612 28.0116 330.565 42.8946 350.732C45.2613 353.952 47.7774 357.085 50.4213 360.153C65.8161 377.949 84.2385 391.351 104.175 400.293C124.41 409.365 146.223 413.804 168.035 413.586C193.643 413.325 219.251 406.602 242.343 393.288C252.173 387.609 261.555 380.756 270.276 372.684C279.444 364.2 287.376 354.866 294.05 344.902C306.161 326.866 322.473 312.572 341.194 302.499C350.618 297.43 360.64 293.427 371.045 290.555C384.457 286.856 397.335 280.351 408.785 271.04C411.749 268.625 414.628 266.014 417.4 263.207C423.199 257.333 428.21 250.915 432.389 244.084C442.006 228.376 447.272 210.557 448.125 192.522C449.234 169.308 443.029 145.746 429.362 125.861C427.613 123.337 425.758 120.857 423.775 118.442C407.549 98.796 386.013 86.6778 363.262 82.2395C362.345 82.0655 361.407 81.8914 360.49 81.7391C339.317 78.2146 318.955 70.4259 301.406 57.8508C298.997 56.1104 296.524 54.5221 294.007 53.0427C282.984 46.6029 271.001 42.6215 258.783 41.0115C242.663 38.8794 226.139 40.8593 210.936 46.777C201.149 50.5843 191.916 56.0233 183.664 63.0288C181.255 65.0739 178.931 67.2712 176.692 69.5774C162.726 84.0888 145.903 95.5108 127.331 102.712C124.9 103.648 122.448 104.518 119.975 105.323C98.3752 112.241 77.9271 124.142 60.2936 141.09C48.6516 152.294 39.0992 164.956 31.6364 178.576C19.8451 200.114 13.3205 223.981 12.1691 248.13V248.152Z" stroke="white" stroke-width="0.25"/>
<path d="M9.41854 233.858C8.86416 245.541 9.58912 257.29 11.6147 268.842C15.666 292.034 24.9199 314.508 39.5043 334.241C41.8285 337.396 44.2805 340.464 46.8818 343.466C61.9354 360.893 79.9528 373.99 99.484 382.736C119.292 391.612 140.615 395.964 161.958 395.746C187.012 395.485 212.087 388.915 234.667 375.883C244.284 370.335 253.452 363.612 261.981 355.736C270.937 347.447 278.698 338.31 285.244 328.541C297.078 310.897 313.048 296.908 331.385 287.052C340.597 282.092 350.405 278.176 360.576 275.369C373.71 271.736 386.29 265.405 397.506 256.289C400.406 253.918 403.242 251.372 405.95 248.631C411.643 242.887 416.526 236.6 420.619 229.92C430.023 214.561 435.183 197.112 436.014 179.468C437.102 156.754 431.025 133.693 417.656 114.243C415.95 111.763 414.116 109.348 412.176 106.998C396.291 87.7656 375.224 75.9085 352.964 71.579C352.068 71.405 351.151 71.2309 350.256 71.1004C329.552 67.6629 309.615 60.0265 292.43 47.7125C290.063 46.0155 287.653 44.4491 285.18 43.0131C274.391 36.7256 262.664 32.8095 250.723 31.2431C234.945 29.1545 218.782 31.1125 203.921 36.8997C194.347 40.62 185.306 45.9502 177.246 52.8034C174.88 54.805 172.62 56.9371 170.423 59.2215C156.756 73.4283 140.295 84.5892 122.128 91.6382C119.762 92.552 117.352 93.4004 114.921 94.1837C93.7909 100.95 73.7693 112.589 56.5195 129.189C45.1334 140.154 35.7729 152.556 28.4807 165.87C16.9453 186.93 10.5699 210.296 9.43987 233.924L9.41854 233.858Z" stroke="white" stroke-width="0.25"/>
<path d="M6.66798 219.586C6.1136 231.008 6.83855 242.496 8.80021 253.787C12.7662 276.479 21.8281 298.452 36.0714 317.728C38.3529 320.796 40.741 323.82 43.2784 326.735C58.0121 343.771 75.6243 356.585 94.7078 365.135C114.068 373.816 134.943 378.08 155.818 377.862C180.317 377.601 204.838 371.183 226.927 358.434C236.331 353.017 245.307 346.447 253.644 338.723C262.408 330.608 269.999 321.666 276.395 312.137C287.973 294.884 303.602 281.2 321.513 271.562C330.533 266.71 340.106 262.881 350.064 260.14C362.9 256.593 375.224 250.393 386.184 241.473C389.02 239.167 391.792 236.665 394.436 233.989C400.001 228.376 404.777 222.219 408.764 215.692C417.954 200.658 423.007 183.602 423.818 166.349C424.884 144.136 418.956 121.575 405.864 102.56C404.201 100.145 402.41 97.7734 400.512 95.4672C384.99 76.6699 364.392 65.0739 342.601 60.8314C341.727 60.6574 340.831 60.5051 339.957 60.3528C319.701 56.9806 300.212 49.5182 283.41 37.487C281.107 35.8336 278.741 34.3107 276.331 32.8965C265.777 26.7395 254.305 22.9322 242.621 21.3875C227.183 19.3424 211.383 21.2569 196.842 26.9136C187.481 30.5468 178.632 35.7465 170.743 42.4692C168.44 44.4273 166.223 46.5159 164.091 48.735C150.722 62.6154 134.645 73.537 116.862 80.4555C114.538 81.3475 112.192 82.196 109.825 82.9574C89.164 89.5713 69.5901 100.95 52.7242 117.18C41.5726 127.906 32.4253 140.024 25.3037 153.034C14.0242 173.637 7.77674 196.481 6.66798 219.608V219.586Z" stroke="white" stroke-width="0.25"/>
<path d="M3.91739 205.292C3.38434 216.453 4.06665 227.68 6.00698 238.732C9.88764 260.901 18.7364 282.375 32.6599 301.237C34.8774 304.24 37.2228 307.177 39.7176 310.048C54.1101 326.692 71.3385 339.223 89.9956 347.578C108.93 356.063 129.314 360.218 149.719 360.001C173.664 359.761 197.631 353.474 219.209 341.029C228.399 335.721 237.184 329.303 245.329 321.753C253.9 313.834 261.32 305.088 267.568 295.755C278.89 278.894 294.157 265.514 311.662 256.093C320.468 251.35 329.85 247.608 339.573 244.932C352.132 241.473 364.158 235.403 374.883 226.679C377.655 224.416 380.363 221.979 382.943 219.369C388.38 213.886 393.05 207.86 396.952 201.485C405.928 186.8 410.875 170.135 411.664 153.252C412.709 131.539 406.909 109.5 394.116 90.8985C392.495 88.5271 390.747 86.2209 388.892 83.9583C373.71 65.5743 353.582 54.2394 332.281 50.1057C331.428 49.9316 330.554 49.7793 329.68 49.6488C309.893 46.3636 290.83 39.0535 274.412 27.3052C272.152 25.6952 269.849 24.1941 267.483 22.8234C257.163 16.797 245.947 13.0766 234.54 11.5755C219.465 9.57389 204.006 11.4449 189.784 16.971C180.637 20.539 172.001 25.6082 164.283 32.1568C162.022 34.0714 159.847 36.1164 157.779 38.292C144.73 51.8679 128.994 62.5502 111.616 69.2946C109.356 70.1648 107.053 70.9916 104.729 71.7313C84.5371 78.1929 65.3896 89.332 48.9075 105.192C38.0118 115.679 29.0777 127.514 22.1053 140.242C11.0817 160.388 4.98351 182.71 3.89607 205.314L3.91739 205.292Z" stroke="white" stroke-width="0.25"/>
<path d="M1.16682 190.999C0.655083 201.898 1.31608 212.864 3.21376 223.676C6.98781 245.346 15.6447 266.318 29.2483 284.746C31.4232 287.683 33.7047 290.555 36.1354 293.361C50.2081 309.635 67.0315 321.884 85.2407 330.042C103.727 338.331 123.664 342.4 143.6 342.182C166.99 341.943 190.402 335.786 211.49 323.646C220.467 318.468 229.038 312.202 237.013 304.827C245.393 297.082 252.621 288.553 258.74 279.437C269.807 262.968 284.711 249.893 301.833 240.69C310.447 236.056 319.594 232.401 329.104 229.79C341.364 226.396 353.134 220.478 363.604 211.972C366.311 209.752 368.955 207.381 371.471 204.814C376.781 199.44 381.344 193.566 385.16 187.322C393.945 172.963 398.764 156.689 399.553 140.198C400.555 118.986 394.905 97.4471 382.41 79.2807C380.811 76.9745 379.105 74.7118 377.292 72.5145C362.473 54.5656 342.793 43.4917 322.004 39.445C321.151 39.271 320.319 39.1187 319.466 38.9882C300.127 35.7683 281.513 28.654 265.478 17.145C263.282 15.5568 261.022 14.0991 258.698 12.7502C248.612 6.87608 237.674 3.22107 226.501 1.7634C211.767 -0.194653 196.671 1.63283 182.79 7.02836C173.856 10.5093 165.413 15.4698 157.886 21.8661C155.69 23.7371 153.557 25.7387 151.532 27.849C138.781 41.1203 123.408 51.5415 106.435 58.1337C104.218 59.0039 101.979 59.7871 99.7186 60.5051C79.9954 66.8361 61.2957 77.6924 45.1974 93.1828C34.5576 103.408 25.8154 115.004 19.0136 127.427C8.24583 147.095 2.27558 168.916 1.23079 190.999H1.16682Z" stroke="white" stroke-width="0.25"/>
</g>
</svg>
